<svg width="46" height="48" viewBox="0 0 46 48" fill="none" xmlns="http://www.w3.org/2000/svg" xmlns:xlink="http://www.w3.org/1999/xlink">
<path d="M45.244,23.814C45.244,22.108 45.094,20.467 44.817,18.893L22.695,18.893L22.695,28.2L35.336,28.2C34.792,31.207 33.137,33.756 30.649,35.462L30.649,41.499L38.24,41.499C42.681,37.31 45.244,31.142 45.244,23.814Z" clip-rule="evenodd" fill-rule="evenodd" fill="#4285F4"/>
<path d="M22.693,47.328C29.035,47.328 34.351,45.174 38.237,41.499L30.647,35.462C28.543,36.905 25.853,37.758 22.693,37.758C16.575,37.758 11.397,33.526 9.55,27.839L1.703,27.839L1.703,34.073C5.568,41.936 13.511,47.328 22.693,47.328Z" clip-rule="evenodd" fill-rule="evenodd" fill="#34A853"/>
<path d="M9.552,27.839C9.083,26.396 8.816,24.854 8.816,23.268C8.816,21.682 9.083,20.14 9.552,18.696L9.552,12.462L1.705,12.462C0.115,15.711 -0.793,19.385 -0.793,23.268C-0.793,27.15 0.115,30.825 1.705,34.073L9.552,27.839Z" clip-rule="evenodd" fill-rule="evenodd" fill="#FBBC05"/>
<path d="M22.693,8.777C26.141,8.777 29.237,9.991 31.672,12.375L38.408,5.474C34.341,1.591 29.024,-0.793 22.693,-0.793C13.511,-0.793 5.568,4.599 1.703,12.462L9.55,18.696C11.397,13.009 16.575,8.777 22.693,8.777Z" clip-rule="evenodd" fill-rule="evenodd" fill="#EA4335"/>
</svg>
