<svg width="28" height="32" viewBox="0 0 28 32" fill="none" xmlns="http://www.w3.org/2000/svg" xmlns:xlink="http://www.w3.org/1999/xlink">
<path d="M8,4.667C9.105,4.667 10,3.771 10,2.667C10,1.562 9.105,0.667 8,0.667L8,4.667ZM8,31.333C9.105,31.333 10,30.438 10,29.333C10,28.229 9.105,27.333 8,27.333L8,31.333ZM12.513,24.005C13.252,24.826 14.517,24.892 15.338,24.153C16.159,23.414 16.226,22.15 15.487,21.329L12.513,24.005ZM8,16L6.513,14.662C5.829,15.423 5.829,16.577 6.513,17.338L8,16ZM15.487,10.671C16.226,9.85 16.159,8.586 15.338,7.847C14.517,7.108 13.252,7.174 12.513,7.995L15.487,10.671ZM26,18C27.105,18 28,17.105 28,16C28,14.895 27.105,14 26,14L26,18ZM4,24.333L4,7.667L0,7.667L0,24.333L4,24.333ZM6.5,4.667L8,4.667L8,0.667L6.5,0.667L6.5,4.667ZM8,27.333L6.5,27.333L6.5,31.333L8,31.333L8,27.333ZM0,24.333C0,27.996 2.717,31.333 6.5,31.333L6.5,27.333C5.312,27.333 4,26.194 4,24.333L0,24.333ZM4,7.667C4,5.806 5.312,4.667 6.5,4.667L6.5,0.667C2.717,0.667 0,4.004 0,7.667L4,7.667ZM15.487,21.329L9.487,14.662L6.513,17.338L12.513,24.005L15.487,21.329ZM9.487,17.338L15.487,10.671L12.513,7.995L6.513,14.662L9.487,17.338ZM8,18L26,18L26,14L8,14L8,18Z" transform="rotate(-180 14 16)" fill="#111827"/>
</svg>
