<svg width="26" height="24" viewBox="0 0 26 24" fill="none" xmlns="http://www.w3.org/2000/svg" xmlns:xlink="http://www.w3.org/1999/xlink">
<path d="M14.383,2.439C13.776,0.254 10.224,0.254 9.617,2.439C9.225,3.851 7.377,4.521 5.959,3.765C3.763,2.595 1.251,4.793 2.589,6.714C3.453,7.955 2.687,9.572 1.073,9.915C-1.425,10.446 -1.425,13.554 1.073,14.085C2.687,14.428 3.453,16.045 2.589,17.286C1.251,19.207 3.763,21.405 5.959,20.235C7.377,19.479 9.225,20.149 9.617,21.561C10.224,23.746 13.776,23.746 14.383,21.561C14.774,20.149 16.623,19.479 18.041,20.235C20.237,21.405 22.749,19.207 21.411,17.286C20.547,16.045 21.313,14.428 22.926,14.085C25.425,13.554 25.425,10.446 22.926,9.915C21.313,9.572 20.547,7.955 21.411,6.714C22.749,4.793 20.237,2.595 18.041,3.765C16.623,4.521 14.774,3.851 14.383,2.439ZM12,16.2C14.651,16.2 16.8,14.32 16.8,12C16.8,9.68 14.651,7.8 12,7.8C9.349,7.8 7.2,9.68 7.2,12C7.2,14.32 9.349,16.2 12,16.2Z" clip-rule="evenodd" fill-rule="evenodd" fill="#111827"/>
</svg>
