<svg width="24" height="24" viewBox="0 0 24 24" fill="none" xmlns="http://www.w3.org/2000/svg" xmlns:xlink="http://www.w3.org/1999/xlink">
<path d="M23,12C23,18.186 17.627,23.2 11,23.2C4.373,23.2 -1,18.186 -1,12C-1,5.814 4.373,0.8 11,0.8C17.627,0.8 23,5.814 23,12ZM6.5,9.2C6.5,8.427 7.172,7.8 8,7.8C8.828,7.8 9.5,8.427 9.5,9.2L9.5,14.8C9.5,15.573 8.828,16.2 8,16.2C7.172,16.2 6.5,15.573 6.5,14.8L6.5,9.2ZM14,7.8C13.172,7.8 12.5,8.427 12.5,9.2L12.5,14.8C12.5,15.573 13.172,16.2 14,16.2C14.828,16.2 15.5,15.573 15.5,14.8L15.5,9.2C15.5,8.427 14.828,7.8 14,7.8Z" clip-rule="evenodd" fill-rule="evenodd" fill="#111827"/>
</svg>
