<svg width="34" height="26" viewBox="0 0 34 26" fill="none" xmlns="http://www.w3.org/2000/svg" xmlns:xlink="http://www.w3.org/1999/xlink">
<path d="M2.75,7C1.645,7 0.75,7.895 0.75,9C0.75,10.105 1.645,11 2.75,11L2.75,7ZM31.25,11C32.355,11 33.25,10.105 33.25,9C33.25,7.895 32.355,7 31.25,7L31.25,11ZM9.083,14.5C7.979,14.5 7.083,15.395 7.083,16.5C7.083,17.605 7.979,18.5 9.083,18.5L9.083,14.5ZM10.667,18.5C11.771,18.5 12.667,17.605 12.667,16.5C12.667,15.395 11.771,14.5 10.667,14.5L10.667,18.5ZM17,14.5C15.895,14.5 15,15.395 15,16.5C15,17.605 15.895,18.5 17,18.5L17,14.5ZM18.583,18.5C19.688,18.5 20.583,17.605 20.583,16.5C20.583,15.395 19.688,14.5 18.583,14.5L18.583,18.5ZM7.5,3.5L26.5,3.5L26.5,-0.5L7.5,-0.5L7.5,3.5ZM29.25,6L29.25,18L33.25,18L33.25,6L29.25,6ZM26.5,20.5L7.5,20.5L7.5,24.5L26.5,24.5L26.5,20.5ZM4.75,18L4.75,6L0.75,6L0.75,18L4.75,18ZM7.5,20.5C5.878,20.5 4.75,19.28 4.75,18L0.75,18C0.75,21.69 3.875,24.5 7.5,24.5L7.5,20.5ZM29.25,18C29.25,19.28 28.122,20.5 26.5,20.5L26.5,24.5C30.125,24.5 33.25,21.69 33.25,18L29.25,18ZM26.5,3.5C28.122,3.5 29.25,4.72 29.25,6L33.25,6C33.25,2.31 30.125,-0.5 26.5,-0.5L26.5,3.5ZM7.5,-0.5C3.875,-0.5 0.75,2.31 0.75,6L4.75,6C4.75,4.72 5.878,3.5 7.5,3.5L7.5,-0.5ZM2.75,11L31.25,11L31.25,7L2.75,7L2.75,11ZM9.083,18.5L10.667,18.5L10.667,14.5L9.083,14.5L9.083,18.5ZM17,18.5L18.583,18.5L18.583,14.5L17,14.5L17,18.5Z" fill="#111827"/>
</svg>
