<svg width="26" height="22" viewBox="0 0 26 22" fill="none" xmlns="http://www.w3.org/2000/svg" xmlns:xlink="http://www.w3.org/1999/xlink">
<path d="M8.8,18.75C8.8,19.993 7.725,21 6.4,21C5.075,21 4,19.993 4,18.75C4,17.507 5.075,16.5 6.4,16.5C7.725,16.5 8.8,17.507 8.8,18.75Z" fill="#111827"/>
<path d="M20,18.75C20,19.993 18.925,21 17.6,21C16.275,21 15.2,19.993 15.2,18.75C15.2,17.507 16.275,16.5 17.6,16.5C18.925,16.5 20,17.507 20,18.75Z" fill="#111827"/>
<path d="M0.8,0C-0.084,0 -0.8,0.672 -0.8,1.5L-0.8,16.5C-0.8,17.328 -0.084,18 0.8,18L2.48,18C2.851,16.288 4.465,15 6.4,15C8.335,15 9.949,16.288 10.32,18L12,18C12.884,18 13.6,17.328 13.6,16.5L13.6,1.5C13.6,0.672 12.884,0 12,0L0.8,0Z" fill="#111827"/>
<path d="M18.4,4.5C17.516,4.5 16.8,5.172 16.8,6L16.8,15.075C17.058,15.026 17.326,15 17.6,15C19.535,15 21.149,16.288 21.52,18L23.2,18C24.084,18 24.8,17.328 24.8,16.5L24.8,9C24.8,8.602 24.631,8.221 24.331,7.939L21.131,4.939C20.831,4.658 20.424,4.5 20,4.5L18.4,4.5Z" fill="#111827"/>
</svg>
