<svg width="34" height="30" viewBox="0 0 34 30" fill="none" xmlns="http://www.w3.org/2000/svg" xmlns:xlink="http://www.w3.org/1999/xlink">
<path d="M19,2.25C19,1.145 18.105,0.25 17,0.25C15.895,0.25 15,1.145 15,2.25L19,2.25ZM15,3.667C15,4.771 15.895,5.667 17,5.667C18.105,5.667 19,4.771 19,3.667L15,3.667ZM19,26.333C19,25.229 18.105,24.333 17,24.333C15.895,24.333 15,25.229 15,26.333L19,26.333ZM15,27.75C15,28.855 15.895,29.75 17,29.75C18.105,29.75 19,28.855 19,27.75L15,27.75ZM31.25,17C32.355,17 33.25,16.105 33.25,15C33.25,13.895 32.355,13 31.25,13L31.25,17ZM29.667,13C28.562,13 27.667,13.895 27.667,15C27.667,16.105 28.562,17 29.667,17L29.667,13ZM4.333,17C5.438,17 6.333,16.105 6.333,15C6.333,13.895 5.438,13 4.333,13L4.333,17ZM2.75,13C1.645,13 0.75,13.895 0.75,15C0.75,16.105 1.645,17 2.75,17L2.75,13ZM25.743,25.506C26.566,26.243 27.83,26.172 28.567,25.349C29.303,24.526 29.233,23.262 28.41,22.525L25.743,25.506ZM27.29,21.523C26.467,20.787 25.203,20.857 24.466,21.68C23.73,22.503 23.8,23.768 24.623,24.504L27.29,21.523ZM6.71,8.477C7.533,9.213 8.797,9.143 9.534,8.32C10.27,7.497 10.2,6.232 9.377,5.496L6.71,8.477ZM8.257,4.494C7.434,3.757 6.17,3.828 5.433,4.651C4.697,5.474 4.767,6.738 5.59,7.475L8.257,4.494ZM28.41,7.475C29.233,6.738 29.303,5.474 28.567,4.651C27.83,3.828 26.566,3.757 25.743,4.494L28.41,7.475ZM24.623,5.496C23.8,6.232 23.73,7.497 24.466,8.32C25.203,9.143 26.467,9.213 27.29,8.477L24.623,5.496ZM9.377,24.504C10.2,23.768 10.27,22.504 9.534,21.68C8.797,20.857 7.533,20.787 6.71,21.523L9.377,24.504ZM5.59,22.525C4.767,23.262 4.697,24.526 5.433,25.349C6.17,26.172 7.434,26.243 8.257,25.506L5.59,22.525ZM21.333,15C21.333,16.822 19.608,18.667 17,18.667L17,22.667C21.387,22.667 25.333,19.438 25.333,15L21.333,15ZM17,18.667C14.392,18.667 12.667,16.822 12.667,15L8.667,15C8.667,19.438 12.613,22.667 17,22.667L17,18.667ZM12.667,15C12.667,13.178 14.392,11.333 17,11.333L17,7.333C12.613,7.333 8.667,10.562 8.667,15L12.667,15ZM17,11.333C19.608,11.333 21.333,13.178 21.333,15L25.333,15C25.333,10.562 21.387,7.333 17,7.333L17,11.333ZM15,2.25L15,3.667L19,3.667L19,2.25L15,2.25ZM15,26.333L15,27.75L19,27.75L19,26.333L15,26.333ZM31.25,13L29.667,13L29.667,17L31.25,17L31.25,13ZM4.333,13L2.75,13L2.75,17L4.333,17L4.333,13ZM28.41,22.525L27.29,21.523L24.623,24.504L25.743,25.506L28.41,22.525ZM9.377,5.496L8.257,4.494L5.59,7.475L6.71,8.477L9.377,5.496ZM25.743,4.494L24.623,5.496L27.29,8.477L28.41,7.475L25.743,4.494ZM6.71,21.523L5.59,22.525L8.257,25.506L9.377,24.504L6.71,21.523Z" fill="#111827"/>
</svg>
