<svg width="26" height="18" viewBox="0 0 26 18" fill="none" xmlns="http://www.w3.org/2000/svg" xmlns:xlink="http://www.w3.org/1999/xlink">
<path d="M2.4,-0.4C0.633,-0.4 -0.8,0.854 -0.8,2.4L-0.8,8C-0.8,9.546 0.633,10.8 2.4,10.8L2.4,2.4L18.4,2.4C18.4,0.854 16.967,-0.4 15.2,-0.4L2.4,-0.4Z" fill="#111827"/>
<path d="M5.6,8C5.6,6.454 7.033,5.2 8.8,5.2L21.6,5.2C23.367,5.2 24.8,6.454 24.8,8L24.8,13.6C24.8,15.146 23.367,16.4 21.6,16.4L8.8,16.4C7.033,16.4 5.6,15.146 5.6,13.6L5.6,8ZM15.2,13.6C16.967,13.6 18.4,12.346 18.4,10.8C18.4,9.254 16.967,8 15.2,8C13.433,8 12,9.254 12,10.8C12,12.346 13.433,13.6 15.2,13.6Z" clip-rule="evenodd" fill-rule="evenodd" fill="#111827"/>
</svg>
