<svg width="34" height="30" viewBox="0 0 34 30" fill="none" xmlns="http://www.w3.org/2000/svg" xmlns:xlink="http://www.w3.org/1999/xlink">
<path d="M22.02,21.123C22.635,20.205 22.39,18.963 21.473,18.348C20.555,17.732 19.313,17.977 18.698,18.895L22.02,21.123ZM18.698,11.105C19.313,12.023 20.555,12.268 21.473,11.652C22.39,11.037 22.635,9.795 22.02,8.877L18.698,11.105ZM10.667,10.875C9.562,10.875 8.667,11.77 8.667,12.875C8.667,13.98 9.562,14.875 10.667,14.875L10.667,10.875ZM17,14.875C18.105,14.875 19,13.98 19,12.875C19,11.77 18.105,10.875 17,10.875L17,14.875ZM10.667,15.125C9.562,15.125 8.667,16.02 8.667,17.125C8.667,18.23 9.562,19.125 10.667,19.125L10.667,15.125ZM17,19.125C18.105,19.125 19,18.23 19,17.125C19,16.02 18.105,15.125 17,15.125L17,19.125ZM29.25,15C29.25,20.734 23.98,25.75 17,25.75L17,29.75C25.76,29.75 33.25,23.35 33.25,15L29.25,15ZM17,25.75C10.02,25.75 4.75,20.734 4.75,15L0.75,15C0.75,23.35 8.24,29.75 17,29.75L17,25.75ZM4.75,15C4.75,9.266 10.02,4.25 17,4.25L17,0.25C8.24,0.25 0.75,6.65 0.75,15L4.75,15ZM17,4.25C23.98,4.25 29.25,9.266 29.25,15L33.25,15C33.25,6.65 25.76,0.25 17,0.25L17,4.25ZM18.698,18.895C18.046,19.866 17.394,20.083 17,20.083C16.606,20.083 15.954,19.866 15.302,18.895L11.98,21.123C13.184,22.918 14.963,24.083 17,24.083C19.037,24.083 20.816,22.918 22.02,21.123L18.698,18.895ZM15.302,18.895C14.64,17.907 14.25,16.503 14.25,15C14.25,13.497 14.64,12.093 15.302,11.105L11.98,8.877C10.788,10.656 10.25,12.878 10.25,15C10.25,17.122 10.788,19.344 11.98,21.123L15.302,18.895ZM15.302,11.105C15.954,10.134 16.606,9.917 17,9.917C17.394,9.917 18.046,10.134 18.698,11.105L22.02,8.877C20.816,7.082 19.037,5.917 17,5.917C14.963,5.917 13.184,7.082 11.98,8.877L15.302,11.105ZM10.667,14.875L17,14.875L17,10.875L10.667,10.875L10.667,14.875ZM10.667,19.125L17,19.125L17,15.125L10.667,15.125L10.667,19.125Z" fill="#111827"/>
</svg>
