<svg width="24" height="16" viewBox="0 0 24 16" fill="none" xmlns="http://www.w3.org/2000/svg" xmlns:xlink="http://www.w3.org/1999/xlink">
<path d="M23.199,2.792C23.935,1.969 23.865,0.704 23.042,-0.032C22.219,-0.769 20.954,-0.698 20.218,0.125L23.199,2.792ZM11.792,12.542L10.301,13.875C10.681,14.299 11.223,14.542 11.792,14.542C12.361,14.542 12.903,14.299 13.282,13.875L11.792,12.542ZM3.365,0.125C2.629,-0.698 1.365,-0.769 0.541,-0.032C-0.282,0.704 -0.352,1.969 0.385,2.792L3.365,0.125ZM20.218,0.125L10.301,11.208L13.282,13.875L23.199,2.792L20.218,0.125ZM13.282,11.208L3.365,0.125L0.385,2.792L10.301,13.875L13.282,11.208Z" transform="rotate(-180 11.792 7)" fill="#111827"/>
</svg>
