<svg width="36" height="26" viewBox="0 0 36 26" fill="none" xmlns="http://www.w3.org/2000/svg" xmlns:xlink="http://www.w3.org/1999/xlink">
<path d="M16.333,1.5L17.671,0.013C17.304,-0.317 16.827,-0.5 16.333,-0.5L16.333,1.5ZM19.667,4.5L18.329,5.987C18.696,6.317 19.173,6.5 19.667,6.5L19.667,4.5ZM20,9C20,7.895 19.105,7 18,7C16.895,7 16,7.895 16,9L20,9ZM18,18L16.662,19.487C17.423,20.171 18.577,20.171 19.338,19.487L18,18ZM14.338,12.013C13.517,11.274 12.252,11.341 11.513,12.162C10.775,12.983 10.841,14.248 11.662,14.987L14.338,12.013ZM24.338,14.987C25.159,14.248 25.226,12.983 24.487,12.162C23.748,11.341 22.483,11.274 21.662,12.013L24.338,14.987ZM5,19.5L5,4.5L1,4.5L1,19.5L5,19.5ZM6.333,3.5L16.333,3.5L16.333,-0.5L6.333,-0.5L6.333,3.5ZM14.995,2.987L18.329,5.987L21.005,3.013L17.671,0.013L14.995,2.987ZM19.667,6.5L29.667,6.5L29.667,2.5L19.667,2.5L19.667,6.5ZM31,7.5L31,19.5L35,19.5L35,7.5L31,7.5ZM29.667,20.5L6.333,20.5L6.333,24.5L29.667,24.5L29.667,20.5ZM29.667,6.5C30.606,6.5 31,7.141 31,7.5L35,7.5C35,4.546 32.409,2.5 29.667,2.5L29.667,6.5ZM5,4.5C5,4.141 5.394,3.5 6.333,3.5L6.333,-0.5C3.591,-0.5 1,1.546 1,4.5L5,4.5ZM31,19.5C31,19.859 30.606,20.5 29.667,20.5L29.667,24.5C32.409,24.5 35,22.454 35,19.5L31,19.5ZM1,19.5C1,22.454 3.591,24.5 6.333,24.5L6.333,20.5C5.394,20.5 5,19.859 5,19.5L1,19.5ZM16,9L16,18L20,18L20,9L16,9ZM11.662,14.987L16.662,19.487L19.338,16.513L14.338,12.013L11.662,14.987ZM19.338,19.487L24.338,14.987L21.662,12.013L16.662,16.513L19.338,19.487Z" fill="#111827"/>
</svg>
