<svg width="26" height="18" viewBox="0 0 26 18" fill="none" xmlns="http://www.w3.org/2000/svg" xmlns:xlink="http://www.w3.org/1999/xlink">
<path d="M-0.8,3C-0.8,1.343 0.633,0 2.4,0L12,0C13.767,0 15.2,1.343 15.2,3L15.2,15C15.2,16.657 13.767,18 12,18L2.4,18C0.633,18 -0.8,16.657 -0.8,15L-0.8,3Z" fill="#111827"/>
<path d="M19.284,4.658C18.742,4.912 18.4,5.432 18.4,6L18.4,12C18.4,12.568 18.742,13.088 19.284,13.342L22.484,14.842C22.98,15.074 23.569,15.049 24.041,14.776C24.513,14.503 24.8,14.02 24.8,13.5L24.8,4.5C24.8,3.98 24.513,3.497 24.041,3.224C23.569,2.951 22.98,2.926 22.484,3.158L19.284,4.658Z" fill="#111827"/>
</svg>
