<svg width="34" height="32" viewBox="0 0 34 32" fill="none" xmlns="http://www.w3.org/2000/svg" xmlns:xlink="http://www.w3.org/1999/xlink">
<path d="M2.837,12.5C1.732,12.5 0.837,13.395 0.837,14.5C0.837,15.605 1.732,16.5 2.837,16.5L2.837,12.5ZM13.417,29.418C13.417,30.522 14.312,31.418 15.417,31.418C16.521,31.418 17.417,30.522 17.417,29.418L13.417,29.418ZM12.667,3.903C12.667,2.799 11.771,1.903 10.667,1.903C9.562,1.903 8.667,2.799 8.667,3.903L12.667,3.903ZM28.083,10L28.083,12L28.083,12L28.083,10ZM29.769,12C30.873,12 31.769,11.105 31.769,10C31.769,8.895 30.873,8 29.769,8L29.769,12ZM19.75,28.732C19.75,29.836 20.645,30.732 21.75,30.732C22.855,30.732 23.75,29.836 23.75,28.732L19.75,28.732ZM29.769,24C30.873,24 31.769,23.105 31.769,22C31.769,20.895 30.873,20 29.769,20L29.769,24ZM29.25,16C29.25,22.251 23.869,27.5 17,27.5L17,31.5C25.871,31.5 33.25,24.661 33.25,16L29.25,16ZM17,27.5C10.131,27.5 4.75,22.251 4.75,16L0.75,16C0.75,24.661 8.129,31.5 17,31.5L17,27.5ZM4.75,16C4.75,9.749 10.131,4.5 17,4.5L17,0.5C8.129,0.5 0.75,7.339 0.75,16L4.75,16ZM17,4.5C23.869,4.5 29.25,9.749 29.25,16L33.25,16C33.25,7.339 25.871,0.5 17,0.5L17,4.5ZM2.837,16.5L5.917,16.5L5.917,12.5L2.837,12.5L2.837,16.5ZM7.083,17.5L7.083,19L11.083,19L11.083,17.5L7.083,17.5ZM13.417,25L13.417,29.418L17.417,29.418L17.417,25L13.417,25ZM12.25,24C12.998,24 13.417,24.548 13.417,25L17.417,25C17.417,22.138 15,20 12.25,20L12.25,24ZM7.083,19C7.083,21.862 9.5,24 12.25,24L12.25,20C11.502,20 11.083,19.452 11.083,19L7.083,19ZM5.917,16.5C6.664,16.5 7.083,17.048 7.083,17.5L11.083,17.5C11.083,14.638 8.667,12.5 5.917,12.5L5.917,16.5ZM8.667,3.903L8.667,6.25L12.667,6.25L12.667,3.903L8.667,3.903ZM14.625,12L15.417,12L15.417,8L14.625,8L14.625,12ZM28.083,12L29.769,12L29.769,8L28.083,8L28.083,12ZM26.917,13C26.917,12.548 27.336,12 28.083,12L28.083,8C25.333,8 22.917,10.138 22.917,13L26.917,13ZM21.75,18C24.5,18 26.917,15.862 26.917,13L22.917,13C22.917,13.452 22.498,14 21.75,14L21.75,18ZM16.583,13C16.583,15.862 19,18 21.75,18L21.75,14C21.002,14 20.583,13.452 20.583,13L16.583,13ZM15.417,12C16.164,12 16.583,12.548 16.583,13L20.583,13C20.583,10.138 18.167,8 15.417,8L15.417,12ZM8.667,6.25C8.667,9.526 11.438,12 14.625,12L14.625,8C13.44,8 12.667,7.116 12.667,6.25L8.667,6.25ZM23.75,28.732L23.75,25L19.75,25L19.75,28.732L23.75,28.732ZM24.917,24L29.769,24L29.769,20L24.917,20L24.917,24ZM23.75,25C23.75,24.548 24.169,24 24.917,24L24.917,20C22.166,20 19.75,22.138 19.75,25L23.75,25Z" fill="#111827"/>
</svg>
