<svg width="32" height="32" viewBox="0 0 32 32" fill="none" xmlns="http://www.w3.org/2000/svg" xmlns:xlink="http://www.w3.org/1999/xlink">
<path d="M23.5,21.5C22.395,21.5 21.5,22.395 21.5,23.5C21.5,24.605 22.395,25.5 23.5,25.5L23.5,21.5ZM8.5,25.5C9.605,25.5 10.5,24.605 10.5,23.5C10.5,22.395 9.605,21.5 8.5,21.5L8.5,25.5ZM23.5,11.5L23.5,13.5C24.605,13.5 25.5,12.605 25.5,11.5L23.5,11.5ZM8.5,11.5L6.5,11.5C6.5,12.605 7.395,13.5 8.5,13.5L8.5,11.5ZM5.5,13.5L26.5,13.5L26.5,9.5L5.5,9.5L5.5,13.5ZM27.5,14.5L27.5,20.5L31.5,20.5L31.5,14.5L27.5,14.5ZM4.5,20.5L4.5,14.5L0.5,14.5L0.5,20.5L4.5,20.5ZM26.5,21.5L23.5,21.5L23.5,25.5L26.5,25.5L26.5,21.5ZM8.5,21.5L5.5,21.5L5.5,25.5L8.5,25.5L8.5,21.5ZM0.5,20.5C0.5,23.261 2.739,25.5 5.5,25.5L5.5,21.5C4.948,21.5 4.5,21.052 4.5,20.5L0.5,20.5ZM27.5,20.5C27.5,21.052 27.052,21.5 26.5,21.5L26.5,25.5C29.261,25.5 31.5,23.261 31.5,20.5L27.5,20.5ZM26.5,13.5C27.052,13.5 27.5,13.948 27.5,14.5L31.5,14.5C31.5,11.739 29.261,9.5 26.5,9.5L26.5,13.5ZM5.5,9.5C2.739,9.5 0.5,11.739 0.5,14.5L4.5,14.5C4.5,13.948 4.948,13.5 5.5,13.5L5.5,9.5ZM11.5,19.5L20.5,19.5L20.5,15.5L11.5,15.5L11.5,19.5ZM21.5,20.5L21.5,26.5L25.5,26.5L25.5,20.5L21.5,20.5ZM20.5,27.5L11.5,27.5L11.5,31.5L20.5,31.5L20.5,27.5ZM10.5,26.5L10.5,20.5L6.5,20.5L6.5,26.5L10.5,26.5ZM11.5,27.5C10.948,27.5 10.5,27.052 10.5,26.5L6.5,26.5C6.5,29.261 8.739,31.5 11.5,31.5L11.5,27.5ZM21.5,26.5C21.5,27.052 21.052,27.5 20.5,27.5L20.5,31.5C23.261,31.5 25.5,29.261 25.5,26.5L21.5,26.5ZM20.5,19.5C21.052,19.5 21.5,19.948 21.5,20.5L25.5,20.5C25.5,17.739 23.261,15.5 20.5,15.5L20.5,19.5ZM11.5,15.5C8.739,15.5 6.5,17.739 6.5,20.5L10.5,20.5C10.5,19.948 10.948,19.5 11.5,19.5L11.5,15.5ZM11.5,4.5L20.5,4.5L20.5,0.5L11.5,0.5L11.5,4.5ZM21.5,5.5L21.5,11.5L25.5,11.5L25.5,5.5L21.5,5.5ZM23.5,9.5L8.5,9.5L8.5,13.5L23.5,13.5L23.5,9.5ZM10.5,11.5L10.5,5.5L6.5,5.5L6.5,11.5L10.5,11.5ZM20.5,4.5C21.052,4.5 21.5,4.948 21.5,5.5L25.5,5.5C25.5,2.739 23.261,0.5 20.5,0.5L20.5,4.5ZM11.5,0.5C8.739,0.5 6.5,2.739 6.5,5.5L10.5,5.5C10.5,4.948 10.948,4.5 11.5,4.5L11.5,0.5Z" fill="#111827"/>
</svg>
