<svg width="22" height="24" viewBox="0 0 22 24" fill="none" xmlns="http://www.w3.org/2000/svg" xmlns:xlink="http://www.w3.org/1999/xlink">
<path d="M9.5,0.8C8.932,0.8 8.412,1.1 8.158,1.574L7.073,3.6L2,3.6C1.172,3.6 0.5,4.227 0.5,5C0.5,5.773 1.172,6.4 2,6.4L2,20.4C2,21.946 3.343,23.2 5,23.2L17,23.2C18.657,23.2 20,21.946 20,20.4L20,6.4C20.828,6.4 21.5,5.773 21.5,5C21.5,4.227 20.828,3.6 20,3.6L14.927,3.6L13.842,1.574C13.588,1.1 13.068,0.8 12.5,0.8L9.5,0.8ZM6.5,9.2C6.5,8.427 7.172,7.8 8,7.8C8.828,7.8 9.5,8.427 9.5,9.2L9.5,17.6C9.5,18.373 8.828,19 8,19C7.172,19 6.5,18.373 6.5,17.6L6.5,9.2ZM14,7.8C13.172,7.8 12.5,8.427 12.5,9.2L12.5,17.6C12.5,18.373 13.172,19 14,19C14.828,19 15.5,18.373 15.5,17.6L15.5,9.2C15.5,8.427 14.828,7.8 14,7.8Z" clip-rule="evenodd" fill-rule="evenodd" fill="#111827"/>
</svg>
