<svg width="28" height="16" viewBox="0 0 28 16" fill="none" xmlns="http://www.w3.org/2000/svg" xmlns:xlink="http://www.w3.org/1999/xlink">
<path d="M25.417,4.24C26.24,3.504 26.31,2.24 25.574,1.416C24.837,0.593 23.573,0.523 22.75,1.26L25.417,4.24ZM13,12.667L11.666,14.157C12.426,14.837 13.574,14.837 14.334,14.157L13,12.667ZM3.25,1.26C2.427,0.523 1.163,0.593 0.426,1.416C-0.31,2.24 -0.24,3.504 0.583,4.24L3.25,1.26ZM22.75,1.26L11.666,11.176L14.334,14.157L25.417,4.24L22.75,1.26ZM14.334,11.176L3.25,1.26L0.583,4.24L11.666,14.157L14.334,11.176Z" fill="#111827"/>
</svg>
