<svg width="34" height="32" viewBox="0 0 34 32" fill="none" xmlns="http://www.w3.org/2000/svg" xmlns:xlink="http://www.w3.org/1999/xlink">
<path d="M30.645,6.977L32.574,6.449C32.327,5.545 31.485,4.934 30.549,4.979L30.645,6.977ZM17,2.417L18.293,0.891C17.547,0.258 16.453,0.258 15.706,0.891L17,2.417ZM3.355,6.976L3.451,4.979C2.515,4.934 1.673,5.545 1.426,6.449L3.355,6.976ZM17,28.933L16.526,30.876C16.838,30.952 17.162,30.952 17.474,30.876L17,28.933ZM19,11.5C19,10.395 18.105,9.5 17,9.5C15.895,9.5 15,10.395 15,11.5L19,11.5ZM15,14.5C15,15.605 15.895,16.5 17,16.5C18.105,16.5 19,15.605 19,14.5L15,14.5ZM17,18.5C15.895,18.5 15,19.395 15,20.5C15,21.605 15.895,22.5 17,22.5L17,18.5ZM17.016,22.5C18.12,22.5 19.016,21.605 19.016,20.5C19.016,19.395 18.12,18.5 17.016,18.5L17.016,22.5ZM30.549,4.979C30.257,4.993 29.963,5 29.667,5L29.667,9C30.027,9 30.385,8.991 30.741,8.974L30.549,4.979ZM29.667,5C25.28,5 21.298,3.439 18.293,0.891L15.706,3.942C19.425,7.095 24.321,9 29.667,9L29.667,5ZM15.706,0.891C12.702,3.439 8.72,5 4.333,5L4.333,9C9.679,9 14.575,7.095 18.293,3.942L15.706,0.891ZM4.333,5C4.037,5 3.743,4.993 3.451,4.979L3.259,8.974C3.615,8.991 3.973,9 4.333,9L4.333,5ZM1.426,6.449C0.984,8.064 0.75,9.757 0.75,11.5L4.75,11.5C4.75,10.118 4.936,8.779 5.284,7.503L1.426,6.449ZM0.75,11.5C0.75,20.898 7.525,28.681 16.526,30.876L17.474,26.99C10.086,25.188 4.75,18.876 4.75,11.5L0.75,11.5ZM17.474,30.876C26.475,28.681 33.25,20.898 33.25,11.5L29.25,11.5C29.25,18.876 23.914,25.188 16.526,26.99L17.474,30.876ZM33.25,11.5C33.25,9.757 33.016,8.064 32.574,6.449L28.716,7.504C29.064,8.779 29.25,10.118 29.25,11.5L33.25,11.5ZM15,11.5L15,14.5L19,14.5L19,11.5L15,11.5ZM17,22.5L17.016,22.5L17.016,18.5L17,18.5L17,22.5Z" fill="#111827"/>
</svg>
