<svg width="26" height="22" viewBox="0 0 26 22" fill="none" xmlns="http://www.w3.org/2000/svg" xmlns:xlink="http://www.w3.org/1999/xlink">
<path d="M10.037,2.338C11.337,0.435 14.664,0.435 15.964,2.338L25.45,16.227C26.725,18.094 25.087,20.4 22.487,20.4L3.514,20.4C0.913,20.4 -0.725,18.094 0.55,16.227L10.037,2.338ZM14.7,16.2C14.7,16.973 13.939,17.6 13,17.6C12.061,17.6 11.3,16.973 11.3,16.2C11.3,15.427 12.061,14.8 13,14.8C13.939,14.8 14.7,15.427 14.7,16.2ZM13,5C12.061,5 11.3,5.627 11.3,6.4L11.3,10.6C11.3,11.373 12.061,12 13,12C13.939,12 14.7,11.373 14.7,10.6L14.7,6.4C14.7,5.627 13.939,5 13,5Z" clip-rule="evenodd" fill-rule="evenodd" fill="#111827"/>
</svg>
