<svg width="20" height="24" viewBox="0 0 20 24" fill="none" xmlns="http://www.w3.org/2000/svg" xmlns:xlink="http://www.w3.org/1999/xlink">
<path d="M3.6,0.8C1.833,0.8 0.4,2.054 0.4,3.6L0.4,20.4C0.4,21.946 1.833,23.2 3.6,23.2L16.4,23.2C18.167,23.2 19.6,21.946 19.6,20.4L19.6,8.38C19.6,7.637 19.263,6.925 18.663,6.4L13.2,1.62C12.6,1.095 11.786,0.8 10.937,0.8L3.6,0.8ZM11.6,9.2C11.6,8.427 10.884,7.8 10,7.8C9.116,7.8 8.4,8.427 8.4,9.2L8.4,14.22L6.331,12.41C5.707,11.863 4.693,11.863 4.069,12.41C3.444,12.957 3.444,13.843 4.069,14.39L8.869,18.59C9.493,19.137 10.507,19.137 11.131,18.59L15.931,14.39C16.556,13.843 16.556,12.957 15.931,12.41C15.307,11.863 14.293,11.863 13.669,12.41L11.6,14.22L11.6,9.2Z" clip-rule="evenodd" fill-rule="evenodd" fill="#111827"/>
</svg>
