<svg width="24" height="26" viewBox="0 0 24 26" fill="none" xmlns="http://www.w3.org/2000/svg" xmlns:xlink="http://www.w3.org/1999/xlink">
<path d="M12,-0.8C8.465,-0.8 5.6,2.065 5.6,5.6L5.6,7.2L4,7.2C3.185,7.2 2.5,7.813 2.41,8.623L0.81,23.023C0.76,23.476 0.904,23.928 1.208,24.267C1.511,24.606 1.945,24.8 2.4,24.8L21.6,24.8C22.055,24.8 22.489,24.606 22.792,24.267C23.096,23.928 23.24,23.476 23.19,23.023L21.59,8.623C21.5,7.813 20.815,7.2 20,7.2L18.4,7.2L18.4,5.6C18.4,2.065 15.535,-0.8 12,-0.8ZM15.2,7.2L15.2,5.6C15.2,3.833 13.767,2.4 12,2.4C10.233,2.4 8.8,3.833 8.8,5.6L8.8,7.2L15.2,7.2ZM5.6,12C5.6,11.116 6.316,10.4 7.2,10.4C8.084,10.4 8.8,11.116 8.8,12C8.8,12.884 8.084,13.6 7.2,13.6C6.316,13.6 5.6,12.884 5.6,12ZM16.8,10.4C15.916,10.4 15.2,11.116 15.2,12C15.2,12.884 15.916,13.6 16.8,13.6C17.684,13.6 18.4,12.884 18.4,12C18.4,11.116 17.684,10.4 16.8,10.4Z" clip-rule="evenodd" fill-rule="evenodd" fill="#111827"/>
</svg>
