<svg width="36" height="26" viewBox="0 0 36 26" fill="none" xmlns="http://www.w3.org/2000/svg" xmlns:xlink="http://www.w3.org/1999/xlink">
<path d="M13.329,23.987C14.15,24.726 15.414,24.659 16.153,23.838C16.892,23.017 16.826,21.752 16.005,21.013L13.329,23.987ZM3,12L1.662,10.513C1.241,10.893 1,11.433 1,12C1,12.567 1.241,13.107 1.662,13.487L3,12ZM16.005,2.987C16.826,2.248 16.892,0.983 16.153,0.162C15.414,-0.659 14.15,-0.726 13.329,0.013L16.005,2.987ZM33,14C34.105,14 35,13.105 35,12C35,10.895 34.105,10 33,10L33,14ZM16.005,21.013L4.338,10.513L1.662,13.487L13.329,23.987L16.005,21.013ZM4.338,13.487L16.005,2.987L13.329,0.013L1.662,10.513L4.338,13.487ZM3,14L33,14L33,10L3,10L3,14Z" fill="#111827"/>
</svg>
