<svg width="30" height="32" viewBox="0 0 30 32" fill="none" xmlns="http://www.w3.org/2000/svg" xmlns:xlink="http://www.w3.org/1999/xlink">
<path d="M4.333,23.5L4.333,8.5L0.333,8.5L0.333,23.5L4.333,23.5ZM15,27.5C11.731,27.5 8.869,26.868 6.899,25.935C4.777,24.93 4.333,23.934 4.333,23.5L0.333,23.5C0.333,26.38 2.725,28.384 5.187,29.55C7.802,30.789 11.274,31.5 15,31.5L15,27.5ZM25.667,23.5C25.667,23.934 25.223,24.93 23.101,25.935C21.131,26.868 18.269,27.5 15,27.5L15,31.5C18.726,31.5 22.198,30.789 24.813,29.55C27.275,28.384 29.667,26.38 29.667,23.5L25.667,23.5ZM25.667,8.5L25.667,23.5L29.667,23.5L29.667,8.5L25.667,8.5ZM25.667,8.5C25.667,8.934 25.223,9.93 23.101,10.935C21.131,11.868 18.269,12.5 15,12.5L15,16.5C18.726,16.5 22.198,15.789 24.813,14.55C27.275,13.384 29.667,11.38 29.667,8.5L25.667,8.5ZM15,12.5C11.731,12.5 8.869,11.868 6.899,10.935C4.777,9.93 4.333,8.934 4.333,8.5L0.333,8.5C0.333,11.38 2.725,13.384 5.187,14.55C7.802,15.789 11.274,16.5 15,16.5L15,12.5ZM4.333,8.5C4.333,8.066 4.777,7.07 6.899,6.065C8.869,5.132 11.731,4.5 15,4.5L15,0.5C11.274,0.5 7.802,1.211 5.187,2.45C2.725,3.616 0.333,5.62 0.333,8.5L4.333,8.5ZM15,4.5C18.269,4.5 21.131,5.132 23.101,6.065C25.223,7.07 25.667,8.066 25.667,8.5L29.667,8.5C29.667,5.62 27.275,3.616 24.813,2.45C22.198,1.211 18.726,0.5 15,0.5L15,4.5ZM25.667,16C25.667,16.434 25.223,17.43 23.101,18.435C21.131,19.368 18.269,20 15,20L15,24C18.726,24 22.198,23.289 24.813,22.05C27.275,20.884 29.667,18.88 29.667,16L25.667,16ZM15,20C11.731,20 8.869,19.368 6.899,18.435C4.777,17.43 4.333,16.434 4.333,16L0.333,16C0.333,18.88 2.725,20.884 5.187,22.05C7.802,23.289 11.274,24 15,24L15,20Z" fill="#111827"/>
</svg>
