<svg width="26" height="24" viewBox="0 0 26 24" fill="none" xmlns="http://www.w3.org/2000/svg" xmlns:xlink="http://www.w3.org/1999/xlink">
<path d="M24.8,3L24.8,14.2C24.8,15.746 23.367,17 21.6,17L13.6,17L5.6,22.6L5.6,17L2.4,17C0.633,17 -0.8,15.746 -0.8,14.2L-0.8,3C-0.8,1.454 0.633,0.2 2.4,0.2L21.6,0.2C23.367,0.2 24.8,1.454 24.8,3ZM7.2,7.2L4,7.2L4,10L7.2,10L7.2,7.2ZM10.4,7.2L13.6,7.2L13.6,10L10.4,10L10.4,7.2ZM20,7.2L16.8,7.2L16.8,10L20,10L20,7.2Z" clip-rule="evenodd" fill-rule="evenodd" fill="#111827"/>
</svg>
