<svg width="34" height="30" viewBox="0 0 34 30" fill="none" xmlns="http://www.w3.org/2000/svg" xmlns:xlink="http://www.w3.org/1999/xlink">
<path d="M0.75,27.75C0.75,28.855 1.645,29.75 2.75,29.75C3.855,29.75 4.75,28.855 4.75,27.75L0.75,27.75ZM16.208,2.25L17.542,0.76C17.175,0.431 16.7,0.25 16.208,0.25L16.208,2.25ZM17.792,3.667L16.458,5.157C16.825,5.485 17.3,5.667 17.792,5.667L17.792,3.667ZM31.25,3.667L32.996,4.642C33.342,4.023 33.334,3.267 32.975,2.655C32.616,2.043 31.96,1.667 31.25,1.667L31.25,3.667ZM26.5,12.167L24.754,11.191C24.415,11.797 24.415,12.536 24.754,13.142L26.5,12.167ZM31.25,20.667L31.25,22.667C31.96,22.667 32.616,22.291 32.975,21.679C33.334,21.067 33.342,20.31 32.996,19.691L31.25,20.667ZM17.792,20.667L16.458,22.157C16.825,22.485 17.3,22.667 17.792,22.667L17.792,20.667ZM16.208,19.25L17.542,17.76C17.175,17.431 16.7,17.25 16.208,17.25L16.208,19.25ZM19,2.958C19,1.854 18.105,0.958 17,0.958C15.895,0.958 15,1.854 15,2.958L19,2.958ZM15,10.75C15,11.855 15.895,12.75 17,12.75C18.105,12.75 19,11.855 19,10.75L15,10.75ZM4.75,27.75L4.75,22.083L0.75,22.083L0.75,27.75L4.75,27.75ZM4.75,22.083L4.75,5.083L0.75,5.083L0.75,22.083L4.75,22.083ZM5.917,4.25L16.208,4.25L16.208,0.25L5.917,0.25L5.917,4.25ZM14.875,3.74L16.458,5.157L19.125,2.176L17.542,0.76L14.875,3.74ZM17.792,5.667L31.25,5.667L31.25,1.667L17.792,1.667L17.792,5.667ZM29.504,2.691L24.754,11.191L28.246,13.142L32.996,4.642L29.504,2.691ZM24.754,13.142L29.504,21.642L32.996,19.691L28.246,11.191L24.754,13.142ZM31.25,18.667L17.792,18.667L17.792,22.667L31.25,22.667L31.25,18.667ZM19.125,19.176L17.542,17.76L14.875,20.74L16.458,22.157L19.125,19.176ZM16.208,17.25L5.917,17.25L5.917,21.25L16.208,21.25L16.208,17.25ZM5.917,17.25C3.278,17.25 0.75,19.211 0.75,22.083L4.75,22.083C4.75,21.93 4.815,21.746 5.011,21.57C5.211,21.392 5.525,21.25 5.917,21.25L5.917,17.25ZM4.75,5.083C4.75,4.93 4.815,4.746 5.011,4.57C5.211,4.392 5.525,4.25 5.917,4.25L5.917,0.25C3.278,0.25 0.75,2.211 0.75,5.083L4.75,5.083ZM15,2.958L15,10.75L19,10.75L19,2.958L15,2.958Z" fill="#111827"/>
</svg>
