<svg width="34" height="32" viewBox="0 0 34 32" fill="none" xmlns="http://www.w3.org/2000/svg" xmlns:xlink="http://www.w3.org/1999/xlink">
<path d="M11.38,3.526L9.504,4.22L9.504,4.22L11.38,3.526ZM13.876,10.266L12.001,10.96L12.001,10.96L13.876,10.266ZM13.04,12.082L13.861,13.906L13.861,13.906L13.04,12.082ZM9.278,13.775L8.458,11.951C7.961,12.174 7.577,12.591 7.394,13.104C7.211,13.618 7.246,14.183 7.49,14.671L9.278,13.775ZM18.473,22.049L17.721,23.903C18.657,24.283 19.73,23.904 20.221,23.021L18.473,22.049ZM20.354,18.664L18.605,17.692L18.605,17.692L20.354,18.664ZM22.371,17.911L21.797,19.827L21.797,19.827L22.371,17.911ZM29.86,20.158L30.435,18.242L30.435,18.242L29.86,20.158ZM22.667,0.5C21.562,0.5 20.667,1.395 20.667,2.5C20.667,3.605 21.562,4.5 22.667,4.5L22.667,0.5ZM31,2.5L33,2.5C33,1.395 32.105,0.5 31,0.5L31,2.5ZM29,10C29,11.105 29.895,12 31,12C32.105,12 33,11.105 33,10L29,10ZM19.662,10.013C18.841,10.752 18.774,12.017 19.513,12.838C20.252,13.659 21.517,13.726 22.338,12.987L19.662,10.013ZM4.333,0.5C1.591,0.5 -1,2.546 -1,5.5L3,5.5C3,5.141 3.394,4.5 4.333,4.5L4.333,0.5ZM9.799,0.5L4.333,0.5L4.333,4.5L9.799,4.5L9.799,0.5ZM13.255,2.831C12.702,1.337 11.244,0.5 9.799,0.5L9.799,4.5C9.775,4.5 9.735,4.494 9.685,4.461C9.634,4.428 9.554,4.354 9.504,4.22L13.255,2.831ZM15.752,9.571L13.255,2.831L9.504,4.22L12.001,10.96L15.752,9.571ZM13.861,13.906C15.444,13.193 16.422,11.382 15.752,9.571L12.001,10.96C11.94,10.797 11.954,10.617 12.018,10.478C12.08,10.344 12.169,10.281 12.22,10.258L13.861,13.906ZM10.099,15.599L13.861,13.906L12.22,10.258L8.458,11.951L10.099,15.599ZM19.225,20.196C15.565,18.711 12.669,16.079 11.067,12.879L7.49,14.671C9.561,18.805 13.231,22.081 17.721,23.903L19.225,20.196ZM18.605,17.692L16.724,21.078L20.221,23.021L22.102,19.635L18.605,17.692ZM22.946,15.996C21.357,15.519 19.48,16.117 18.605,17.692L22.102,19.635C22.032,19.761 21.942,19.809 21.905,19.823C21.868,19.837 21.832,19.838 21.797,19.827L22.946,15.996ZM30.435,18.242L22.946,15.996L21.797,19.827L29.286,22.074L30.435,18.242ZM33,21.581C33,19.937 31.846,18.666 30.435,18.242L29.286,22.074C29.236,22.059 29,21.934 29,21.581L33,21.581ZM33,26.5L33,21.581L29,21.581L29,26.5L33,26.5ZM27.667,31.5C30.409,31.5 33,29.454 33,26.5L29,26.5C29,26.859 28.606,27.5 27.667,27.5L27.667,31.5ZM26,31.5L27.667,31.5L27.667,27.5L26,27.5L26,31.5ZM-1,7C-1,20.724 11.292,31.5 26,31.5L26,27.5C13.094,27.5 3,18.129 3,7L-1,7ZM-1,5.5L-1,7L3,7L3,5.5L-1,5.5ZM22.667,4.5L31,4.5L31,0.5L22.667,0.5L22.667,4.5ZM29,2.5L29,10L33,10L33,2.5L29,2.5ZM22.338,12.987L32.338,3.987L29.662,1.013L19.662,10.013L22.338,12.987Z" fill="#111827"/>
</svg>
