<svg width="26" height="24" viewBox="0 0 26 24" fill="none" xmlns="http://www.w3.org/2000/svg" xmlns:xlink="http://www.w3.org/1999/xlink">
<path d="M0.8,0.8C-0.084,0.8 -0.8,1.516 -0.8,2.4L-0.8,21.6C-0.8,22.484 -0.084,23.2 0.8,23.2C1.684,23.2 2.4,22.484 2.4,21.6L2.4,2.4C2.4,1.516 1.684,0.8 0.8,0.8Z" fill="#111827"/>
<path d="M17.269,15.669C16.644,16.293 16.644,17.307 17.269,17.931C17.893,18.556 18.907,18.556 19.531,17.931L24.331,13.131C24.631,12.831 24.8,12.424 24.8,12C24.8,11.576 24.631,11.169 24.331,10.869L19.531,6.069C18.907,5.444 17.893,5.444 17.269,6.069C16.644,6.693 16.644,7.707 17.269,8.331L19.337,10.4L7.2,10.4C6.316,10.4 5.6,11.116 5.6,12C5.6,12.884 6.316,13.6 7.2,13.6L19.337,13.6L17.269,15.669Z" fill="#111827"/>
</svg>
