<svg width="34" height="30" viewBox="0 0 34 30" fill="none" xmlns="http://www.w3.org/2000/svg" xmlns:xlink="http://www.w3.org/1999/xlink">
<path d="M13.854,22.731C14.258,23.759 15.418,24.265 16.447,23.862C17.475,23.458 17.981,22.297 17.577,21.269L13.854,22.731ZM4.423,21.269C4.019,22.297 4.525,23.458 5.553,23.862C6.581,24.265 7.742,23.759 8.146,22.731L4.423,21.269ZM21,12.5C19.895,12.5 19,13.395 19,14.5C19,15.605 19.895,16.5 21,16.5L21,12.5ZM26,16.5C27.105,16.5 28,15.605 28,14.5C28,13.395 27.105,12.5 26,12.5L26,16.5ZM21,18.5C19.895,18.5 19,19.395 19,20.5C19,21.605 19.895,22.5 21,22.5L21,18.5ZM24.333,22.5C25.438,22.5 26.333,21.605 26.333,20.5C26.333,19.395 25.438,18.5 24.333,18.5L24.333,22.5ZM29,10L29,23.5L33,23.5L33,10L29,10ZM27.667,24.5L4.333,24.5L4.333,28.5L27.667,28.5L27.667,24.5ZM3,23.5L3,10L-1,10L-1,23.5L3,23.5ZM4.333,9L12.667,9L12.667,5L4.333,5L4.333,9ZM19.333,9L27.667,9L27.667,5L19.333,5L19.333,9ZM4.333,24.5C3.394,24.5 3,23.859 3,23.5L-1,23.5C-1,26.454 1.591,28.5 4.333,28.5L4.333,24.5ZM29,23.5C29,23.859 28.606,24.5 27.667,24.5L27.667,28.5C30.409,28.5 33,26.454 33,23.5L29,23.5ZM33,10C33,7.046 30.409,5 27.667,5L27.667,9C28.606,9 29,9.641 29,10L33,10ZM3,10C3,9.641 3.394,9 4.333,9L4.333,5C1.591,5 -1,7.046 -1,10L3,10ZM12.333,16C12.333,16.359 11.94,17 11,17L11,21C13.742,21 16.333,18.954 16.333,16L12.333,16ZM11,17C10.06,17 9.667,16.359 9.667,16L5.667,16C5.667,18.954 8.258,21 11,21L11,17ZM9.667,16C9.667,15.641 10.06,15 11,15L11,11C8.258,11 5.667,13.046 5.667,16L9.667,16ZM11,15C11.94,15 12.333,15.641 12.333,16L16.333,16C16.333,13.046 13.742,11 11,11L11,15ZM11,21C12.432,21 13.495,21.819 13.854,22.731L17.577,21.269C16.563,18.686 13.922,17 11,17L11,21ZM8.146,22.731C8.504,21.819 9.567,21 11,21L11,17C8.078,17 5.437,18.686 4.423,21.269L8.146,22.731ZM21,16.5L26,16.5L26,12.5L21,12.5L21,16.5ZM21,22.5L24.333,22.5L24.333,18.5L21,18.5L21,22.5ZM17.333,5.5L17.333,7L21.333,7L21.333,5.5L17.333,5.5ZM14.667,7L14.667,5.5L10.667,5.5L10.667,7L14.667,7ZM16,8C15.06,8 14.667,7.359 14.667,7L10.667,7C10.667,9.954 13.258,12 16,12L16,8ZM17.333,7C17.333,7.359 16.94,8 16,8L16,12C18.742,12 21.333,9.954 21.333,7L17.333,7ZM16,4.5C16.94,4.5 17.333,5.141 17.333,5.5L21.333,5.5C21.333,2.546 18.742,0.5 16,0.5L16,4.5ZM16,0.5C13.258,0.5 10.667,2.546 10.667,5.5L14.667,5.5C14.667,5.141 15.06,4.5 16,4.5L16,0.5Z" fill="#111827"/>
</svg>
