<svg width="26" height="24" viewBox="0 0 26 24" fill="none" xmlns="http://www.w3.org/2000/svg" xmlns:xlink="http://www.w3.org/1999/xlink">
<path d="M10.4,9.5C10.4,7.843 11.833,6.5 13.6,6.5C15.367,6.5 16.8,7.843 16.8,9.5C16.8,11.157 15.367,12.5 13.6,12.5C12.716,12.5 11.918,12.166 11.337,11.621C10.756,11.077 10.4,10.329 10.4,9.5Z" fill="#111827"/>
<path d="M12,23C19.069,23 24.8,17.627 24.8,11C24.8,4.373 19.069,-1 12,-1C4.931,-1 -0.8,4.373 -0.8,11C-0.8,17.627 4.931,23 12,23ZM13.6,3.5C10.065,3.5 7.2,6.186 7.2,9.5C7.2,10.612 7.524,11.655 8.086,12.548L4.469,15.939C3.844,16.525 3.844,17.475 4.469,18.061C5.093,18.646 6.107,18.646 6.731,18.061L10.349,14.669C11.302,15.197 12.414,15.5 13.6,15.5C17.135,15.5 20,12.814 20,9.5C20,6.186 17.135,3.5 13.6,3.5Z" clip-rule="evenodd" fill-rule="evenodd" fill="#111827"/>
</svg>
