<svg width="24" height="26" viewBox="0 0 24 26" fill="none" xmlns="http://www.w3.org/2000/svg" xmlns:xlink="http://www.w3.org/1999/xlink">
<path d="M2.5,-0.8C0.622,-0.8 -0.9,0.633 -0.9,2.4L-0.9,24.8L5.05,21.6L11,24.8L16.95,21.6L22.9,24.8L22.9,2.4C22.9,0.633 21.378,-0.8 19.5,-0.8L2.5,-0.8ZM10.502,5.131C11.166,4.507 11.166,3.493 10.502,2.869C9.838,2.244 8.762,2.244 8.098,2.869L2.998,7.669C2.334,8.293 2.334,9.307 2.998,9.931L8.098,14.731C8.762,15.356 9.838,15.356 10.502,14.731C11.166,14.107 11.166,13.093 10.502,12.469L8.304,10.4L11,10.4C13.817,10.4 16.1,12.549 16.1,15.2L16.1,16.8C16.1,17.684 16.861,18.4 17.8,18.4C18.739,18.4 19.5,17.684 19.5,16.8L19.5,15.2C19.5,10.782 15.694,7.2 11,7.2L8.304,7.2L10.502,5.131Z" clip-rule="evenodd" fill-rule="evenodd" fill="#111827"/>
</svg>
