<svg width="34" height="28" viewBox="0 0 34 28" fill="none" xmlns="http://www.w3.org/2000/svg" xmlns:xlink="http://www.w3.org/1999/xlink">
<path d="M31.25,9.833L31.25,11.833C32.355,11.833 33.25,10.938 33.25,9.833L31.25,9.833ZM31.25,16.167L33.25,16.167C33.25,15.062 32.355,14.167 31.25,14.167L31.25,16.167ZM2.75,16.167L2.75,14.167C1.645,14.167 0.75,15.062 0.75,16.167L2.75,16.167ZM2.75,9.833L0.75,9.833C0.75,10.938 1.645,11.833 2.75,11.833L2.75,9.833ZM23.75,1.917C23.75,0.812 22.855,-0.083 21.75,-0.083C20.645,-0.083 19.75,0.812 19.75,1.917L23.75,1.917ZM19.75,5.083C19.75,6.188 20.645,7.083 21.75,7.083C22.855,7.083 23.75,6.188 23.75,5.083L19.75,5.083ZM23.75,11.417C23.75,10.312 22.855,9.417 21.75,9.417C20.645,9.417 19.75,10.312 19.75,11.417L23.75,11.417ZM19.75,14.583C19.75,15.688 20.645,16.583 21.75,16.583C22.855,16.583 23.75,15.688 23.75,14.583L19.75,14.583ZM23.75,20.917C23.75,19.812 22.855,18.917 21.75,18.917C20.645,18.917 19.75,19.812 19.75,20.917L23.75,20.917ZM19.75,24.083C19.75,25.188 20.645,26.083 21.75,26.083C22.855,26.083 23.75,25.188 23.75,24.083L19.75,24.083ZM5.917,-0.083C3.063,-0.083 0.75,2.23 0.75,5.083L4.75,5.083C4.75,4.439 5.272,3.917 5.917,3.917L5.917,-0.083ZM28.083,-0.083L5.917,-0.083L5.917,3.917L28.083,3.917L28.083,-0.083ZM33.25,5.083C33.25,2.23 30.937,-0.083 28.083,-0.083L28.083,3.917C28.728,3.917 29.25,4.439 29.25,5.083L33.25,5.083ZM33.25,9.833L33.25,5.083L29.25,5.083L29.25,9.833L33.25,9.833ZM30.083,13C30.083,12.356 30.606,11.833 31.25,11.833L31.25,7.833C28.397,7.833 26.083,10.147 26.083,13L30.083,13ZM31.25,14.167C30.606,14.167 30.083,13.644 30.083,13L26.083,13C26.083,15.853 28.397,18.167 31.25,18.167L31.25,14.167ZM33.25,20.917L33.25,16.167L29.25,16.167L29.25,20.917L33.25,20.917ZM28.083,26.083C30.937,26.083 33.25,23.77 33.25,20.917L29.25,20.917C29.25,21.561 28.728,22.083 28.083,22.083L28.083,26.083ZM5.917,26.083L28.083,26.083L28.083,22.083L5.917,22.083L5.917,26.083ZM0.75,20.917C0.75,23.77 3.063,26.083 5.917,26.083L5.917,22.083C5.272,22.083 4.75,21.561 4.75,20.917L0.75,20.917ZM0.75,16.167L0.75,20.917L4.75,20.917L4.75,16.167L0.75,16.167ZM3.917,13C3.917,13.644 3.394,14.167 2.75,14.167L2.75,18.167C5.603,18.167 7.917,15.853 7.917,13L3.917,13ZM2.75,11.833C3.394,11.833 3.917,12.356 3.917,13L7.917,13C7.917,10.147 5.603,7.833 2.75,7.833L2.75,11.833ZM0.75,5.083L0.75,9.833L4.75,9.833L4.75,5.083L0.75,5.083ZM19.75,1.917L19.75,5.083L23.75,5.083L23.75,1.917L19.75,1.917ZM19.75,11.417L19.75,14.583L23.75,14.583L23.75,11.417L19.75,11.417ZM19.75,20.917L19.75,24.083L23.75,24.083L23.75,20.917L19.75,20.917Z" fill="#111827"/>
</svg>
