<svg width="34" height="36" viewBox="0 0 34 36" fill="none" xmlns="http://www.w3.org/2000/svg" xmlns:xlink="http://www.w3.org/1999/xlink">
<path d="M9.083,26C10.188,26 11.083,25.105 11.083,24C11.083,22.895 10.188,22 9.083,22L9.083,26ZM23.175,9.001L21.22,9.42C21.42,10.356 22.255,11.019 23.212,11.001L23.175,9.001ZM7.691,12.145L8.107,14.102C8.633,13.99 9.093,13.67 9.381,13.216C9.669,12.761 9.761,12.209 9.638,11.686L7.691,12.145ZM24.539,21.886C23.454,22.095 22.744,23.143 22.953,24.228C23.161,25.312 24.21,26.023 25.294,25.814L24.539,21.886ZM20.375,20.952C21.176,21.712 22.442,21.677 23.202,20.875C23.962,20.074 23.927,18.808 23.125,18.048L20.375,20.952ZM17,15L18.375,13.548C17.604,12.817 16.396,12.817 15.625,13.548L17,15ZM10.875,18.048C10.073,18.808 10.038,20.074 10.798,20.875C11.558,21.677 12.824,21.712 13.625,20.952L10.875,18.048ZM15,33C15,34.105 15.895,35 17,35C18.105,35 19,34.105 19,33L15,33ZM9.083,22C6.587,22 4.75,20.109 4.75,18L0.75,18C0.75,22.519 4.584,26 9.083,26L9.083,22ZM23.333,11C26.704,11 29.25,13.563 29.25,16.5L33.25,16.5C33.25,11.153 28.707,7 23.333,7L23.333,11ZM23.212,11.001C23.253,11 23.293,11 23.333,11L23.333,7C23.268,7 23.203,7.001 23.138,7.002L23.212,11.001ZM15.417,5C18.358,5 20.695,6.97 21.22,9.42L25.131,8.583C24.19,4.185 20.137,1 15.417,1L15.417,5ZM9.5,10.5C9.5,7.563 12.046,5 15.417,5L15.417,1C10.043,1 5.5,5.153 5.5,10.5L9.5,10.5ZM9.638,11.686C9.548,11.305 9.5,10.909 9.5,10.5L5.5,10.5C5.5,11.222 5.584,11.927 5.745,12.605L9.638,11.686ZM4.75,18C4.75,16.174 6.111,14.526 8.107,14.102L7.275,10.189C3.615,10.967 0.75,14.104 0.75,18L4.75,18ZM29.25,16.5C29.25,19.078 27.304,21.354 24.539,21.886L25.294,25.814C29.756,24.956 33.25,21.179 33.25,16.5L29.25,16.5ZM23.125,18.048L18.375,13.548L15.625,16.452L20.375,20.952L23.125,18.048ZM15.625,13.548L10.875,18.048L13.625,20.952L18.375,16.452L15.625,13.548ZM15,15L15,33L19,33L19,15L15,15Z" fill="#111827"/>
</svg>
