<svg width="34" height="30" viewBox="0 0 34 30" fill="none" xmlns="http://www.w3.org/2000/svg" xmlns:xlink="http://www.w3.org/1999/xlink">
<path d="M4.959,21.777L6.831,22.479C7.065,21.856 6.973,21.157 6.587,20.615L4.959,21.777ZM2.75,27.667L0.877,26.964C0.622,27.644 0.756,28.409 1.226,28.962C1.697,29.516 2.43,29.77 3.142,29.628L2.75,27.667ZM10.262,26.164L11.125,24.36C10.734,24.173 10.294,24.118 9.87,24.203L10.262,26.164ZM10.667,13C9.562,13 8.667,13.895 8.667,15C8.667,16.105 9.562,17 10.667,17L10.667,13ZM10.683,17C11.787,17 12.683,16.105 12.683,15C12.683,13.895 11.787,13 10.683,13L10.683,17ZM17,13C15.895,13 15,13.895 15,15C15,16.105 15.895,17 17,17L17,13ZM17.016,17C18.12,17 19.016,16.105 19.016,15C19.016,13.895 18.12,13 17.016,13L17.016,17ZM23.333,13C22.229,13 21.333,13.895 21.333,15C21.333,16.105 22.229,17 23.333,17L23.333,13ZM23.349,17C24.454,17 25.349,16.105 25.349,15C25.349,13.895 24.454,13 23.349,13L23.349,17ZM29.25,15C29.25,20.676 23.993,25.667 17,25.667L17,29.667C25.747,29.667 33.25,23.315 33.25,15L29.25,15ZM17,4.333C23.993,4.333 29.25,9.324 29.25,15L33.25,15C33.25,6.685 25.747,0.333 17,0.333L17,4.333ZM4.75,15C4.75,9.324 10.007,4.333 17,4.333L17,0.333C8.253,0.333 0.75,6.685 0.75,15L4.75,15ZM6.587,20.615C5.413,18.97 4.75,17.048 4.75,15L0.75,15C0.75,17.938 1.707,20.664 3.331,22.939L6.587,20.615ZM4.623,28.369L6.831,22.479L3.086,21.074L0.877,26.964L4.623,28.369ZM9.87,24.203L2.358,25.706L3.142,29.628L10.655,28.125L9.87,24.203ZM17,25.667C14.861,25.667 12.861,25.19 11.125,24.36L9.4,27.969C11.676,29.056 14.265,29.667 17,29.667L17,25.667ZM10.667,17L10.683,17L10.683,13L10.667,13L10.667,17ZM17,17L17.016,17L17.016,13L17,13L17,17ZM23.333,17L23.349,17L23.349,13L23.333,13L23.333,17Z" fill="#111827"/>
</svg>
