<svg width="24" height="24" viewBox="0 0 24 24" fill="none" xmlns="http://www.w3.org/2000/svg" xmlns:xlink="http://www.w3.org/1999/xlink">
<path d="M0.8,2.4C0.8,1.516 1.516,0.8 2.4,0.8L7.2,0.8C8.084,0.8 8.8,1.516 8.8,2.4L8.8,7.2C8.8,8.084 8.084,8.8 7.2,8.8L2.4,8.8C1.516,8.8 0.8,8.084 0.8,7.2L0.8,2.4ZM4,5.6L4,4L5.6,4L5.6,5.6L4,5.6Z" clip-rule="evenodd" fill-rule="evenodd" fill="#111827"/>
<path d="M0.8,16.8C0.8,15.916 1.516,15.2 2.4,15.2L7.2,15.2C8.084,15.2 8.8,15.916 8.8,16.8L8.8,21.6C8.8,22.484 8.084,23.2 7.2,23.2L2.4,23.2C1.516,23.2 0.8,22.484 0.8,21.6L0.8,16.8ZM4,20L4,18.4L5.6,18.4L5.6,20L4,20Z" clip-rule="evenodd" fill-rule="evenodd" fill="#111827"/>
<path d="M16.8,0.8C15.916,0.8 15.2,1.516 15.2,2.4L15.2,7.2C15.2,8.084 15.916,8.8 16.8,8.8L21.6,8.8C22.484,8.8 23.2,8.084 23.2,7.2L23.2,2.4C23.2,1.516 22.484,0.8 21.6,0.8L16.8,0.8ZM18.4,4L18.4,5.6L20,5.6L20,4L18.4,4Z" clip-rule="evenodd" fill-rule="evenodd" fill="#111827"/>
<path d="M13.6,2.4C13.6,1.516 12.884,0.8 12,0.8C11.116,0.8 10.4,1.516 10.4,2.4L10.4,4C10.4,4.884 11.116,5.6 12,5.6C12.884,5.6 13.6,4.884 13.6,4L13.6,2.4Z" fill="#111827"/>
<path d="M12,7.2C12.884,7.2 13.6,7.916 13.6,8.8L13.6,10.4L16.8,10.4C17.684,10.4 18.4,11.116 18.4,12C18.4,12.884 17.684,13.6 16.8,13.6L12,13.6C11.116,13.6 10.4,12.884 10.4,12L10.4,8.8C10.4,7.916 11.116,7.2 12,7.2Z" fill="#111827"/>
<path d="M21.6,10.4C20.716,10.4 20,11.116 20,12C20,12.884 20.716,13.6 21.6,13.6C22.484,13.6 23.2,12.884 23.2,12C23.2,11.116 22.484,10.4 21.6,10.4Z" fill="#111827"/>
<path d="M10.4,16.8C10.4,15.916 11.116,15.2 12,15.2L13.6,15.2C14.484,15.2 15.2,15.916 15.2,16.8C15.2,17.684 14.484,18.4 13.6,18.4L13.6,21.6C13.6,22.484 12.884,23.2 12,23.2C11.116,23.2 10.4,22.484 10.4,21.6L10.4,16.8Z" fill="#111827"/>
<path d="M7.2,13.6C8.084,13.6 8.8,12.884 8.8,12C8.8,11.116 8.084,10.4 7.2,10.4L2.4,10.4C1.516,10.4 0.8,11.116 0.8,12C0.8,12.884 1.516,13.6 2.4,13.6L7.2,13.6Z" fill="#111827"/>
<path d="M23.2,16.8C23.2,17.684 22.484,18.4 21.6,18.4L18.4,18.4C17.516,18.4 16.8,17.684 16.8,16.8C16.8,15.916 17.516,15.2 18.4,15.2L21.6,15.2C22.484,15.2 23.2,15.916 23.2,16.8Z" fill="#111827"/>
<path d="M21.6,23.2C22.484,23.2 23.2,22.484 23.2,21.6C23.2,20.716 22.484,20 21.6,20L16.8,20C15.916,20 15.2,20.716 15.2,21.6C15.2,22.484 15.916,23.2 16.8,23.2L21.6,23.2Z" fill="#111827"/>
</svg>
