<svg width="36" height="30" viewBox="0 0 36 30" fill="none" xmlns="http://www.w3.org/2000/svg" xmlns:xlink="http://www.w3.org/1999/xlink">
<path d="M13.428,13.219L14.724,14.743C15.357,14.205 15.592,13.33 15.312,12.547L13.428,13.219ZM9.667,27.75L9.667,29.75C10.771,29.75 11.667,28.855 11.667,27.75L9.667,27.75ZM9.667,24.917L9.667,22.917C8.562,22.917 7.667,23.812 7.667,24.917L9.667,24.917ZM13,24.917L13,26.917C14.105,26.917 15,26.021 15,24.917L13,24.917ZM13,22.083L13,20.083C11.895,20.083 11,20.979 11,22.083L13,22.083ZM16.333,22.083L16.333,24.083C16.808,24.083 17.267,23.915 17.629,23.607L16.333,22.083ZM20.095,18.886L20.594,16.949C19.964,16.787 19.295,16.941 18.8,17.362L20.095,18.886ZM3.488,21.668L4.783,23.192L3.488,21.668ZM23,5.917C21.895,5.917 21,6.812 21,7.917C21,9.021 21.895,9.917 23,9.917L23,5.917ZM24.333,10.75C24.333,11.855 25.229,12.75 26.333,12.75C27.438,12.75 28.333,11.855 28.333,10.75L24.333,10.75ZM31,10.75C31,14.047 27.735,17.25 23,17.25L23,21.25C29.31,21.25 35,16.841 35,10.75L31,10.75ZM23,4.25C27.735,4.25 31,7.453 31,10.75L35,10.75C35,4.659 29.31,0.25 23,0.25L23,4.25ZM15,10.75C15,7.453 18.265,4.25 23,4.25L23,0.25C16.69,0.25 11,4.659 11,10.75L15,10.75ZM15.312,12.547C15.108,11.976 15,11.374 15,10.75L11,10.75C11,11.844 11.191,12.9 11.545,13.891L15.312,12.547ZM12.133,11.695L2.193,20.145L4.783,23.192L14.724,14.743L12.133,11.695ZM1,22.67L1,26.333L5,26.333L5,22.67L1,22.67ZM4.667,29.75L9.667,29.75L9.667,25.75L4.667,25.75L4.667,29.75ZM11.667,27.75L11.667,24.917L7.667,24.917L7.667,27.75L11.667,27.75ZM9.667,26.917L13,26.917L13,22.917L9.667,22.917L9.667,26.917ZM15,24.917L15,22.083L11,22.083L11,24.917L15,24.917ZM13,24.083L16.333,24.083L16.333,20.083L13,20.083L13,24.083ZM17.629,23.607L21.39,20.41L18.8,17.362L15.038,20.559L17.629,23.607ZM23,17.25C22.158,17.25 21.35,17.144 20.594,16.949L19.596,20.823C20.679,21.101 21.822,21.25 23,21.25L23,17.25ZM1,26.333C1,28.513 2.959,29.75 4.667,29.75L4.667,25.75C4.661,25.75 4.708,25.747 4.783,25.811C4.863,25.879 5,26.056 5,26.333L1,26.333ZM2.193,20.145C1.48,20.751 1,21.649 1,22.67L5,22.67C5,22.939 4.872,23.117 4.783,23.192L2.193,20.145ZM23,9.917C23.466,9.917 23.835,10.078 24.062,10.27C24.284,10.459 24.333,10.636 24.333,10.75L28.333,10.75C28.333,7.788 25.628,5.917 23,5.917L23,9.917Z" fill="#111827"/>
</svg>
