<svg width="28" height="24" viewBox="0 0 28 24" fill="none" xmlns="http://www.w3.org/2000/svg" xmlns:xlink="http://www.w3.org/1999/xlink">
<path d="M-0.6,2.4C-0.6,1.516 0.161,0.8 1.1,0.8L4.5,0.8C5.439,0.8 6.2,1.516 6.2,2.4L6.2,21.6C6.2,22.484 5.439,23.2 4.5,23.2L1.1,23.2C0.161,23.2 -0.6,22.484 -0.6,21.6L-0.6,2.4Z" fill="#111827"/>
<path d="M9.6,2.4C9.6,1.516 10.361,0.8 11.3,0.8L14.7,0.8C15.639,0.8 16.4,1.516 16.4,2.4L16.4,21.6C16.4,22.484 15.639,23.2 14.7,23.2L11.3,23.2C10.361,23.2 9.6,22.484 9.6,21.6L9.6,2.4Z" fill="#111827"/>
<path d="M21.5,0.8C20.561,0.8 19.8,1.516 19.8,2.4L19.8,21.6C19.8,22.484 20.561,23.2 21.5,23.2L24.9,23.2C25.839,23.2 26.6,22.484 26.6,21.6L26.6,2.4C26.6,1.516 25.839,0.8 24.9,0.8L21.5,0.8Z" fill="#111827"/>
</svg>
