<svg width="26" height="24" viewBox="0 0 26 24" fill="none" xmlns="http://www.w3.org/2000/svg" xmlns:xlink="http://www.w3.org/1999/xlink">
<path d="M12,23.2C19.069,23.2 24.8,18.186 24.8,12C24.8,5.814 19.069,0.8 12,0.8C4.931,0.8 -0.8,5.814 -0.8,12C-0.8,18.186 4.931,23.2 12,23.2ZM11.287,8.035C10.796,7.749 10.165,7.722 9.645,7.966C9.125,8.209 8.8,8.684 8.8,9.2L8.8,14.8C8.8,15.316 9.125,15.791 9.645,16.034C10.165,16.278 10.796,16.251 11.287,15.965L16.087,13.165C16.533,12.905 16.8,12.468 16.8,12C16.8,11.532 16.533,11.095 16.087,10.835L11.287,8.035Z" clip-rule="evenodd" fill-rule="evenodd" fill="#111827"/>
</svg>
