<svg width="34" height="28" viewBox="0 0 34 28" fill="none" xmlns="http://www.w3.org/2000/svg" xmlns:xlink="http://www.w3.org/1999/xlink">
<path d="M4.333,4L29.667,4L29.667,0L4.333,0L4.333,4ZM29.25,3.5L29.25,24.5L33.25,24.5L33.25,3.5L29.25,3.5ZM29.667,24L4.333,24L4.333,28L29.667,28L29.667,24ZM4.75,24.5L4.75,3.5L0.75,3.5L0.75,24.5L4.75,24.5ZM4.333,24C4.413,24 4.508,24.032 4.589,24.109C4.672,24.187 4.75,24.326 4.75,24.5L0.75,24.5C0.75,26.534 2.458,28 4.333,28L4.333,24ZM29.25,24.5C29.25,24.326 29.328,24.187 29.411,24.109C29.492,24.032 29.587,24 29.667,24L29.667,28C31.542,28 33.25,26.534 33.25,24.5L29.25,24.5ZM29.667,4C29.587,4 29.492,3.968 29.411,3.891C29.328,3.813 29.25,3.674 29.25,3.5L33.25,3.5C33.25,1.466 31.542,0 29.667,0L29.667,4ZM4.333,0C2.458,0 0.75,1.466 0.75,3.5L4.75,3.5C4.75,3.674 4.672,3.813 4.589,3.891C4.508,3.968 4.413,4 4.333,4L4.333,0ZM7.083,2L7.083,26L11.083,26L11.083,2L7.083,2ZM22.917,2L22.917,26L26.917,26L26.917,2L22.917,2ZM2.75,10L9.083,10L9.083,6L2.75,6L2.75,10ZM24.917,10L31.25,10L31.25,6L24.917,6L24.917,10ZM2.75,22L9.083,22L9.083,18L2.75,18L2.75,22ZM24.917,22L31.25,22L31.25,18L24.917,18L24.917,22ZM2.75,16L31.25,16L31.25,12L2.75,12L2.75,16Z" fill="#111827"/>
</svg>
