<svg width="34" height="28" viewBox="0 0 34 28" fill="none" xmlns="http://www.w3.org/2000/svg" xmlns:xlink="http://www.w3.org/1999/xlink">
<path d="M12.25,18.667L14.25,18.667C14.25,17.562 13.355,16.667 12.25,16.667L12.25,18.667ZM12.25,25.75L10.25,25.75C10.25,26.539 10.714,27.254 11.434,27.576C12.154,27.898 12.996,27.766 13.584,27.24L12.25,25.75ZM20.167,18.667L20.167,16.667C19.675,16.667 19.2,16.848 18.833,17.176L20.167,18.667ZM10.667,8.167C9.562,8.167 8.667,9.062 8.667,10.167C8.667,11.271 9.562,12.167 10.667,12.167L10.667,8.167ZM10.683,12.167C11.787,12.167 12.683,11.271 12.683,10.167C12.683,9.062 11.787,8.167 10.683,8.167L10.683,12.167ZM17,8.167C15.895,8.167 15,9.062 15,10.167C15,11.271 15.895,12.167 17,12.167L17,8.167ZM17.016,12.167C18.12,12.167 19.016,11.271 19.016,10.167C19.016,9.062 18.12,8.167 17.016,8.167L17.016,12.167ZM23.333,8.167C22.229,8.167 21.333,9.062 21.333,10.167C21.333,11.271 22.229,12.167 23.333,12.167L23.333,8.167ZM23.349,12.167C24.454,12.167 25.349,11.271 25.349,10.167C25.349,9.062 24.454,8.167 23.349,8.167L23.349,12.167ZM5.917,3.667L28.083,3.667L28.083,-0.333L5.917,-0.333L5.917,3.667ZM29.25,4.5L29.25,15.833L33.25,15.833L33.25,4.5L29.25,4.5ZM4.75,15.833L4.75,4.5L0.75,4.5L0.75,15.833L4.75,15.833ZM12.25,16.667L5.917,16.667L5.917,20.667L12.25,20.667L12.25,16.667ZM14.25,25.75L14.25,18.667L10.25,18.667L10.25,25.75L14.25,25.75ZM28.083,16.667L20.167,16.667L20.167,20.667L28.083,20.667L28.083,16.667ZM18.833,17.176L10.916,24.259L13.584,27.24L21.5,20.157L18.833,17.176ZM0.75,15.833C0.75,18.706 3.278,20.667 5.917,20.667L5.917,16.667C5.525,16.667 5.211,16.525 5.011,16.346C4.815,16.171 4.75,15.986 4.75,15.833L0.75,15.833ZM29.25,15.833C29.25,15.986 29.185,16.171 28.989,16.346C28.789,16.525 28.475,16.667 28.083,16.667L28.083,20.667C30.722,20.667 33.25,18.706 33.25,15.833L29.25,15.833ZM28.083,3.667C28.475,3.667 28.789,3.808 28.989,3.987C29.185,4.162 29.25,4.347 29.25,4.5L33.25,4.5C33.25,1.627 30.722,-0.333 28.083,-0.333L28.083,3.667ZM5.917,-0.333C3.278,-0.333 0.75,1.627 0.75,4.5L4.75,4.5C4.75,4.347 4.815,4.162 5.011,3.987C5.211,3.808 5.525,3.667 5.917,3.667L5.917,-0.333ZM10.667,12.167L10.683,12.167L10.683,8.167L10.667,8.167L10.667,12.167ZM17,12.167L17.016,12.167L17.016,8.167L17,8.167L17,12.167ZM23.333,12.167L23.349,12.167L23.349,8.167L23.333,8.167L23.333,12.167Z" fill="#111827"/>
</svg>
