<svg width="34" height="32" viewBox="0 0 34 32" fill="none" xmlns="http://www.w3.org/2000/svg" xmlns:xlink="http://www.w3.org/1999/xlink">
<path d="M22.052,21.729C22.873,20.99 22.94,19.726 22.201,18.905C21.462,18.084 20.197,18.017 19.376,18.756L22.052,21.729ZM12.624,18.756C11.803,18.017 10.538,18.084 9.799,18.905C9.06,19.726 9.127,20.99 9.948,21.729L12.624,18.756ZM11,11C9.895,11 9,11.895 9,13C9,14.105 9.895,15 11,15L11,11ZM11.017,15C12.121,15 13.017,14.105 13.017,13C13.017,11.895 12.121,11 11.017,11L11.017,15ZM21,11C19.895,11 19,11.895 19,13C19,14.105 19.895,15 21,15L21,11ZM21.017,15C22.121,15 23.017,14.105 23.017,13C23.017,11.895 22.121,11 21.017,11L21.017,15ZM29,16C29,22.158 23.383,27.5 16,27.5L16,31.5C25.185,31.5 33,24.753 33,16L29,16ZM16,27.5C8.617,27.5 3,22.158 3,16L-1,16C-1,24.753 6.815,31.5 16,31.5L16,27.5ZM3,16C3,9.842 8.617,4.5 16,4.5L16,0.5C6.815,0.5 -1,7.247 -1,16L3,16ZM16,4.5C23.383,4.5 29,9.842 29,16L33,16C33,7.247 25.185,0.5 16,0.5L16,4.5ZM19.376,18.756C17.533,20.415 14.467,20.415 12.624,18.756L9.948,21.729C13.312,24.757 18.688,24.757 22.052,21.729L19.376,18.756ZM11,15L11.017,15L11.017,11L11,11L11,15ZM21,15L21.017,15L21.017,11L21,11L21,15Z" fill="#111827"/>
</svg>
