<svg width="26" height="24" viewBox="0 0 26 24" fill="none" xmlns="http://www.w3.org/2000/svg" xmlns:xlink="http://www.w3.org/1999/xlink">
<path d="M24.8,12C24.8,18.186 19.069,23.2 12,23.2C9.613,23.2 7.379,22.628 5.467,21.633L-0.8,23.2L1.341,18.204C-0.012,16.428 -0.8,14.294 -0.8,12C-0.8,5.814 4.931,0.8 12,0.8C19.069,0.8 24.8,5.814 24.8,12ZM7.2,10.4L4,10.4L4,13.6L7.2,13.6L7.2,10.4ZM20,10.4L16.8,10.4L16.8,13.6L20,13.6L20,10.4ZM10.4,10.4L13.6,10.4L13.6,13.6L10.4,13.6L10.4,10.4Z" clip-rule="evenodd" fill-rule="evenodd" fill="#111827"/>
</svg>
