<svg width="26" height="22" viewBox="0 0 26 22" fill="none" xmlns="http://www.w3.org/2000/svg" xmlns:xlink="http://www.w3.org/1999/xlink">
<path d="M0.8,0.2C-0.084,0.2 -0.8,0.827 -0.8,1.6C-0.8,2.373 -0.084,3 0.8,3L0.8,14.2C0.8,15.746 2.233,17 4,17L8.137,17L6.069,18.81C5.444,19.357 5.444,20.243 6.069,20.79C6.693,21.337 7.706,21.337 8.331,20.79L12,17.58L15.669,20.79C16.293,21.337 17.306,21.337 17.931,20.79C18.556,20.243 18.556,19.357 17.931,18.81L15.863,17L20,17C21.767,17 23.2,15.746 23.2,14.2L23.2,3C24.084,3 24.8,2.373 24.8,1.6C24.8,0.827 24.084,0.2 23.2,0.2L0.8,0.2ZM18.4,5.8C18.4,5.027 17.684,4.4 16.8,4.4C15.916,4.4 15.2,5.027 15.2,5.8L15.2,11.4C15.2,12.173 15.916,12.8 16.8,12.8C17.684,12.8 18.4,12.173 18.4,11.4L18.4,5.8ZM13.6,7.2C13.6,6.427 12.884,5.8 12,5.8C11.116,5.8 10.4,6.427 10.4,7.2L10.4,11.4C10.4,12.173 11.116,12.8 12,12.8C12.884,12.8 13.6,12.173 13.6,11.4L13.6,7.2ZM8.8,8.6C8.8,7.827 8.084,7.2 7.2,7.2C6.316,7.2 5.6,7.827 5.6,8.6L5.6,11.4C5.6,12.173 6.316,12.8 7.2,12.8C8.084,12.8 8.8,12.173 8.8,11.4L8.8,8.6Z" clip-rule="evenodd" fill-rule="evenodd" fill="#111827"/>
</svg>
