<svg width="26" height="26" viewBox="0 0 26 26" fill="none" xmlns="http://www.w3.org/2000/svg" xmlns:xlink="http://www.w3.org/1999/xlink">
<path d="M15.2,0.379L8.8,6.379L8.8,25.621L15.2,19.621L15.2,0.379Z" clip-rule="evenodd" fill-rule="evenodd" fill="#111827"/>
<path d="M1.931,2.939C1.474,2.51 0.786,2.382 0.188,2.614C-0.41,2.846 -0.8,3.393 -0.8,4L-0.8,19C-0.8,19.398 -0.631,19.779 -0.331,20.061L5.6,25.621L5.6,6.379L1.931,2.939Z" clip-rule="evenodd" fill-rule="evenodd" fill="#111827"/>
<path d="M24.331,5.939L18.4,0.379L18.4,19.621L22.069,23.061C22.526,23.49 23.214,23.618 23.812,23.386C24.41,23.154 24.8,22.607 24.8,22L24.8,7C24.8,6.602 24.631,6.221 24.331,5.939Z" clip-rule="evenodd" fill-rule="evenodd" fill="#111827"/>
</svg>
