<svg width="34" height="32" viewBox="0 0 34 32" fill="none" xmlns="http://www.w3.org/2000/svg" xmlns:xlink="http://www.w3.org/1999/xlink">
<path d="M9.083,17L11.083,17C11.083,15.895 10.188,15 9.083,15L9.083,17ZM9.083,23L7.083,23C7.083,23.799 7.559,24.522 8.293,24.837C9.027,25.153 9.879,25.001 10.459,24.452L9.083,23ZM15.417,17L15.417,15C14.905,15 14.413,15.196 14.041,15.548L15.417,17ZM24.917,23L24.917,21C23.812,21 22.917,21.895 22.917,23L24.917,23ZM24.917,29L23.541,30.452C24.121,31.001 24.973,31.153 25.707,30.837C26.441,30.522 26.917,29.799 26.917,29L24.917,29ZM18.583,23L19.959,21.548C19.587,21.196 19.095,21 18.583,21L18.583,23ZM24.917,6C23.812,6 22.917,6.895 22.917,8C22.917,9.105 23.812,10 24.917,10L24.917,6ZM10.011,22.121L8.635,20.669L8.635,20.669L10.011,22.121ZM5.917,4L21.75,4L21.75,0L5.917,0L5.917,4ZM22.917,5L22.917,14L26.917,14L26.917,5L22.917,5ZM4.75,14L4.75,5L0.75,5L0.75,14L4.75,14ZM9.083,15L5.917,15L5.917,19L9.083,19L9.083,15ZM11.083,23L11.083,17L7.083,17L7.083,23L11.083,23ZM21.75,15L15.417,15L15.417,19L21.75,19L21.75,15ZM0.75,14C0.75,16.862 3.166,19 5.917,19L5.917,15C5.169,15 4.75,14.452 4.75,14L0.75,14ZM22.917,14C22.917,14.452 22.498,15 21.75,15L21.75,19C24.5,19 26.917,16.862 26.917,14L22.917,14ZM21.75,4C22.498,4 22.917,4.548 22.917,5L26.917,5C26.917,2.138 24.5,0 21.75,0L21.75,4ZM5.917,0C3.166,0 0.75,2.138 0.75,5L4.75,5C4.75,4.548 5.169,4 5.917,4L5.917,0ZM33.25,20L33.25,11L29.25,11L29.25,20L33.25,20ZM24.917,25L28.083,25L28.083,21L24.917,21L24.917,25ZM26.917,29L26.917,23L22.917,23L22.917,29L26.917,29ZM12.25,25L18.583,25L18.583,21L12.25,21L12.25,25ZM17.208,24.452L23.541,30.452L26.292,27.548L19.959,21.548L17.208,24.452ZM29.25,20C29.25,20.452 28.831,21 28.083,21L28.083,25C30.834,25 33.25,22.862 33.25,20L29.25,20ZM28.083,10C28.831,10 29.25,10.548 29.25,11L33.25,11C33.25,8.138 30.834,6 28.083,6L28.083,10ZM28.083,6L24.917,6L24.917,10L28.083,10L28.083,6ZM8.635,23.573C9.576,24.464 10.858,25 12.25,25L12.25,21C11.893,21 11.592,20.864 11.386,20.669L8.635,23.573ZM14.041,15.548L8.635,20.669L11.386,23.573L16.792,18.452L14.041,15.548ZM8.635,20.669L7.708,21.548L10.459,24.452L11.386,23.573L8.635,20.669Z" fill="#111827"/>
</svg>
