<svg width="34" height="32" viewBox="0 0 34 32" fill="none" xmlns="http://www.w3.org/2000/svg" xmlns:xlink="http://www.w3.org/1999/xlink">
<path d="M4.333,16.5L7.667,16.5L7.667,12.5L4.333,12.5L4.333,16.5ZM9,17.5L9,26.5L13,26.5L13,17.5L9,17.5ZM7.667,27.5L4.333,27.5L4.333,31.5L7.667,31.5L7.667,27.5ZM3,26.5L3,17.5L-1,17.5L-1,26.5L3,26.5ZM4.333,27.5C3.394,27.5 3,26.859 3,26.5L-1,26.5C-1,29.454 1.591,31.5 4.333,31.5L4.333,27.5ZM9,26.5C9,26.859 8.606,27.5 7.667,27.5L7.667,31.5C10.409,31.5 13,29.454 13,26.5L9,26.5ZM7.667,16.5C8.606,16.5 9,17.141 9,17.5L13,17.5C13,14.546 10.409,12.5 7.667,12.5L7.667,16.5ZM4.333,12.5C1.591,12.5 -1,14.546 -1,17.5L3,17.5C3,17.141 3.394,16.5 4.333,16.5L4.333,12.5ZM14.333,10.5L17.667,10.5L17.667,6.5L14.333,6.5L14.333,10.5ZM19,11.5L19,26.5L23,26.5L23,11.5L19,11.5ZM17.667,27.5L14.333,27.5L14.333,31.5L17.667,31.5L17.667,27.5ZM13,26.5L13,11.5L9,11.5L9,26.5L13,26.5ZM14.333,27.5C13.394,27.5 13,26.859 13,26.5L9,26.5C9,29.454 11.591,31.5 14.333,31.5L14.333,27.5ZM19,26.5C19,26.859 18.606,27.5 17.667,27.5L17.667,31.5C20.409,31.5 23,29.454 23,26.5L19,26.5ZM17.667,10.5C18.606,10.5 19,11.141 19,11.5L23,11.5C23,8.546 20.409,6.5 17.667,6.5L17.667,10.5ZM14.333,6.5C11.591,6.5 9,8.546 9,11.5L13,11.5C13,11.141 13.394,10.5 14.333,10.5L14.333,6.5ZM24.333,4.5L27.667,4.5L27.667,0.5L24.333,0.5L24.333,4.5ZM29,5.5L29,26.5L33,26.5L33,5.5L29,5.5ZM27.667,27.5L24.333,27.5L24.333,31.5L27.667,31.5L27.667,27.5ZM23,26.5L23,5.5L19,5.5L19,26.5L23,26.5ZM24.333,27.5C23.394,27.5 23,26.859 23,26.5L19,26.5C19,29.454 21.591,31.5 24.333,31.5L24.333,27.5ZM29,26.5C29,26.859 28.606,27.5 27.667,27.5L27.667,31.5C30.409,31.5 33,29.454 33,26.5L29,26.5ZM27.667,4.5C28.606,4.5 29,5.141 29,5.5L33,5.5C33,2.546 30.409,0.5 27.667,0.5L27.667,4.5ZM24.333,0.5C21.591,0.5 19,2.546 19,5.5L23,5.5C23,5.141 23.394,4.5 24.333,4.5L24.333,0.5Z" fill="#111827"/>
</svg>
