<svg width="28" height="26" viewBox="0 0 28 26" fill="none" xmlns="http://www.w3.org/2000/svg" xmlns:xlink="http://www.w3.org/1999/xlink">
<path d="M13,25C20.511,25 26.6,19.627 26.6,13C26.6,6.373 20.511,1 13,1C5.489,1 -0.6,6.373 -0.6,13C-0.6,19.627 5.489,25 13,25ZM3.364,10.041C3.999,8.43 5.139,7.028 6.615,5.981C7.071,6.595 7.857,7 8.75,7C10.158,7 11.3,8.007 11.3,9.25L11.3,10C11.3,11.657 12.822,13 14.7,13C16.578,13 18.1,11.657 18.1,10C18.1,8.59 19.203,7.407 20.689,7.086C22.253,8.667 23.2,10.736 23.2,13C23.2,13.511 23.152,14.012 23.059,14.5L21.5,14.5C19.622,14.5 18.1,15.843 18.1,17.5L18.1,20.796C16.6,21.562 14.858,22 13,22L13,19C13,17.343 11.478,16 9.6,16C7.722,16 6.2,14.657 6.2,13C6.2,11.513 4.973,10.278 3.364,10.041Z" clip-rule="evenodd" fill-rule="evenodd" fill="#111827"/>
</svg>
