<svg width="26" height="26" viewBox="0 0 26 26" fill="none" xmlns="http://www.w3.org/2000/svg" xmlns:xlink="http://www.w3.org/1999/xlink">
<path d="M-0.8,2.5C-0.8,1.672 -0.084,1 0.8,1L4.245,1C5.027,1 5.694,1.53 5.823,2.253L7.006,8.907C7.121,9.557 6.771,10.201 6.143,10.495L3.666,11.657C5.452,15.817 8.995,19.139 13.433,20.813L14.671,18.491C14.986,17.902 15.673,17.574 16.366,17.682L23.463,18.791C24.235,18.912 24.8,19.537 24.8,20.271L24.8,23.5C24.8,24.328 24.084,25 23.2,25L20,25C8.512,25 -0.8,16.27 -0.8,5.5L-0.8,2.5Z" fill="#111827"/>
</svg>
