<svg width="30" height="28" viewBox="0 0 30 28" fill="none" xmlns="http://www.w3.org/2000/svg" xmlns:xlink="http://www.w3.org/1999/xlink">
<path d="M18.8,8.5L9.2,8.5L9.2,17.5L18.8,17.5L18.8,8.5Z" fill="#111827"/>
<path d="M9.2,1C9.2,0.172 9.916,-0.5 10.8,-0.5C11.684,-0.5 12.4,0.172 12.4,1L12.4,2.5L15.6,2.5L15.6,1C15.6,0.172 16.316,-0.5 17.2,-0.5C18.084,-0.5 18.8,0.172 18.8,1L18.8,2.5L22,2.5C23.767,2.5 25.2,3.843 25.2,5.5L25.2,8.5L26.8,8.5C27.684,8.5 28.4,9.172 28.4,10C28.4,10.828 27.684,11.5 26.8,11.5L25.2,11.5L25.2,14.5L26.8,14.5C27.684,14.5 28.4,15.172 28.4,16C28.4,16.828 27.684,17.5 26.8,17.5L25.2,17.5L25.2,20.5C25.2,22.157 23.767,23.5 22,23.5L18.8,23.5L18.8,25C18.8,25.828 18.084,26.5 17.2,26.5C16.316,26.5 15.6,25.828 15.6,25L15.6,23.5L12.4,23.5L12.4,25C12.4,25.828 11.684,26.5 10.8,26.5C9.916,26.5 9.2,25.828 9.2,25L9.2,23.5L6,23.5C4.233,23.5 2.8,22.157 2.8,20.5L2.8,17.5L1.2,17.5C0.316,17.5 -0.4,16.828 -0.4,16C-0.4,15.172 0.316,14.5 1.2,14.5L2.8,14.5L2.8,11.5L1.2,11.5C0.316,11.5 -0.4,10.828 -0.4,10C-0.4,9.172 0.316,8.5 1.2,8.5L2.8,8.5L2.8,5.5C2.8,3.843 4.233,2.5 6,2.5L9.2,2.5L9.2,1ZM6,5.5L22,5.5L22,20.5L6,20.5L6,5.5Z" clip-rule="evenodd" fill-rule="evenodd" fill="#111827"/>
</svg>
