<svg width="26" height="32" viewBox="0 0 26 32" fill="none" xmlns="http://www.w3.org/2000/svg" xmlns:xlink="http://www.w3.org/1999/xlink">
<path d="M12,23C10.895,23 10,23.895 10,25C10,26.105 10.895,27 12,27L12,23ZM12.015,27C13.12,27 14.015,26.105 14.015,25C14.015,23.895 13.12,23 12.015,23L12.015,27ZM4.5,4.5L19.5,4.5L19.5,0.5L4.5,0.5L4.5,4.5ZM20.5,5.5L20.5,26.5L24.5,26.5L24.5,5.5L20.5,5.5ZM19.5,27.5L4.5,27.5L4.5,31.5L19.5,31.5L19.5,27.5ZM3.5,26.5L3.5,5.5L-0.5,5.5L-0.5,26.5L3.5,26.5ZM4.5,27.5C3.948,27.5 3.5,27.052 3.5,26.5L-0.5,26.5C-0.5,29.261 1.739,31.5 4.5,31.5L4.5,27.5ZM20.5,26.5C20.5,27.052 20.052,27.5 19.5,27.5L19.5,31.5C22.261,31.5 24.5,29.261 24.5,26.5L20.5,26.5ZM19.5,4.5C20.052,4.5 20.5,4.948 20.5,5.5L24.5,5.5C24.5,2.739 22.261,0.5 19.5,0.5L19.5,4.5ZM4.5,0.5C1.739,0.5 -0.5,2.739 -0.5,5.5L3.5,5.5C3.5,4.948 3.948,4.5 4.5,4.5L4.5,0.5ZM12,27L12.015,27L12.015,23L12,23L12,27Z" fill="#111827"/>
</svg>
