<svg width="26" height="26" viewBox="0 0 26 26" fill="none" xmlns="http://www.w3.org/2000/svg" xmlns:xlink="http://www.w3.org/1999/xlink">
<path d="M24.8,0.8C24.8,0.321 24.585,-0.133 24.214,-0.437C23.844,-0.741 23.356,-0.863 22.886,-0.769L6.886,2.431C6.138,2.581 5.6,3.237 5.6,4L5.6,18.582C5.1,18.464 4.561,18.4 4,18.4C1.349,18.4 -0.8,19.833 -0.8,21.6C-0.8,23.367 1.349,24.8 4,24.8C6.651,24.8 8.8,23.367 8.8,21.6L8.8,8.512L21.6,5.952L21.6,15.382C21.1,15.264 20.561,15.2 20,15.2C17.349,15.2 15.2,16.633 15.2,18.4C15.2,20.167 17.349,21.6 20,21.6C22.651,21.6 24.8,20.167 24.8,18.4L24.8,0.8Z" fill="#111827"/>
</svg>
