<svg width="24" height="22" viewBox="0 0 24 22" fill="none" xmlns="http://www.w3.org/2000/svg" xmlns:xlink="http://www.w3.org/1999/xlink">
<path d="M2.5,0.5C0.622,0.5 -0.9,1.843 -0.9,3.5L-0.9,6.5C-0.9,8.157 0.622,9.5 2.5,9.5L5.9,9.5C7.778,9.5 9.3,8.157 9.3,6.5L9.3,3.5C9.3,1.843 7.778,0.5 5.9,0.5L2.5,0.5Z" fill="#111827"/>
<path d="M2.5,12.5C0.622,12.5 -0.9,13.843 -0.9,15.5L-0.9,18.5C-0.9,20.157 0.622,21.5 2.5,21.5L5.9,21.5C7.778,21.5 9.3,20.157 9.3,18.5L9.3,15.5C9.3,13.843 7.778,12.5 5.9,12.5L2.5,12.5Z" fill="#111827"/>
<path d="M12.7,3.5C12.7,1.843 14.222,0.5 16.1,0.5L19.5,0.5C21.378,0.5 22.9,1.843 22.9,3.5L22.9,6.5C22.9,8.157 21.378,9.5 19.5,9.5L16.1,9.5C14.222,9.5 12.7,8.157 12.7,6.5L12.7,3.5Z" fill="#111827"/>
<path d="M12.7,15.5C12.7,13.843 14.222,12.5 16.1,12.5L19.5,12.5C21.378,12.5 22.9,13.843 22.9,15.5L22.9,18.5C22.9,20.157 21.378,21.5 19.5,21.5L16.1,21.5C14.222,21.5 12.7,20.157 12.7,18.5L12.7,15.5Z" fill="#111827"/>
</svg>
