<svg width="28" height="24" viewBox="0 0 28 24" fill="none" xmlns="http://www.w3.org/2000/svg" xmlns:xlink="http://www.w3.org/1999/xlink">
<path d="M-0.6,4C-0.6,2.233 0.922,0.8 2.8,0.8L23.2,0.8C25.078,0.8 26.6,2.233 26.6,4L26.6,20C26.6,21.767 25.078,23.2 23.2,23.2L2.8,23.2C0.922,23.2 -0.6,21.767 -0.6,20L-0.6,4ZM4.998,6.069C5.662,5.444 6.738,5.444 7.402,6.069L12.502,10.869C13.166,11.493 13.166,12.507 12.502,13.131L7.402,17.931C6.738,18.556 5.662,18.556 4.998,17.931C4.334,17.307 4.334,16.293 4.998,15.669L8.896,12L4.998,8.331C4.334,7.707 4.334,6.693 4.998,6.069ZM14.7,15.2C13.761,15.2 13,15.916 13,16.8C13,17.684 13.761,18.4 14.7,18.4L19.8,18.4C20.739,18.4 21.5,17.684 21.5,16.8C21.5,15.916 20.739,15.2 19.8,15.2L14.7,15.2Z" clip-rule="evenodd" fill-rule="evenodd" fill="#111827"/>
</svg>
