<svg width="24" height="28" viewBox="0 0 24 28" fill="none" xmlns="http://www.w3.org/2000/svg" xmlns:xlink="http://www.w3.org/1999/xlink">
<path d="M10.256,-0.302C10.717,-0.566 11.283,-0.566 11.744,-0.302L14.369,1.198C15.088,1.609 15.338,2.525 14.927,3.244C14.516,3.963 13.6,4.213 12.881,3.802L11,2.728L9.119,3.802C8.4,4.213 7.484,3.963 7.073,3.244C6.662,2.525 6.912,1.609 7.631,1.198L10.256,-0.302Z" fill="#111827"/>
<path d="M4.427,4.756C4.838,5.475 4.588,6.391 3.869,6.802L3.523,7L3.869,7.198C4.588,7.609 4.838,8.525 4.427,9.244C4.016,9.963 3.1,10.213 2.381,9.802L2,9.585L2,10C2,10.828 1.328,11.5 0.5,11.5C-0.328,11.5 -1,10.828 -1,10L-1,7C-1,6.625 -0.862,6.282 -0.635,6.019C-0.583,5.959 -0.526,5.903 -0.465,5.851C-0.389,5.787 -0.306,5.731 -0.219,5.683L2.381,4.198C3.1,3.787 4.016,4.037 4.427,4.756Z" fill="#111827"/>
<path d="M17.573,4.756C17.984,4.037 18.9,3.787 19.619,4.198L22.219,5.683C22.306,5.731 22.389,5.787 22.465,5.851C22.792,6.126 23,6.539 23,7L23,10C23,10.828 22.328,11.5 21.5,11.5C20.672,11.5 20,10.828 20,10L20,9.585L19.619,9.802C18.9,10.213 17.984,9.963 17.573,9.244C17.162,8.525 17.412,7.609 18.131,7.198L18.477,7L18.131,6.802C17.412,6.391 17.162,5.475 17.573,4.756Z" fill="#111827"/>
<path d="M7.073,10.756C7.484,10.037 8.4,9.787 9.119,10.198L11,11.272L12.881,10.198C13.6,9.787 14.516,10.037 14.927,10.756C15.338,11.475 15.088,12.391 14.369,12.802L12.5,13.87L12.5,16C12.5,16.828 11.828,17.5 11,17.5C10.172,17.5 9.5,16.828 9.5,16L9.5,13.87L7.631,12.802C6.912,12.391 6.662,11.475 7.073,10.756Z" fill="#111827"/>
<path d="M0.5,14.5C1.328,14.5 2,15.172 2,16L2,18.13L3.869,19.198C4.588,19.609 4.838,20.525 4.427,21.244C4.016,21.963 3.1,22.213 2.381,21.802L-0.244,20.302C-0.712,20.035 -1,19.538 -1,19L-1,16C-1,15.172 -0.328,14.5 0.5,14.5Z" fill="#111827"/>
<path d="M21.5,14.5C22.328,14.5 23,15.172 23,16L23,19C23,19.538 22.712,20.035 22.244,20.302L19.619,21.802C18.9,22.213 17.984,21.963 17.573,21.244C17.162,20.525 17.412,19.609 18.131,19.198L20,18.13L20,16C20,15.172 20.672,14.5 21.5,14.5Z" fill="#111827"/>
<path d="M7.073,22.756C7.484,22.037 8.4,21.787 9.119,22.198L9.5,22.415L9.5,22C9.5,21.172 10.172,20.5 11,20.5C11.828,20.5 12.5,21.172 12.5,22L12.5,22.415L12.881,22.198C13.6,21.787 14.516,22.037 14.927,22.756C15.338,23.475 15.088,24.391 14.369,24.802L11.767,26.289C11.543,26.423 11.28,26.5 11,26.5C10.72,26.5 10.457,26.423 10.233,26.289L7.631,24.802C6.912,24.391 6.662,23.475 7.073,22.756Z" fill="#111827"/>
</svg>
