<svg width="34" height="28" viewBox="0 0 34 28" fill="none" xmlns="http://www.w3.org/2000/svg" xmlns:xlink="http://www.w3.org/1999/xlink">
<path d="M3.197,13.023L4.535,11.536L3.197,13.023ZM13.803,3.477L15.141,1.99L15.141,1.99L13.803,3.477ZM16,5.454L14.662,6.941C15.423,7.625 16.577,7.625 17.338,6.941L16,5.454ZM16,24.546L14.662,26.033C15.423,26.717 16.577,26.717 17.338,26.033L16,24.546ZM28.803,13.023L27.465,11.536L27.465,11.536L28.803,13.023ZM18.197,3.477L16.859,1.99L16.859,1.99L18.197,3.477ZM4.535,11.536C2.488,9.695 2.488,6.805 4.535,4.964L1.859,1.99C-1.953,5.421 -1.953,11.079 1.859,14.51L4.535,11.536ZM4.535,4.964C6.703,3.012 10.297,3.012 12.465,4.964L15.141,1.99C11.452,-1.33 5.548,-1.33 1.859,1.99L4.535,4.964ZM12.465,4.964L14.662,6.941L17.338,3.968L15.141,1.99L12.465,4.964ZM1.859,14.51L14.662,26.033L17.338,23.059L4.535,11.536L1.859,14.51ZM27.465,4.964C29.512,6.805 29.512,9.695 27.465,11.536L30.141,14.51C33.953,11.079 33.953,5.421 30.141,1.99L27.465,4.964ZM19.535,4.964C21.703,3.012 25.297,3.012 27.465,4.964L30.141,1.99C26.452,-1.33 20.548,-1.33 16.859,1.99L19.535,4.964ZM27.465,11.536L14.662,23.059L17.338,26.033L30.141,14.51L27.465,11.536ZM16.859,1.99L14.662,3.968L17.338,6.941L19.535,4.964L16.859,1.99Z" fill="#111827"/>
</svg>
