<svg width="30" height="32" viewBox="0 0 30 32" fill="none" xmlns="http://www.w3.org/2000/svg" xmlns:xlink="http://www.w3.org/1999/xlink">
<path d="M17.75,28.866L16.374,27.414L17.75,28.866ZM7.419,21.533C3.305,17.636 3.305,11.364 7.419,7.467L4.668,4.563C-1.112,10.038 -1.112,18.962 4.668,24.437L7.419,21.533ZM7.419,7.467C11.594,3.511 18.406,3.511 22.581,7.467L25.332,4.563C19.614,-0.854 10.386,-0.854 4.668,4.563L7.419,7.467ZM22.581,7.467C26.695,11.364 26.695,17.636 22.581,21.533L25.332,24.437C31.112,18.962 31.112,10.038 25.332,4.563L22.581,7.467ZM22.581,21.533C22.545,21.568 22.488,21.622 22.449,21.659C22.409,21.696 22.455,21.653 22.415,21.691C22.35,21.752 22.445,21.663 22.38,21.724C22.311,21.79 22.379,21.725 22.309,21.791C22.259,21.838 22.323,21.778 22.273,21.826C22.27,21.828 22.267,21.831 22.264,21.834C22.261,21.837 22.258,21.84 22.255,21.843C22.252,21.846 22.248,21.849 22.245,21.851C22.242,21.854 22.239,21.857 22.236,21.86C22.2,21.894 22.254,21.843 22.218,21.878C22.211,21.884 22.206,21.889 22.199,21.895C22.145,21.946 22.216,21.88 22.162,21.931C22.137,21.954 22.111,21.979 22.085,22.003C22.082,22.006 22.079,22.009 22.076,22.012C22.073,22.015 22.069,22.018 22.066,22.021C22.06,22.027 22.053,22.034 22.047,22.04C22.034,22.051 22.02,22.065 22.007,22.077C21.987,22.096 21.989,22.095 21.968,22.114C21.91,22.169 21.986,22.098 21.928,22.152C21.924,22.155 21.921,22.159 21.918,22.162C21.914,22.165 21.911,22.168 21.908,22.171C21.897,22.181 21.898,22.181 21.887,22.191C21.848,22.228 21.906,22.173 21.867,22.21C21.794,22.279 21.92,22.16 21.847,22.229C21.8,22.273 21.728,22.342 21.68,22.388C21.613,22.451 21.661,22.405 21.594,22.469C21.544,22.516 21.622,22.442 21.572,22.489C21.569,22.493 21.565,22.496 21.561,22.5C21.558,22.503 21.554,22.506 21.55,22.51C21.525,22.534 21.533,22.527 21.507,22.551C21.372,22.679 21.554,22.507 21.418,22.635C21.355,22.695 21.437,22.618 21.373,22.678C21.331,22.718 21.393,22.659 21.351,22.699C21.318,22.73 21.361,22.689 21.328,22.72C21.191,22.851 21.284,22.762 21.145,22.894C21.132,22.906 20.971,23.059 20.957,23.072C20.927,23.101 20.939,23.089 20.909,23.118C20.859,23.165 20.911,23.116 20.861,23.163C20.815,23.206 20.859,23.165 20.813,23.209C20.739,23.279 20.838,23.185 20.764,23.255C20.742,23.276 20.592,23.418 20.568,23.441C20.551,23.457 20.535,23.472 20.518,23.488C20.509,23.497 20.502,23.503 20.493,23.512C20.46,23.543 20.501,23.504 20.468,23.535C20.4,23.6 20.487,23.518 20.418,23.583C20.414,23.587 20.41,23.591 20.405,23.595C20.401,23.599 20.397,23.603 20.393,23.607C20.337,23.659 20.423,23.578 20.368,23.63C20.267,23.726 20.367,23.631 20.266,23.726C20.16,23.827 20.27,23.723 20.164,23.823C20.16,23.827 20.156,23.831 20.151,23.835C20.147,23.839 20.143,23.843 20.139,23.847C20.039,23.942 20.212,23.777 20.113,23.872C20.109,23.876 20.104,23.88 20.1,23.884C20.096,23.888 20.092,23.892 20.087,23.896C20.03,23.95 20.118,23.867 20.061,23.92C20.003,23.976 20.017,23.963 19.958,24.018C19.95,24.026 19.862,24.109 19.854,24.117C19.83,24.14 19.826,24.144 19.802,24.167C19.797,24.171 19.793,24.175 19.789,24.179C19.784,24.183 19.78,24.187 19.776,24.191C19.758,24.208 19.767,24.199 19.749,24.216C19.535,24.42 19.119,24.813 18.897,25.024C18.835,25.083 18.851,25.067 18.789,25.126C18.767,25.147 18.784,25.131 18.762,25.151C18.751,25.162 18.747,25.166 18.735,25.177C18.72,25.192 18.724,25.188 18.708,25.202C18.702,25.209 18.688,25.222 18.681,25.228C18.672,25.237 18.475,25.424 18.465,25.432C18.391,25.503 18.513,25.387 18.438,25.458C18.423,25.472 18.427,25.469 18.412,25.484C18.306,25.584 18.463,25.434 18.358,25.535C18.24,25.646 18.367,25.526 18.25,25.637C18.21,25.675 18.182,25.701 18.142,25.739C18.138,25.743 18.133,25.747 18.129,25.752C18.124,25.756 18.12,25.76 18.115,25.764C18.084,25.793 18.119,25.761 18.088,25.79C18.038,25.837 18.085,25.793 18.034,25.841C17.996,25.878 17.966,25.906 17.927,25.943C17.898,25.97 17.93,25.94 17.9,25.968C17.896,25.972 17.891,25.976 17.887,25.981C17.882,25.985 17.878,25.989 17.874,25.993C17.855,26.011 17.865,26.001 17.847,26.019C17.842,26.023 17.838,26.027 17.833,26.031C17.829,26.036 17.824,26.04 17.82,26.044C17.808,26.056 17.806,26.058 17.793,26.069C17.767,26.095 17.793,26.069 17.767,26.095C17.706,26.152 17.774,26.087 17.713,26.145C17.699,26.158 17.62,26.233 17.607,26.246C17.557,26.293 17.445,26.4 17.395,26.446C17.221,26.611 17.359,26.481 17.186,26.645C17.143,26.685 17.02,26.802 16.978,26.841C16.965,26.854 16.786,27.024 16.774,27.035C16.768,27.04 16.576,27.222 16.572,27.226C16.502,27.293 16.617,27.183 16.547,27.25C16.495,27.3 16.575,27.224 16.522,27.273C16.498,27.296 16.521,27.274 16.497,27.297C16.493,27.301 16.489,27.305 16.485,27.309C16.481,27.313 16.477,27.316 16.473,27.32C16.457,27.335 16.463,27.329 16.448,27.344C16.444,27.348 16.44,27.352 16.436,27.355C16.432,27.359 16.427,27.363 16.423,27.367C16.419,27.371 16.415,27.375 16.411,27.379C16.407,27.383 16.403,27.387 16.399,27.39C16.37,27.418 16.403,27.387 16.374,27.414L19.125,30.318C19.246,30.204 19.103,30.339 19.224,30.224C19.365,30.091 19.182,30.264 19.323,30.13C19.368,30.088 19.379,30.077 19.423,30.035C19.43,30.028 19.442,30.018 19.449,30.011C19.453,30.007 19.457,30.003 19.461,29.999C19.466,29.995 19.47,29.991 19.474,29.987C19.539,29.925 19.434,30.025 19.499,29.963C19.504,29.959 19.508,29.955 19.512,29.951C19.516,29.947 19.52,29.943 19.525,29.939C19.589,29.878 19.562,29.903 19.627,29.842C19.631,29.838 19.635,29.834 19.639,29.83C19.644,29.826 19.648,29.822 19.652,29.818C19.733,29.742 19.597,29.87 19.678,29.794C19.697,29.776 19.685,29.787 19.704,29.77C19.708,29.766 19.712,29.761 19.716,29.757C19.721,29.753 19.725,29.749 19.729,29.745C19.765,29.711 19.899,29.584 19.937,29.549C20.27,29.233 20.444,29.068 20.785,28.745C20.82,28.712 21.181,28.37 21.216,28.336C21.446,28.119 21.419,28.144 21.648,27.928C21.652,27.924 21.671,27.906 21.675,27.902C21.696,27.882 21.68,27.897 21.702,27.877C21.789,27.794 21.668,27.908 21.756,27.826C21.817,27.768 21.748,27.833 21.809,27.775C21.852,27.734 21.82,27.764 21.863,27.724C21.963,27.629 21.87,27.717 21.97,27.622C22.042,27.554 22.005,27.589 22.077,27.521C22.084,27.515 22.176,27.427 22.183,27.42C22.188,27.416 22.192,27.412 22.197,27.408C22.201,27.403 22.205,27.399 22.21,27.395C22.223,27.383 22.223,27.382 22.236,27.37C22.274,27.335 22.226,27.38 22.263,27.345C22.269,27.339 22.283,27.326 22.289,27.32C22.367,27.246 22.265,27.343 22.342,27.27C22.416,27.2 22.322,27.289 22.395,27.22C22.398,27.217 22.419,27.197 22.422,27.195C22.426,27.191 22.43,27.186 22.435,27.182C22.439,27.178 22.443,27.174 22.448,27.17C22.56,27.064 22.362,27.251 22.474,27.145C22.478,27.141 22.483,27.137 22.487,27.132C22.492,27.128 22.496,27.124 22.5,27.12C22.634,26.993 22.472,27.147 22.605,27.021C22.668,26.961 22.646,26.982 22.709,26.922C22.824,26.814 22.802,26.835 22.915,26.727C22.929,26.714 23.106,26.546 23.119,26.534C23.152,26.502 23.186,26.471 23.219,26.439C23.328,26.336 23.21,26.448 23.319,26.345C23.368,26.298 23.468,26.204 23.515,26.159C23.519,26.155 23.523,26.151 23.527,26.147C23.531,26.143 23.536,26.139 23.54,26.136C23.544,26.132 23.548,26.128 23.552,26.124C23.556,26.12 23.56,26.116 23.564,26.113C23.651,26.03 23.525,26.149 23.612,26.067C23.613,26.066 23.659,26.022 23.66,26.021C23.664,26.018 23.668,26.014 23.672,26.01C23.676,26.006 23.68,26.002 23.684,25.999C23.696,25.988 23.696,25.987 23.708,25.976C23.825,25.865 23.78,25.908 23.896,25.798C23.9,25.794 23.904,25.791 23.908,25.787C23.911,25.783 23.915,25.78 23.919,25.776C23.923,25.772 23.927,25.769 23.931,25.765C23.935,25.761 23.938,25.758 23.942,25.754C23.946,25.75 23.95,25.747 23.954,25.743C23.958,25.739 23.962,25.736 23.965,25.732C23.969,25.729 23.973,25.725 23.977,25.721C23.981,25.718 23.984,25.714 23.988,25.71C23.992,25.707 23.996,25.703 24,25.7C24.004,25.696 24.007,25.692 24.011,25.689C24.015,25.685 24.019,25.681 24.023,25.678C24.026,25.674 24.03,25.671 24.034,25.667C24.05,25.652 24.041,25.661 24.057,25.646C24.061,25.642 24.064,25.638 24.068,25.635C24.072,25.631 24.076,25.628 24.079,25.624C24.092,25.612 24.425,25.296 24.431,25.291C24.464,25.26 24.44,25.283 24.473,25.251C24.51,25.216 24.478,25.246 24.515,25.211C24.537,25.191 24.514,25.213 24.536,25.192C24.55,25.178 24.542,25.185 24.556,25.172C24.564,25.165 24.59,25.14 24.598,25.133C24.601,25.13 24.605,25.127 24.608,25.123C24.611,25.12 24.615,25.117 24.618,25.114C24.622,25.11 24.625,25.107 24.628,25.104C24.632,25.101 24.635,25.098 24.638,25.094C24.66,25.074 24.638,25.095 24.659,25.075C24.659,25.075 24.678,25.057 24.679,25.056C24.682,25.053 24.686,25.05 24.689,25.047C24.692,25.043 24.696,25.04 24.699,25.037C24.702,25.034 24.706,25.031 24.709,25.028C24.712,25.025 24.716,25.021 24.719,25.018C24.773,24.967 24.704,25.032 24.759,24.981C24.813,24.929 24.782,24.958 24.836,24.907C24.845,24.899 24.905,24.842 24.913,24.835C25.03,24.723 24.87,24.875 24.987,24.764C24.991,24.761 25.021,24.732 25.024,24.729C25.068,24.687 25.016,24.737 25.06,24.695C25.075,24.681 25.116,24.642 25.131,24.628C25.162,24.598 25.135,24.624 25.166,24.595C25.175,24.586 25.191,24.571 25.2,24.562C25.202,24.561 25.232,24.532 25.234,24.53C25.289,24.478 25.212,24.551 25.267,24.499C25.273,24.493 25.294,24.473 25.3,24.468C25.303,24.465 25.305,24.463 25.308,24.46C25.311,24.458 25.313,24.455 25.316,24.452C25.324,24.445 25.324,24.445 25.332,24.437L22.581,21.533ZM13.625,27.413C11.571,25.467 8.875,22.913 7.419,21.533L4.668,24.437C6.124,25.817 8.82,28.37 10.874,30.317L13.625,27.413ZM17.75,14.5C17.75,15.78 16.622,17 15,17L15,21C18.625,21 21.75,18.19 21.75,14.5L17.75,14.5ZM15,17C13.378,17 12.25,15.78 12.25,14.5L8.25,14.5C8.25,18.19 11.375,21 15,21L15,17ZM12.25,14.5C12.25,13.22 13.378,12 15,12L15,8C11.375,8 8.25,10.81 8.25,14.5L12.25,14.5ZM15,12C16.622,12 17.75,13.22 17.75,14.5L21.75,14.5C21.75,10.81 18.625,8 15,8L15,12ZM16.374,27.414C15.603,28.144 14.397,28.144 13.625,27.413L10.874,30.317C13.188,32.509 16.811,32.51 19.125,30.318L16.374,27.414Z" fill="#111827"/>
</svg>
