<svg width="34" height="32" viewBox="0 0 34 32" fill="none" xmlns="http://www.w3.org/2000/svg" xmlns:xlink="http://www.w3.org/1999/xlink">
<path d="M7.579,4.158L9.327,5.13L9.327,5.13L7.579,4.158ZM1.745,14.658L-0.003,13.687L-0.003,13.687L1.745,14.658ZM18.065,2.59L17.626,4.541L17.626,4.541L18.065,2.59ZM24.333,17.5L25.941,18.69C26.196,18.346 26.333,17.929 26.333,17.5L24.333,17.5ZM16,21C17.105,21 18,20.105 18,19C18,17.895 17.105,17 16,17L16,21ZM23.5,17C22.395,17 21.5,17.895 21.5,19C21.5,20.105 22.395,21 23.5,21L23.5,17ZM18.679,25.133L17.072,23.942L17.072,23.942L18.679,25.133ZM4.727,21L12.667,21L12.667,17L4.727,17L4.727,21ZM5.83,3.187L-0.003,13.687L3.494,15.63L9.327,5.13L5.83,3.187ZM24.772,2.049L18.504,0.638L17.626,4.541L23.894,5.951L24.772,2.049ZM17.256,0.5L10.56,0.5L10.56,4.5L17.256,4.5L17.256,0.5ZM10.667,19L10.667,26.5L14.667,26.5L14.667,19L10.667,19ZM16,31.5L16.159,31.5L16.159,27.5L16,27.5L16,31.5ZM26.333,17.5L26.333,4L22.333,4L22.333,17.5L26.333,17.5ZM18.504,0.638C18.095,0.546 17.676,0.5 17.256,0.5L17.256,4.5C17.382,4.5 17.506,4.514 17.626,4.541L18.504,0.638ZM9.327,5.13C9.503,4.812 9.947,4.5 10.56,4.5L10.56,0.5C8.648,0.5 6.783,1.472 5.83,3.187L9.327,5.13ZM10.667,26.5C10.667,29.454 13.258,31.5 16,31.5L16,27.5C15.06,27.5 14.667,26.859 14.667,26.5L10.667,26.5ZM4.727,17C4.134,17 3.734,16.727 3.54,16.445C3.358,16.181 3.339,15.909 3.494,15.63L-0.003,13.687C-0.956,15.403 -0.724,17.302 0.243,18.709C1.197,20.099 2.842,21 4.727,21L4.727,17ZM12.667,21L16,21L16,17L12.667,17L12.667,21ZM23.5,21L27.667,21L27.667,17L23.5,17L23.5,21ZM33,16L33,7L29,7L29,16L33,16ZM27.667,2L24.333,2L24.333,6L27.667,6L27.667,2ZM33,7C33,4.046 30.409,2 27.667,2L27.667,6C28.607,6 29,6.641 29,7L33,7ZM27.667,21C30.409,21 33,18.954 33,16L29,16C29,16.359 28.607,17 27.667,17L27.667,21ZM20.287,26.323L25.941,18.69L22.726,16.31L17.072,23.942L20.287,26.323ZM19.667,28.143C19.667,27.516 19.872,26.883 20.287,26.323L17.072,23.942C16.167,25.165 15.667,26.627 15.667,28.143L19.667,28.143ZM16.159,31.5C17.893,31.5 19.667,30.19 19.667,28.143L15.667,28.143C15.667,27.893 15.784,27.709 15.887,27.616C15.987,27.526 16.089,27.5 16.159,27.5L16.159,31.5Z" fill="#111827"/>
</svg>
