<svg width="24" height="24" viewBox="0 0 24 24" fill="none" xmlns="http://www.w3.org/2000/svg" xmlns:xlink="http://www.w3.org/1999/xlink">
<path d="M12.7,21.8C12.7,22.285 13.005,22.736 13.506,22.991C14.007,23.246 14.633,23.269 15.16,23.052L21.96,20.252C22.536,20.015 22.9,19.53 22.9,19L22.9,10.93C22.9,10.445 22.595,9.995 22.094,9.74C21.593,9.484 20.967,9.461 20.44,9.678L13.64,12.478C13.064,12.715 12.7,13.2 12.7,13.73L12.7,21.8Z" fill="#111827"/>
<path d="M19.859,6.787C20.435,6.55 20.799,6.065 20.799,5.535C20.799,5.004 20.435,4.52 19.859,4.283L11.76,0.948C11.282,0.751 10.718,0.751 10.24,0.948L2.141,4.283C1.565,4.52 1.201,5.004 1.201,5.535C1.201,6.065 1.565,6.55 2.141,6.787L10.24,10.122C10.718,10.319 11.282,10.319 11.76,10.122L19.859,6.787Z" fill="#111827"/>
<path d="M1.56,9.678C1.033,9.461 0.407,9.484 -0.094,9.74C-0.595,9.995 -0.9,10.445 -0.9,10.93L-0.9,19C-0.9,19.53 -0.536,20.015 0.04,20.252L6.84,23.052C7.367,23.269 7.993,23.246 8.494,22.991C8.995,22.736 9.3,22.285 9.3,21.8L9.3,13.73C9.3,13.2 8.936,12.715 8.36,12.478L1.56,9.678Z" fill="#111827"/>
</svg>
