<svg width="36" height="26" viewBox="0 0 36 26" fill="none" xmlns="http://www.w3.org/2000/svg" xmlns:xlink="http://www.w3.org/1999/xlink">
<path d="M19.667,18L21.667,18L21.667,18L19.667,18ZM19.667,6L17.667,6L17.667,6L19.667,6ZM26.821,4.939L28.159,3.453L28.159,3.453L26.821,4.939ZM32.512,10.061L33.85,8.574L33.85,8.574L32.512,10.061ZM4.667,3.5L18,3.5L18,-0.5L4.667,-0.5L4.667,3.5ZM17.667,3L17.667,18L21.667,18L21.667,3L17.667,3ZM5,18L5,3L1,3L1,18L5,18ZM6.333,17.5L4.667,17.5L4.667,21.5L6.333,21.5L6.333,17.5ZM18,17.5L13,17.5L13,21.5L18,21.5L18,17.5ZM1,18C1,20.126 2.845,21.5 4.667,21.5L4.667,17.5C4.693,17.5 4.755,17.51 4.826,17.574C4.901,17.641 5,17.789 5,18L1,18ZM17.667,18C17.667,17.789 17.766,17.641 17.841,17.574C17.912,17.51 17.974,17.5 18,17.5L18,21.5C19.822,21.5 21.667,20.126 21.667,18L17.667,18ZM18,3.5C17.974,3.5 17.912,3.49 17.841,3.426C17.766,3.359 17.667,3.211 17.667,3L21.667,3C21.667,0.874 19.822,-0.5 18,-0.5L18,3.5ZM4.667,-0.5C2.845,-0.5 1,0.874 1,3L5,3C5,3.211 4.901,3.359 4.826,3.426C4.755,3.49 4.693,3.5 4.667,3.5L4.667,-0.5ZM21.667,18L21.667,6L17.667,6L17.667,18L21.667,18ZM21.333,6.5L25.643,6.5L25.643,2.5L21.333,2.5L21.333,6.5ZM31,11.121L31,18L35,18L35,11.121L31,11.121ZM25.484,6.426L31.174,11.547L33.85,8.574L28.159,3.453L25.484,6.426ZM23,17.5L21.333,17.5L21.333,21.5L23,21.5L23,17.5ZM31.333,17.5L29.667,17.5L29.667,21.5L31.333,21.5L31.333,17.5ZM35,11.121C35,10.121 34.557,9.21 33.85,8.574L31.174,11.547C31.092,11.474 31,11.326 31,11.121L35,11.121ZM25.643,6.5C25.627,6.5 25.606,6.497 25.582,6.488C25.558,6.479 25.523,6.461 25.484,6.426L28.159,3.453C27.46,2.823 26.551,2.5 25.643,2.5L25.643,6.5ZM17.667,18C17.667,20.126 19.512,21.5 21.333,21.5L21.333,17.5C21.359,17.5 21.421,17.51 21.493,17.574C21.567,17.641 21.667,17.789 21.667,18L17.667,18ZM31,18C31,17.789 31.099,17.641 31.174,17.574C31.245,17.51 31.307,17.5 31.333,17.5L31.333,21.5C33.155,21.5 35,20.126 35,18L31,18ZM21.667,6C21.667,6.211 21.567,6.359 21.493,6.426C21.421,6.49 21.359,6.5 21.333,6.5L21.333,2.5C19.512,2.5 17.667,3.874 17.667,6L21.667,6ZM11,19.5C11,19.859 10.606,20.5 9.667,20.5L9.667,24.5C12.409,24.5 15,22.454 15,19.5L11,19.5ZM9.667,20.5C8.727,20.5 8.333,19.859 8.333,19.5L4.333,19.5C4.333,22.454 6.925,24.5 9.667,24.5L9.667,20.5ZM8.333,19.5C8.333,19.141 8.727,18.5 9.667,18.5L9.667,14.5C6.925,14.5 4.333,16.546 4.333,19.5L8.333,19.5ZM9.667,18.5C10.606,18.5 11,19.141 11,19.5L15,19.5C15,16.546 12.409,14.5 9.667,14.5L9.667,18.5ZM27.667,19.5C27.667,19.859 27.273,20.5 26.333,20.5L26.333,24.5C29.075,24.5 31.667,22.454 31.667,19.5L27.667,19.5ZM26.333,20.5C25.394,20.5 25,19.859 25,19.5L21,19.5C21,22.454 23.591,24.5 26.333,24.5L26.333,20.5ZM25,19.5C25,19.141 25.394,18.5 26.333,18.5L26.333,14.5C23.591,14.5 21,16.546 21,19.5L25,19.5ZM26.333,18.5C27.273,18.5 27.667,19.141 27.667,19.5L31.667,19.5C31.667,16.546 29.075,14.5 26.333,14.5L26.333,18.5Z" fill="#111827"/>
</svg>
