<svg width="28" height="32" viewBox="0 0 28 32" fill="none" xmlns="http://www.w3.org/2000/svg" xmlns:xlink="http://www.w3.org/1999/xlink">
<path d="M1.917,29.5L-0.083,29.5C-0.083,30.605 0.812,31.5 1.917,31.5L1.917,29.5ZM24.083,29.5L24.083,31.5C25.188,31.5 26.083,30.605 26.083,29.5L24.083,29.5ZM17.333,8.5C17.333,10.609 15.497,12.5 13,12.5L13,16.5C17.499,16.5 21.333,13.019 21.333,8.5L17.333,8.5ZM13,12.5C10.504,12.5 8.667,10.609 8.667,8.5L4.667,8.5C4.667,13.019 8.501,16.5 13,16.5L13,12.5ZM8.667,8.5C8.667,6.391 10.504,4.5 13,4.5L13,0.5C8.501,0.5 4.667,3.981 4.667,8.5L8.667,8.5ZM13,4.5C15.497,4.5 17.333,6.391 17.333,8.5L21.333,8.5C21.333,3.981 17.499,0.5 13,0.5L13,4.5ZM3.917,29.5C3.917,24.906 7.88,21 13,21L13,17C5.878,17 -0.083,22.496 -0.083,29.5L3.917,29.5ZM13,21C18.12,21 22.083,24.906 22.083,29.5L26.083,29.5C26.083,22.496 20.122,17 13,17L13,21ZM1.917,31.5L24.083,31.5L24.083,27.5L1.917,27.5L1.917,31.5Z" fill="#111827"/>
</svg>
