<svg width="34" height="26" viewBox="0 0 34 26" fill="none" xmlns="http://www.w3.org/2000/svg" xmlns:xlink="http://www.w3.org/1999/xlink">
<path d="M21.542,0.048C20.74,-0.712 19.474,-0.677 18.715,0.125C17.955,0.926 17.989,2.192 18.791,2.952L21.542,0.048ZM31.25,12L32.625,13.452C33.024,13.074 33.25,12.549 33.25,12C33.25,11.451 33.024,10.926 32.625,10.548L31.25,12ZM18.791,21.048C17.989,21.808 17.955,23.074 18.715,23.875C19.474,24.677 20.74,24.712 21.542,23.952L18.791,21.048ZM2.75,10C1.645,10 0.75,10.895 0.75,12C0.75,13.105 1.645,14 2.75,14L2.75,10ZM18.791,2.952L29.875,13.452L32.625,10.548L21.542,0.048L18.791,2.952ZM29.875,10.548L18.791,21.048L21.542,23.952L32.625,13.452L29.875,10.548ZM31.25,10L2.75,10L2.75,14L31.25,14L31.25,10Z" fill="#111827"/>
</svg>
