<svg width="28" height="18" viewBox="0 0 28 18" fill="none" xmlns="http://www.w3.org/2000/svg" xmlns:xlink="http://www.w3.org/1999/xlink">
<path d="M2.8,0C0.922,0 -0.6,1.343 -0.6,3L-0.6,15C-0.6,16.657 0.922,18 2.8,18L23.2,18C25.078,18 26.6,16.657 26.6,15L26.6,6C26.6,4.343 25.078,3 23.2,3L14.7,3L11.3,0L2.8,0ZM14.7,7.5C14.7,6.672 13.939,6 13,6C12.061,6 11.3,6.672 11.3,7.5L11.3,9.879L10.802,9.439C10.138,8.854 9.062,8.854 8.398,9.439C7.734,10.025 7.734,10.975 8.398,11.561L11.798,14.561C12.462,15.146 13.538,15.146 14.202,14.561L17.602,11.561C18.266,10.975 18.266,10.025 17.602,9.439C16.938,8.854 15.862,8.854 15.198,9.439L14.7,9.879L14.7,7.5Z" clip-rule="evenodd" fill-rule="evenodd" fill="#111827"/>
</svg>
