<svg width="26" height="22" viewBox="0 0 26 22" fill="none" xmlns="http://www.w3.org/2000/svg" xmlns:xlink="http://www.w3.org/1999/xlink">
<path d="M2.4,3.5C0.633,3.5 -0.8,4.843 -0.8,6.5L-0.8,18.5C-0.8,20.157 0.633,21.5 2.4,21.5L21.6,21.5C23.367,21.5 24.8,20.157 24.8,18.5L24.8,6.5C24.8,4.843 23.367,3.5 21.6,3.5L19.063,3.5C18.638,3.5 18.231,3.342 17.931,3.061L16.137,1.379C15.537,0.816 14.723,0.5 13.875,0.5L10.125,0.5C9.277,0.5 8.463,0.816 7.863,1.379L6.069,3.061C5.769,3.342 5.362,3.5 4.937,3.5L2.4,3.5ZM12,17C14.651,17 16.8,14.985 16.8,12.5C16.8,10.015 14.651,8 12,8C9.349,8 7.2,10.015 7.2,12.5C7.2,14.985 9.349,17 12,17Z" clip-rule="evenodd" fill-rule="evenodd" fill="#111827"/>
</svg>
