<svg width="30" height="30" viewBox="0 0 30 30" fill="none" xmlns="http://www.w3.org/2000/svg" xmlns:xlink="http://www.w3.org/1999/xlink">
<path d="M8.667,6C9.771,6 10.667,5.105 10.667,4C10.667,2.895 9.771,2 8.667,2L8.667,6ZM21.333,2C20.229,2 19.333,2.895 19.333,4C19.333,5.105 20.229,6 21.333,6L21.333,2ZM17,2.5C17,1.395 16.105,0.5 15,0.5C13.895,0.5 13,1.395 13,2.5L17,2.5ZM15,14.5L13.625,15.952C14.396,16.683 15.604,16.683 16.375,15.952L15,14.5ZM21.125,11.452C21.927,10.692 21.962,9.426 21.202,8.625C20.442,7.823 19.176,7.788 18.375,8.548L21.125,11.452ZM11.625,8.548C10.824,7.788 9.558,7.823 8.798,8.625C8.038,9.426 8.073,10.692 8.875,11.452L11.625,8.548ZM2.333,15.5C1.229,15.5 0.333,16.395 0.333,17.5C0.333,18.605 1.229,19.5 2.333,19.5L2.333,15.5ZM7.547,17.939L6.172,19.391L6.172,19.391L7.547,17.939ZM11.37,21.561L9.994,23.013L9.994,23.013L11.37,21.561ZM22.453,17.939L23.828,19.391L23.828,19.391L22.453,17.939ZM27.667,19.5C28.771,19.5 29.667,18.605 29.667,17.5C29.667,16.395 28.771,15.5 27.667,15.5L27.667,19.5ZM25.667,7L25.667,25L29.667,25L29.667,7L25.667,7ZM24.5,26L5.5,26L5.5,30L24.5,30L24.5,26ZM4.333,25L4.333,7L0.333,7L0.333,25L4.333,25ZM5.5,6L8.667,6L8.667,2L5.5,2L5.5,6ZM21.333,6L24.5,6L24.5,2L21.333,2L21.333,6ZM5.5,26C4.752,26 4.333,25.452 4.333,25L0.333,25C0.333,27.862 2.75,30 5.5,30L5.5,26ZM25.667,25C25.667,25.452 25.248,26 24.5,26L24.5,30C27.25,30 29.667,27.862 29.667,25L25.667,25ZM29.667,7C29.667,4.138 27.25,2 24.5,2L24.5,6C25.248,6 25.667,6.548 25.667,7L29.667,7ZM4.333,7C4.333,6.548 4.752,6 5.5,6L5.5,2C2.75,2 0.333,4.138 0.333,7L4.333,7ZM13,2.5L13,14.5L17,14.5L17,2.5L13,2.5ZM18.375,8.548L13.625,13.048L16.375,15.952L21.125,11.452L18.375,8.548ZM16.375,13.048L11.625,8.548L8.875,11.452L13.625,15.952L16.375,13.048ZM2.333,19.5L6.427,19.5L6.427,15.5L2.333,15.5L2.333,19.5ZM6.172,19.391L9.994,23.013L12.745,20.109L8.923,16.487L6.172,19.391ZM12.489,24L17.511,24L17.511,20L12.489,20L12.489,24ZM20.006,23.013L23.828,19.391L21.077,16.487L17.255,20.109L20.006,23.013ZM23.573,19.5L27.667,19.5L27.667,15.5L23.573,15.5L23.573,19.5ZM23.828,19.391C23.743,19.472 23.649,19.5 23.573,19.5L23.573,15.5C22.656,15.5 21.757,15.844 21.077,16.487L23.828,19.391ZM17.511,24C18.427,24 19.327,23.656 20.006,23.013L17.255,20.109C17.34,20.028 17.434,20 17.511,20L17.511,24ZM9.994,23.013C10.673,23.656 11.573,24 12.489,24L12.489,20C12.566,20 12.66,20.028 12.745,20.109L9.994,23.013ZM6.427,19.5C6.351,19.5 6.257,19.472 6.172,19.391L8.923,16.487C8.243,15.844 7.344,15.5 6.427,15.5L6.427,19.5Z" fill="#111827"/>
</svg>
