<svg width="26" height="16" viewBox="0 0 26 16" fill="none" xmlns="http://www.w3.org/2000/svg" xmlns:xlink="http://www.w3.org/1999/xlink">
<path d="M10.4,0.726C8.708,0.005 6.808,-0.4 4.8,-0.4C2.792,-0.4 0.891,0.005 -0.8,0.726L-0.8,14.726C0.891,14.005 2.792,13.6 4.8,13.6C7.47,13.6 9.949,14.315 12,15.539C14.051,14.315 16.53,13.6 19.2,13.6C21.208,13.6 23.108,14.005 24.8,14.726L24.8,0.726C23.108,0.005 21.208,-0.4 19.2,-0.4C17.192,-0.4 15.291,0.005 13.6,0.726L13.6,10.8C13.6,11.573 12.884,12.2 12,12.2C11.116,12.2 10.4,11.573 10.4,10.8L10.4,0.726Z" fill="#111827"/>
</svg>
