<svg width="24" height="24" viewBox="0 0 24 24" fill="none" xmlns="http://www.w3.org/2000/svg" xmlns:xlink="http://www.w3.org/1999/xlink">
<path d="M4.8,-1C1.707,-1 -0.8,1.351 -0.8,4.25C-0.8,7.149 1.707,9.5 4.8,9.5C5.764,9.5 6.672,9.271 7.464,8.869L9.737,11L7.464,13.131C6.672,12.729 5.764,12.5 4.8,12.5C1.707,12.5 -0.8,14.851 -0.8,17.75C-0.8,20.649 1.707,23 4.8,23C7.893,23 10.4,20.649 10.4,17.75C10.4,16.846 10.156,15.995 9.727,15.252L22.731,3.061C23.356,2.475 23.356,1.525 22.731,0.939C22.107,0.354 21.094,0.354 20.469,0.939L12,8.879L9.727,6.748C10.156,6.005 10.4,5.154 10.4,4.25C10.4,1.351 7.893,-1 4.8,-1ZM2.4,4.25C2.4,3.007 3.474,2 4.8,2C6.125,2 7.2,3.007 7.2,4.25C7.2,5.493 6.125,6.5 4.8,6.5C3.474,6.5 2.4,5.493 2.4,4.25ZM2.4,17.75C2.4,16.507 3.474,15.5 4.8,15.5C6.125,15.5 7.2,16.507 7.2,17.75C7.2,18.993 6.125,20 4.8,20C3.474,20 2.4,18.993 2.4,17.75Z" clip-rule="evenodd" fill-rule="evenodd" fill="#111827"/>
<path d="M16.525,13.121C15.901,12.536 14.888,12.536 14.263,13.121C13.638,13.707 13.638,14.657 14.263,15.243L20.469,21.061C21.093,21.646 22.107,21.646 22.731,21.061C23.356,20.475 23.356,19.525 22.731,18.939L16.525,13.121Z" fill="#111827"/>
</svg>
