<svg width="26" height="18" viewBox="0 0 26 18" fill="none" xmlns="http://www.w3.org/2000/svg" xmlns:xlink="http://www.w3.org/1999/xlink">
<path d="M2.4,-0.4C0.633,-0.4 -0.8,0.854 -0.8,2.4L-0.8,3.8L24.8,3.8L24.8,2.4C24.8,0.854 23.367,-0.4 21.6,-0.4L2.4,-0.4Z" fill="#111827"/>
<path d="M24.8,6.6L-0.8,6.6L-0.8,13.6C-0.8,15.146 0.633,16.4 2.4,16.4L21.6,16.4C23.367,16.4 24.8,15.146 24.8,13.6L24.8,6.6ZM2.4,12.2C2.4,11.427 3.116,10.8 4,10.8L5.6,10.8C6.484,10.8 7.2,11.427 7.2,12.2C7.2,12.973 6.484,13.6 5.6,13.6L4,13.6C3.116,13.6 2.4,12.973 2.4,12.2ZM10.4,10.8C9.516,10.8 8.8,11.427 8.8,12.2C8.8,12.973 9.516,13.6 10.4,13.6L12,13.6C12.884,13.6 13.6,12.973 13.6,12.2C13.6,11.427 12.884,10.8 12,10.8L10.4,10.8Z" clip-rule="evenodd" fill-rule="evenodd" fill="#111827"/>
</svg>
