<svg width="24" height="16" viewBox="0 0 24 16" fill="none" xmlns="http://www.w3.org/2000/svg" xmlns:xlink="http://www.w3.org/1999/xlink">
<path d="M22.607,2.462C23.323,1.62 23.22,0.358 22.379,-0.357C21.537,-1.073 20.275,-0.97 19.559,-0.129L22.607,2.462ZM11.167,12.833L9.643,14.129C10.023,14.576 10.58,14.833 11.167,14.833C11.753,14.833 12.311,14.576 12.691,14.129L11.167,12.833ZM2.774,-0.129C2.059,-0.97 0.796,-1.073 -0.045,-0.357C-0.887,0.358 -0.989,1.62 -0.274,2.462L2.774,-0.129ZM19.559,-0.129L9.643,11.538L12.691,14.129L22.607,2.462L19.559,-0.129ZM12.691,11.538L2.774,-0.129L-0.274,2.462L9.643,14.129L12.691,11.538Z" transform="rotate(180 11.167 7)" fill="#111827"/>
</svg>
