<svg width="34" height="32" viewBox="0 0 34 32" fill="none" xmlns="http://www.w3.org/2000/svg" xmlns:xlink="http://www.w3.org/1999/xlink">
<path d="M4.333,13L4.333,11C3.229,11 2.333,11.895 2.333,13L4.333,13ZM29.667,13L31.667,13C31.667,11.895 30.771,11 29.667,11L29.667,13ZM29.667,29.5L29.667,31.5C30.771,31.5 31.667,30.605 31.667,29.5L29.667,29.5ZM4.333,29.5L2.333,29.5C2.333,30.605 3.229,31.5 4.333,31.5L4.333,29.5ZM12.667,19C12.667,17.895 11.771,17 10.667,17C9.562,17 8.667,17.895 8.667,19L12.667,19ZM8.667,23.5C8.667,24.605 9.562,25.5 10.667,25.5C11.771,25.5 12.667,24.605 12.667,23.5L8.667,23.5ZM19,19C19,17.895 18.105,17 17,17C15.895,17 15,17.895 15,19L19,19ZM15,23.5C15,24.605 15.895,25.5 17,25.5C18.105,25.5 19,24.605 19,23.5L15,23.5ZM25.333,19C25.333,17.895 24.438,17 23.333,17C22.229,17 21.333,17.895 21.333,19L25.333,19ZM21.333,23.5C21.333,24.605 22.229,25.5 23.333,25.5C24.438,25.5 25.333,24.605 25.333,23.5L21.333,23.5ZM2.75,27.5C1.645,27.5 0.75,28.395 0.75,29.5C0.75,30.605 1.645,31.5 2.75,31.5L2.75,27.5ZM31.25,31.5C32.355,31.5 33.25,30.605 33.25,29.5C33.25,28.395 32.355,27.5 31.25,27.5L31.25,31.5ZM2.75,11C1.645,11 0.75,11.895 0.75,13C0.75,14.105 1.645,15 2.75,15L2.75,11ZM31.25,15C32.355,15 33.25,14.105 33.25,13C33.25,11.895 32.355,11 31.25,11L31.25,15ZM1.974,6.657C0.956,7.085 0.478,8.258 0.907,9.276C1.335,10.294 2.508,10.772 3.526,10.343L1.974,6.657ZM17,2.5L17.776,0.657C17.28,0.448 16.72,0.448 16.224,0.657L17,2.5ZM30.474,10.343C31.492,10.772 32.665,10.294 33.093,9.276C33.522,8.258 33.044,7.085 32.026,6.657L30.474,10.343ZM4.333,15L29.667,15L29.667,11L4.333,11L4.333,15ZM27.667,13L27.667,29.5L31.667,29.5L31.667,13L27.667,13ZM29.667,27.5L4.333,27.5L4.333,31.5L29.667,31.5L29.667,27.5ZM6.333,29.5L6.333,13L2.333,13L2.333,29.5L6.333,29.5ZM8.667,19L8.667,23.5L12.667,23.5L12.667,19L8.667,19ZM15,19L15,23.5L19,23.5L19,19L15,19ZM21.333,19L21.333,23.5L25.333,23.5L25.333,19L21.333,19ZM2.75,31.5L31.25,31.5L31.25,27.5L2.75,27.5L2.75,31.5ZM2.75,15L31.25,15L31.25,11L2.75,11L2.75,15ZM3.526,10.343L17.776,4.343L16.224,0.657L1.974,6.657L3.526,10.343ZM16.224,4.343L30.474,10.343L32.026,6.657L17.776,0.657L16.224,4.343Z" fill="#111827"/>
</svg>
