<svg width="20" height="26" viewBox="0 0 20 26" fill="none" xmlns="http://www.w3.org/2000/svg" xmlns:xlink="http://www.w3.org/1999/xlink">
<path d="M3.6,-0.8C1.833,-0.8 0.4,0.633 0.4,2.4L0.4,21.6C0.4,23.367 1.833,24.8 3.6,24.8L16.4,24.8C18.167,24.8 19.6,23.367 19.6,21.6L19.6,2.4C19.6,0.633 18.167,-0.8 16.4,-0.8L3.6,-0.8ZM10,21.6C10.884,21.6 11.6,20.884 11.6,20C11.6,19.116 10.884,18.4 10,18.4C9.116,18.4 8.4,19.116 8.4,20C8.4,20.884 9.116,21.6 10,21.6Z" clip-rule="evenodd" fill-rule="evenodd" fill="#111827"/>
</svg>
