<svg width="28" height="26" viewBox="0 0 28 26" fill="none" xmlns="http://www.w3.org/2000/svg" xmlns:xlink="http://www.w3.org/1999/xlink">
<path d="M4,-0.5C2.895,-0.5 2,0.395 2,1.5C2,2.605 2.895,3.5 4,3.5L4,-0.5ZM23.667,21C23.667,22.105 24.562,23 25.667,23C26.771,23 27.667,22.105 27.667,21L23.667,21ZM4,8.5C2.895,8.5 2,9.395 2,10.5C2,11.605 2.895,12.5 4,12.5L4,8.5ZM13.667,21C13.667,22.105 14.562,23 15.667,23C16.771,23 17.667,22.105 17.667,21L13.667,21ZM3.667,21C3.667,20.789 3.766,20.641 3.841,20.574C3.912,20.51 3.974,20.5 4,20.5L4,24.5C5.822,24.5 7.667,23.126 7.667,21L3.667,21ZM4,20.5C4.026,20.5 4.088,20.51 4.159,20.574C4.234,20.641 4.333,20.789 4.333,21L0.333,21C0.333,23.126 2.178,24.5 4,24.5L4,20.5ZM4.333,21C4.333,21.211 4.234,21.359 4.159,21.426C4.088,21.49 4.026,21.5 4,21.5L4,17.5C2.178,17.5 0.333,18.874 0.333,21L4.333,21ZM4,21.5C3.974,21.5 3.912,21.49 3.841,21.426C3.766,21.359 3.667,21.211 3.667,21L7.667,21C7.667,18.874 5.822,17.5 4,17.5L4,21.5ZM4,3.5C15.065,3.5 23.667,11.528 23.667,21L27.667,21C27.667,8.933 16.867,-0.5 4,-0.5L4,3.5ZM4,12.5C9.542,12.5 13.667,16.499 13.667,21L17.667,21C17.667,13.903 11.344,8.5 4,8.5L4,12.5Z" fill="#111827"/>
</svg>
