<svg width="24" height="26" viewBox="0 0 24 26" fill="none" xmlns="http://www.w3.org/2000/svg" xmlns:xlink="http://www.w3.org/1999/xlink">
<path d="M11,24.8C17.627,24.8 23,19.069 23,12C23,4.931 17.627,-0.8 11,-0.8C4.373,-0.8 -1,4.931 -1,12C-1,19.069 4.373,24.8 11,24.8ZM6.5,10.4C7.328,10.4 8,9.684 8,8.8C8,7.916 7.328,7.2 6.5,7.2C5.672,7.2 5,7.916 5,8.8C5,9.684 5.672,10.4 6.5,10.4ZM17,8.8C17,9.684 16.328,10.4 15.5,10.4C14.672,10.4 14,9.684 14,8.8C14,7.916 14.672,7.2 15.5,7.2C16.328,7.2 17,7.916 17,8.8ZM5.697,18.206C6.282,18.83 7.232,18.83 7.818,18.206C9.575,16.331 12.425,16.331 14.182,18.206C14.768,18.83 15.718,18.83 16.303,18.206C16.889,17.581 16.889,16.568 16.303,15.943C13.374,12.819 8.626,12.819 5.697,15.943C5.111,16.568 5.111,17.581 5.697,18.206Z" clip-rule="evenodd" fill-rule="evenodd" fill="#111827"/>
</svg>
