<svg width="24" height="24" viewBox="0 0 24 24" fill="none" xmlns="http://www.w3.org/2000/svg" xmlns:xlink="http://www.w3.org/1999/xlink">
<path d="M11,0.8C5.367,0.8 0.8,4.561 0.8,9.2L0.8,14.22L-0.402,15.21C-0.888,15.61 -1.034,16.213 -0.771,16.736C-0.507,17.259 0.112,17.6 0.8,17.6L21.2,17.6C21.888,17.6 22.508,17.259 22.771,16.736C23.034,16.213 22.888,15.61 22.402,15.21L21.2,14.22L21.2,9.2C21.2,4.561 16.633,0.8 11,0.8Z" fill="#111827"/>
<path d="M11,23.2C8.183,23.2 5.9,21.32 5.9,19L16.1,19C16.1,21.32 13.817,23.2 11,23.2Z" fill="#111827"/>
</svg>
