<svg width="34" height="28" viewBox="0 0 34 28" fill="none" xmlns="http://www.w3.org/2000/svg" xmlns:xlink="http://www.w3.org/1999/xlink">
<path d="M22.69,3.336L21.054,4.487L21.054,4.487L22.69,3.336ZM11.31,3.336L12.946,4.487L12.946,4.487L11.31,3.336ZM23.977,5.164L25.612,4.013L25.612,4.013L23.977,5.164ZM10.023,5.164L8.388,4.013L8.388,4.013L10.023,5.164ZM29.25,9.5L29.25,23L33.25,23L33.25,9.5L29.25,9.5ZM28.083,24L5.917,24L5.917,28L28.083,28L28.083,24ZM4.75,23L4.75,9.5L0.75,9.5L0.75,23L4.75,23ZM5.917,8.5L7.389,8.5L7.389,4.5L5.917,4.5L5.917,8.5ZM26.611,8.5L28.083,8.5L28.083,4.5L26.611,4.5L26.611,8.5ZM11.659,6.315L12.946,4.487L9.674,2.185L8.388,4.013L11.659,6.315ZM13.945,4L20.055,4L20.055,0L13.945,0L13.945,4ZM21.054,4.487L22.341,6.315L25.612,4.013L24.326,2.185L21.054,4.487ZM20.055,4C20.492,4 20.858,4.208 21.054,4.487L24.326,2.185C23.347,0.795 21.736,0 20.055,0L20.055,4ZM12.946,4.487C13.142,4.208 13.508,4 13.945,4L13.945,0C12.264,0 10.653,0.795 9.674,2.185L12.946,4.487ZM26.611,4.5C26.175,4.5 25.809,4.292 25.612,4.013L22.341,6.315C23.319,7.705 24.931,8.5 26.611,8.5L26.611,4.5ZM7.389,8.5C9.069,8.5 10.681,7.705 11.659,6.315L8.388,4.013C8.191,4.292 7.825,4.5 7.389,4.5L7.389,8.5ZM5.917,24C5.169,24 4.75,23.452 4.75,23L0.75,23C0.75,25.862 3.166,28 5.917,28L5.917,24ZM29.25,23C29.25,23.452 28.831,24 28.083,24L28.083,28C30.834,28 33.25,25.862 33.25,23L29.25,23ZM33.25,9.5C33.25,6.638 30.834,4.5 28.083,4.5L28.083,8.5C28.831,8.5 29.25,9.048 29.25,9.5L33.25,9.5ZM4.75,9.5C4.75,9.048 5.169,8.5 5.917,8.5L5.917,4.5C3.166,4.5 0.75,6.638 0.75,9.5L4.75,9.5ZM19.75,15.5C19.75,16.78 18.622,18 17,18L17,22C20.625,22 23.75,19.19 23.75,15.5L19.75,15.5ZM17,18C15.378,18 14.25,16.78 14.25,15.5L10.25,15.5C10.25,19.19 13.375,22 17,22L17,18ZM14.25,15.5C14.25,14.22 15.378,13 17,13L17,9C13.375,9 10.25,11.81 10.25,15.5L14.25,15.5ZM17,13C18.622,13 19.75,14.22 19.75,15.5L23.75,15.5C23.75,11.81 20.625,9 17,9L17,13Z" fill="#111827"/>
</svg>
