<svg width="22" height="20" viewBox="0 0 22 20" fill="none" xmlns="http://www.w3.org/2000/svg" xmlns:xlink="http://www.w3.org/1999/xlink">
<path d="M7.086,18.914C7.867,19.695 9.133,19.695 9.914,18.914C10.695,18.133 10.695,16.867 9.914,16.086L7.086,18.914ZM1,10L-0.414,8.586C-0.789,8.961 -1,9.47 -1,10C-1,10.53 -0.789,11.039 -0.414,11.414L1,10ZM9.914,3.914C10.695,3.133 10.695,1.867 9.914,1.086C9.133,0.305 7.867,0.305 7.086,1.086L9.914,3.914ZM19,12C20.105,12 21,11.105 21,10C21,8.895 20.105,8 19,8L19,12ZM9.914,16.086L2.414,8.586L-0.414,11.414L7.086,18.914L9.914,16.086ZM2.414,11.414L9.914,3.914L7.086,1.086L-0.414,8.586L2.414,11.414ZM1,12L19,12L19,8L1,8L1,12Z" fill="#111827"/>
</svg>
