<svg width="18" height="32" viewBox="0 0 18 32" fill="none" xmlns="http://www.w3.org/2000/svg" xmlns:xlink="http://www.w3.org/1999/xlink">
<path d="M-0.005,7.013C-0.826,7.752 -0.892,9.017 -0.153,9.838C0.586,10.659 1.85,10.725 2.671,9.987L-0.005,7.013ZM8,2.5L9.338,1.013C8.577,0.329 7.423,0.329 6.662,1.013L8,2.5ZM13.329,9.987C14.15,10.725 15.414,10.659 16.153,9.838C16.892,9.017 16.826,7.752 16.005,7.013L13.329,9.987ZM6,29.5C6,30.605 6.895,31.5 8,31.5C9.105,31.5 10,30.605 10,29.5L6,29.5ZM2.671,9.987L9.338,3.987L6.662,1.013L-0.005,7.013L2.671,9.987ZM6.662,3.987L13.329,9.987L16.005,7.013L9.338,1.013L6.662,3.987ZM6,2.5L6,29.5L10,29.5L10,2.5L6,2.5Z" fill="#111827"/>
</svg>
