<svg width="36" height="30" viewBox="0 0 36 30" fill="none" xmlns="http://www.w3.org/2000/svg" xmlns:xlink="http://www.w3.org/1999/xlink">
<path d="M20,10.75C20,9.645 19.105,8.75 18,8.75C16.895,8.75 16,9.645 16,10.75L20,10.75ZM16,19.25C16,20.355 16.895,21.25 18,21.25C19.105,21.25 20,20.355 20,19.25L16,19.25ZM23,17C24.105,17 25,16.105 25,15C25,13.895 24.105,13 23,13L23,17ZM13,13C11.895,13 11,13.895 11,15C11,16.105 11.895,17 13,17L13,13ZM16,10.75L16,15L20,15L20,10.75L16,10.75ZM16,15L16,19.25L20,19.25L20,15L16,15ZM23,13L18,13L18,17L23,17L23,13ZM18,13L13,13L13,17L18,17L18,13ZM31,15C31,20.645 25.497,25.75 18,25.75L18,29.75C27.072,29.75 35,23.439 35,15L31,15ZM18,25.75C10.503,25.75 5,20.645 5,15L1,15C1,23.439 8.928,29.75 18,29.75L18,25.75ZM5,15C5,9.355 10.503,4.25 18,4.25L18,0.25C8.928,0.25 1,6.561 1,15L5,15ZM18,4.25C25.497,4.25 31,9.355 31,15L35,15C35,6.561 27.072,0.25 18,0.25L18,4.25Z" fill="#111827"/>
</svg>
