<svg width="34" height="30" viewBox="0 0 34 30" fill="none" xmlns="http://www.w3.org/2000/svg" xmlns:xlink="http://www.w3.org/1999/xlink">
<path d="M29.705,29.274C30.546,29.989 31.809,29.887 32.524,29.045C33.239,28.204 33.137,26.941 32.295,26.226L29.705,29.274ZM22.295,17.726C21.454,17.011 20.192,17.113 19.476,17.955C18.761,18.796 18.863,20.058 19.705,20.774L22.295,17.726ZM22.333,12.167C22.333,16.246 18.323,20.083 12.667,20.083L12.667,24.083C19.897,24.083 26.333,19.041 26.333,12.167L22.333,12.167ZM12.667,20.083C7.011,20.083 3,16.246 3,12.167L-1,12.167C-1,19.041 5.436,24.083 12.667,24.083L12.667,20.083ZM3,12.167C3,8.087 7.011,4.25 12.667,4.25L12.667,0.25C5.436,0.25 -1,5.293 -1,12.167L3,12.167ZM12.667,4.25C18.323,4.25 22.333,8.087 22.333,12.167L26.333,12.167C26.333,5.293 19.897,0.25 12.667,0.25L12.667,4.25ZM32.295,26.226L22.295,17.726L19.705,20.774L29.705,29.274L32.295,26.226Z" fill="#111827"/>
</svg>
