<svg width="24" height="32" viewBox="0 0 24 32" fill="none" xmlns="http://www.w3.org/2000/svg" xmlns:xlink="http://www.w3.org/1999/xlink">
<path d="M12,23C10.895,23 10,23.895 10,25C10,26.105 10.895,27 12,27L12,23ZM12.017,27C13.121,27 14.017,26.105 14.017,25C14.017,23.895 13.121,23 12.017,23L12.017,27ZM5.333,4.5L18.667,4.5L18.667,0.5L5.333,0.5L5.333,4.5ZM20,5.5L20,26.5L24,26.5L24,5.5L20,5.5ZM18.667,27.5L5.333,27.5L5.333,31.5L18.667,31.5L18.667,27.5ZM4,26.5L4,5.5L0,5.5L0,26.5L4,26.5ZM5.333,27.5C4.394,27.5 4,26.859 4,26.5L0,26.5C0,29.454 2.591,31.5 5.333,31.5L5.333,27.5ZM20,26.5C20,26.859 19.606,27.5 18.667,27.5L18.667,31.5C21.409,31.5 24,29.454 24,26.5L20,26.5ZM18.667,4.5C19.606,4.5 20,5.141 20,5.5L24,5.5C24,2.546 21.409,0.5 18.667,0.5L18.667,4.5ZM5.333,0.5C2.591,0.5 0,2.546 0,5.5L4,5.5C4,5.141 4.394,4.5 5.333,4.5L5.333,0.5ZM12,27L12.017,27L12.017,23L12,23L12,27Z" fill="#111827"/>
</svg>
