<svg width="32" height="32" viewBox="0 0 32 32" fill="none" xmlns="http://www.w3.org/2000/svg" xmlns:xlink="http://www.w3.org/1999/xlink">
<path d="M18.551,26.864L17.177,25.41L17.175,25.412L18.551,26.864ZM5.116,14.136L6.491,15.588L6.51,15.57L5.116,14.136ZM15.272,4.257L13.896,2.805L13.877,2.824L15.272,4.257ZM24.228,4.257L22.853,5.709L22.853,5.709L24.228,4.257ZM24.228,12.743L22.853,11.291L22.834,11.309L24.228,12.743ZM9.594,18.379L8.219,16.927L8.219,16.927L9.594,18.379ZM14.073,22.621L15.448,24.073L15.467,24.055L14.073,22.621ZM21.397,9.952C22.199,9.192 22.233,7.926 21.474,7.125C20.714,6.323 19.448,6.288 18.646,7.048L21.397,9.952ZM29.832,18.954C30.635,18.195 30.671,16.929 29.912,16.126C29.153,15.323 27.887,15.288 27.085,16.046L29.832,18.954ZM17.175,25.412C14.237,28.196 9.43,28.196 6.491,25.412L3.74,28.316C8.222,32.561 15.445,32.561 19.926,28.316L17.175,25.412ZM6.491,25.412C3.614,22.686 3.614,18.314 6.491,15.588L3.74,12.684C-0.802,16.988 -0.802,24.012 3.74,28.316L6.491,25.412ZM16.647,5.709C18.349,4.097 21.151,4.097 22.853,5.709L25.604,2.805C22.359,-0.268 17.141,-0.268 13.896,2.805L16.647,5.709ZM22.853,5.709C24.494,7.264 24.494,9.736 22.853,11.291L25.604,14.195C28.91,11.063 28.91,5.937 25.604,2.805L22.853,5.709ZM8.219,16.927C6.149,18.887 6.149,22.113 8.219,24.073L10.97,21.169C10.566,20.787 10.566,20.213 10.97,19.831L8.219,16.927ZM8.219,24.073C10.227,25.976 13.44,25.976 15.448,24.073L12.697,21.169C12.232,21.61 11.435,21.61 10.97,21.169L8.219,24.073ZM22.834,11.309L12.678,21.188L15.467,24.055L25.623,14.176L22.834,11.309ZM6.51,15.57L16.666,5.691L13.877,2.824L3.721,12.702L6.51,15.57ZM10.97,19.831L21.397,9.952L18.646,7.048L8.219,16.927L10.97,19.831ZM19.925,28.317L29.832,18.954L27.085,16.046L17.177,25.41L19.925,28.317Z" fill="#111827"/>
</svg>
