<svg width="26" height="8" viewBox="0 0 26 8" fill="none" xmlns="http://www.w3.org/2000/svg" xmlns:xlink="http://www.w3.org/1999/xlink">
<path d="M5.6,4C5.6,5.767 4.167,7.2 2.4,7.2C0.633,7.2 -0.8,5.767 -0.8,4C-0.8,2.233 0.633,0.8 2.4,0.8C4.167,0.8 5.6,2.233 5.6,4Z" fill="#111827"/>
<path d="M15.2,4C15.2,5.767 13.767,7.2 12,7.2C10.233,7.2 8.8,5.767 8.8,4C8.8,2.233 10.233,0.8 12,0.8C13.767,0.8 15.2,2.233 15.2,4Z" fill="#111827"/>
<path d="M21.6,7.2C23.367,7.2 24.8,5.767 24.8,4C24.8,2.233 23.367,0.8 21.6,0.8C19.833,0.8 18.4,2.233 18.4,4C18.4,5.767 19.833,7.2 21.6,7.2Z" fill="#111827"/>
</svg>
