<svg width="34" height="30" viewBox="0 0 34 30" fill="none" xmlns="http://www.w3.org/2000/svg" xmlns:xlink="http://www.w3.org/1999/xlink">
<path d="M11,7.333C9.895,7.333 9,8.229 9,9.333C9,10.438 9.895,11.333 11,11.333L11,7.333ZM21,11.333C22.105,11.333 23,10.438 23,9.333C23,8.229 22.105,7.333 21,7.333L21,11.333ZM12.667,7.333C11.562,7.333 10.667,8.229 10.667,9.333C10.667,10.438 11.562,11.333 12.667,11.333L12.667,7.333ZM11,17.833L11,15.833C10.162,15.833 9.412,16.356 9.123,17.143C8.834,17.93 9.066,18.814 9.705,19.357L11,17.833ZM14.705,23.607C15.546,24.323 16.808,24.22 17.524,23.379C18.239,22.537 18.137,21.275 17.295,20.559L14.705,23.607ZM11,11.583C9.895,11.583 9,12.479 9,13.583C9,14.688 9.895,15.583 11,15.583L11,11.583ZM21,15.583C22.105,15.583 23,14.688 23,13.583C23,12.479 22.105,11.583 21,11.583L21,15.583ZM29,15C29,20.645 23.497,25.75 16,25.75L16,29.75C25.072,29.75 33,23.439 33,15L29,15ZM16,25.75C8.503,25.75 3,20.645 3,15L-1,15C-1,23.439 6.928,29.75 16,29.75L16,25.75ZM3,15C3,9.355 8.503,4.25 16,4.25L16,0.25C6.928,0.25 -1,6.561 -1,15L3,15ZM16,4.25C23.497,4.25 29,9.355 29,15L33,15C33,6.561 25.072,0.25 16,0.25L16,4.25ZM11,11.333L21,11.333L21,7.333L11,7.333L11,11.333ZM15.667,13.583C15.667,14.534 14.641,15.833 12.667,15.833L12.667,19.833C16.216,19.833 19.667,17.328 19.667,13.583L15.667,13.583ZM12.667,11.333C14.641,11.333 15.667,12.633 15.667,13.583L19.667,13.583C19.667,9.839 16.216,7.333 12.667,7.333L12.667,11.333ZM12.667,15.833L11,15.833L11,19.833L12.667,19.833L12.667,15.833ZM9.705,19.357L14.705,23.607L17.295,20.559L12.295,16.309L9.705,19.357ZM11,15.583L21,15.583L21,11.583L11,11.583L11,15.583Z" fill="#111827"/>
</svg>
