<svg width="30" height="28" viewBox="0 0 30 28" fill="none" xmlns="http://www.w3.org/2000/svg" xmlns:xlink="http://www.w3.org/1999/xlink">
<path d="M24.917,17C24.917,15.895 24.021,15 22.917,15C21.812,15 20.917,15.895 20.917,17L24.917,17ZM20.917,26C20.917,27.105 21.812,28 22.917,28C24.021,28 24.917,27.105 24.917,26L20.917,26ZM18.167,19.5C17.062,19.5 16.167,20.395 16.167,21.5C16.167,22.605 17.062,23.5 18.167,23.5L18.167,19.5ZM27.667,23.5C28.771,23.5 29.667,22.605 29.667,21.5C29.667,20.395 28.771,19.5 27.667,19.5L27.667,23.5ZM5.5,4L8.667,4L8.667,0L5.5,0L5.5,4ZM9.833,5L9.833,8L13.833,8L13.833,5L9.833,5ZM8.667,9L5.5,9L5.5,13L8.667,13L8.667,9ZM4.333,8L4.333,5L0.333,5L0.333,8L4.333,8ZM5.5,9C4.752,9 4.333,8.452 4.333,8L0.333,8C0.333,10.862 2.75,13 5.5,13L5.5,9ZM9.833,8C9.833,8.452 9.414,9 8.667,9L8.667,13C11.417,13 13.833,10.862 13.833,8L9.833,8ZM8.667,4C9.414,4 9.833,4.548 9.833,5L13.833,5C13.833,2.138 11.417,0 8.667,0L8.667,4ZM5.5,0C2.75,0 0.333,2.138 0.333,5L4.333,5C4.333,4.548 4.752,4 5.5,4L5.5,0ZM21.333,4L24.5,4L24.5,0L21.333,0L21.333,4ZM25.667,5L25.667,8L29.667,8L29.667,5L25.667,5ZM24.5,9L21.333,9L21.333,13L24.5,13L24.5,9ZM20.167,8L20.167,5L16.167,5L16.167,8L20.167,8ZM21.333,9C20.586,9 20.167,8.452 20.167,8L16.167,8C16.167,10.862 18.583,13 21.333,13L21.333,9ZM25.667,8C25.667,8.452 25.248,9 24.5,9L24.5,13C27.25,13 29.667,10.862 29.667,8L25.667,8ZM24.5,4C25.248,4 25.667,4.548 25.667,5L29.667,5C29.667,2.138 27.25,0 24.5,0L24.5,4ZM21.333,0C18.583,0 16.167,2.138 16.167,5L20.167,5C20.167,4.548 20.586,4 21.333,4L21.333,0ZM5.5,19L8.667,19L8.667,15L5.5,15L5.5,19ZM9.833,20L9.833,23L13.833,23L13.833,20L9.833,20ZM8.667,24L5.5,24L5.5,28L8.667,28L8.667,24ZM4.333,23L4.333,20L0.333,20L0.333,23L4.333,23ZM5.5,24C4.752,24 4.333,23.452 4.333,23L0.333,23C0.333,25.862 2.75,28 5.5,28L5.5,24ZM9.833,23C9.833,23.452 9.414,24 8.667,24L8.667,28C11.417,28 13.833,25.862 13.833,23L9.833,23ZM8.667,19C9.414,19 9.833,19.548 9.833,20L13.833,20C13.833,17.138 11.417,15 8.667,15L8.667,19ZM5.5,15C2.75,15 0.333,17.138 0.333,20L4.333,20C4.333,19.548 4.752,19 5.5,19L5.5,15ZM20.917,17L20.917,26L24.917,26L24.917,17L20.917,17ZM18.167,23.5L27.667,23.5L27.667,19.5L18.167,19.5L18.167,23.5Z" fill="#111827"/>
</svg>
