<svg width="34" height="32" viewBox="0 0 34 32" fill="none" xmlns="http://www.w3.org/2000/svg" xmlns:xlink="http://www.w3.org/1999/xlink">
<path d="M19.375,3.516L17.912,4.879C17.94,4.909 17.969,4.939 18,4.968L19.375,3.516ZM30.178,18.25L28.895,16.716C28.863,16.742 28.832,16.77 28.802,16.798L30.178,18.25ZM30.458,14.016L31.922,12.652C31.893,12.622 31.864,12.592 31.834,12.564L30.458,14.016ZM14.905,28.75L13.53,30.202C13.56,30.23 13.591,30.258 13.622,30.284L14.905,28.75ZM19.095,28.75L20.378,30.284C20.409,30.258 20.44,30.23 20.47,30.202L19.095,28.75ZM3.822,18.25L5.198,16.798L5.153,16.755L5.105,16.716L3.822,18.25ZM9.083,6.5C7.979,6.5 7.083,7.395 7.083,8.5C7.083,9.605 7.979,10.5 9.083,10.5L9.083,6.5ZM9.099,10.5C10.204,10.5 11.099,9.605 11.099,8.5C11.099,7.395 10.204,6.5 9.099,6.5L9.099,10.5ZM4.75,8.5C4.75,6.391 6.587,4.5 9.083,4.5L9.083,0.5C4.584,0.5 0.75,3.981 0.75,8.5L4.75,8.5ZM4.75,16L4.75,8.5L0.75,8.5L0.75,16L4.75,16ZM9.083,4.5L17,4.5L17,0.5L9.083,0.5L9.083,4.5ZM17,4.5C17.386,4.5 17.707,4.659 17.912,4.879L20.838,2.152C19.883,1.127 18.505,0.5 17,0.5L17,4.5ZM29.25,16C29.25,16.258 29.134,16.516 28.895,16.716L31.461,19.784C32.536,18.885 33.25,17.534 33.25,16L29.25,16ZM28.995,15.379C29.166,15.562 29.25,15.778 29.25,16L33.25,16C33.25,14.7 32.736,13.527 31.922,12.652L28.995,15.379ZM17,27.5C16.672,27.5 16.391,27.385 16.188,27.216L13.622,30.284C14.536,31.048 15.722,31.5 17,31.5L17,27.5ZM17.812,27.216C17.609,27.385 17.328,27.5 17,27.5L17,31.5C18.278,31.5 19.464,31.048 20.378,30.284L17.812,27.216ZM5.105,16.716C4.866,16.516 4.75,16.258 4.75,16L0.75,16C0.75,17.534 1.464,18.885 2.539,19.784L5.105,16.716ZM18,4.968L29.083,15.468L31.834,12.564L20.75,2.064L18,4.968ZM16.281,27.298L5.198,16.798L2.447,19.702L13.53,30.202L16.281,27.298ZM28.802,16.798L17.719,27.298L20.47,30.202L31.553,19.702L28.802,16.798ZM9.083,10.5L9.099,10.5L9.099,6.5L9.083,6.5L9.083,10.5Z" fill="#111827"/>
</svg>
