<svg width="28" height="32" viewBox="0 0 28 32" fill="none" xmlns="http://www.w3.org/2000/svg" xmlns:xlink="http://www.w3.org/1999/xlink">
<path d="M25.459,20.452C26.261,19.692 26.295,18.426 25.535,17.625C24.776,16.823 23.51,16.788 22.708,17.548L25.459,20.452ZM13,29.5L11.625,30.952C12.396,31.683 13.604,31.683 14.375,30.952L13,29.5ZM3.292,17.548C2.49,16.788 1.224,16.823 0.465,17.625C-0.295,18.426 -0.261,19.692 0.541,20.452L3.292,17.548ZM15,2.5C15,1.395 14.105,0.5 13,0.5C11.895,0.5 11,1.395 11,2.5L15,2.5ZM22.708,17.548L11.625,28.048L14.375,30.952L25.459,20.452L22.708,17.548ZM14.375,28.048L3.292,17.548L0.541,20.452L11.625,30.952L14.375,28.048ZM15,29.5L15,2.5L11,2.5L11,29.5L15,29.5Z" fill="#111827"/>
</svg>
