<svg width="26" height="22" viewBox="0 0 26 22" fill="none" xmlns="http://www.w3.org/2000/svg" xmlns:xlink="http://www.w3.org/1999/xlink">
<path d="M12,-1C11.116,-1 10.4,-0.328 10.4,0.5L10.4,2C10.4,2.828 11.116,3.5 12,3.5C12.884,3.5 13.6,2.828 13.6,2L13.6,0.5C13.6,-0.328 12.884,-1 12,-1Z" fill="#111827"/>
<path d="M2.4,2L7.2,2C7.2,4.485 9.349,6.5 12,6.5C14.651,6.5 16.8,4.485 16.8,2L21.6,2C23.367,2 24.8,3.343 24.8,5L24.8,18.5C24.8,20.157 23.367,21.5 21.6,21.5L2.4,21.5C0.633,21.5 -0.8,20.157 -0.8,18.5L-0.8,5C-0.8,3.343 0.633,2 2.4,2ZM6.4,12.5C7.725,12.5 8.8,11.493 8.8,10.25C8.8,9.007 7.725,8 6.4,8C5.074,8 4,9.007 4,10.25C4,11.493 5.074,12.5 6.4,12.5ZM10.321,18.5C10.373,18.258 10.401,18.007 10.401,17.75C10.401,15.679 8.61,14 6.401,14C4.192,14 2.401,15.679 2.401,17.75C2.401,18.007 2.428,18.258 2.481,18.5L10.321,18.5ZM15.2,9.5C14.316,9.5 13.6,10.172 13.6,11C13.6,11.828 14.316,12.5 15.2,12.5L20,12.5C20.884,12.5 21.6,11.828 21.6,11C21.6,10.172 20.884,9.5 20,9.5L15.2,9.5ZM13.6,15.5C13.6,14.672 14.316,14 15.2,14L18.4,14C19.284,14 20,14.672 20,15.5C20,16.328 19.284,17 18.4,17L15.2,17C14.316,17 13.6,16.328 13.6,15.5Z" clip-rule="evenodd" fill-rule="evenodd" fill="#111827"/>
</svg>
