<svg width="18" height="24" viewBox="0 0 18 24" fill="none" xmlns="http://www.w3.org/2000/svg" xmlns:xlink="http://www.w3.org/1999/xlink">
<path d="M3,0.8C1.343,0.8 0,2.054 0,3.6L0,20.4C0,21.946 1.343,23.2 3,23.2L15,23.2C16.657,23.2 18,21.946 18,20.4L18,8.38C18,7.637 17.684,6.925 17.121,6.4L12,1.62C11.437,1.095 10.674,0.8 9.879,0.8L3,0.8ZM4.5,12C3.672,12 3,12.627 3,13.4C3,14.173 3.672,14.8 4.5,14.8L13.5,14.8C14.328,14.8 15,14.173 15,13.4C15,12.627 14.328,12 13.5,12L4.5,12Z" clip-rule="evenodd" fill-rule="evenodd" fill="#111827"/>
</svg>
