<svg width="28" height="20" viewBox="0 0 28 20" fill="none" xmlns="http://www.w3.org/2000/svg" xmlns:xlink="http://www.w3.org/1999/xlink">
<path d="M3.671,10.013C2.85,9.274 1.586,9.341 0.847,10.162C0.108,10.983 0.174,12.248 0.995,12.987L3.671,10.013ZM9,17.5L7.662,18.987C8.423,19.671 9.577,19.671 10.338,18.987L9,17.5ZM27.005,3.987C27.826,3.248 27.892,1.983 27.153,1.162C26.414,0.341 25.15,0.274 24.329,1.013L27.005,3.987ZM0.995,12.987L7.662,18.987L10.338,16.013L3.671,10.013L0.995,12.987ZM10.338,18.987L27.005,3.987L24.329,1.013L7.662,16.013L10.338,18.987Z" fill="#111827"/>
</svg>
