<svg width="24" height="22" viewBox="0 0 24 22" fill="none" xmlns="http://www.w3.org/2000/svg" xmlns:xlink="http://www.w3.org/1999/xlink">
<path d="M0.5,0.5C-0.328,0.5 -1,1.172 -1,2C-1,2.828 -0.328,3.5 0.5,3.5L17,3.5C17.828,3.5 18.5,2.828 18.5,2C18.5,1.172 17.828,0.5 17,0.5L0.5,0.5Z" fill="#111827"/>
<path d="M0.5,6.5C-0.328,6.5 -1,7.172 -1,8C-1,8.828 -0.328,9.5 0.5,9.5L8,9.5C8.828,9.5 9.5,8.828 9.5,8C9.5,7.172 8.828,6.5 8,6.5L0.5,6.5Z" fill="#111827"/>
<path d="M0.5,12.5C-0.328,12.5 -1,13.172 -1,14C-1,14.828 -0.328,15.5 0.5,15.5L6.5,15.5C7.328,15.5 8,14.828 8,14C8,13.172 7.328,12.5 6.5,12.5L0.5,12.5Z" fill="#111827"/>
<path d="M15.5,20C15.5,20.828 16.172,21.5 17,21.5C17.828,21.5 18.5,20.828 18.5,20L18.5,11.621L20.439,13.561C21.025,14.146 21.975,14.146 22.561,13.561C23.146,12.975 23.146,12.025 22.561,11.439L18.061,6.939C17.779,6.658 17.398,6.5 17,6.5C16.602,6.5 16.221,6.658 15.939,6.939L11.439,11.439C10.854,12.025 10.854,12.975 11.439,13.561C12.025,14.146 12.975,14.146 13.561,13.561L15.5,11.621L15.5,20Z" fill="#111827"/>
</svg>
