<svg width="26" height="24" viewBox="0 0 26 24" fill="none" xmlns="http://www.w3.org/2000/svg" xmlns:xlink="http://www.w3.org/1999/xlink">
<path d="M-0.534,4.998C4.279,4.941 8.664,3.334 12,0.722C15.336,3.334 19.721,4.941 24.534,4.998C24.709,5.91 24.8,6.845 24.8,7.8C24.8,15.115 19.457,21.338 12,23.644C4.543,21.338 -0.8,15.115 -0.8,7.8C-0.8,6.845 -0.709,5.91 -0.534,4.998ZM17.931,10.19C18.556,9.643 18.556,8.757 17.931,8.21C17.307,7.663 16.293,7.663 15.669,8.21L10.4,12.82L8.331,11.01C7.707,10.463 6.693,10.463 6.069,11.01C5.444,11.557 5.444,12.443 6.069,12.99L9.269,15.79C9.893,16.337 10.907,16.337 11.531,15.79L17.931,10.19Z" clip-rule="evenodd" fill-rule="evenodd" fill="#111827"/>
</svg>
