<svg width="32" height="30" viewBox="0 0 32 30" fill="none" xmlns="http://www.w3.org/2000/svg" xmlns:xlink="http://www.w3.org/1999/xlink">
<path d="M2.228,14.085L3.362,12.437L2.228,14.085ZM3.362,10.437L3.362,8.437L3.362,10.437ZM6.847,17.264L7.981,15.617L6.847,17.264ZM5.798,24.831L3.906,24.182L5.798,24.831ZM13.866,23.656L12.732,22.009L13.866,23.656ZM21.177,27.127L22.311,25.48L21.177,27.127ZM23.153,17.264L22.019,15.617L23.153,17.264ZM22.395,19.56L20.503,20.209L22.395,19.56ZM26.638,10.437L26.638,8.437L26.638,10.437ZM27.772,14.085L26.638,12.437L27.772,14.085ZM13.108,3.515L11.216,2.866L13.108,3.515ZM15,4.164L16.911,9.735L20.695,8.437L18.784,2.866L15,4.164ZM20.694,12.437L26.638,12.437L26.638,8.437L20.695,8.437L20.694,12.437ZM26.638,12.437L22.019,15.617L24.287,18.912L28.906,15.732L26.638,12.437ZM20.503,20.209L22.311,25.48L26.094,24.182L24.287,18.912L20.503,20.209ZM22.311,25.48L17.268,22.009L15,25.304L20.043,28.775L22.311,25.48ZM12.732,22.009L7.689,25.48L9.957,28.775L15,25.304L12.732,22.009ZM7.689,25.48L9.497,20.209L5.713,18.912L3.906,24.182L7.689,25.48ZM7.981,15.617L3.362,12.437L1.094,15.732L5.713,18.912L7.981,15.617ZM3.362,12.437L9.306,12.437L9.305,8.437L3.362,8.437L3.362,12.437ZM13.089,9.735L15,4.164L11.216,2.866L9.305,8.437L13.089,9.735ZM9.306,12.437C11.014,12.437 12.535,11.352 13.089,9.735L9.305,8.437L9.305,8.437L9.306,12.437ZM3.362,12.437L3.362,12.437L3.362,8.437C-0.565,8.438 -2.14,13.506 1.094,15.732L3.362,12.437ZM9.497,20.209C10.079,18.512 9.459,16.634 7.981,15.617L5.713,18.912L5.713,18.912L9.497,20.209ZM7.689,25.48L7.689,25.48L3.906,24.182C2.655,27.829 6.781,30.961 9.957,28.775L7.689,25.48ZM17.268,22.009C15.902,21.069 14.098,21.069 12.732,22.009L15,25.304L15,25.304L17.268,22.009ZM22.311,25.48L22.311,25.48L20.043,28.775C23.219,30.961 27.345,27.829 26.094,24.182L22.311,25.48ZM22.019,15.617C20.541,16.634 19.921,18.512 20.503,20.209L24.287,18.912L24.287,18.912L22.019,15.617ZM26.638,12.437L26.638,12.437L28.906,15.732C32.14,13.506 30.565,8.438 26.638,8.437L26.638,12.437ZM16.911,9.735C17.465,11.352 18.985,12.437 20.694,12.437L20.695,8.437L20.695,8.437L16.911,9.735ZM18.784,2.866C17.548,-0.737 12.452,-0.737 11.216,2.866L15,4.164L15,4.164L18.784,2.866Z" fill="#111827"/>
</svg>
