<svg width="24" height="26" viewBox="0 0 24 26" fill="none" xmlns="http://www.w3.org/2000/svg" xmlns:xlink="http://www.w3.org/1999/xlink">
<path d="M10.4,0.8C10.4,-0.084 11.116,-0.8 12,-0.8C12.884,-0.8 13.6,-0.084 13.6,0.8L13.6,9.6C13.6,10.042 13.958,10.4 14.4,10.4C14.842,10.4 15.2,10.042 15.2,9.6L15.2,2.4C15.2,1.516 15.916,0.8 16.8,0.8C17.684,0.8 18.4,1.516 18.4,2.4L18.4,9.6C18.4,10.042 18.758,10.4 19.2,10.4C19.642,10.4 20,10.042 20,9.6L20,5.6C20,4.716 20.716,4 21.6,4C22.484,4 23.2,4.716 23.2,5.6L23.2,13.6C23.2,19.786 18.186,24.8 12,24.8C5.814,24.8 0.8,19.786 0.8,13.6L0.8,10.4C0.8,9.516 1.516,8.8 2.4,8.8C3.284,8.8 4,9.516 4,10.4L4,14.4C4,14.842 4.358,15.2 4.8,15.2C5.242,15.2 5.6,14.842 5.6,14.4L5.6,2.4C5.6,1.516 6.316,0.8 7.2,0.8C8.084,0.8 8.8,1.516 8.8,2.4L8.8,9.6C8.8,10.042 9.158,10.4 9.6,10.4C10.042,10.4 10.4,10.042 10.4,9.6L10.4,0.8Z" fill="#111827"/>
</svg>
