<svg width="26" height="22" viewBox="0 0 26 22" fill="none" xmlns="http://www.w3.org/2000/svg" xmlns:xlink="http://www.w3.org/1999/xlink">
<path d="M0.8,0.5C-0.084,0.5 -0.8,1.172 -0.8,2C-0.8,2.828 -0.084,3.5 0.8,3.5L18.4,3.5C19.284,3.5 20,2.828 20,2C20,1.172 19.284,0.5 18.4,0.5L0.8,0.5Z" fill="#111827"/>
<path d="M0.8,6.5C-0.084,6.5 -0.8,7.172 -0.8,8C-0.8,8.828 -0.084,9.5 0.8,9.5L12,9.5C12.884,9.5 13.6,8.828 13.6,8C13.6,7.172 12.884,6.5 12,6.5L0.8,6.5Z" fill="#111827"/>
<path d="M0.8,12.5C-0.084,12.5 -0.8,13.172 -0.8,14C-0.8,14.828 -0.084,15.5 0.8,15.5L7.2,15.5C8.084,15.5 8.8,14.828 8.8,14C8.8,13.172 8.084,12.5 7.2,12.5L0.8,12.5Z" fill="#111827"/>
<path d="M20,8C20,7.172 19.284,6.5 18.4,6.5C17.516,6.5 16.8,7.172 16.8,8L16.8,16.379L14.731,14.439C14.106,13.854 13.093,13.854 12.469,14.439C11.844,15.025 11.844,15.975 12.469,16.561L17.269,21.061C17.569,21.342 17.976,21.5 18.4,21.5C18.824,21.5 19.231,21.342 19.531,21.061L24.331,16.561C24.956,15.975 24.956,15.025 24.331,14.439C23.707,13.854 22.693,13.854 22.069,14.439L20,16.379L20,8Z" fill="#111827"/>
</svg>
