<svg width="34" height="30" viewBox="0 0 34 30" fill="none" xmlns="http://www.w3.org/2000/svg" xmlns:xlink="http://www.w3.org/1999/xlink">
<path d="M21,17C22.105,17 23,16.105 23,15C23,13.895 22.105,13 21,13L21,17ZM11,13C9.895,13 9,13.895 9,15C9,16.105 9.895,17 11,17L11,13ZM29,15C29,20.645 23.497,25.75 16,25.75L16,29.75C25.072,29.75 33,23.439 33,15L29,15ZM16,25.75C8.503,25.75 3,20.645 3,15L-1,15C-1,23.439 6.928,29.75 16,29.75L16,25.75ZM3,15C3,9.355 8.503,4.25 16,4.25L16,0.25C6.928,0.25 -1,6.561 -1,15L3,15ZM16,4.25C23.497,4.25 29,9.355 29,15L33,15C33,6.561 25.072,0.25 16,0.25L16,4.25ZM21,13L11,13L11,17L21,17L21,13Z" fill="#111827"/>
</svg>
