<svg width="26" height="24" viewBox="0 0 26 24" fill="none" xmlns="http://www.w3.org/2000/svg" xmlns:xlink="http://www.w3.org/1999/xlink">
<path d="M5.6,0.8C4.716,0.8 4,1.427 4,2.2L4,3.6L2.4,3.6C0.633,3.6 -0.8,4.854 -0.8,6.4L-0.8,20.4C-0.8,21.946 0.633,23.2 2.4,23.2L21.6,23.2C23.367,23.2 24.8,21.946 24.8,20.4L24.8,6.4C24.8,4.854 23.367,3.6 21.6,3.6L20,3.6L20,2.2C20,1.427 19.284,0.8 18.4,0.8C17.516,0.8 16.8,1.427 16.8,2.2L16.8,3.6L7.2,3.6L7.2,2.2C7.2,1.427 6.484,0.8 5.6,0.8ZM5.6,7.8C4.716,7.8 4,8.427 4,9.2C4,9.973 4.716,10.6 5.6,10.6L18.4,10.6C19.284,10.6 20,9.973 20,9.2C20,8.427 19.284,7.8 18.4,7.8L5.6,7.8Z" clip-rule="evenodd" fill-rule="evenodd" fill="#111827"/>
</svg>
