<svg width="26" height="22" viewBox="0 0 26 22" fill="none" xmlns="http://www.w3.org/2000/svg" xmlns:xlink="http://www.w3.org/1999/xlink">
<path d="M0.8,0.2C-0.084,0.2 -0.8,0.827 -0.8,1.6C-0.8,2.373 -0.084,3 0.8,3L0.8,14.2C0.8,15.746 2.233,17 4,17L8.137,17L6.069,18.81C5.444,19.357 5.444,20.243 6.069,20.79C6.693,21.337 7.706,21.337 8.331,20.79L12,17.58L15.669,20.79C16.293,21.337 17.306,21.337 17.931,20.79C18.556,20.243 18.556,19.357 17.931,18.81L15.863,17L20,17C21.767,17 23.2,15.746 23.2,14.2L23.2,3C24.084,3 24.8,2.373 24.8,1.6C24.8,0.827 24.084,0.2 23.2,0.2L0.8,0.2ZM19.531,6.79C20.156,6.243 20.156,5.357 19.531,4.81C18.906,4.263 17.893,4.263 17.269,4.81L12,9.42L9.931,7.61C9.306,7.063 8.293,7.063 7.669,7.61L4.469,10.41C3.844,10.957 3.844,11.843 4.469,12.39C5.093,12.937 6.106,12.937 6.731,12.39L8.8,10.58L10.869,12.39C11.493,12.937 12.506,12.937 13.131,12.39L19.531,6.79Z" clip-rule="evenodd" fill-rule="evenodd" fill="#111827"/>
</svg>
