<svg width="30" height="28" viewBox="0 0 30 28" fill="none" xmlns="http://www.w3.org/2000/svg" xmlns:xlink="http://www.w3.org/1999/xlink">
<path d="M23.333,8C23.333,6.895 22.438,6 21.333,6C20.229,6 19.333,6.895 19.333,8L23.333,8ZM19.333,20C19.333,21.105 20.229,22 21.333,22C22.438,22 23.333,21.105 23.333,20L19.333,20ZM17,12.5C17,11.395 16.105,10.5 15,10.5C13.895,10.5 13,11.395 13,12.5L17,12.5ZM13,20C13,21.105 13.895,22 15,22C16.105,22 17,21.105 17,20L13,20ZM10.667,17C10.667,15.895 9.771,15 8.667,15C7.562,15 6.667,15.895 6.667,17L10.667,17ZM6.667,20C6.667,21.105 7.562,22 8.667,22C9.771,22 10.667,21.105 10.667,20L6.667,20ZM5.5,4L24.5,4L24.5,0L5.5,0L5.5,4ZM25.667,5L25.667,23L29.667,23L29.667,5L25.667,5ZM24.5,24L5.5,24L5.5,28L24.5,28L24.5,24ZM4.333,23L4.333,5L0.333,5L0.333,23L4.333,23ZM5.5,24C4.752,24 4.333,23.452 4.333,23L0.333,23C0.333,25.862 2.75,28 5.5,28L5.5,24ZM25.667,23C25.667,23.452 25.248,24 24.5,24L24.5,28C27.25,28 29.667,25.862 29.667,23L25.667,23ZM24.5,4C25.248,4 25.667,4.548 25.667,5L29.667,5C29.667,2.138 27.25,0 24.5,0L24.5,4ZM5.5,0C2.75,0 0.333,2.138 0.333,5L4.333,5C4.333,4.548 4.752,4 5.5,4L5.5,0ZM19.333,8L19.333,20L23.333,20L23.333,8L19.333,8ZM13,12.5L13,20L17,20L17,12.5L13,12.5ZM6.667,17L6.667,20L10.667,20L10.667,17L6.667,17Z" fill="#111827"/>
</svg>
