<svg width="28" height="24" viewBox="0 0 28 24" fill="none" xmlns="http://www.w3.org/2000/svg" xmlns:xlink="http://www.w3.org/1999/xlink">
<path d="M13,0.722C9.456,3.334 4.796,4.941 -0.318,4.998C-0.503,5.91 -0.6,6.845 -0.6,7.8C-0.6,15.115 5.077,21.338 13,23.644C20.923,21.338 26.6,15.115 26.6,7.8C26.6,6.845 26.503,5.91 26.318,4.998C21.204,4.941 16.544,3.334 13,0.722ZM14.7,17.6C14.7,18.373 13.939,19 13,19C12.061,19 11.3,18.373 11.3,17.6C11.3,16.827 12.061,16.2 13,16.2C13.939,16.2 14.7,16.827 14.7,17.6ZM14.7,7.8C14.7,7.027 13.939,6.4 13,6.4C12.061,6.4 11.3,7.027 11.3,7.8L11.3,12C11.3,12.773 12.061,13.4 13,13.4C13.939,13.4 14.7,12.773 14.7,12L14.7,7.8Z" clip-rule="evenodd" fill-rule="evenodd" fill="#111827"/>
</svg>
