<svg width="32" height="28" viewBox="0 0 32 28" fill="none" xmlns="http://www.w3.org/2000/svg" xmlns:xlink="http://www.w3.org/1999/xlink">
<path d="M2.5,0C1.395,0 0.5,0.895 0.5,2C0.5,3.105 1.395,4 2.5,4L2.5,0ZM22,4C23.105,4 24,3.105 24,2C24,0.895 23.105,0 22,0L22,4ZM2.5,6C1.395,6 0.5,6.895 0.5,8C0.5,9.105 1.395,10 2.5,10L2.5,6ZM16,10C17.105,10 18,9.105 18,8C18,6.895 17.105,6 16,6L16,10ZM2.5,12C1.395,12 0.5,12.895 0.5,14C0.5,15.105 1.395,16 2.5,16L2.5,12ZM16,16C17.105,16 18,15.105 18,14C18,12.895 17.105,12 16,12L16,16ZM25.5,8C25.5,6.895 24.605,6 23.5,6C22.395,6 21.5,6.895 21.5,8L25.5,8ZM23.5,26L22.086,27.414C22.867,28.195 24.133,28.195 24.914,27.414L23.5,26ZM18.914,18.586C18.133,17.805 16.867,17.805 16.086,18.586C15.305,19.367 15.305,20.633 16.086,21.414L18.914,18.586ZM30.914,21.414C31.695,20.633 31.695,19.367 30.914,18.586C30.133,17.805 28.867,17.805 28.086,18.586L30.914,21.414ZM2.5,4L22,4L22,0L2.5,0L2.5,4ZM2.5,10L16,10L16,6L2.5,6L2.5,10ZM2.5,16L16,16L16,12L2.5,12L2.5,16ZM21.5,8L21.5,26L25.5,26L25.5,8L21.5,8ZM16.086,21.414L22.086,27.414L24.914,24.586L18.914,18.586L16.086,21.414ZM24.914,27.414L30.914,21.414L28.086,18.586L22.086,24.586L24.914,27.414Z" fill="#111827"/>
</svg>
