<svg width="34" height="32" viewBox="0 0 34 32" fill="none" xmlns="http://www.w3.org/2000/svg" xmlns:xlink="http://www.w3.org/1999/xlink">
<path d="M10.274,6.074L11.274,4.342L11.274,4.342L10.274,6.074ZM14.347,4.476L12.41,3.979L14.347,4.476ZM6.523,9.628L4.841,10.71L4.841,10.71L6.523,9.628ZM4.836,13.487L4.387,11.538L4.387,11.538L4.836,13.487ZM4.836,18.513L5.284,16.564L5.284,16.564L4.836,18.513ZM6.523,22.372L4.841,21.29L4.841,21.29L6.523,22.372ZM10.274,25.926L11.274,27.658L11.274,27.658L10.274,25.926ZM14.347,27.524L16.285,27.028L14.347,27.524ZM19.653,27.524L21.59,28.021L21.59,28.021L19.653,27.524ZM23.726,25.926L22.726,27.658L22.726,27.658L23.726,25.926ZM27.477,22.372L29.159,21.29L29.159,21.29L27.477,22.372ZM29.164,18.513L29.613,20.462L29.613,20.462L29.164,18.513ZM29.164,13.487L28.716,15.436L29.164,13.487ZM27.477,9.628L29.159,10.71L29.159,10.71L27.477,9.628ZM23.726,6.074L22.726,4.342L22.726,4.342L23.726,6.074ZM19.653,4.476L17.715,4.972L17.715,4.972L19.653,4.476ZM9.274,7.806C11.906,9.326 15.494,8.06 16.285,4.972L12.41,3.979C12.369,4.14 12.245,4.301 12.009,4.393C11.771,4.487 11.502,4.474 11.274,4.342L9.274,7.806ZM8.205,8.546C8.096,8.377 8.102,8.277 8.111,8.223C8.124,8.144 8.174,8.024 8.299,7.906C8.424,7.788 8.582,7.711 8.74,7.687C8.882,7.666 9.058,7.682 9.274,7.806L11.274,4.342C9.203,3.146 6.937,3.687 5.548,5.002C4.143,6.334 3.498,8.622 4.841,10.71L8.205,8.546ZM5.284,15.436C8.314,14.739 9.98,11.306 8.205,8.546L4.841,10.71C4.941,10.866 4.945,11.017 4.881,11.162C4.815,11.313 4.663,11.474 4.387,11.538L5.284,15.436ZM5.284,16.564C5.023,16.504 4.91,16.398 4.856,16.327C4.791,16.243 4.75,16.129 4.75,16C4.75,15.871 4.791,15.757 4.856,15.673C4.91,15.602 5.023,15.496 5.284,15.436L4.387,11.538C-0.463,12.653 -0.462,19.347 4.387,20.462L5.284,16.564ZM8.205,23.454C9.98,20.694 8.314,17.261 5.284,16.564L4.387,20.462C4.663,20.526 4.815,20.687 4.881,20.838C4.945,20.983 4.941,21.134 4.841,21.29L8.205,23.454ZM9.274,24.194C9.058,24.318 8.882,24.334 8.74,24.313C8.582,24.289 8.424,24.212 8.299,24.094C8.174,23.976 8.124,23.856 8.111,23.777C8.102,23.723 8.096,23.623 8.205,23.454L4.841,21.29C3.498,23.378 4.143,25.666 5.548,26.998C6.937,28.313 9.203,28.854 11.274,27.658L9.274,24.194ZM16.285,27.028C15.494,23.94 11.906,22.674 9.274,24.194L11.274,27.658C11.502,27.526 11.771,27.513 12.009,27.607C12.245,27.699 12.369,27.86 12.41,28.021L16.285,27.028ZM17.715,27.028C17.67,27.204 17.59,27.297 17.496,27.361C17.384,27.439 17.21,27.5 17,27.5C16.79,27.5 16.616,27.439 16.504,27.361C16.41,27.297 16.33,27.204 16.285,27.028L12.41,28.021C13.019,30.396 15.121,31.5 17,31.5C18.879,31.5 20.981,30.396 21.59,28.021L17.715,27.028ZM24.726,24.194C22.094,22.674 18.506,23.94 17.715,27.028L21.59,28.021C21.631,27.86 21.755,27.699 21.991,27.607C22.229,27.513 22.498,27.526 22.726,27.658L24.726,24.194ZM25.795,23.454C25.904,23.623 25.898,23.723 25.889,23.777C25.876,23.856 25.826,23.976 25.701,24.094C25.576,24.212 25.418,24.289 25.26,24.313C25.118,24.334 24.942,24.318 24.726,24.194L22.726,27.658C24.797,28.854 27.063,28.313 28.452,26.998C29.857,25.666 30.502,23.378 29.159,21.29L25.795,23.454ZM28.716,16.564C25.686,17.261 24.02,20.694 25.795,23.454L29.159,21.29C29.059,21.134 29.055,20.983 29.119,20.838C29.185,20.687 29.337,20.526 29.613,20.462L28.716,16.564ZM28.716,15.436C28.977,15.496 29.09,15.602 29.144,15.673C29.209,15.757 29.25,15.871 29.25,16C29.25,16.129 29.209,16.243 29.144,16.327C29.09,16.398 28.977,16.504 28.716,16.564L29.613,20.462C34.462,19.347 34.462,12.653 29.613,11.538L28.716,15.436ZM25.795,8.546C24.02,11.306 25.686,14.739 28.716,15.436L29.613,11.538C29.337,11.474 29.185,11.313 29.119,11.162C29.055,11.017 29.059,10.866 29.159,10.71L25.795,8.546ZM24.726,7.806C24.942,7.682 25.118,7.666 25.26,7.687C25.418,7.711 25.576,7.788 25.701,7.906C25.826,8.024 25.876,8.144 25.889,8.223C25.898,8.277 25.904,8.377 25.795,8.546L29.159,10.71C30.502,8.622 29.857,6.334 28.452,5.002C27.063,3.687 24.797,3.146 22.726,4.342L24.726,7.806ZM17.715,4.972C18.506,8.06 22.094,9.326 24.726,7.806L22.726,4.342C22.498,4.474 22.229,4.487 21.991,4.393C21.755,4.301 21.631,4.14 21.59,3.979L17.715,4.972ZM21.59,3.979C20.981,1.604 18.879,0.5 17,0.5C15.121,0.5 13.019,1.604 12.41,3.979L16.285,4.972C16.33,4.796 16.41,4.703 16.504,4.639C16.616,4.561 16.79,4.5 17,4.5C17.21,4.5 17.384,4.561 17.496,4.639C17.59,4.703 17.67,4.796 17.715,4.972L21.59,3.979ZM19.75,16C19.75,17.28 18.622,18.5 17,18.5L17,22.5C20.625,22.5 23.75,19.69 23.75,16L19.75,16ZM17,18.5C15.378,18.5 14.25,17.28 14.25,16L10.25,16C10.25,19.69 13.375,22.5 17,22.5L17,18.5ZM14.25,16C14.25,14.72 15.378,13.5 17,13.5L17,9.5C13.375,9.5 10.25,12.31 10.25,16L14.25,16ZM17,13.5C18.622,13.5 19.75,14.72 19.75,16L23.75,16C23.75,12.31 20.625,9.5 17,9.5L17,13.5Z" fill="#111827"/>
</svg>
