<svg width="34" height="16" viewBox="0 0 34 16" fill="none" xmlns="http://www.w3.org/2000/svg" xmlns:xlink="http://www.w3.org/1999/xlink">
<path d="M25.671,0.513C24.85,-0.225 23.586,-0.159 22.847,0.662C22.108,1.483 22.174,2.748 22.995,3.487L25.671,0.513ZM31,8L32.338,9.487C32.759,9.107 33,8.567 33,8C33,7.433 32.759,6.893 32.338,6.513L31,8ZM22.995,12.513C22.174,13.252 22.108,14.517 22.847,15.338C23.586,16.159 24.85,16.225 25.671,15.487L22.995,12.513ZM1,6C-0.105,6 -1,6.895 -1,8C-1,9.105 -0.105,10 1,10L1,6ZM22.995,3.487L29.662,9.487L32.338,6.513L25.671,0.513L22.995,3.487ZM29.662,6.513L22.995,12.513L25.671,15.487L32.338,9.487L29.662,6.513ZM31,6L1,6L1,10L31,10L31,6Z" fill="#111827"/>
</svg>
