<svg width="34" height="28" viewBox="0 0 34 28" fill="none" xmlns="http://www.w3.org/2000/svg" xmlns:xlink="http://www.w3.org/1999/xlink">
<path d="M10.666,2L10.666,0C9.848,0 9.111,0.499 8.808,1.26C8.505,2.02 8.696,2.889 9.291,3.452L10.666,2ZM23.333,2L24.708,3.452C25.303,2.889 25.494,2.02 25.191,1.26C24.888,0.499 24.152,0 23.333,0L23.333,2ZM12.25,3.5L14.25,3.5C14.25,2.951 14.024,2.426 13.625,2.048L12.25,3.5ZM21.75,3.5L20.374,2.048C19.975,2.426 19.75,2.951 19.75,3.5L21.75,3.5ZM22.677,13.379L24.053,11.927L22.677,13.379ZM11.322,13.379L12.698,14.831L12.698,14.831L11.322,13.379ZM3.406,20.879L2.03,19.427L2.03,19.427L3.406,20.879ZM30.594,20.879L31.969,19.427L30.594,20.879ZM7.578,18.815L7.206,20.78L7.206,20.78L7.578,18.815ZM10.637,19.394L10.264,21.359L10.264,21.359L10.637,19.394ZM16.748,18.619L17.605,20.426L17.605,20.426L16.748,18.619ZM17.251,18.381L16.395,16.574L16.395,16.574L17.251,18.381ZM23.362,17.606L22.99,19.571L22.99,19.571L23.362,17.606ZM27.143,18.322L27.515,16.357L27.515,16.357L27.143,18.322ZM27.385,20.594C28.187,21.354 29.453,21.32 30.213,20.518C30.972,19.716 30.938,18.45 30.136,17.69L27.385,20.594ZM3.342,18.183C2.541,18.943 2.506,20.209 3.266,21.011C4.026,21.813 5.292,21.847 6.093,21.087L3.342,18.183ZM10.666,4L23.333,4L23.333,0L10.666,0L10.666,4ZM28.355,24L5.645,24L5.645,28L28.355,28L28.355,24ZM4.781,22.331L12.698,14.831L9.947,11.927L2.03,19.427L4.781,22.331ZM21.302,14.831L29.218,22.331L31.969,19.427L24.053,11.927L21.302,14.831ZM14.25,11.257L14.25,3.5L10.25,3.5L10.25,11.257L14.25,11.257ZM13.625,2.048L12.042,0.548L9.291,3.452L10.874,4.952L13.625,2.048ZM21.958,0.548L20.374,2.048L23.125,4.952L24.708,3.452L21.958,0.548ZM19.75,3.5L19.75,11.257L23.75,11.257L23.75,3.5L19.75,3.5ZM24.053,11.927C23.845,11.73 23.75,11.487 23.75,11.257L19.75,11.257C19.75,12.619 20.322,13.902 21.302,14.831L24.053,11.927ZM12.698,14.831C13.678,13.902 14.25,12.619 14.25,11.257L10.25,11.257C10.25,11.487 10.155,11.73 9.947,11.927L12.698,14.831ZM5.645,24C5.058,24 4.702,23.69 4.552,23.347C4.407,23.017 4.44,22.653 4.781,22.331L2.03,19.427C-1.449,22.722 1.255,28 5.645,28L5.645,24ZM28.355,28C32.745,28 35.448,22.722 31.969,19.427L29.218,22.331C29.559,22.653 29.592,23.017 29.448,23.347C29.298,23.69 28.941,24 28.355,24L28.355,28ZM7.206,20.78L10.264,21.359L11.009,17.429L7.951,16.85L7.206,20.78ZM17.605,20.426L18.107,20.188L16.395,16.574L15.892,16.812L17.605,20.426ZM22.99,19.571L26.77,20.287L27.515,16.357L23.735,15.641L22.99,19.571ZM18.107,20.188C19.611,19.476 21.331,19.256 22.99,19.571L23.735,15.641C21.251,15.17 18.67,15.496 16.395,16.574L18.107,20.188ZM10.264,21.359C12.748,21.83 15.329,21.504 17.605,20.426L15.892,16.812C14.389,17.524 12.669,17.744 11.009,17.429L10.264,21.359ZM30.136,17.69C29.409,17.001 28.495,16.542 27.515,16.357L26.77,20.287C27.017,20.334 27.229,20.446 27.385,20.594L30.136,17.69ZM6.093,21.087C6.362,20.832 6.78,20.699 7.206,20.78L7.951,16.85C6.299,16.537 4.571,17.02 3.342,18.183L6.093,21.087Z" fill="#111827"/>
</svg>
