<svg width="36" height="32" viewBox="0 0 36 32" fill="none" xmlns="http://www.w3.org/2000/svg" xmlns:xlink="http://www.w3.org/1999/xlink">
<path d="M33.685,21.762C34.722,21.384 35.257,20.236 34.879,19.199C34.501,18.161 33.353,17.626 32.315,18.004L33.685,21.762ZM3.685,18.004C2.647,17.626 1.499,18.161 1.121,19.199C0.743,20.236 1.278,21.384 2.315,21.762L3.685,18.004ZM22.667,9C22.667,10.105 23.562,11 24.667,11C25.771,11 26.667,10.105 26.667,9L22.667,9ZM9.333,9C9.333,10.105 10.229,11 11.333,11C12.438,11 13.333,10.105 13.333,9L9.333,9ZM18,16C16.895,16 16,16.895 16,18C16,19.105 16.895,20 18,20L18,16ZM18.017,20C19.121,20 20.017,19.105 20.017,18C20.017,16.895 19.121,16 18.017,16L18.017,20ZM6.333,11L29.667,11L29.667,7L6.333,7L6.333,11ZM31,12L31,27L35,27L35,12L31,12ZM29.667,28L6.333,28L6.333,32L29.667,32L29.667,28ZM5,27L5,12L1,12L1,27L5,27ZM6.333,28C5.394,28 5,27.359 5,27L1,27C1,29.954 3.591,32 6.333,32L6.333,28ZM31,27C31,27.359 30.606,28 29.667,28L29.667,32C32.409,32 35,29.954 35,27L31,27ZM29.667,11C30.606,11 31,11.641 31,12L35,12C35,9.046 32.409,7 29.667,7L29.667,11ZM6.333,7C3.591,7 1,9.046 1,12L5,12C5,11.641 5.394,11 6.333,11L6.333,7ZM32.315,18.004C27.902,19.612 23.07,20.5 18,20.5L18,24.5C23.539,24.5 28.834,23.53 33.685,21.762L32.315,18.004ZM18,20.5C12.93,20.5 8.098,19.612 3.685,18.004L2.315,21.762C7.166,23.53 12.461,24.5 18,24.5L18,20.5ZM14.667,5L21.333,5L21.333,1L14.667,1L14.667,5ZM22.667,6L22.667,9L26.667,9L26.667,6L22.667,6ZM13.333,9L13.333,6L9.333,6L9.333,9L13.333,9ZM21.333,5C22.273,5 22.667,5.641 22.667,6L26.667,6C26.667,3.046 24.075,1 21.333,1L21.333,5ZM14.667,1C11.925,1 9.333,3.046 9.333,6L13.333,6C13.333,5.641 13.727,5 14.667,5L14.667,1ZM18,20L18.017,20L18.017,16L18,16L18,20Z" fill="#111827"/>
</svg>
