<svg width="24" height="26" viewBox="0 0 24 26" fill="none" xmlns="http://www.w3.org/2000/svg" xmlns:xlink="http://www.w3.org/1999/xlink">
<path d="M22.886,1.926C22.814,1.75 22.706,1.586 22.564,1.443C22.562,1.44 22.56,1.438 22.557,1.436C22.286,1.167 21.913,1 21.5,1L15.5,1C14.672,1 14,1.672 14,2.5C14,3.328 14.672,4 15.5,4L17.879,4L12.939,8.939C12.354,9.525 12.354,10.475 12.939,11.061C13.525,11.646 14.475,11.646 15.061,11.061L20,6.121L20,8.5C20,9.328 20.672,10 21.5,10C22.328,10 23,9.328 23,8.5L23,2.5C23,2.297 22.96,2.103 22.886,1.926Z" fill="#111827"/>
<path d="M-1,2.5C-1,1.672 -0.328,1 0.5,1L3.729,1C4.463,1 5.088,1.53 5.209,2.253L6.318,8.907C6.426,9.557 6.098,10.201 5.509,10.495L3.187,11.657C4.861,15.817 8.183,19.139 12.343,20.813L13.505,18.491C13.799,17.902 14.443,17.574 15.093,17.682L21.747,18.791C22.47,18.912 23,19.537 23,20.271L23,23.5C23,24.328 22.328,25 21.5,25L18.5,25C7.73,25 -1,16.27 -1,5.5L-1,2.5Z" fill="#111827"/>
</svg>
