<svg width="34" height="30" viewBox="0 0 34 30" fill="none" xmlns="http://www.w3.org/2000/svg" xmlns:xlink="http://www.w3.org/1999/xlink">
<path d="M5.206,21.437C4.22,21.936 3.825,23.139 4.324,24.125C4.822,25.11 6.025,25.505 7.011,25.007L5.206,21.437ZM26.989,25.007C27.975,25.505 29.178,25.11 29.676,24.125C30.175,23.139 29.78,21.936 28.794,21.437L26.989,25.007ZM19.75,12.167C19.75,13.206 18.734,14.417 17,14.417L17,18.417C20.513,18.417 23.75,15.822 23.75,12.167L19.75,12.167ZM17,14.417C15.266,14.417 14.25,13.206 14.25,12.167L10.25,12.167C10.25,15.822 13.487,18.417 17,18.417L17,14.417ZM14.25,12.167C14.25,11.127 15.266,9.917 17,9.917L17,5.917C13.487,5.917 10.25,8.512 10.25,12.167L14.25,12.167ZM17,9.917C18.734,9.917 19.75,11.127 19.75,12.167L23.75,12.167C23.75,8.512 20.513,5.917 17,5.917L17,9.917ZM17,18.667C12.728,18.667 8.702,19.669 5.206,21.437L7.011,25.007C9.948,23.521 13.355,22.667 17,22.667L17,18.667ZM28.794,21.437C25.298,19.669 21.272,18.667 17,18.667L17,22.667C20.645,22.667 24.052,23.521 26.989,25.007L28.794,21.437ZM29.25,15C29.25,20.734 23.98,25.75 17,25.75L17,29.75C25.76,29.75 33.25,23.35 33.25,15L29.25,15ZM17,25.75C10.02,25.75 4.75,20.734 4.75,15L0.75,15C0.75,23.35 8.24,29.75 17,29.75L17,25.75ZM4.75,15C4.75,9.266 10.02,4.25 17,4.25L17,0.25C8.24,0.25 0.75,6.65 0.75,15L4.75,15ZM17,4.25C23.98,4.25 29.25,9.266 29.25,15L33.25,15C33.25,6.65 25.76,0.25 17,0.25L17,4.25Z" fill="#111827"/>
</svg>
