<svg width="22" height="26" viewBox="0 0 22 26" fill="none" xmlns="http://www.w3.org/2000/svg" xmlns:xlink="http://www.w3.org/1999/xlink">
<path d="M0.8,2C0.8,0.343 2.322,-1 4.2,-1L11.996,-1C12.898,-1 13.762,-0.684 14.4,-0.121L20.204,5C20.842,5.563 21.2,6.326 21.2,7.121L21.2,20C21.2,21.657 19.678,23 17.8,23L15.203,23C16.818,21.408 17.8,19.305 17.8,17C17.8,12.029 13.233,8 7.6,8C4.988,8 2.605,8.867 0.8,10.292L0.8,2Z" fill="#111827"/>
<path d="M7.6,11C3.844,11 0.8,13.686 0.8,17C0.8,18.112 1.144,19.155 1.742,20.048L-0.402,21.939C-1.066,22.525 -1.066,23.475 -0.402,24.061C0.262,24.646 1.338,24.646 2.002,24.061L4.146,22.169C5.158,22.697 6.34,23 7.6,23C11.356,23 14.4,20.314 14.4,17C14.4,13.686 11.356,11 7.6,11ZM4.2,17C4.2,15.343 5.722,14 7.6,14C9.478,14 11,15.343 11,17C11,18.657 9.478,20 7.6,20C6.661,20 5.813,19.666 5.196,19.121C4.579,18.577 4.2,17.829 4.2,17Z" clip-rule="evenodd" fill-rule="evenodd" fill="#111827"/>
</svg>
