<svg width="36" height="28" viewBox="0 0 36 28" fill="none" xmlns="http://www.w3.org/2000/svg" xmlns:xlink="http://www.w3.org/1999/xlink">
<path d="M23,2L23,4L23,2ZM6.333,2L6.333,0L6.333,2ZM3,5L5,5L3,5ZM3,23L1,23L3,23ZM6.333,26L6.333,28L6.333,28L6.333,26ZM29.667,26L29.667,24L29.667,24L29.667,26ZM26.333,5L24.333,5L24.333,5L26.333,5ZM26.333,23L24.333,23L24.333,23L26.333,23ZM33,9.5L31,9.5L31,9.5L33,9.5ZM29.667,6.5L29.667,8.5L29.667,8.5L29.667,6.5ZM33,23L35,23L35,23L33,23ZM19.667,4C20.771,4 21.667,3.105 21.667,2C21.667,0.895 20.771,0 19.667,0L19.667,4ZM13,0C11.895,0 11,0.895 11,2C11,3.105 11.895,4 13,4L13,0ZM9.667,8L9.667,6C8.562,6 7.667,6.895 7.667,8L9.667,8ZM19.667,8L21.667,8C21.667,6.895 20.771,6 19.667,6L19.667,8ZM9.667,14L7.667,14C7.667,15.105 8.562,16 9.667,16L9.667,14ZM19.667,14L19.667,16C20.771,16 21.667,15.105 21.667,14L19.667,14ZM9.667,18C8.562,18 7.667,18.895 7.667,20C7.667,21.105 8.562,22 9.667,22L9.667,18ZM19.667,22C20.771,22 21.667,21.105 21.667,20C21.667,18.895 20.771,18 19.667,18L19.667,22ZM23,0L6.333,0L6.333,4L23,4L23,0ZM1,5L1,23L5,23L5,5L1,5ZM6.333,28L29.667,28L29.667,24L6.333,24L6.333,28ZM28.333,6.5L28.333,5L24.333,5L24.333,6.5L28.333,6.5ZM1,23C1,25.954 3.591,28 6.333,28L6.333,24C5.394,24 5,23.359 5,23L1,23ZM6.333,0C3.591,0 1,2.046 1,5L5,5C5,4.641 5.394,4 6.333,4L6.333,0ZM23,4C23.94,4 24.333,4.641 24.333,5L28.333,5C28.333,2.046 25.742,0 23,0L23,4ZM35,23L35,9.5L31,9.5L31,23L35,23ZM29.667,4.5L26.333,4.5L26.333,8.5L29.667,8.5L29.667,4.5ZM24.333,6.5L24.333,23L28.333,23L28.333,6.5L24.333,6.5ZM24.333,23C24.333,25.954 26.925,28 29.667,28L29.667,24C28.727,24 28.333,23.359 28.333,23L24.333,23ZM35,9.5C35,6.546 32.409,4.5 29.667,4.5L29.667,8.5C30.606,8.5 31,9.141 31,9.5L35,9.5ZM31,23C31,23.359 30.606,24 29.667,24L29.667,28C32.409,28 35,25.954 35,23L31,23ZM19.667,0L13,0L13,4L19.667,4L19.667,0ZM9.667,10L19.667,10L19.667,6L9.667,6L9.667,10ZM9.667,16L19.667,16L19.667,12L9.667,12L9.667,16ZM9.667,22L19.667,22L19.667,18L9.667,18L9.667,22ZM7.667,8L7.667,14L11.667,14L11.667,8L7.667,8ZM21.667,14L21.667,8L17.667,8L17.667,14L21.667,14Z" fill="#111827"/>
</svg>
