<svg width="24" height="20" viewBox="0 0 24 20" fill="none" xmlns="http://www.w3.org/2000/svg" xmlns:xlink="http://www.w3.org/1999/xlink">
<path d="M15.005,1.013C14.184,0.274 12.919,0.341 12.18,1.162C11.441,1.983 11.508,3.248 12.329,3.987L15.005,1.013ZM22,10L23.338,11.487C23.759,11.107 24,10.567 24,10C24,9.433 23.759,8.893 23.338,8.513L22,10ZM12.329,16.013C11.508,16.752 11.441,18.017 12.18,18.838C12.919,19.659 14.184,19.726 15.005,18.987L12.329,16.013ZM2,8C0.895,8 0,8.895 0,10C0,11.105 0.895,12 2,12L2,8ZM12.329,3.987L20.662,11.487L23.338,8.513L15.005,1.013L12.329,3.987ZM20.662,8.513L12.329,16.013L15.005,18.987L23.338,11.487L20.662,8.513ZM22,8L2,8L2,12L22,12L22,8Z" fill="#111827"/>
</svg>
