<svg width="34" height="26" viewBox="0 0 34 26" fill="none" xmlns="http://www.w3.org/2000/svg" xmlns:xlink="http://www.w3.org/1999/xlink">
<path d="M12.25,1.5L13.625,0.048L13.047,-0.5L12.25,-0.5L12.25,1.5ZM15.417,4.5L14.041,5.952L14.62,6.5L15.417,6.5L15.417,4.5ZM22.917,9C22.917,10.105 23.812,11 24.917,11C26.021,11 26.917,10.105 26.917,9L22.917,9ZM4.75,19.5L4.75,4.5L0.75,4.5L0.75,19.5L4.75,19.5ZM5.917,3.5L12.25,3.5L12.25,-0.5L5.917,-0.5L5.917,3.5ZM10.875,2.952L14.041,5.952L16.792,3.048L13.625,0.048L10.875,2.952ZM15.417,6.5L21.75,6.5L21.75,2.5L15.417,2.5L15.417,6.5ZM21.75,6.5C22.498,6.5 22.917,7.048 22.917,7.5L26.917,7.5C26.917,4.638 24.5,2.5 21.75,2.5L21.75,6.5ZM4.75,4.5C4.75,4.048 5.169,3.5 5.917,3.5L5.917,-0.5C3.166,-0.5 0.75,1.638 0.75,4.5L4.75,4.5ZM0.75,19.5C0.75,22.362 3.166,24.5 5.917,24.5L5.917,20.5C5.169,20.5 4.75,19.952 4.75,19.5L0.75,19.5ZM22.917,7.5L22.917,9L26.917,9L26.917,7.5L22.917,7.5ZM11.083,12C11.083,11.548 11.502,11 12.25,11L12.25,7C9.5,7 7.083,9.138 7.083,12L11.083,12ZM12.25,11L28.083,11L28.083,7L12.25,7L12.25,11ZM28.083,11C28.831,11 29.25,11.548 29.25,12L33.25,12C33.25,9.138 30.834,7 28.083,7L28.083,11ZM29.25,12L29.25,19.5L33.25,19.5L33.25,12L29.25,12ZM29.25,19.5C29.25,19.952 28.831,20.5 28.083,20.5L28.083,24.5C30.834,24.5 33.25,22.362 33.25,19.5L29.25,19.5ZM28.083,20.5L5.917,20.5L5.917,24.5L28.083,24.5L28.083,20.5ZM5.917,24.5C8.667,24.5 11.083,22.362 11.083,19.5L7.083,19.5C7.083,19.952 6.664,20.5 5.917,20.5L5.917,24.5ZM11.083,19.5L11.083,12L7.083,12L7.083,19.5L11.083,19.5Z" fill="#111827"/>
</svg>
