<svg width="32" height="16" viewBox="0 0 32 16" fill="none" xmlns="http://www.w3.org/2000/svg" xmlns:xlink="http://www.w3.org/1999/xlink">
<path d="M2.667,0C1.562,0 0.667,0.895 0.667,2C0.667,3.105 1.562,4 2.667,4L2.667,0ZM29.333,4C30.438,4 31.333,3.105 31.333,2C31.333,0.895 30.438,0 29.333,0L29.333,4ZM2.667,12C1.562,12 0.667,12.895 0.667,14C0.667,15.105 1.562,16 2.667,16L2.667,12ZM29.333,16C30.438,16 31.333,15.105 31.333,14C31.333,12.895 30.438,12 29.333,12L29.333,16ZM2.667,4L29.333,4L29.333,0L2.667,0L2.667,4ZM2.667,16L29.333,16L29.333,12L2.667,12L2.667,16Z" fill="#111827"/>
</svg>
