<svg width="26" height="26" viewBox="0 0 26 26" fill="none" xmlns="http://www.w3.org/2000/svg" xmlns:xlink="http://www.w3.org/1999/xlink">
<path d="M12,25C19.069,25 24.8,19.627 24.8,13C24.8,6.373 19.069,1 12,1C4.931,1 -0.8,6.373 -0.8,13C-0.8,19.627 4.931,25 12,25ZM14,7C14,5.895 13.105,5 12,5C10.895,5 10,5.895 10,7L10,13C10,13.553 10.229,14.081 10.632,14.459L15.158,18.702C15.963,19.457 17.229,19.416 17.985,18.611C18.74,17.805 18.699,16.539 17.893,15.784L14,12.134L14,7Z" clip-rule="evenodd" fill-rule="evenodd" fill="#111827"/>
</svg>
