<svg width="26" height="18" viewBox="0 0 26 18" fill="none" xmlns="http://www.w3.org/2000/svg" xmlns:xlink="http://www.w3.org/1999/xlink">
<path d="M4,0C1.349,0 -0.8,2.015 -0.8,4.5L-0.8,13.5C-0.8,15.985 1.349,18 4,18L20,18C22.651,18 24.8,15.985 24.8,13.5L24.8,4.5C24.8,2.015 22.651,0 20,0L4,0ZM2.4,13.5L2.4,12L10.4,12L10.4,15L4,15C3.116,15 2.4,14.328 2.4,13.5ZM13.6,15L20,15C20.884,15 21.6,14.328 21.6,13.5L21.6,12L13.6,12L13.6,15ZM13.6,9L21.6,9L21.6,6L13.6,6L13.6,9ZM10.4,6L2.4,6L2.4,9L10.4,9L10.4,6Z" clip-rule="evenodd" fill-rule="evenodd" fill="#111827"/>
</svg>
