<svg width="34" height="30" viewBox="0 0 34 30" fill="none" xmlns="http://www.w3.org/2000/svg" xmlns:xlink="http://www.w3.org/1999/xlink">
<path d="M5.917,15.583L28.083,15.583L28.083,11.583L5.917,11.583L5.917,15.583ZM29.25,16.417L29.25,24.917L33.25,24.917L33.25,16.417L29.25,16.417ZM28.083,25.75L5.917,25.75L5.917,29.75L28.083,29.75L28.083,25.75ZM4.75,24.917L4.75,16.417L0.75,16.417L0.75,24.917L4.75,24.917ZM5.917,25.75C5.525,25.75 5.211,25.608 5.011,25.43C4.815,25.254 4.75,25.07 4.75,24.917L0.75,24.917C0.75,27.789 3.278,29.75 5.917,29.75L5.917,25.75ZM29.25,24.917C29.25,25.07 29.185,25.254 28.989,25.43C28.789,25.608 28.475,25.75 28.083,25.75L28.083,29.75C30.722,29.75 33.25,27.789 33.25,24.917L29.25,24.917ZM28.083,15.583C28.475,15.583 28.789,15.725 28.989,15.904C29.185,16.079 29.25,16.264 29.25,16.417L33.25,16.417C33.25,13.544 30.722,11.583 28.083,11.583L28.083,15.583ZM5.917,11.583C3.278,11.583 0.75,13.544 0.75,16.417L4.75,16.417C4.75,16.264 4.815,16.079 5.011,15.904C5.211,15.725 5.525,15.583 5.917,15.583L5.917,11.583ZM12.25,4.25L21.75,4.25L21.75,0.25L12.25,0.25L12.25,4.25ZM3.917,10.75L3.917,13.583L7.917,13.583L7.917,10.75L3.917,10.75ZM26.083,10.75L26.083,13.583L30.083,13.583L30.083,10.75L26.083,10.75ZM7.083,5.083L7.083,7.917L11.083,7.917L11.083,5.083L7.083,5.083ZM9.083,9.917L24.917,9.917L24.917,5.917L9.083,5.917L9.083,9.917ZM22.917,5.083L22.917,7.917L26.917,7.917L26.917,5.083L22.917,5.083ZM21.75,4.25C22.141,4.25 22.456,4.392 22.656,4.57C22.852,4.746 22.917,4.93 22.917,5.083L26.917,5.083C26.917,2.211 24.388,0.25 21.75,0.25L21.75,4.25ZM12.25,0.25C9.612,0.25 7.083,2.211 7.083,5.083L11.083,5.083C11.083,4.93 11.148,4.746 11.344,4.57C11.544,4.392 11.859,4.25 12.25,4.25L12.25,0.25ZM30.083,10.75C30.083,7.877 27.555,5.917 24.917,5.917L24.917,9.917C25.308,9.917 25.623,10.058 25.822,10.237C26.018,10.412 26.083,10.597 26.083,10.75L30.083,10.75ZM7.917,10.75C7.917,10.597 7.982,10.412 8.178,10.237C8.377,10.058 8.692,9.917 9.083,9.917L9.083,5.917C6.445,5.917 3.917,7.877 3.917,10.75L7.917,10.75Z" fill="#111827"/>
</svg>
