<svg width="26" height="24" viewBox="0 0 26 24" fill="none" xmlns="http://www.w3.org/2000/svg" xmlns:xlink="http://www.w3.org/1999/xlink">
<path d="M-0.8,13.6C-0.8,12.716 -0.084,12 0.8,12L4,12C4.884,12 5.6,12.716 5.6,13.6L5.6,21.6C5.6,22.484 4.884,23.2 4,23.2L0.8,23.2C-0.084,23.2 -0.8,22.484 -0.8,21.6L-0.8,13.6Z" fill="#111827"/>
<path d="M8.8,7.2C8.8,6.316 9.516,5.6 10.4,5.6L13.6,5.6C14.484,5.6 15.2,6.316 15.2,7.2L15.2,21.6C15.2,22.484 14.484,23.2 13.6,23.2L10.4,23.2C9.516,23.2 8.8,22.484 8.8,21.6L8.8,7.2Z" fill="#111827"/>
<path d="M18.4,2.4C18.4,1.516 19.116,0.8 20,0.8L23.2,0.8C24.084,0.8 24.8,1.516 24.8,2.4L24.8,21.6C24.8,22.484 24.084,23.2 23.2,23.2L20,23.2C19.116,23.2 18.4,22.484 18.4,21.6L18.4,2.4Z" fill="#111827"/>
</svg>
