<svg width="26" height="32" viewBox="0 0 26 32" fill="none" xmlns="http://www.w3.org/2000/svg" xmlns:xlink="http://www.w3.org/1999/xlink">
<path d="M22.5,29.5L21.606,31.289C22.226,31.599 22.962,31.566 23.551,31.201C24.141,30.837 24.5,30.193 24.5,29.5L22.5,29.5ZM1.5,29.5L-0.5,29.5C-0.5,30.193 -0.141,30.837 0.449,31.201C1.038,31.566 1.774,31.599 2.394,31.289L1.5,29.5ZM12,24.25L12.894,22.461C12.331,22.18 11.669,22.18 11.106,22.461L12,24.25ZM4.5,4.5L19.5,4.5L19.5,0.5L4.5,0.5L4.5,4.5ZM20.5,5.5L20.5,29.5L24.5,29.5L24.5,5.5L20.5,5.5ZM3.5,29.5L3.5,5.5L-0.5,5.5L-0.5,29.5L3.5,29.5ZM23.394,27.711L12.894,22.461L11.106,26.039L21.606,31.289L23.394,27.711ZM11.106,22.461L0.606,27.711L2.394,31.289L12.894,26.039L11.106,22.461ZM19.5,4.5C20.052,4.5 20.5,4.948 20.5,5.5L24.5,5.5C24.5,2.739 22.261,0.5 19.5,0.5L19.5,4.5ZM4.5,0.5C1.739,0.5 -0.5,2.739 -0.5,5.5L3.5,5.5C3.5,4.948 3.948,4.5 4.5,4.5L4.5,0.5Z" fill="#111827"/>
</svg>
