<svg width="24" height="24" viewBox="0 0 24 24" fill="none" xmlns="http://www.w3.org/2000/svg" xmlns:xlink="http://www.w3.org/1999/xlink">
<path d="M23,2.2C23,1.715 22.731,1.264 22.289,1.009C21.846,0.754 21.294,0.731 20.829,0.948L9.146,6.4L3.5,6.4C1.015,6.4 -1,8.28 -1,10.6C-1,12.92 1.015,14.8 3.5,14.8L3.919,14.8L6.577,22.243C6.781,22.814 7.354,23.2 8,23.2L9.5,23.2C10.328,23.2 11,22.573 11,21.8L11,15.665L20.829,20.252C21.294,20.469 21.846,20.446 22.289,20.191C22.731,19.936 23,19.485 23,19L23,2.2Z" fill="#111827"/>
</svg>
