<svg width="34" height="32" viewBox="0 0 34 32" fill="none" xmlns="http://www.w3.org/2000/svg" xmlns:xlink="http://www.w3.org/1999/xlink">
<path d="M2.75,29.5L0.75,29.5C0.75,30.605 1.645,31.5 2.75,31.5L2.75,29.5ZM21.75,29.5L21.75,31.5C22.855,31.5 23.75,30.605 23.75,29.5L21.75,29.5ZM31.25,18C32.355,18 33.25,17.105 33.25,16C33.25,14.895 32.355,14 31.25,14L31.25,18ZM21.75,14C20.645,14 19.75,14.895 19.75,16C19.75,17.105 20.645,18 21.75,18L21.75,14ZM16.583,8.5C16.583,10.609 14.746,12.5 12.25,12.5L12.25,16.5C16.749,16.5 20.583,13.019 20.583,8.5L16.583,8.5ZM12.25,12.5C9.754,12.5 7.917,10.609 7.917,8.5L3.917,8.5C3.917,13.019 7.751,16.5 12.25,16.5L12.25,12.5ZM7.917,8.5C7.917,6.391 9.754,4.5 12.25,4.5L12.25,0.5C7.751,0.5 3.917,3.981 3.917,8.5L7.917,8.5ZM12.25,4.5C14.746,4.5 16.583,6.391 16.583,8.5L20.583,8.5C20.583,3.981 16.749,0.5 12.25,0.5L12.25,4.5ZM4.75,28C4.75,24.235 8.005,21 12.25,21L12.25,17C6.002,17 0.75,21.824 0.75,28L4.75,28ZM12.25,21C16.495,21 19.75,24.235 19.75,28L23.75,28C23.75,21.824 18.498,17 12.25,17L12.25,21ZM0.75,28L0.75,29.5L4.75,29.5L4.75,28L0.75,28ZM2.75,31.5L21.75,31.5L21.75,27.5L2.75,27.5L2.75,31.5ZM23.75,29.5L23.75,28L19.75,28L19.75,29.5L23.75,29.5ZM31.25,14L21.75,14L21.75,18L31.25,18L31.25,14Z" fill="#111827"/>
</svg>
