<svg width="28" height="24" viewBox="0 0 28 24" fill="none" xmlns="http://www.w3.org/2000/svg" xmlns:xlink="http://www.w3.org/1999/xlink">
<path d="M8.675,0.676C8.446,-0.071 7.569,-0.514 6.715,-0.314C5.862,-0.114 5.355,0.654 5.584,1.401L5.998,2.753C6.227,3.5 7.104,3.943 7.958,3.743C8.811,3.543 9.318,2.775 9.089,2.028L8.675,0.676Z" fill="#111827"/>
<path d="M1.887,4.636C1.033,4.436 0.156,4.879 -0.073,5.626C-0.302,6.373 0.205,7.14 1.058,7.341L2.604,7.703C3.457,7.903 4.335,7.46 4.563,6.713C4.792,5.966 4.286,5.198 3.432,4.998L1.887,4.636Z" fill="#111827"/>
<path d="M15.988,3.84C16.613,3.293 16.613,2.407 15.988,1.86C15.363,1.314 14.35,1.314 13.725,1.86L12.594,2.85C11.969,3.397 11.969,4.283 12.594,4.83C13.219,5.377 14.232,5.377 14.857,4.83L15.988,3.84Z" fill="#111827"/>
<path d="M4.674,13.74L5.806,12.75C6.431,12.203 6.431,11.317 5.806,10.77C5.181,10.223 4.168,10.223 3.543,10.77L2.412,11.76C1.787,12.306 1.787,13.193 2.412,13.74C3.036,14.286 4.05,14.286 4.674,13.74Z" fill="#111827"/>
<path d="M9.794,6.5C9.2,6.292 8.521,6.414 8.069,6.81C7.616,7.206 7.477,7.8 7.714,8.32L14.114,22.32C14.348,22.832 14.904,23.176 15.534,23.199C16.163,23.222 16.749,22.919 17.031,22.426L19.238,18.563L24.069,22.79C24.693,23.337 25.707,23.337 26.331,22.79C26.956,22.243 26.956,21.357 26.331,20.81L21.501,16.584L25.916,14.652C26.479,14.406 26.825,13.893 26.799,13.342C26.772,12.791 26.379,12.305 25.794,12.1L9.794,6.5Z" fill="#111827"/>
</svg>
