<svg width="20" height="24" viewBox="0 0 20 24" fill="none" xmlns="http://www.w3.org/2000/svg" xmlns:xlink="http://www.w3.org/1999/xlink">
<path d="M3.6,0.8C1.833,0.8 0.4,2.054 0.4,3.6L0.4,20.4C0.4,21.946 1.833,23.2 3.6,23.2L16.4,23.2C18.167,23.2 19.6,21.946 19.6,20.4L19.6,8.38C19.6,7.637 19.263,6.925 18.663,6.4L13.2,1.62C12.6,1.095 11.786,0.8 10.937,0.8L3.6,0.8ZM11.6,9.2C11.6,8.427 10.884,7.8 10,7.8C9.116,7.8 8.4,8.427 8.4,9.2L8.4,12L5.2,12C4.316,12 3.6,12.627 3.6,13.4C3.6,14.173 4.316,14.8 5.2,14.8L8.4,14.8L8.4,17.6C8.4,18.373 9.116,19 10,19C10.884,19 11.6,18.373 11.6,17.6L11.6,14.8L14.8,14.8C15.684,14.8 16.4,14.173 16.4,13.4C16.4,12.627 15.684,12 14.8,12L11.6,12L11.6,9.2Z" clip-rule="evenodd" fill-rule="evenodd" fill="#111827"/>
</svg>
