<svg width="28" height="30" viewBox="0 0 28 30" fill="none" xmlns="http://www.w3.org/2000/svg" xmlns:xlink="http://www.w3.org/1999/xlink">
<path d="M15.5,12.167L13.5,12.167C13.5,13.271 14.395,14.167 15.5,14.167L15.5,12.167ZM15.5,2.25L17.5,2.25C17.5,1.415 16.981,0.668 16.199,0.376C15.416,0.084 14.535,0.309 13.988,0.94L15.5,2.25ZM2,17.833L0.488,16.524C-0.024,17.116 -0.145,17.952 0.181,18.664C0.506,19.376 1.217,19.833 2,19.833L2,17.833ZM12.5,17.833L14.5,17.833C14.5,17.303 14.289,16.794 13.914,16.419C13.539,16.044 13.03,15.833 12.5,15.833L12.5,17.833ZM12.5,27.75L10.5,27.75C10.5,28.585 11.019,29.332 11.801,29.624C12.584,29.916 13.465,29.691 14.012,29.06L12.5,27.75ZM26,12.167L27.512,13.476C28.024,12.884 28.145,12.048 27.819,11.336C27.494,10.624 26.783,10.167 26,10.167L26,12.167ZM17.5,12.167L17.5,2.25L13.5,2.25L13.5,12.167L17.5,12.167ZM13.988,0.94L0.488,16.524L3.512,19.143L17.012,3.56L13.988,0.94ZM2,19.833L12.5,19.833L12.5,15.833L2,15.833L2,19.833ZM10.5,17.833L10.5,27.75L14.5,27.75L14.5,17.833L10.5,17.833ZM14.012,29.06L27.512,13.476L24.488,10.857L10.988,26.44L14.012,29.06ZM26,10.167L15.5,10.167L15.5,14.167L26,14.167L26,10.167Z" fill="#111827"/>
</svg>
