<svg width="36" height="36" viewBox="0 0 36 36" fill="none" xmlns="http://www.w3.org/2000/svg" xmlns:xlink="http://www.w3.org/1999/xlink">
<path d="M9.667,26C10.771,26 11.667,25.105 11.667,24C11.667,22.895 10.771,22 9.667,22L9.667,26ZM24.5,9.001L22.549,9.441C22.758,10.366 23.587,11.018 24.536,11.001L24.5,9.001ZM8.201,12.145L8.597,14.106C9.132,13.998 9.6,13.676 9.892,13.214C10.183,12.753 10.274,12.192 10.142,11.663L8.201,12.145ZM25.974,21.883C24.887,22.081 24.167,23.123 24.366,24.209C24.564,25.296 25.606,26.016 26.693,25.817L25.974,21.883ZM14.338,27.013C13.517,26.274 12.252,26.341 11.513,27.162C10.775,27.983 10.841,29.248 11.662,29.987L14.338,27.013ZM18,33L16.662,34.487C17.423,35.171 18.577,35.171 19.338,34.487L18,33ZM24.338,29.987C25.159,29.248 25.226,27.983 24.487,27.162C23.748,26.341 22.483,26.274 21.662,27.013L24.338,29.987ZM20,15C20,13.895 19.105,13 18,13C16.895,13 16,13.895 16,15L20,15ZM9.667,22C6.886,22 5,20.016 5,18L1,18C1,22.611 5.084,26 9.667,26L9.667,22ZM24.667,11C28.368,11 31,13.655 31,16.5L35,16.5C35,11.06 30.17,7 24.667,7L24.667,11ZM24.536,11.001C24.579,11 24.623,11 24.667,11L24.667,7C24.599,7 24.532,7.001 24.465,7.002L24.536,11.001ZM16.333,5C19.552,5 22.009,7.043 22.549,9.441L26.451,8.562C25.449,4.112 21.179,1 16.333,1L16.333,5ZM10,10.5C10,7.655 12.632,5 16.333,5L16.333,1C10.83,1 6,5.06 6,10.5L10,10.5ZM10.142,11.663C10.049,11.289 10,10.901 10,10.5L6,10.5C6,11.23 6.09,11.943 6.26,12.628L10.142,11.663ZM5,18C5,16.249 6.389,14.552 8.597,14.106L7.805,10.185C4.059,10.941 1,14.03 1,18L5,18ZM31,16.5C31,19.001 28.995,21.331 25.974,21.883L26.693,25.817C31.279,24.98 35,21.256 35,16.5L31,16.5ZM11.662,29.987L16.662,34.487L19.338,31.513L14.338,27.013L11.662,29.987ZM19.338,34.487L24.338,29.987L21.662,27.013L16.662,31.513L19.338,34.487ZM20,33L20,15L16,15L16,33L20,33Z" fill="#111827"/>
</svg>
