<svg width="18" height="26" viewBox="0 0 18 26" fill="none" xmlns="http://www.w3.org/2000/svg" xmlns:xlink="http://www.w3.org/1999/xlink">
<path d="M7.5,-0.8C6.672,-0.8 6,-0.084 6,0.8C6,1.684 6.672,2.4 7.5,2.4L10.5,2.4C11.328,2.4 12,1.684 12,0.8C12,-0.084 11.328,-0.8 10.5,-0.8L7.5,-0.8Z" fill="#111827"/>
<path d="M0,4C0,2.233 1.343,0.8 3,0.8C3,3.451 5.015,5.6 7.5,5.6L10.5,5.6C12.985,5.6 15,3.451 15,0.8C16.657,0.8 18,2.233 18,4L18,21.6C18,23.367 16.657,24.8 15,24.8L3,24.8C1.343,24.8 0,23.367 0,21.6L0,4ZM4.5,10.4C3.672,10.4 3,11.116 3,12C3,12.884 3.672,13.6 4.5,13.6L4.515,13.6C5.343,13.6 6.015,12.884 6.015,12C6.015,11.116 5.343,10.4 4.515,10.4L4.5,10.4ZM9,10.4C8.172,10.4 7.5,11.116 7.5,12C7.5,12.884 8.172,13.6 9,13.6L13.5,13.6C14.328,13.6 15,12.884 15,12C15,11.116 14.328,10.4 13.5,10.4L9,10.4ZM4.5,16.8C3.672,16.8 3,17.516 3,18.4C3,19.284 3.672,20 4.5,20L4.515,20C5.343,20 6.015,19.284 6.015,18.4C6.015,17.516 5.343,16.8 4.515,16.8L4.5,16.8ZM9,16.8C8.172,16.8 7.5,17.516 7.5,18.4C7.5,19.284 8.172,20 9,20L13.5,20C14.328,20 15,19.284 15,18.4C15,17.516 14.328,16.8 13.5,16.8L9,16.8Z" clip-rule="evenodd" fill-rule="evenodd" fill="#111827"/>
</svg>
