<svg width="28" height="32" viewBox="0 0 28 32" fill="none" xmlns="http://www.w3.org/2000/svg" xmlns:xlink="http://www.w3.org/1999/xlink">
<path d="M0.541,11.548C-0.261,12.308 -0.295,13.574 0.465,14.375C1.224,15.177 2.49,15.212 3.292,14.452L0.541,11.548ZM13,2.5L14.375,1.048C13.604,0.317 12.396,0.317 11.625,1.048L13,2.5ZM22.708,14.452C23.51,15.212 24.776,15.177 25.535,14.375C26.295,13.574 26.261,12.308 25.459,11.548L22.708,14.452ZM11,29.5C11,30.605 11.895,31.5 13,31.5C14.105,31.5 15,30.605 15,29.5L11,29.5ZM3.292,14.452L14.375,3.952L11.625,1.048L0.541,11.548L3.292,14.452ZM11.625,3.952L22.708,14.452L25.459,11.548L14.375,1.048L11.625,3.952ZM11,2.5L11,29.5L15,29.5L15,2.5L11,2.5Z" fill="#111827"/>
</svg>
