<svg width="34" height="20" viewBox="0 0 34 20" fill="none" xmlns="http://www.w3.org/2000/svg" xmlns:xlink="http://www.w3.org/1999/xlink">
<path d="M18.583,15.5C17.479,15.5 16.583,16.395 16.583,17.5C16.583,18.605 17.479,19.5 18.583,19.5L18.583,15.5ZM31.25,17.5L31.25,19.5C32.355,19.5 33.25,18.605 33.25,17.5L31.25,17.5ZM33.25,5.5C33.25,4.395 32.355,3.5 31.25,3.5C30.145,3.5 29.25,4.395 29.25,5.5L33.25,5.5ZM4.125,1.048C3.324,0.288 2.058,0.323 1.298,1.125C0.538,1.926 0.573,3.192 1.375,3.952L4.125,1.048ZM12.25,11.5L10.875,12.952C11.646,13.683 12.854,13.683 13.625,12.952L12.25,11.5ZM18.583,5.5L19.959,4.048C19.187,3.317 17.979,3.317 17.208,4.048L18.583,5.5ZM18.583,19.5L31.25,19.5L31.25,15.5L18.583,15.5L18.583,19.5ZM33.25,17.5L33.25,5.5L29.25,5.5L29.25,17.5L33.25,17.5ZM1.375,3.952L10.875,12.952L13.625,10.048L4.125,1.048L1.375,3.952ZM13.625,12.952L19.959,6.952L17.208,4.048L10.875,10.048L13.625,12.952ZM17.208,6.952L29.875,18.952L32.625,16.048L19.959,4.048L17.208,6.952Z" fill="#111827"/>
</svg>
