<svg width="34" height="30" viewBox="0 0 34 30" fill="none" xmlns="http://www.w3.org/2000/svg" xmlns:xlink="http://www.w3.org/1999/xlink">
<path d="M13.584,13.51C12.76,12.773 11.496,12.843 10.76,13.666C10.023,14.49 10.093,15.754 10.916,16.49L13.584,13.51ZM15.417,17.833L14.083,19.324C14.842,20.003 15.991,20.003 16.75,19.324L15.417,17.833ZM23.084,13.657C23.907,12.921 23.977,11.656 23.24,10.833C22.504,10.01 21.24,9.94 20.416,10.676L23.084,13.657ZM29.25,15C29.25,20.734 23.98,25.75 17,25.75L17,29.75C25.76,29.75 33.25,23.35 33.25,15L29.25,15ZM17,25.75C10.02,25.75 4.75,20.734 4.75,15L0.75,15C0.75,23.35 8.24,29.75 17,29.75L17,25.75ZM4.75,15C4.75,9.266 10.02,4.25 17,4.25L17,0.25C8.24,0.25 0.75,6.65 0.75,15L4.75,15ZM17,4.25C23.98,4.25 29.25,9.266 29.25,15L33.25,15C33.25,6.65 25.76,0.25 17,0.25L17,4.25ZM10.916,16.49L14.083,19.324L16.75,16.343L13.584,13.51L10.916,16.49ZM16.75,19.324L23.084,13.657L20.416,10.676L14.083,16.343L16.75,19.324Z" fill="#111827"/>
</svg>
