<svg width="24" height="26" viewBox="0 0 24 26" fill="none" xmlns="http://www.w3.org/2000/svg" xmlns:xlink="http://www.w3.org/1999/xlink">
<path d="M13.986,-0.746C14.458,-0.629 14.853,-0.326 15.071,0.084C15.893,1.632 16.506,2.571 17.123,3.332C17.748,4.103 18.409,4.734 19.415,5.68C21.738,7.867 22.9,10.736 22.9,13.6C22.9,16.464 21.738,19.333 19.415,21.52C14.767,25.894 7.233,25.894 2.585,21.52C0.262,19.333 -0.9,16.464 -0.9,13.6C-0.9,10.736 0.262,7.867 2.585,5.68C3.072,5.223 3.803,5.086 4.438,5.334C5.073,5.581 5.487,6.165 5.487,6.812C5.487,8.604 5.606,9.969 6.163,11.058C6.469,11.656 6.947,12.242 7.77,12.764C7.967,11.067 8.327,8.999 8.813,7.036C9.196,5.491 9.673,3.948 10.24,2.662C10.524,2.018 10.845,1.406 11.209,0.877C11.563,0.362 12.019,-0.162 12.607,-0.531C13.013,-0.786 13.515,-0.864 13.986,-0.746ZM14.606,20.194C12.615,22.069 9.385,22.069 7.394,20.194C6.398,19.257 5.9,18.028 5.9,16.8C5.9,16.8 7.394,17.6 10.15,17.6C10.15,16 11,11.2 12.275,10.4C13.125,12 13.61,12.469 14.606,13.406C15.602,14.343 16.1,15.572 16.1,16.8C16.1,18.028 15.602,19.257 14.606,20.194Z" clip-rule="evenodd" fill-rule="evenodd" fill="#111827"/>
</svg>
