<svg width="26" height="26" viewBox="0 0 26 26" fill="none" xmlns="http://www.w3.org/2000/svg" xmlns:xlink="http://www.w3.org/1999/xlink">
<path d="M4,2.4L4,7.2L2.4,7.2C0.633,7.2 -0.8,8.633 -0.8,10.4L-0.8,15.2C-0.8,16.967 0.633,18.4 2.4,18.4L4,18.4L4,21.6C4,23.367 5.433,24.8 7.2,24.8L16.8,24.8C18.567,24.8 20,23.367 20,21.6L20,18.4L21.6,18.4C23.367,18.4 24.8,16.967 24.8,15.2L24.8,10.4C24.8,8.633 23.367,7.2 21.6,7.2L20,7.2L20,2.4C20,0.633 18.567,-0.8 16.8,-0.8L7.2,-0.8C5.433,-0.8 4,0.633 4,2.4ZM16.8,2.4L7.2,2.4L7.2,7.2L16.8,7.2L16.8,2.4ZM16.8,15.2L7.2,15.2L7.2,21.6L16.8,21.6L16.8,15.2Z" clip-rule="evenodd" fill-rule="evenodd" fill="#111827"/>
</svg>
