<svg width="36" height="32" viewBox="0 0 36 32" fill="none" xmlns="http://www.w3.org/2000/svg" xmlns:xlink="http://www.w3.org/1999/xlink">
<path d="M3,29.5L1.252,28.529C0.873,29.21 0.925,30.05 1.385,30.679C1.844,31.309 2.628,31.614 3.392,31.461L3,29.5ZM18,2.5L19.748,1.529C19.396,0.894 18.726,0.5 18,0.5C17.274,0.5 16.604,0.894 16.252,1.529L18,2.5ZM33,29.5L32.608,31.461C33.372,31.614 34.156,31.309 34.615,30.679C35.075,30.05 35.127,29.21 34.748,28.529L33,29.5ZM20,14.5C20,13.395 19.105,12.5 18,12.5C16.895,12.5 16,13.395 16,14.5L20,14.5ZM4.748,30.471L19.748,3.471L16.252,1.529L1.252,28.529L4.748,30.471ZM16.252,3.471L31.252,30.471L34.748,28.529L19.748,1.529L16.252,3.471ZM33.392,27.539L18.392,24.539L17.608,28.461L32.608,31.461L33.392,27.539ZM17.608,24.539L2.608,27.539L3.392,31.461L18.392,28.461L17.608,24.539ZM20,26.5L20,14.5L16,14.5L16,26.5L20,26.5Z" fill="#111827"/>
</svg>
