<svg width="26" height="26" viewBox="0 0 26 26" fill="none" xmlns="http://www.w3.org/2000/svg" xmlns:xlink="http://www.w3.org/1999/xlink">
<path d="M24.331,11.939C24.956,12.525 24.956,13.475 24.331,14.061L13.131,24.561C12.506,25.146 11.493,25.146 10.869,24.561L-0.331,14.061C-0.644,13.768 -0.8,13.384 -0.8,13L-0.8,5.5C-0.8,3.015 1.349,1 4,1L12,1C12.41,1 12.819,1.147 13.131,1.439L24.331,11.939ZM4,7C4.884,7 5.6,6.328 5.6,5.5C5.6,4.672 4.884,4 4,4C3.116,4 2.4,4.672 2.4,5.5C2.4,6.328 3.116,7 4,7Z" clip-rule="evenodd" fill-rule="evenodd" fill="#111827"/>
</svg>
