<svg width="24" height="26" viewBox="0 0 24 26" fill="none" xmlns="http://www.w3.org/2000/svg" xmlns:xlink="http://www.w3.org/1999/xlink">
<path d="M8.8,4C7.916,4 7.2,4.716 7.2,5.6C7.2,6.484 7.916,7.2 8.8,7.2L17.737,7.2L15.669,9.269C15.044,9.893 15.044,10.907 15.669,11.531C16.294,12.156 17.307,12.156 17.931,11.531L22.731,6.731C23.031,6.431 23.2,6.024 23.2,5.6C23.2,5.176 23.031,4.769 22.731,4.469L17.931,-0.331C17.307,-0.956 16.294,-0.956 15.669,-0.331C15.044,0.293 15.044,1.307 15.669,1.931L17.737,4L8.8,4Z" fill="#111827"/>
<path d="M15.2,20C16.084,20 16.8,19.284 16.8,18.4C16.8,17.516 16.084,16.8 15.2,16.8L6.263,16.8L8.331,14.731C8.956,14.107 8.956,13.093 8.331,12.469C7.707,11.844 6.694,11.844 6.069,12.469L1.269,17.269C0.969,17.569 0.8,17.976 0.8,18.4C0.8,18.824 0.969,19.231 1.269,19.531L6.069,24.331C6.694,24.956 7.707,24.956 8.331,24.331C8.956,23.707 8.956,22.693 8.331,22.069L6.263,20L15.2,20Z" fill="#111827"/>
</svg>
