<svg width="18" height="32" viewBox="0 0 18 32" fill="none" xmlns="http://www.w3.org/2000/svg" xmlns:xlink="http://www.w3.org/1999/xlink">
<path d="M16.709,24.952C17.511,24.192 17.545,22.926 16.785,22.125C16.026,21.323 14.76,21.288 13.958,22.048L16.709,24.952ZM9,29.5L7.625,30.952C8.396,31.683 9.604,31.683 10.375,30.952L9,29.5ZM4.042,22.048C3.24,21.288 1.974,21.323 1.215,22.124C0.455,22.926 0.489,24.192 1.291,24.952L4.042,22.048ZM11,2.5C11,1.395 10.105,0.5 9,0.5C7.895,0.5 7,1.395 7,2.5L11,2.5ZM13.958,22.048L7.625,28.048L10.375,30.952L16.709,24.952L13.958,22.048ZM10.375,28.048L4.042,22.048L1.291,24.952L7.625,30.952L10.375,28.048ZM11,29.5L11,2.5L7,2.5L7,29.5L11,29.5Z" fill="#111827"/>
</svg>
