<svg width="34" height="32" viewBox="0 0 34 32" fill="none" xmlns="http://www.w3.org/2000/svg" xmlns:xlink="http://www.w3.org/1999/xlink">
<path d="M14.333,2.582L16.333,2.582C16.333,2.018 16.094,1.479 15.676,1.1C15.257,0.721 14.697,0.536 14.135,0.592L14.333,2.582ZM30.908,17.5L32.894,17.744C32.963,17.175 32.786,16.604 32.406,16.175C32.027,15.746 31.481,15.5 30.908,15.5L30.908,17.5ZM14.333,17.5L12.333,17.5C12.333,18.605 13.229,19.5 14.333,19.5L14.333,17.5ZM30.146,11.5L30.146,13.5C30.808,13.5 31.426,13.173 31.799,12.626C32.172,12.08 32.25,11.385 32.008,10.769L30.146,11.5ZM21,11.5L19,11.5C19,12.605 19.895,13.5 21,13.5L21,11.5ZM21,3.268L21.606,1.363C20.998,1.169 20.334,1.277 19.819,1.654C19.304,2.031 19,2.63 19,3.268L21,3.268ZM3,16C3,10.255 7.869,5.235 14.531,4.573L14.135,0.592C5.797,1.422 -1,7.848 -1,16L3,16ZM16,27.5C8.617,27.5 3,22.158 3,16L-1,16C-1,24.753 6.815,31.5 16,31.5L16,27.5ZM28.923,17.256C28.236,22.856 22.867,27.5 16,27.5L16,31.5C24.575,31.5 31.923,25.644 32.894,17.744L28.923,17.256ZM30.908,15.5L14.333,15.5L14.333,19.5L30.908,19.5L30.908,15.5ZM16.333,17.5L16.333,2.582L12.333,2.582L12.333,17.5L16.333,17.5ZM30.146,9.5L21,9.5L21,13.5L30.146,13.5L30.146,9.5ZM23,11.5L23,3.268L19,3.268L19,11.5L23,11.5ZM20.394,5.174C24.138,6.365 27.019,9.008 28.285,12.231L32.008,10.769C30.261,6.32 26.386,2.883 21.606,1.363L20.394,5.174Z" fill="#111827"/>
</svg>
