<svg width="28" height="32" viewBox="0 0 28 32" fill="none" xmlns="http://www.w3.org/2000/svg" xmlns:xlink="http://www.w3.org/1999/xlink">
<path d="M16.155,2.939L14.817,4.426L14.817,4.426L16.155,2.939ZM25.179,11.061L26.517,9.574L26.517,9.574L25.179,11.061ZM10.667,27.5C9.562,27.5 8.667,28.395 8.667,29.5C8.667,30.605 9.562,31.5 10.667,31.5L10.667,27.5ZM0.333,22C0.333,23.105 1.229,24 2.333,24C3.438,24 4.333,23.105 4.333,22L0.333,22ZM0.995,28.013C0.174,28.752 0.108,30.017 0.847,30.838C1.586,31.659 2.85,31.726 3.671,30.987L0.995,28.013ZM5.667,4.5L14.976,4.5L14.976,0.5L5.667,0.5L5.667,4.5ZM23.667,12.121L23.667,26.5L27.667,26.5L27.667,12.121L23.667,12.121ZM14.817,4.426L23.841,12.547L26.517,9.574L17.493,1.453L14.817,4.426ZM27.667,12.121C27.667,11.121 27.223,10.21 26.517,9.574L23.841,12.547C23.759,12.474 23.667,12.326 23.667,12.121L27.667,12.121ZM14.976,4.5C14.96,4.5 14.94,4.497 14.915,4.488C14.891,4.479 14.856,4.461 14.817,4.426L17.493,1.453C16.793,0.823 15.885,0.5 14.976,0.5L14.976,4.5ZM22.333,31.5C25.075,31.5 27.667,29.454 27.667,26.5L23.667,26.5C23.667,26.859 23.273,27.5 22.333,27.5L22.333,31.5ZM4.333,5.5C4.333,5.141 4.727,4.5 5.667,4.5L5.667,0.5C2.925,0.5 0.333,2.546 0.333,5.5L4.333,5.5ZM22.333,27.5L10.667,27.5L10.667,31.5L22.333,31.5L22.333,27.5ZM4.333,22L4.333,5.5L0.333,5.5L0.333,22L4.333,22ZM17,19C17,20.188 15.86,21.5 14,21.5L14,25.5C17.663,25.5 21,22.783 21,19L17,19ZM11,19C11,17.812 12.14,16.5 14,16.5L14,12.5C10.337,12.5 7,15.217 7,19L11,19ZM14,16.5C15.86,16.5 17,17.812 17,19L21,19C21,15.217 17.663,12.5 14,12.5L14,16.5ZM9.127,20.695L0.995,28.013L3.671,30.987L11.802,23.669L9.127,20.695ZM14,21.5C13.106,21.5 12.334,21.174 11.802,20.695L9.127,23.669C10.404,24.819 12.133,25.5 14,25.5L14,21.5ZM11.802,20.695C11.274,20.22 11,19.618 11,19L7,19C7,20.868 7.845,22.516 9.127,23.669L11.802,20.695Z" fill="#111827"/>
</svg>
