<svg width="28" height="26" viewBox="0 0 28 26" fill="none" xmlns="http://www.w3.org/2000/svg" xmlns:xlink="http://www.w3.org/1999/xlink">
<path d="M13,25C20.511,25 26.6,19.627 26.6,13C26.6,6.373 20.511,1 13,1C5.489,1 -0.6,6.373 -0.6,13C-0.6,19.627 5.489,25 13,25ZM14.7,4C11.883,4 9.6,6.015 9.6,8.5L9.6,11.5L7.9,11.5C6.961,11.5 6.2,12.172 6.2,13C6.2,13.828 6.961,14.5 7.9,14.5L9.6,14.5L9.6,16C9.6,16.828 8.839,17.5 7.9,17.5C6.961,17.5 6.2,18.172 6.2,19C6.2,19.828 6.961,20.5 7.9,20.5L18.1,20.5C19.039,20.5 19.8,19.828 19.8,19C19.8,18.172 19.039,17.5 18.1,17.5L12.71,17.5C12.898,17.031 13,16.526 13,16L13,14.5L14.7,14.5C15.639,14.5 16.4,13.828 16.4,13C16.4,12.172 15.639,11.5 14.7,11.5L13,11.5L13,8.5C13,7.672 13.761,7 14.7,7C15.639,7 16.4,7.672 16.4,8.5C16.4,9.328 17.161,10 18.1,10C19.039,10 19.8,9.328 19.8,8.5C19.8,6.015 17.517,4 14.7,4Z" clip-rule="evenodd" fill-rule="evenodd" fill="#111827"/>
</svg>
