<svg width="26" height="22" viewBox="0 0 26 22" fill="none" xmlns="http://www.w3.org/2000/svg" xmlns:xlink="http://www.w3.org/1999/xlink">
<path d="M3.438,0.625C4.247,0.957 4.617,1.841 4.263,2.601C3.065,5.171 2.4,8.011 2.4,11C2.4,13.989 3.065,16.829 4.263,19.399C4.617,20.159 4.247,21.043 3.438,21.375C2.628,21.706 1.685,21.36 1.331,20.601C-0.04,17.659 -0.8,14.411 -0.8,11C-0.8,7.589 -0.04,4.341 1.331,1.399C1.685,0.64 2.628,0.294 3.438,0.625Z" fill="#111827"/>
<path d="M16.738,6.5C15.28,6.5 13.901,7.121 12.99,8.189L12.466,8.803L12.288,8.386C11.802,7.247 10.625,6.5 9.317,6.5L8.8,6.5C7.916,6.5 7.2,7.172 7.2,8C7.2,8.828 7.916,9.5 8.8,9.5L9.317,9.5L10.168,11.496L8.511,13.437C8.208,13.793 7.748,14 7.262,14L7.2,14C6.316,14 5.6,14.672 5.6,15.5C5.6,16.328 6.316,17 7.2,17L7.262,17C8.72,17 10.099,16.379 11.01,15.311L11.534,14.697L11.712,15.114C12.198,16.253 13.375,17 14.683,17L15.2,17C16.084,17 16.8,16.328 16.8,15.5C16.8,14.672 16.084,14 15.2,14L14.683,14L13.832,12.004L15.489,10.063C15.792,9.707 16.252,9.5 16.738,9.5L16.8,9.5C17.684,9.5 18.4,8.828 18.4,8C18.4,7.172 17.684,6.5 16.8,6.5L16.738,6.5Z" fill="#111827"/>
<path d="M19.737,2.601C19.383,1.841 19.753,0.957 20.562,0.625C21.372,0.294 22.315,0.64 22.669,1.399C24.04,4.341 24.8,7.589 24.8,11C24.8,14.411 24.04,17.659 22.669,20.601C22.315,21.36 21.372,21.706 20.562,21.375C19.753,21.043 19.383,20.159 19.737,19.399C20.935,16.829 21.6,13.989 21.6,11C21.6,8.011 20.935,5.171 19.737,2.601Z" fill="#111827"/>
</svg>
