<svg width="30" height="8" viewBox="0 0 30 8" fill="none" xmlns="http://www.w3.org/2000/svg" xmlns:xlink="http://www.w3.org/1999/xlink">
<path d="M3.917,2C2.812,2 1.917,2.895 1.917,4C1.917,5.105 2.812,6 3.917,6L3.917,2ZM3.932,6C5.037,6 5.932,5.105 5.932,4C5.932,2.895 5.037,2 3.932,2L3.932,6ZM15,2C13.895,2 13,2.895 13,4C13,5.105 13.895,6 15,6L15,2ZM15.016,6C16.12,6 17.016,5.105 17.016,4C17.016,2.895 16.12,2 15.016,2L15.016,6ZM26.083,2C24.979,2 24.083,2.895 24.083,4C24.083,5.105 24.979,6 26.083,6L26.083,2ZM26.099,6C27.204,6 28.099,5.105 28.099,4C28.099,2.895 27.204,2 26.099,2L26.099,6ZM3.5,4C3.5,3.826 3.578,3.687 3.661,3.609C3.742,3.532 3.837,3.5 3.917,3.5L3.917,7.5C5.792,7.5 7.5,6.034 7.5,4L3.5,4ZM3.917,3.5C3.997,3.5 4.092,3.532 4.173,3.609C4.255,3.687 4.333,3.826 4.333,4L0.333,4C0.333,6.034 2.041,7.5 3.917,7.5L3.917,3.5ZM4.333,4C4.333,4.174 4.255,4.313 4.173,4.391C4.092,4.468 3.997,4.5 3.917,4.5L3.917,0.5C2.041,0.5 0.333,1.966 0.333,4L4.333,4ZM3.917,4.5C3.837,4.5 3.742,4.468 3.661,4.391C3.578,4.313 3.5,4.174 3.5,4L7.5,4C7.5,1.966 5.792,0.5 3.917,0.5L3.917,4.5ZM14.583,4C14.583,3.826 14.661,3.687 14.744,3.609C14.825,3.532 14.92,3.5 15,3.5L15,7.5C16.876,7.5 18.583,6.034 18.583,4L14.583,4ZM15,3.5C15.08,3.5 15.175,3.532 15.256,3.609C15.339,3.687 15.417,3.826 15.417,4L11.417,4C11.417,6.034 13.124,7.5 15,7.5L15,3.5ZM15.417,4C15.417,4.174 15.339,4.313 15.256,4.391C15.175,4.468 15.08,4.5 15,4.5L15,0.5C13.124,0.5 11.417,1.966 11.417,4L15.417,4ZM15,4.5C14.92,4.5 14.825,4.468 14.744,4.391C14.661,4.313 14.583,4.174 14.583,4L18.583,4C18.583,1.966 16.876,0.5 15,0.5L15,4.5ZM25.667,4C25.667,3.826 25.745,3.687 25.827,3.609C25.908,3.532 26.003,3.5 26.083,3.5L26.083,7.5C27.959,7.5 29.667,6.034 29.667,4L25.667,4ZM26.083,3.5C26.163,3.5 26.258,3.532 26.339,3.609C26.422,3.687 26.5,3.826 26.5,4L22.5,4C22.5,6.034 24.208,7.5 26.083,7.5L26.083,3.5ZM26.5,4C26.5,4.174 26.422,4.313 26.339,4.391C26.258,4.468 26.163,4.5 26.083,4.5L26.083,0.5C24.208,0.5 22.5,1.966 22.5,4L26.5,4ZM26.083,4.5C26.003,4.5 25.908,4.468 25.827,4.391C25.745,4.313 25.667,4.174 25.667,4L29.667,4C29.667,1.966 27.959,0.5 26.083,0.5L26.083,4.5ZM3.917,6L3.932,6L3.932,2L3.917,2L3.917,6ZM15,6L15.016,6L15.016,2L15,2L15,6ZM26.083,6L26.099,6L26.099,2L26.083,2L26.083,6Z" fill="#111827"/>
</svg>
