<svg width="30" height="32" viewBox="0 0 30 32" fill="none" xmlns="http://www.w3.org/2000/svg" xmlns:xlink="http://www.w3.org/1999/xlink">
<path d="M15,2.5L15.856,0.693C15.314,0.436 14.686,0.436 14.144,0.693L15,2.5ZM27.667,8.5L29.667,8.5C29.667,7.727 29.221,7.023 28.523,6.693L27.667,8.5ZM2.333,8.5L1.477,6.693C0.779,7.023 0.333,7.727 0.333,8.5L2.333,8.5ZM27.667,23.5L28.523,25.307C29.221,24.977 29.667,24.273 29.667,23.5L27.667,23.5ZM15,29.5L14.144,31.307C14.686,31.564 15.314,31.564 15.856,31.307L15,29.5ZM2.333,23.5L0.333,23.5C0.333,24.273 0.779,24.977 1.477,25.307L2.333,23.5ZM14.144,4.307L26.811,10.307L28.523,6.693L15.856,0.693L14.144,4.307ZM26.811,6.693L14.144,12.693L15.856,16.307L28.523,10.307L26.811,6.693ZM15.856,12.693L3.19,6.693L1.477,10.307L14.144,16.307L15.856,12.693ZM3.19,10.307L15.856,4.307L14.144,0.693L1.477,6.693L3.19,10.307ZM26.811,21.693L14.144,27.693L15.856,31.307L28.523,25.307L26.811,21.693ZM15.856,27.693L3.19,21.693L1.477,25.307L14.144,31.307L15.856,27.693ZM4.333,23.5L4.333,8.5L0.333,8.5L0.333,23.5L4.333,23.5ZM29.667,23.5L29.667,8.5L25.667,8.5L25.667,23.5L29.667,23.5ZM13,14.5L13,29.5L17,29.5L17,14.5L13,14.5Z" fill="#111827"/>
</svg>
