<svg width="26" height="24" viewBox="0 0 26 24" fill="none" xmlns="http://www.w3.org/2000/svg" xmlns:xlink="http://www.w3.org/1999/xlink">
<path d="M19.063,6.5L24.331,1.561C24.956,0.975 24.956,0.025 24.331,-0.561C23.707,-1.146 22.693,-1.146 22.069,-0.561L16.8,4.379L16.8,2C16.8,1.172 16.084,0.5 15.2,0.5C14.316,0.5 13.6,1.172 13.6,2L13.6,7.999C13.6,8 13.6,8.003 13.6,8.005C13.601,8.206 13.644,8.399 13.721,8.574C13.798,8.747 13.91,8.909 14.058,9.051C14.065,9.057 14.072,9.064 14.079,9.07C14.23,9.209 14.403,9.315 14.587,9.386C14.776,9.46 14.983,9.5 15.2,9.5L21.6,9.5C22.484,9.5 23.2,8.828 23.2,8C23.2,7.172 22.484,6.5 21.6,6.5L19.063,6.5Z" fill="#111827"/>
<path d="M-0.8,0.5C-0.8,-0.328 -0.084,-1 0.8,-1L4.245,-1C5.027,-1 5.694,-0.47 5.823,0.253L7.006,6.907C7.121,7.557 6.771,8.201 6.143,8.495L3.666,9.657C5.452,13.817 8.995,17.139 13.433,18.813L14.671,16.491C14.986,15.902 15.673,15.574 16.366,15.682L23.463,16.791C24.235,16.912 24.8,17.537 24.8,18.271L24.8,21.5C24.8,22.328 24.084,23 23.2,23L20,23C8.512,23 -0.8,14.27 -0.8,3.5L-0.8,0.5Z" fill="#111827"/>
</svg>
