<svg width="28" height="24" viewBox="0 0 28 24" fill="none" xmlns="http://www.w3.org/2000/svg" xmlns:xlink="http://www.w3.org/1999/xlink">
<path d="M13,23.2C20.511,23.2 26.6,18.186 26.6,12C26.6,5.814 20.511,0.8 13,0.8C5.489,0.8 -0.6,5.814 -0.6,12C-0.6,18.186 5.489,23.2 13,23.2ZM14.7,7.8C14.7,7.027 13.939,6.4 13,6.4C12.061,6.4 11.3,7.027 11.3,7.8L11.3,10.6L7.9,10.6C6.961,10.6 6.2,11.227 6.2,12C6.2,12.773 6.961,13.4 7.9,13.4L11.3,13.4L11.3,16.2C11.3,16.973 12.061,17.6 13,17.6C13.939,17.6 14.7,16.973 14.7,16.2L14.7,13.4L18.1,13.4C19.039,13.4 19.8,12.773 19.8,12C19.8,11.227 19.039,10.6 18.1,10.6L14.7,10.6L14.7,7.8Z" clip-rule="evenodd" fill-rule="evenodd" fill="#111827"/>
</svg>
