<svg width="34" height="32" viewBox="0 0 34 32" fill="none" xmlns="http://www.w3.org/2000/svg" xmlns:xlink="http://www.w3.org/1999/xlink">
<path d="M18.583,2.5L20.47,1.836C20.188,1.036 19.432,0.5 18.583,0.5C17.735,0.5 16.978,1.036 16.697,1.836L18.583,2.5ZM22.202,12.786L20.316,13.45C20.516,14.019 20.964,14.468 21.533,14.67L22.202,12.786ZM14.964,12.786L15.634,14.67C16.203,14.468 16.65,14.019 16.851,13.45L14.964,12.786ZM5.917,16L5.247,14.115C4.45,14.399 3.917,15.154 3.917,16C3.917,16.846 4.45,17.601 5.247,17.885L5.917,16ZM14.964,19.214L16.851,18.55C16.65,17.981 16.203,17.532 15.634,17.33L14.964,19.214ZM18.583,29.5L16.697,30.164C16.978,30.964 17.735,31.5 18.583,31.5C19.432,31.5 20.188,30.964 20.47,30.164L18.583,29.5ZM22.202,19.214L21.533,17.33C20.964,17.532 20.516,17.981 20.316,18.55L22.202,19.214ZM31.25,16L31.92,17.885C32.717,17.601 33.25,16.846 33.25,16C33.25,15.154 32.717,14.399 31.92,14.115L31.25,16ZM7.917,2.5C7.917,1.395 7.021,0.5 5.917,0.5C4.812,0.5 3.917,1.395 3.917,2.5L7.917,2.5ZM3.917,8.5C3.917,9.605 4.812,10.5 5.917,10.5C7.021,10.5 7.917,9.605 7.917,8.5L3.917,8.5ZM2.75,3.5C1.645,3.5 0.75,4.395 0.75,5.5C0.75,6.605 1.645,7.5 2.75,7.5L2.75,3.5ZM9.083,7.5C10.188,7.5 11.083,6.605 11.083,5.5C11.083,4.395 10.188,3.5 9.083,3.5L9.083,7.5ZM9.5,23.5C9.5,22.395 8.605,21.5 7.5,21.5C6.395,21.5 5.5,22.395 5.5,23.5L9.5,23.5ZM5.5,29.5C5.5,30.605 6.395,31.5 7.5,31.5C8.605,31.5 9.5,30.605 9.5,29.5L5.5,29.5ZM4.333,24.5C3.229,24.5 2.333,25.395 2.333,26.5C2.333,27.605 3.229,28.5 4.333,28.5L4.333,24.5ZM10.667,28.5C11.771,28.5 12.667,27.605 12.667,26.5C12.667,25.395 11.771,24.5 10.667,24.5L10.667,28.5ZM16.697,3.164L20.316,13.45L24.089,12.122L20.47,1.836L16.697,3.164ZM16.851,13.45L20.47,3.164L16.697,1.836L13.078,12.122L16.851,13.45ZM6.586,17.885L15.634,14.67L14.295,10.901L5.247,14.115L6.586,17.885ZM15.634,17.33L6.586,14.115L5.247,17.885L14.295,21.099L15.634,17.33ZM20.47,28.836L16.851,18.55L13.078,19.878L16.697,30.164L20.47,28.836ZM20.316,18.55L16.697,28.836L20.47,30.164L24.089,19.878L20.316,18.55ZM30.58,14.115L21.533,17.33L22.872,21.099L31.92,17.885L30.58,14.115ZM21.533,14.67L30.58,17.885L31.92,14.115L22.872,10.901L21.533,14.67ZM3.917,2.5L3.917,8.5L7.917,8.5L7.917,2.5L3.917,2.5ZM2.75,7.5L9.083,7.5L9.083,3.5L2.75,3.5L2.75,7.5ZM5.5,23.5L5.5,29.5L9.5,29.5L9.5,23.5L5.5,23.5ZM4.333,28.5L10.667,28.5L10.667,24.5L4.333,24.5L4.333,28.5Z" fill="#111827"/>
</svg>
