<svg width="28" height="24" viewBox="0 0 28 24" fill="none" xmlns="http://www.w3.org/2000/svg" xmlns:xlink="http://www.w3.org/1999/xlink">
<path d="M13.67,-0.879C13.242,-1.04 12.758,-1.04 12.33,-0.879L0.43,3.621C-0.195,3.858 -0.6,4.4 -0.6,5C-0.6,5.6 -0.195,6.142 0.43,6.379L4.926,8.079C5.089,7.915 5.294,7.782 5.53,7.693L12.33,5.121C13.193,4.795 14.193,5.148 14.563,5.909C14.932,6.671 14.533,7.552 13.67,7.879L9.033,9.632L12.33,10.879C12.758,11.04 13.242,11.04 13.67,10.879L25.57,6.379C26.195,6.142 26.6,5.6 26.6,5C26.6,4.4 26.195,3.858 25.57,3.621L13.67,-0.879Z" fill="#111827"/>
<path d="M1.627,10.095L4.5,11.182L4.5,17.334C3.917,17.217 3.322,17.13 2.716,17.074C1.918,17 1.287,16.443 1.203,15.739C1.135,15.167 1.1,14.587 1.1,14C1.1,12.655 1.283,11.347 1.627,10.095Z" fill="#111827"/>
<path d="M11.81,20.859C10.666,19.869 9.348,19.038 7.9,18.403L7.9,12.467L10.991,13.636C12.274,14.121 13.726,14.121 15.009,13.636L24.373,10.095C24.717,11.347 24.9,12.655 24.9,14C24.9,14.587 24.865,15.167 24.797,15.739C24.714,16.443 24.082,17 23.284,17.074C19.76,17.4 16.591,18.782 14.19,20.859C13.529,21.431 12.471,21.431 11.81,20.859Z" fill="#111827"/>
<path d="M6.2,23C7.139,23 7.9,22.328 7.9,21.5L7.9,18.403C6.831,17.934 5.692,17.573 4.5,17.334L4.5,21.5C4.5,22.328 5.261,23 6.2,23Z" fill="#111827"/>
</svg>
