<svg width="34" height="32" viewBox="0 0 34 32" fill="none" xmlns="http://www.w3.org/2000/svg" xmlns:xlink="http://www.w3.org/1999/xlink">
<path d="M24.421,27.842L22.673,26.87L22.673,26.87L24.421,27.842ZM30.255,17.342L32.003,18.313L32.003,18.313L30.255,17.342ZM13.935,29.41L14.374,27.459L14.374,27.459L13.935,29.41ZM7.667,14.5L6.06,13.31C5.804,13.654 5.667,14.071 5.667,14.5L7.667,14.5ZM16,11C14.895,11 14,11.895 14,13C14,14.105 14.895,15 16,15L16,11ZM8.5,15C9.605,15 10.5,14.105 10.5,13C10.5,11.895 9.605,11 8.5,11L8.5,15ZM13.321,6.867L14.928,8.058L14.928,8.058L13.321,6.867ZM27.273,11L19.333,11L19.333,15L27.273,15L27.273,11ZM26.17,28.813L32.003,18.313L28.506,16.37L22.673,26.87L26.17,28.813ZM7.228,29.951L13.496,31.362L14.374,27.459L8.106,26.049L7.228,29.951ZM14.744,31.5L21.44,31.5L21.44,27.5L14.744,27.5L14.744,31.5ZM21.333,13L21.333,5.5L17.333,5.5L17.333,13L21.333,13ZM16,0.5L15.841,0.5L15.841,4.5L16,4.5L16,0.5ZM5.667,14.5L5.667,28L9.667,28L9.667,14.5L5.667,14.5ZM13.496,31.362C13.906,31.454 14.324,31.5 14.744,31.5L14.744,27.5C14.618,27.5 14.494,27.486 14.374,27.459L13.496,31.362ZM22.673,26.87C22.497,27.188 22.053,27.5 21.44,27.5L21.44,31.5C23.352,31.5 25.217,30.528 26.17,28.813L22.673,26.87ZM21.333,5.5C21.333,2.546 18.742,0.5 16,0.5L16,4.5C16.94,4.5 17.333,5.141 17.333,5.5L21.333,5.5ZM27.273,15C27.866,15 28.266,15.273 28.46,15.555C28.642,15.819 28.661,16.091 28.506,16.37L32.003,18.313C32.956,16.597 32.724,14.698 31.757,13.291C30.803,11.901 29.158,11 27.273,11L27.273,15ZM19.333,11L16,11L16,15L19.333,15L19.333,11ZM8.5,11L4.333,11L4.333,15L8.5,15L8.5,11ZM-1,16L-1,25L3,25L3,16L-1,16ZM4.333,30L7.667,30L7.667,26L4.333,26L4.333,30ZM-1,25C-1,27.954 1.591,30 4.333,30L4.333,26C3.394,26 3,25.359 3,25L-1,25ZM4.333,11C1.591,11 -1,13.046 -1,16L3,16C3,15.641 3.394,15 4.333,15L4.333,11ZM11.713,5.677L6.06,13.31L9.274,15.69L14.928,8.058L11.713,5.677ZM12.333,3.857C12.333,4.484 12.128,5.117 11.713,5.677L14.928,8.058C15.834,6.835 16.333,5.373 16.333,3.857L12.333,3.857ZM15.841,0.5C14.107,0.5 12.333,1.81 12.333,3.857L16.333,3.857C16.333,4.107 16.216,4.291 16.113,4.384C16.013,4.474 15.911,4.5 15.841,4.5L15.841,0.5Z" fill="#111827"/>
</svg>
