<svg width="20" height="26" viewBox="0 0 20 26" fill="none" xmlns="http://www.w3.org/2000/svg" xmlns:xlink="http://www.w3.org/1999/xlink">
<path d="M8.4,-0.8C7.516,-0.8 6.8,-0.084 6.8,0.8C6.8,1.684 7.516,2.4 8.4,2.4L11.6,2.4C12.484,2.4 13.2,1.684 13.2,0.8C13.2,-0.084 12.484,-0.8 11.6,-0.8L8.4,-0.8Z" fill="#111827"/>
<path d="M0.4,4C0.4,2.233 1.833,0.8 3.6,0.8C3.6,3.451 5.749,5.6 8.4,5.6L11.6,5.6C14.251,5.6 16.4,3.451 16.4,0.8C18.167,0.8 19.6,2.233 19.6,4L19.6,21.6C19.6,23.367 18.167,24.8 16.4,24.8L3.6,24.8C1.833,24.8 0.4,23.367 0.4,21.6L0.4,4ZM15.931,13.131C16.556,12.507 16.556,11.493 15.931,10.869C15.307,10.244 14.293,10.244 13.669,10.869L8.4,16.137L6.331,14.069C5.707,13.444 4.693,13.444 4.069,14.069C3.444,14.693 3.444,15.707 4.069,16.331L7.269,19.531C7.893,20.156 8.907,20.156 9.531,19.531L15.931,13.131Z" clip-rule="evenodd" fill-rule="evenodd" fill="#111827"/>
</svg>
