<svg width="30" height="26" viewBox="0 0 30 26" fill="none" xmlns="http://www.w3.org/2000/svg" xmlns:xlink="http://www.w3.org/1999/xlink">
<path d="M12.041,23.952C12.843,24.712 14.109,24.677 14.869,23.875C15.628,23.074 15.594,21.808 14.792,21.048L12.041,23.952ZM2.333,12L0.958,10.548C0.559,10.926 0.333,11.451 0.333,12C0.333,12.549 0.559,13.074 0.958,13.452L2.333,12ZM14.792,2.952C15.594,2.192 15.628,0.926 14.869,0.125C14.109,-0.677 12.843,-0.712 12.041,0.048L14.792,2.952ZM24.708,23.952C25.51,24.712 26.776,24.677 27.535,23.875C28.295,23.074 28.261,21.808 27.459,21.048L24.708,23.952ZM15,12L13.625,10.548C13.226,10.926 13,11.451 13,12C13,12.549 13.226,13.074 13.625,13.452L15,12ZM27.459,2.952C28.261,2.192 28.295,0.926 27.535,0.125C26.776,-0.677 25.51,-0.712 24.708,0.048L27.459,2.952ZM14.792,21.048L3.709,10.548L0.958,13.452L12.041,23.952L14.792,21.048ZM3.709,13.452L14.792,2.952L12.041,0.048L0.958,10.548L3.709,13.452ZM27.459,21.048L16.375,10.548L13.625,13.452L24.708,23.952L27.459,21.048ZM16.375,13.452L27.459,2.952L24.708,0.048L13.625,10.548L16.375,13.452Z" fill="#111827"/>
</svg>
