<svg width="34" height="32" viewBox="0 0 34 32" fill="none" xmlns="http://www.w3.org/2000/svg" xmlns:xlink="http://www.w3.org/1999/xlink">
<path d="M1.375,14.548C0.573,15.308 0.538,16.574 1.298,17.375C2.058,18.177 3.324,18.212 4.125,17.452L1.375,14.548ZM17,2.5L18.375,1.048C17.604,0.317 16.396,0.317 15.625,1.048L17,2.5ZM29.875,17.452C30.676,18.212 31.942,18.177 32.702,17.375C33.462,16.574 33.427,15.308 32.625,14.548L29.875,17.452ZM4.125,17.452L7.292,14.452L4.541,11.548L1.375,14.548L4.125,17.452ZM7.292,14.452L18.375,3.952L15.625,1.048L4.541,11.548L7.292,14.452ZM15.625,3.952L26.708,14.452L29.459,11.548L18.375,1.048L15.625,3.952ZM26.708,14.452L29.875,17.452L32.625,14.548L29.459,11.548L26.708,14.452ZM3.917,13L3.917,28L7.917,28L7.917,13L3.917,13ZM7.5,31.5L12.25,31.5L12.25,27.5L7.5,27.5L7.5,31.5ZM15.833,28L15.833,22L11.833,22L11.833,28L15.833,28ZM15.417,22.5L18.583,22.5L18.583,18.5L15.417,18.5L15.417,22.5ZM18.167,22L18.167,28L22.167,28L22.167,22L18.167,22ZM21.75,31.5L26.5,31.5L26.5,27.5L21.75,27.5L21.75,31.5ZM30.083,28L30.083,13L26.083,13L26.083,28L30.083,28ZM26.5,31.5C28.376,31.5 30.083,30.034 30.083,28L26.083,28C26.083,27.826 26.161,27.687 26.244,27.609C26.325,27.532 26.42,27.5 26.5,27.5L26.5,31.5ZM18.167,28C18.167,30.034 19.874,31.5 21.75,31.5L21.75,27.5C21.83,27.5 21.925,27.532 22.006,27.609C22.089,27.687 22.167,27.826 22.167,28L18.167,28ZM18.583,22.5C18.503,22.5 18.408,22.468 18.327,22.391C18.245,22.313 18.167,22.174 18.167,22L22.167,22C22.167,19.966 20.459,18.5 18.583,18.5L18.583,22.5ZM15.833,22C15.833,22.174 15.755,22.313 15.673,22.391C15.592,22.468 15.497,22.5 15.417,22.5L15.417,18.5C13.541,18.5 11.833,19.966 11.833,22L15.833,22ZM12.25,31.5C14.126,31.5 15.833,30.034 15.833,28L11.833,28C11.833,27.826 11.911,27.687 11.994,27.609C12.075,27.532 12.17,27.5 12.25,27.5L12.25,31.5ZM3.917,28C3.917,30.034 5.624,31.5 7.5,31.5L7.5,27.5C7.58,27.5 7.675,27.532 7.756,27.609C7.839,27.687 7.917,27.826 7.917,28L3.917,28ZM12.25,31.5L21.75,31.5L21.75,27.5L12.25,27.5L12.25,31.5Z" fill="#111827"/>
</svg>
