<svg width="24" height="22" viewBox="0 0 24 22" fill="none" xmlns="http://www.w3.org/2000/svg" xmlns:xlink="http://www.w3.org/1999/xlink">
<path d="M13,1C13,-0.105 12.105,-1 11,-1C9.895,-1 9,-0.105 9,1L13,1ZM9,19C9,20.105 9.895,21 11,21C12.105,21 13,20.105 13,19L9,19ZM20.5,12C21.605,12 22.5,11.105 22.5,10C22.5,8.895 21.605,8 20.5,8L20.5,12ZM1.5,8C0.395,8 -0.5,8.895 -0.5,10C-0.5,11.105 0.395,12 1.5,12L1.5,8ZM9,1L9,10L13,10L13,1L9,1ZM9,10L9,19L13,19L13,10L9,10ZM20.5,8L11,8L11,12L20.5,12L20.5,8ZM11,8L1.5,8L1.5,12L11,12L11,8Z" fill="#111827"/>
</svg>
