<svg width="34" height="32" viewBox="0 0 34 32" fill="none" xmlns="http://www.w3.org/2000/svg" xmlns:xlink="http://www.w3.org/1999/xlink">
<path d="M14.041,21.952C14.843,22.712 16.109,22.677 16.869,21.875C17.628,21.074 17.594,19.808 16.792,19.048L14.041,21.952ZM10.667,16L9.291,14.548C8.893,14.926 8.667,15.451 8.667,16C8.667,16.549 8.893,17.074 9.291,17.452L10.667,16ZM16.792,12.952C17.594,12.192 17.628,10.926 16.869,10.125C16.109,9.323 14.843,9.288 14.041,10.048L16.792,12.952ZM23.333,18C24.438,18 25.333,17.105 25.333,16C25.333,14.895 24.438,14 23.333,14L23.333,18ZM16.792,19.048L12.042,14.548L9.291,17.452L14.041,21.952L16.792,19.048ZM12.042,17.452L16.792,12.952L14.041,10.048L9.291,14.548L12.042,17.452ZM10.667,18L23.333,18L23.333,14L10.667,14L10.667,18ZM4.75,16C4.75,9.749 10.131,4.5 17,4.5L17,0.5C8.129,0.5 0.75,7.339 0.75,16L4.75,16ZM17,4.5C23.869,4.5 29.25,9.749 29.25,16L33.25,16C33.25,7.339 25.871,0.5 17,0.5L17,4.5ZM29.25,16C29.25,22.251 23.869,27.5 17,27.5L17,31.5C25.871,31.5 33.25,24.661 33.25,16L29.25,16ZM17,27.5C10.131,27.5 4.75,22.251 4.75,16L0.75,16C0.75,24.661 8.129,31.5 17,31.5L17,27.5Z" fill="#111827"/>
</svg>
