<svg width="36" height="28" viewBox="0 0 36 28" fill="none" xmlns="http://www.w3.org/2000/svg" xmlns:xlink="http://www.w3.org/1999/xlink">
<path d="M24.995,18.513C24.174,19.252 24.108,20.517 24.847,21.338C25.586,22.159 26.85,22.226 27.671,21.487L24.995,18.513ZM33,14L34.338,15.487C34.759,15.107 35,14.567 35,14C35,13.433 34.759,12.893 34.338,12.513L33,14ZM27.671,6.513C26.85,5.774 25.586,5.841 24.847,6.662C24.108,7.483 24.174,8.748 24.995,9.487L27.671,6.513ZM9.667,12C8.562,12 7.667,12.895 7.667,14C7.667,15.105 8.562,16 9.667,16L9.667,12ZM21.667,20C21.667,18.895 20.771,18 19.667,18C18.562,18 17.667,18.895 17.667,20L21.667,20ZM17.667,8C17.667,9.105 18.562,10 19.667,10C20.771,10 21.667,9.105 21.667,8L17.667,8ZM5,21.5L5,6.5L1,6.5L1,21.5L5,21.5ZM1,21.5C1,25.283 4.337,28 8,28L8,24C6.14,24 5,22.688 5,21.5L1,21.5ZM5,6.5C5,5.312 6.14,4 8,4L8,0C4.337,0 1,2.717 1,6.5L5,6.5ZM27.671,21.487L34.338,15.487L31.662,12.513L24.995,18.513L27.671,21.487ZM34.338,12.513L27.671,6.513L24.995,9.487L31.662,15.487L34.338,12.513ZM33,12L9.667,12L9.667,16L33,16L33,12ZM8,28L14.667,28L14.667,24L8,24L8,28ZM21.667,21.5L21.667,20L17.667,20L17.667,21.5L21.667,21.5ZM8,4L14.667,4L14.667,0L8,0L8,4ZM17.667,6.5L17.667,8L21.667,8L21.667,6.5L17.667,6.5ZM14.667,4C16.527,4 17.667,5.312 17.667,6.5L21.667,6.5C21.667,2.717 18.329,0 14.667,0L14.667,4ZM14.667,28C18.329,28 21.667,25.283 21.667,21.5L17.667,21.5C17.667,22.688 16.527,24 14.667,24L14.667,28Z" fill="#111827"/>
</svg>
