<svg width="34" height="32" viewBox="0 0 34 32" fill="none" xmlns="http://www.w3.org/2000/svg" xmlns:xlink="http://www.w3.org/1999/xlink">
<path d="M12.25,7L11.789,5.054C10.887,5.267 10.25,6.073 10.25,7L12.25,7ZM31.25,2.5L33.25,2.5C33.25,1.888 32.97,1.311 32.491,0.931C32.011,0.552 31.384,0.413 30.789,0.554L31.25,2.5ZM11.789,11.054C10.714,11.308 10.049,12.386 10.304,13.461C10.558,14.536 11.636,15.201 12.711,14.946L11.789,11.054ZM31.711,10.446C32.786,10.192 33.451,9.114 33.196,8.039C32.942,6.964 31.864,6.299 30.789,6.554L31.711,10.446ZM14.25,26.5L14.25,7L10.25,7L10.25,26.5L14.25,26.5ZM12.711,8.946L31.711,4.446L30.789,0.554L11.789,5.054L12.711,8.946ZM29.25,2.5L29.25,22L33.25,22L33.25,2.5L29.25,2.5ZM12.711,14.946L31.711,10.446L30.789,6.554L11.789,11.054L12.711,14.946ZM10.25,26.5C10.25,26.4 10.31,26.603 9.791,26.93C9.298,27.242 8.493,27.5 7.5,27.5L7.5,31.5C9.13,31.5 10.701,31.087 11.927,30.312C13.127,29.554 14.25,28.257 14.25,26.5L10.25,26.5ZM7.5,27.5C6.507,27.5 5.702,27.242 5.209,26.93C4.69,26.603 4.75,26.4 4.75,26.5L0.75,26.5C0.75,28.257 1.873,29.554 3.073,30.312C4.299,31.087 5.87,31.5 7.5,31.5L7.5,27.5ZM4.75,26.5C4.75,26.6 4.69,26.397 5.209,26.07C5.702,25.758 6.507,25.5 7.5,25.5L7.5,21.5C5.87,21.5 4.299,21.913 3.073,22.688C1.873,23.446 0.75,24.743 0.75,26.5L4.75,26.5ZM7.5,25.5C8.493,25.5 9.298,25.758 9.791,26.07C10.31,26.397 10.25,26.6 10.25,26.5L14.25,26.5C14.25,24.743 13.127,23.446 11.927,22.688C10.701,21.913 9.13,21.5 7.5,21.5L7.5,25.5ZM29.25,22C29.25,21.9 29.31,22.103 28.791,22.43C28.297,22.742 27.493,23 26.5,23L26.5,27C28.13,27 29.701,26.587 30.927,25.812C32.127,25.054 33.25,23.757 33.25,22L29.25,22ZM26.5,23C25.507,23 24.703,22.742 24.209,22.43C23.69,22.103 23.75,21.9 23.75,22L19.75,22C19.75,23.757 20.873,25.054 22.073,25.812C23.299,26.587 24.87,27 26.5,27L26.5,23ZM23.75,22C23.75,22.1 23.69,21.897 24.209,21.57C24.703,21.258 25.507,21 26.5,21L26.5,17C24.87,17 23.299,17.413 22.073,18.188C20.873,18.946 19.75,20.243 19.75,22L23.75,22ZM26.5,21C27.493,21 28.297,21.258 28.791,21.57C29.31,21.897 29.25,22.1 29.25,22L33.25,22C33.25,20.243 32.127,18.946 30.927,18.188C29.701,17.413 28.13,17 26.5,17L26.5,21Z" fill="#111827"/>
</svg>
