<svg width="24" height="22" viewBox="0 0 24 22" fill="none" xmlns="http://www.w3.org/2000/svg" xmlns:xlink="http://www.w3.org/1999/xlink">
<path d="M0.8,3C0.8,1.454 2.233,0.2 4,0.2L20,0.2C21.767,0.2 23.2,1.454 23.2,3L23.2,14.2C23.2,15.746 21.767,17 20,17L16.449,17L16.645,17.684L17.931,18.81C18.389,19.21 18.526,19.813 18.278,20.336C18.031,20.859 17.447,21.2 16.8,21.2L7.2,21.2C6.553,21.2 5.969,20.859 5.722,20.336C5.474,19.813 5.611,19.21 6.069,18.81L7.355,17.684L7.551,17L4,17C2.233,17 0.8,15.746 0.8,14.2L0.8,3ZM10.034,12.8C10.011,12.8 9.987,12.8 9.964,12.8L4,12.8L4,3L20,3L20,12.8L14.036,12.8C14.013,12.8 13.99,12.8 13.966,12.8L10.034,12.8Z" clip-rule="evenodd" fill-rule="evenodd" fill="#111827"/>
</svg>
