<svg width="34" height="28" viewBox="0 0 34 28" fill="none" xmlns="http://www.w3.org/2000/svg" xmlns:xlink="http://www.w3.org/1999/xlink">
<path d="M14.083,20.157C14.906,20.894 16.171,20.823 16.907,20C17.644,19.177 17.573,17.913 16.75,17.176L14.083,20.157ZM9.083,13L7.75,11.51C7.326,11.889 7.083,12.431 7.083,13C7.083,13.569 7.326,14.111 7.75,14.49L9.083,13ZM16.75,8.824C17.573,8.087 17.644,6.823 16.907,6C16.171,5.177 14.906,5.106 14.083,5.843L16.75,8.824ZM31.25,15C32.355,15 33.25,14.105 33.25,13C33.25,11.895 32.355,11 31.25,11L31.25,15ZM25.333,18.667C25.333,17.562 24.438,16.667 23.333,16.667C22.229,16.667 21.333,17.562 21.333,18.667L25.333,18.667ZM21.333,7.333C21.333,8.438 22.229,9.333 23.333,9.333C24.438,9.333 25.333,8.438 25.333,7.333L21.333,7.333ZM4.75,20.083L4.75,5.917L0.75,5.917L0.75,20.083L4.75,20.083ZM0.75,20.083C0.75,23.738 3.987,26.333 7.5,26.333L7.5,22.333C5.766,22.333 4.75,21.123 4.75,20.083L0.75,20.083ZM4.75,5.917C4.75,4.877 5.766,3.667 7.5,3.667L7.5,-0.333C3.987,-0.333 0.75,2.262 0.75,5.917L4.75,5.917ZM16.75,17.176L10.417,11.51L7.75,14.49L14.083,20.157L16.75,17.176ZM10.417,14.49L16.75,8.824L14.083,5.843L7.75,11.51L10.417,14.49ZM9.083,15L31.25,15L31.25,11L9.083,11L9.083,15ZM7.5,26.333L18.583,26.333L18.583,22.333L7.5,22.333L7.5,26.333ZM25.333,20.083L25.333,18.667L21.333,18.667L21.333,20.083L25.333,20.083ZM7.5,3.667L18.583,3.667L18.583,-0.333L7.5,-0.333L7.5,3.667ZM21.333,5.917L21.333,7.333L25.333,7.333L25.333,5.917L21.333,5.917ZM18.583,3.667C20.317,3.667 21.333,4.877 21.333,5.917L25.333,5.917C25.333,2.262 22.096,-0.333 18.583,-0.333L18.583,3.667ZM18.583,26.333C22.096,26.333 25.333,23.738 25.333,20.083L21.333,20.083C21.333,21.123 20.317,22.333 18.583,22.333L18.583,26.333Z" fill="#111827"/>
</svg>
