<svg width="34" height="32" viewBox="0 0 34 32" fill="none" xmlns="http://www.w3.org/2000/svg" xmlns:xlink="http://www.w3.org/1999/xlink">
<path d="M23.75,19C23.75,17.895 22.855,17 21.75,17C20.645,17 19.75,17.895 19.75,19L23.75,19ZM12.25,6.5C11.145,6.5 10.25,7.395 10.25,8.5C10.25,9.605 11.145,10.5 12.25,10.5L12.25,6.5ZM12.25,12.5C11.145,12.5 10.25,13.395 10.25,14.5C10.25,15.605 11.145,16.5 12.25,16.5L12.25,12.5ZM21.75,16.5C22.855,16.5 23.75,15.605 23.75,14.5C23.75,13.395 22.855,12.5 21.75,12.5L21.75,16.5ZM13.417,11.5L13.417,14.5L17.417,14.5L17.417,11.5L13.417,11.5ZM13.417,14.5L13.417,20.5L17.417,20.5L17.417,14.5L13.417,14.5ZM23.75,20.5L23.75,19L19.75,19L19.75,20.5L23.75,20.5ZM18.583,25.5C21.334,25.5 23.75,23.362 23.75,20.5L19.75,20.5C19.75,20.952 19.331,21.5 18.583,21.5L18.583,25.5ZM13.417,20.5C13.417,23.362 15.833,25.5 18.583,25.5L18.583,21.5C17.836,21.5 17.417,20.952 17.417,20.5L13.417,20.5ZM12.25,10.5C12.998,10.5 13.417,11.048 13.417,11.5L17.417,11.5C17.417,8.638 15,6.5 12.25,6.5L12.25,10.5ZM12.25,16.5L15.417,16.5L15.417,12.5L12.25,12.5L12.25,16.5ZM15.417,16.5L21.75,16.5L21.75,12.5L15.417,12.5L15.417,16.5ZM29.25,16C29.25,22.251 23.869,27.5 17,27.5L17,31.5C25.871,31.5 33.25,24.661 33.25,16L29.25,16ZM17,27.5C10.131,27.5 4.75,22.251 4.75,16L0.75,16C0.75,24.661 8.129,31.5 17,31.5L17,27.5ZM4.75,16C4.75,9.749 10.131,4.5 17,4.5L17,0.5C8.129,0.5 0.75,7.339 0.75,16L4.75,16ZM17,4.5C23.869,4.5 29.25,9.749 29.25,16L33.25,16C33.25,7.339 25.871,0.5 17,0.5L17,4.5Z" fill="#111827"/>
</svg>
