<svg width="34" height="32" viewBox="0 0 34 32" fill="none" xmlns="http://www.w3.org/2000/svg" xmlns:xlink="http://www.w3.org/1999/xlink">
<path d="M29.25,16C29.25,22.251 23.869,27.5 17,27.5L17,31.5C25.871,31.5 33.25,24.661 33.25,16L29.25,16ZM17,27.5C10.131,27.5 4.75,22.251 4.75,16L0.75,16C0.75,24.661 8.129,31.5 17,31.5L17,27.5ZM4.75,16C4.75,9.749 10.131,4.5 17,4.5L17,0.5C8.129,0.5 0.75,7.339 0.75,16L4.75,16ZM17,4.5C23.869,4.5 29.25,9.749 29.25,16L33.25,16C33.25,7.339 25.871,0.5 17,0.5L17,4.5ZM21.333,16C21.333,18.109 19.496,20 17,20L17,24C21.499,24 25.333,20.519 25.333,16L21.333,16ZM17,20C14.504,20 12.667,18.109 12.667,16L8.667,16C8.667,20.519 12.501,24 17,24L17,20ZM12.667,16C12.667,13.891 14.504,12 17,12L17,8C12.501,8 8.667,11.481 8.667,16L12.667,16ZM17,12C19.496,12 21.333,13.891 21.333,16L25.333,16C25.333,11.481 21.499,8 17,8L17,12ZM25.701,5.002L20.103,10.305L22.854,13.209L28.452,7.906L25.701,5.002ZM20.103,21.695L25.701,26.998L28.452,24.094L22.854,18.791L20.103,21.695ZM13.897,10.305L8.299,5.002L5.548,7.906L11.146,13.209L13.897,10.305ZM11.146,18.791L5.548,24.094L8.299,26.998L13.897,21.695L11.146,18.791Z" fill="#111827"/>
</svg>
