<svg width="24" height="22" viewBox="0 0 24 22" fill="none" xmlns="http://www.w3.org/2000/svg" xmlns:xlink="http://www.w3.org/1999/xlink">
<path d="M0.8,2C0.8,1.172 1.516,0.5 2.4,0.5L21.6,0.5C22.484,0.5 23.2,1.172 23.2,2L23.2,5C23.2,5.828 22.484,6.5 21.6,6.5L2.4,6.5C1.516,6.5 0.8,5.828 0.8,5L0.8,2Z" fill="#111827"/>
<path d="M0.8,11C0.8,10.172 1.516,9.5 2.4,9.5L12,9.5C12.884,9.5 13.6,10.172 13.6,11L13.6,20C13.6,20.828 12.884,21.5 12,21.5L2.4,21.5C1.516,21.5 0.8,20.828 0.8,20L0.8,11Z" fill="#111827"/>
<path d="M18.4,9.5C17.516,9.5 16.8,10.172 16.8,11L16.8,20C16.8,20.828 17.516,21.5 18.4,21.5L21.6,21.5C22.484,21.5 23.2,20.828 23.2,20L23.2,11C23.2,10.172 22.484,9.5 21.6,9.5L18.4,9.5Z" fill="#111827"/>
</svg>
