<svg width="34" height="26" viewBox="0 0 34 26" fill="none" xmlns="http://www.w3.org/2000/svg" xmlns:xlink="http://www.w3.org/1999/xlink">
<path d="M14.333,1.5L15.671,0.013C15.304,-0.317 14.827,-0.5 14.333,-0.5L14.333,1.5ZM17.667,4.5L16.329,5.987C16.696,6.317 17.173,6.5 17.667,6.5L17.667,4.5ZM11,11.5C9.895,11.5 9,12.395 9,13.5C9,14.605 9.895,15.5 11,15.5L11,11.5ZM21,15.5C22.105,15.5 23,14.605 23,13.5C23,12.395 22.105,11.5 21,11.5L21,15.5ZM18,9C18,7.895 17.105,7 16,7C14.895,7 14,7.895 14,9L18,9ZM14,18C14,19.105 14.895,20 16,20C17.105,20 18,19.105 18,18L14,18ZM3,19.5L3,4.5L-1,4.5L-1,19.5L3,19.5ZM4.333,3.5L14.333,3.5L14.333,-0.5L4.333,-0.5L4.333,3.5ZM12.995,2.987L16.329,5.987L19.005,3.013L15.671,0.013L12.995,2.987ZM17.667,6.5L27.667,6.5L27.667,2.5L17.667,2.5L17.667,6.5ZM29,7.5L29,19.5L33,19.5L33,7.5L29,7.5ZM27.667,20.5L4.333,20.5L4.333,24.5L27.667,24.5L27.667,20.5ZM27.667,6.5C28.606,6.5 29,7.141 29,7.5L33,7.5C33,4.546 30.409,2.5 27.667,2.5L27.667,6.5ZM3,4.5C3,4.141 3.394,3.5 4.333,3.5L4.333,-0.5C1.591,-0.5 -1,1.546 -1,4.5L3,4.5ZM29,19.5C29,19.859 28.606,20.5 27.667,20.5L27.667,24.5C30.409,24.5 33,22.454 33,19.5L29,19.5ZM-1,19.5C-1,22.454 1.591,24.5 4.333,24.5L4.333,20.5C3.394,20.5 3,19.859 3,19.5L-1,19.5ZM11,15.5L21,15.5L21,11.5L11,11.5L11,15.5ZM14,9L14,18L18,18L18,9L14,9Z" fill="#111827"/>
</svg>
