<svg width="32" height="32" viewBox="0 0 32 32" fill="none" xmlns="http://www.w3.org/2000/svg" xmlns:xlink="http://www.w3.org/1999/xlink">
<path d="M27.5,16C27.5,22.351 22.351,27.5 16,27.5L16,31.5C24.56,31.5 31.5,24.56 31.5,16L27.5,16ZM16,27.5C9.649,27.5 4.5,22.351 4.5,16L0.5,16C0.5,24.56 7.44,31.5 16,31.5L16,27.5ZM4.5,16C4.5,9.649 9.649,4.5 16,4.5L16,0.5C7.44,0.5 0.5,7.44 0.5,16L4.5,16ZM16,4.5C22.351,4.5 27.5,9.649 27.5,16L31.5,16C31.5,7.44 24.56,0.5 16,0.5L16,4.5ZM13,13.5L19,13.5L19,9.5L13,9.5L13,13.5ZM18.5,13L18.5,19L22.5,19L22.5,13L18.5,13ZM19,18.5L13,18.5L13,22.5L19,22.5L19,18.5ZM13.5,19L13.5,13L9.5,13L9.5,19L13.5,19ZM13,18.5C13.276,18.5 13.5,18.724 13.5,19L9.5,19C9.5,20.933 11.067,22.5 13,22.5L13,18.5ZM18.5,19C18.5,18.724 18.724,18.5 19,18.5L19,22.5C20.933,22.5 22.5,20.933 22.5,19L18.5,19ZM19,13.5C18.724,13.5 18.5,13.276 18.5,13L22.5,13C22.5,11.067 20.933,9.5 19,9.5L19,13.5ZM13,9.5C11.067,9.5 9.5,11.067 9.5,13L13.5,13C13.5,13.276 13.276,13.5 13,13.5L13,9.5Z" fill="#111827"/>
</svg>
