<svg width="20" height="24" viewBox="0 0 20 24" fill="none" xmlns="http://www.w3.org/2000/svg" xmlns:xlink="http://www.w3.org/1999/xlink">
<path d="M-0.292,9.048C-1.094,9.808 -1.128,11.074 -0.369,11.875C0.391,12.677 1.657,12.712 2.459,11.952L-0.292,9.048ZM9,3L10.375,1.548C9.604,0.817 8.396,0.817 7.625,1.548L9,3ZM15.541,11.952C16.343,12.712 17.609,12.677 18.369,11.875C19.128,11.074 19.094,9.808 18.292,9.048L15.541,11.952ZM7,21C7,22.105 7.895,23 9,23C10.105,23 11,22.105 11,21L7,21ZM2.459,11.952L10.375,4.452L7.625,1.548L-0.292,9.048L2.459,11.952ZM7.625,4.452L15.541,11.952L18.292,9.048L10.375,1.548L7.625,4.452ZM7,3L7,21L11,21L11,3L7,3Z" fill="#111827"/>
</svg>
