<svg width="26" height="24" viewBox="0 0 26 24" fill="none" xmlns="http://www.w3.org/2000/svg" xmlns:xlink="http://www.w3.org/1999/xlink">
<path d="M5.6,0.5C5.6,-0.328 6.316,-1 7.2,-1L7.216,-1C8.1,-1 8.816,-0.328 8.816,0.5C8.816,1.328 8.1,2 7.216,2L7.2,2C6.316,2 5.6,1.328 5.6,0.5Z" fill="#111827"/>
<path d="M8.8,5C8.8,4.172 8.084,3.5 7.2,3.5C6.316,3.5 5.6,4.172 5.6,5L5.6,6.5C3.833,6.5 2.4,7.843 2.4,9.5L2.4,11C0.633,11 -0.8,12.343 -0.8,14L-0.8,15.025C-0.21,15.18 0.36,15.422 0.887,15.752C1.803,16.324 2.997,16.324 3.912,15.752C5.903,14.508 8.497,14.508 10.487,15.752C11.403,16.324 12.597,16.324 13.512,15.752C15.503,14.508 18.097,14.508 20.088,15.752C21.003,16.324 22.197,16.324 23.112,15.752C23.64,15.422 24.21,15.18 24.8,15.025L24.8,14C24.8,12.343 23.367,11 21.6,11L21.6,9.5C21.6,7.843 20.167,6.5 18.4,6.5L18.4,5C18.4,4.172 17.684,3.5 16.8,3.5C15.916,3.5 15.2,4.172 15.2,5L15.2,6.5L13.6,6.5L13.6,5C13.6,4.172 12.884,3.5 12,3.5C11.116,3.5 10.4,4.172 10.4,5L10.4,6.5L8.8,6.5L8.8,5Z" fill="#111827"/>
<path d="M24.8,18.302C22.821,19.492 20.274,19.474 18.312,18.248C17.397,17.676 16.203,17.676 15.287,18.248C13.297,19.492 10.703,19.492 8.712,18.248C7.797,17.676 6.603,17.676 5.687,18.248C3.726,19.474 1.179,19.492 -0.8,18.302L-0.8,21.5C-0.8,22.328 -0.084,23 0.8,23L23.2,23C24.084,23 24.8,22.328 24.8,21.5L24.8,18.302Z" fill="#111827"/>
<path d="M10.4,0.5C10.4,-0.328 11.116,-1 12,-1L12.016,-1C12.9,-1 13.616,-0.328 13.616,0.5C13.616,1.328 12.9,2 12.016,2L12,2C11.116,2 10.4,1.328 10.4,0.5Z" fill="#111827"/>
<path d="M15.2,0.5C15.2,-0.328 15.916,-1 16.8,-1L16.816,-1C17.7,-1 18.416,-0.328 18.416,0.5C18.416,1.328 17.7,2 16.816,2L16.8,2C15.916,2 15.2,1.328 15.2,0.5Z" fill="#111827"/>
</svg>
