<svg width="30" height="28" viewBox="0 0 30 28" fill="none" xmlns="http://www.w3.org/2000/svg" xmlns:xlink="http://www.w3.org/1999/xlink">
<path d="M0.958,18.548C0.156,19.308 0.122,20.574 0.881,21.375C1.641,22.177 2.907,22.212 3.709,21.452L0.958,18.548ZM9.594,13.121L10.97,14.573L10.97,14.573L9.594,13.121ZM14.073,13.121L15.448,11.669L15.448,11.669L14.073,13.121ZM19.958,21.452C20.76,22.212 22.026,22.177 22.785,21.375C23.545,20.574 23.511,19.308 22.709,18.548L19.958,21.452ZM16.791,15.548C15.989,16.308 15.955,17.574 16.715,18.375C17.474,19.177 18.74,19.212 19.542,18.452L16.791,15.548ZM25.156,14.621L23.78,16.073L23.78,16.073L25.156,14.621ZM26.291,18.452C27.093,19.212 28.359,19.177 29.119,18.375C29.878,17.574 29.844,16.308 29.042,15.548L26.291,18.452ZM18.167,6C17.062,6 16.167,6.895 16.167,8C16.167,9.105 17.062,10 18.167,10L18.167,6ZM18.182,10C19.287,10 20.182,9.105 20.182,8C20.182,6.895 19.287,6 18.182,6L18.182,10ZM5.5,4L24.5,4L24.5,0L5.5,0L5.5,4ZM25.667,5L25.667,23L29.667,23L29.667,5L25.667,5ZM24.5,24L5.5,24L5.5,28L24.5,28L24.5,24ZM4.333,23L4.333,5L0.333,5L0.333,23L4.333,23ZM5.5,24C4.752,24 4.333,23.452 4.333,23L0.333,23C0.333,25.862 2.75,28 5.5,28L5.5,24ZM25.667,23C25.667,23.452 25.248,24 24.5,24L24.5,28C27.25,28 29.667,25.862 29.667,23L25.667,23ZM24.5,4C25.248,4 25.667,4.548 25.667,5L29.667,5C29.667,2.138 27.25,0 24.5,0L24.5,4ZM5.5,0C2.75,0 0.333,2.138 0.333,5L4.333,5C4.333,4.548 4.752,4 5.5,4L5.5,0ZM3.709,21.452L10.97,14.573L8.219,11.669L0.958,18.548L3.709,21.452ZM12.697,14.573L19.958,21.452L22.709,18.548L15.448,11.669L12.697,14.573ZM10.97,14.573C11.435,14.132 12.232,14.132 12.697,14.573L15.448,11.669C13.44,9.767 10.227,9.767 8.219,11.669L10.97,14.573ZM19.542,18.452L22.053,16.073L19.302,13.169L16.791,15.548L19.542,18.452ZM23.78,16.073L26.291,18.452L29.042,15.548L26.531,13.169L23.78,16.073ZM22.053,16.073C22.518,15.632 23.315,15.632 23.78,16.073L26.531,13.169C24.523,11.267 21.31,11.267 19.302,13.169L22.053,16.073ZM18.167,10L18.182,10L18.182,6L18.167,6L18.167,10Z" fill="#111827"/>
</svg>
