<svg width="34" height="30" viewBox="0 0 34 30" fill="none" xmlns="http://www.w3.org/2000/svg" xmlns:xlink="http://www.w3.org/1999/xlink">
<path d="M19.679,12.142C20.448,12.935 21.714,12.955 22.507,12.186C23.3,11.417 23.319,10.151 22.55,9.358L19.679,12.142ZM14.321,17.858C13.552,17.065 12.286,17.045 11.493,17.814C10.7,18.583 10.681,19.849 11.45,20.642L14.321,17.858ZM19,7.917C19,6.812 18.105,5.917 17,5.917C15.895,5.917 15,6.812 15,7.917L19,7.917ZM15,22.083C15,23.188 15.895,24.083 17,24.083C18.105,24.083 19,23.188 19,22.083L15,22.083ZM29.25,15C29.25,20.734 23.98,25.75 17,25.75L17,29.75C25.76,29.75 33.25,23.35 33.25,15L29.25,15ZM17,25.75C10.02,25.75 4.75,20.734 4.75,15L0.75,15C0.75,23.35 8.24,29.75 17,29.75L17,25.75ZM4.75,15C4.75,9.266 10.02,4.25 17,4.25L17,0.25C8.24,0.25 0.75,6.65 0.75,15L4.75,15ZM17,4.25C23.98,4.25 29.25,9.266 29.25,15L33.25,15C33.25,6.65 25.76,0.25 17,0.25L17,4.25ZM17,13C15.986,13 15.166,12.751 14.666,12.452C14.124,12.129 14.25,11.965 14.25,12.167L10.25,12.167C10.25,13.933 11.439,15.185 12.617,15.888C13.836,16.615 15.39,17 17,17L17,13ZM14.25,12.167C14.25,12.369 14.124,12.204 14.666,11.881C15.166,11.583 15.986,11.333 17,11.333L17,7.333C15.39,7.333 13.836,7.718 12.617,8.446C11.439,9.148 10.25,10.4 10.25,12.167L14.25,12.167ZM17,11.333C18.411,11.333 19.35,11.804 19.679,12.142L22.55,9.358C21.236,8.003 19.106,7.333 17,7.333L17,11.333ZM17,17C18.014,17 18.834,17.249 19.334,17.548C19.876,17.871 19.75,18.035 19.75,17.833L23.75,17.833C23.75,16.067 22.561,14.815 21.383,14.112C20.164,13.385 18.61,13 17,13L17,17ZM15,7.917L15,9.333L19,9.333L19,7.917L15,7.917ZM15,20.667L15,22.083L19,22.083L19,20.667L15,20.667ZM17,18.667C15.59,18.667 14.65,18.196 14.321,17.858L11.45,20.642C12.764,21.997 14.894,22.667 17,22.667L17,18.667ZM19.75,17.833C19.75,17.631 19.876,17.796 19.334,18.119C18.834,18.417 18.014,18.667 17,18.667L17,22.667C18.61,22.667 20.164,22.282 21.383,21.554C22.561,20.852 23.75,19.6 23.75,17.833L19.75,17.833ZM15,9.333L15,20.667L19,20.667L19,9.333L15,9.333Z" fill="#111827"/>
</svg>
