<svg width="26" height="20" viewBox="0 0 26 20" fill="none" xmlns="http://www.w3.org/2000/svg" xmlns:xlink="http://www.w3.org/1999/xlink">
<path d="M6.731,1.806C7.631,0.906 8.852,0.4 10.125,0.4L20,0.4C22.651,0.4 24.8,2.549 24.8,5.2L24.8,14.8C24.8,17.451 22.651,19.6 20,19.6L10.125,19.6C8.852,19.6 7.631,19.094 6.731,18.194L-0.331,11.131C-0.631,10.831 -0.8,10.424 -0.8,10C-0.8,9.576 -0.631,9.169 -0.331,8.869L6.731,1.806ZM13.131,5.669C12.506,5.044 11.493,5.044 10.869,5.669C10.244,6.293 10.244,7.307 10.869,7.931L12.937,10L10.869,12.069C10.244,12.693 10.244,13.707 10.869,14.331C11.493,14.956 12.506,14.956 13.131,14.331L15.2,12.263L17.269,14.331C17.893,14.956 18.906,14.956 19.531,14.331C20.156,13.707 20.156,12.693 19.531,12.069L17.463,10L19.531,7.931C20.156,7.307 20.156,6.293 19.531,5.669C18.906,5.044 17.893,5.044 17.269,5.669L15.2,7.737L13.131,5.669Z" clip-rule="evenodd" fill-rule="evenodd" fill="#111827"/>
</svg>
