<svg width="26" height="22" viewBox="0 0 26 22" fill="none" xmlns="http://www.w3.org/2000/svg" xmlns:xlink="http://www.w3.org/1999/xlink">
<path d="M12.794,0.984C12.302,0.739 11.698,0.739 11.206,0.984L0.006,6.584C-0.761,6.968 -1.027,7.823 -0.589,8.495C-0.294,8.946 0.245,9.2 0.8,9.2L0.8,19C-0.084,19 -0.8,19.627 -0.8,20.4C-0.8,21.173 -0.084,21.8 0.8,21.8L23.2,21.8C24.084,21.8 24.8,21.173 24.8,20.4C24.8,19.627 24.084,19 23.2,19L23.2,9.2C23.755,9.2 24.294,8.946 24.589,8.495C25.028,7.823 24.761,6.968 23.994,6.584L12.794,0.984ZM5.6,10.6C4.716,10.6 4,11.227 4,12L4,16.2C4,16.973 4.716,17.6 5.6,17.6C6.484,17.6 7.2,16.973 7.2,16.2L7.2,12C7.2,11.227 6.484,10.6 5.6,10.6ZM10.4,12C10.4,11.227 11.116,10.6 12,10.6C12.884,10.6 13.6,11.227 13.6,12L13.6,16.2C13.6,16.973 12.884,17.6 12,17.6C11.116,17.6 10.4,16.973 10.4,16.2L10.4,12ZM18.4,10.6C17.516,10.6 16.8,11.227 16.8,12L16.8,16.2C16.8,16.973 17.516,17.6 18.4,17.6C19.284,17.6 20,16.973 20,16.2L20,12C20,11.227 19.284,10.6 18.4,10.6Z" clip-rule="evenodd" fill-rule="evenodd" fill="#111827"/>
</svg>
