<svg width="34" height="30" viewBox="0 0 34 30" fill="none" xmlns="http://www.w3.org/2000/svg" xmlns:xlink="http://www.w3.org/1999/xlink">
<path d="M4.333,2L4.333,0L2.333,0L2.333,2L4.333,2ZM29.667,2L31.667,2L31.667,0L29.667,0L29.667,2ZM7.708,12.548C6.906,13.308 6.872,14.574 7.631,15.375C8.391,16.177 9.657,16.212 10.459,15.452L7.708,12.548ZM13.833,9.5L15.209,8.048C14.437,7.317 13.229,7.317 12.458,8.048L13.833,9.5ZM18.583,14L17.208,15.452C17.979,16.183 19.187,16.183 19.959,15.452L18.583,14ZM26.292,9.452C27.094,8.692 27.128,7.426 26.369,6.625C25.609,5.823 24.343,5.788 23.541,6.548L26.292,9.452ZM9.291,26.048C8.489,26.808 8.455,28.074 9.215,28.875C9.974,29.677 11.24,29.712 12.042,28.952L9.291,26.048ZM17,21.5L18.375,20.048C17.604,19.317 16.396,19.317 15.625,20.048L17,21.5ZM21.958,28.952C22.76,29.712 24.026,29.677 24.785,28.875C25.545,28.074 25.511,26.808 24.709,26.048L21.958,28.952ZM2.75,0C1.645,0 0.75,0.895 0.75,2C0.75,3.105 1.645,4 2.75,4L2.75,0ZM31.25,4C32.355,4 33.25,3.105 33.25,2C33.25,0.895 32.355,0 31.25,0L31.25,4ZM4.333,4L29.667,4L29.667,0L4.333,0L4.333,4ZM27.667,2L27.667,20L31.667,20L31.667,2L27.667,2ZM28.083,19.5L5.917,19.5L5.917,23.5L28.083,23.5L28.083,19.5ZM6.333,20L6.333,2L2.333,2L2.333,20L6.333,20ZM5.917,19.5C5.997,19.5 6.092,19.532 6.173,19.609C6.255,19.687 6.333,19.826 6.333,20L2.333,20C2.333,22.034 4.041,23.5 5.917,23.5L5.917,19.5ZM27.667,20C27.667,19.826 27.745,19.687 27.827,19.609C27.908,19.532 28.003,19.5 28.083,19.5L28.083,23.5C29.959,23.5 31.667,22.034 31.667,20L27.667,20ZM10.459,15.452L15.209,10.952L12.458,8.048L7.708,12.548L10.459,15.452ZM12.458,10.952L17.208,15.452L19.959,12.548L15.209,8.048L12.458,10.952ZM19.959,15.452L26.292,9.452L23.541,6.548L17.208,12.548L19.959,15.452ZM12.042,28.952L18.375,22.952L15.625,20.048L9.291,26.048L12.042,28.952ZM15.625,22.952L21.958,28.952L24.709,26.048L18.375,20.048L15.625,22.952ZM2.75,4L31.25,4L31.25,0L2.75,0L2.75,4Z" fill="#111827"/>
</svg>
