<svg width="26" height="22" viewBox="0 0 26 22" fill="none" xmlns="http://www.w3.org/2000/svg" xmlns:xlink="http://www.w3.org/1999/xlink">
<path d="M13.6,5C13.6,7.485 11.451,9.5 8.8,9.5C6.149,9.5 4,7.485 4,5C4,2.515 6.149,0.5 8.8,0.5C11.451,0.5 13.6,2.515 13.6,5Z" fill="#111827"/>
<path d="M18.4,21.5C18.4,16.529 14.102,12.5 8.8,12.5C3.498,12.5 -0.8,16.529 -0.8,21.5L18.4,21.5Z" fill="#111827"/>
<path d="M16.8,8C15.916,8 15.2,8.672 15.2,9.5C15.2,10.328 15.916,11 16.8,11L23.2,11C24.084,11 24.8,10.328 24.8,9.5C24.8,8.672 24.084,8 23.2,8L16.8,8Z" fill="#111827"/>
</svg>
