<svg width="34" height="28" viewBox="0 0 34 28" fill="none" xmlns="http://www.w3.org/2000/svg" xmlns:xlink="http://www.w3.org/1999/xlink">
<path d="M12.25,26L11.394,27.807C11.936,28.064 12.564,28.064 13.106,27.807L12.25,26ZM21.75,2L22.606,0.193C22.064,-0.064 21.436,-0.064 20.894,0.193L21.75,2ZM28.959,24.915L28.102,26.722L28.959,24.915ZM3.625,21.915L4.481,20.107L4.481,20.107L3.625,21.915ZM30.375,6.085L31.231,4.278L31.231,4.278L30.375,6.085ZM0.75,4.427L0.75,20.573L4.75,20.573L4.75,4.427L0.75,4.427ZM2.769,23.722L11.394,27.807L13.106,24.193L4.481,20.107L2.769,23.722ZM13.106,27.807L22.606,23.307L20.894,19.693L11.394,24.193L13.106,27.807ZM20.894,23.307L28.102,26.722L29.815,23.107L22.606,19.693L20.894,23.307ZM33.25,23.573L33.25,7.427L29.25,7.427L29.25,23.573L33.25,23.573ZM31.231,4.278L22.606,0.193L20.894,3.807L29.519,7.893L31.231,4.278ZM20.894,0.193L11.394,4.693L13.106,8.307L22.606,3.807L20.894,0.193ZM13.106,4.693L5.898,1.278L4.185,4.893L11.394,8.307L13.106,4.693ZM10.25,6.5L10.25,26L14.25,26L14.25,6.5L10.25,6.5ZM19.75,2L19.75,21.5L23.75,21.5L23.75,2L19.75,2ZM28.102,26.722C30.325,27.775 33.25,26.326 33.25,23.573L29.25,23.573C29.25,23.337 29.393,23.179 29.489,23.123C29.58,23.069 29.706,23.055 29.815,23.107L28.102,26.722ZM0.75,20.573C0.75,21.957 1.574,23.156 2.769,23.722L4.481,20.107C4.604,20.165 4.75,20.325 4.75,20.573L0.75,20.573ZM33.25,7.427C33.25,6.043 32.426,4.844 31.231,4.278L29.519,7.893C29.396,7.835 29.25,7.675 29.25,7.427L33.25,7.427ZM4.75,4.427C4.75,4.663 4.607,4.821 4.511,4.877C4.42,4.931 4.294,4.945 4.185,4.893L5.898,1.278C3.675,0.225 0.75,1.674 0.75,4.427L4.75,4.427Z" fill="#111827"/>
</svg>
