<svg width="24" height="16" viewBox="0 0 24 16" fill="none" xmlns="http://www.w3.org/2000/svg" xmlns:xlink="http://www.w3.org/1999/xlink">
<path d="M2.832,1.235C2.372,0.949 1.78,0.922 1.292,1.166C0.804,1.409 0.5,1.884 0.5,2.4L0.5,13.6C0.5,14.116 0.804,14.591 1.292,14.834C1.78,15.078 2.372,15.051 2.832,14.765L11,9.683L11,13.6C11,14.116 11.304,14.591 11.792,14.834C12.28,15.078 12.872,15.051 13.332,14.765L22.332,9.165C22.749,8.905 23,8.468 23,8C23,7.532 22.749,7.095 22.332,6.835L13.332,1.235C12.872,0.949 12.28,0.922 11.792,1.166C11.304,1.409 11,1.884 11,2.4L11,6.317L2.832,1.235Z" fill="#111827"/>
</svg>
