<svg width="28" height="24" viewBox="0 0 28 24" fill="none" xmlns="http://www.w3.org/2000/svg" xmlns:xlink="http://www.w3.org/1999/xlink">
<path d="M13,23C20.511,23 26.6,17.627 26.6,11C26.6,4.373 20.511,-1 13,-1C5.489,-1 -0.6,4.373 -0.6,11C-0.6,17.627 5.489,23 13,23ZM7.9,2C6.961,2 6.2,2.672 6.2,3.5C6.2,4.328 6.961,5 7.9,5C8.839,5 9.6,5.672 9.6,6.5L9.6,8L7.9,8C6.961,8 6.2,8.672 6.2,9.5C6.2,10.328 6.961,11 7.9,11L9.6,11L9.6,15.5C9.6,17.985 11.883,20 14.7,20C17.517,20 19.8,17.985 19.8,15.5L19.8,14C19.8,13.172 19.039,12.5 18.1,12.5C17.161,12.5 16.4,13.172 16.4,14L16.4,15.5C16.4,16.328 15.639,17 14.7,17C13.761,17 13,16.328 13,15.5L13,11L18.1,11C19.039,11 19.8,10.328 19.8,9.5C19.8,8.672 19.039,8 18.1,8L13,8L13,6.5C13,4.015 10.717,2 7.9,2Z" clip-rule="evenodd" fill-rule="evenodd" fill="#111827"/>
</svg>
