<svg width="34" height="30" viewBox="0 0 34 30" fill="none" xmlns="http://www.w3.org/2000/svg" xmlns:xlink="http://www.w3.org/1999/xlink">
<path d="M25.311,7.508C30.23,11.689 30.23,18.311 25.311,22.492L27.902,25.539C34.699,19.762 34.699,10.238 27.902,4.461L25.311,7.508ZM25.311,22.492C20.2,26.836 11.8,26.836 6.689,22.492L4.098,25.539C10.703,31.154 21.297,31.154 27.902,25.539L25.311,22.492ZM6.689,22.492C1.77,18.311 1.77,11.689 6.689,7.508L4.098,4.461C-2.699,10.238 -2.699,19.762 4.098,25.539L6.689,22.492ZM6.689,7.508C11.8,3.164 20.2,3.164 25.311,7.508L27.902,4.461C21.297,-1.154 10.703,-1.154 4.098,4.461L6.689,7.508ZM4.098,7.508L25.311,25.539L27.902,22.492L6.689,4.461L4.098,7.508Z" fill="#111827"/>
</svg>
