<svg width="30" height="28" viewBox="0 0 30 28" fill="none" xmlns="http://www.w3.org/2000/svg" xmlns:xlink="http://www.w3.org/1999/xlink">
<path d="M8.667,22C9.771,22 10.667,21.105 10.667,20C10.667,18.895 9.771,18 8.667,18L8.667,22ZM19.333,8C19.333,9.105 20.229,10 21.333,10C22.438,10 23.333,9.105 23.333,8L19.333,8ZM11.833,10L24.5,10L24.5,6L11.833,6L11.833,10ZM25.667,11L25.667,23L29.667,23L29.667,11L25.667,11ZM24.5,24L11.833,24L11.833,28L24.5,28L24.5,24ZM10.667,23L10.667,11L6.667,11L6.667,23L10.667,23ZM11.833,24C11.086,24 10.667,23.452 10.667,23L6.667,23C6.667,25.862 9.083,28 11.833,28L11.833,24ZM25.667,23C25.667,23.452 25.248,24 24.5,24L24.5,28C27.25,28 29.667,25.862 29.667,23L25.667,23ZM24.5,10C25.248,10 25.667,10.548 25.667,11L29.667,11C29.667,8.138 27.25,6 24.5,6L24.5,10ZM11.833,6C9.083,6 6.667,8.138 6.667,11L10.667,11C10.667,10.548 11.086,10 11.833,10L11.833,6ZM5.5,4L18.167,4L18.167,0L5.5,0L5.5,4ZM4.333,17L4.333,5L0.333,5L0.333,17L4.333,17ZM5.5,18C4.752,18 4.333,17.452 4.333,17L0.333,17C0.333,19.862 2.75,22 5.5,22L5.5,18ZM18.167,4C18.914,4 19.333,4.548 19.333,5L23.333,5C23.333,2.138 20.917,0 18.167,0L18.167,4ZM5.5,0C2.75,0 0.333,2.138 0.333,5L4.333,5C4.333,4.548 4.752,4 5.5,4L5.5,0ZM8.667,18L5.5,18L5.5,22L8.667,22L8.667,18ZM19.333,5L19.333,8L23.333,8L23.333,5L19.333,5Z" fill="#111827"/>
</svg>
