<svg width="30" height="30" viewBox="0 0 30 30" fill="none" xmlns="http://www.w3.org/2000/svg" xmlns:xlink="http://www.w3.org/1999/xlink">
<path d="M17,2.333C17,1.229 16.105,0.333 15,0.333C13.895,0.333 13,1.229 13,2.333L17,2.333ZM13,3.917C13,5.021 13.895,5.917 15,5.917C16.105,5.917 17,5.021 17,3.917L13,3.917ZM24.5,19.333C23.395,19.333 22.5,20.229 22.5,21.333C22.5,22.438 23.395,23.333 24.5,23.333L24.5,19.333ZM27.667,23.333C28.771,23.333 29.667,22.438 29.667,21.333C29.667,20.229 28.771,19.333 27.667,19.333L27.667,23.333ZM15,21.333L15,19.333C13.895,19.333 13,20.229 13,21.333L15,21.333ZM18.167,23.333C19.271,23.333 20.167,22.438 20.167,21.333C20.167,20.229 19.271,19.333 18.167,19.333L18.167,23.333ZM13,27.667C13,28.771 13.895,29.667 15,29.667C16.105,29.667 17,28.771 17,27.667L13,27.667ZM17,10.25C17,9.145 16.105,8.25 15,8.25C13.895,8.25 13,9.145 13,10.25L17,10.25ZM15,15L13,15C13,16.105 13.895,17 15,17L15,15ZM21.333,25.667C20.229,25.667 19.333,26.562 19.333,27.667C19.333,28.771 20.229,29.667 21.333,29.667L21.333,25.667ZM27.667,29.667C28.771,29.667 29.667,28.771 29.667,27.667C29.667,26.562 28.771,25.667 27.667,25.667L27.667,29.667ZM2.333,13C1.229,13 0.333,13.895 0.333,15C0.333,16.105 1.229,17 2.333,17L2.333,13ZM8.667,17C9.771,17 10.667,16.105 10.667,15C10.667,13.895 9.771,13 8.667,13L8.667,17ZM15.016,17C16.12,17 17.016,16.105 17.016,15C17.016,13.895 16.12,13 15.016,13L15.016,17ZM21.349,17C22.454,17 23.349,16.105 23.349,15C23.349,13.895 22.454,13 21.349,13L21.349,17ZM27.667,13C26.562,13 25.667,13.895 25.667,15C25.667,16.105 26.562,17 27.667,17L27.667,13ZM27.683,17C28.787,17 29.683,16.105 29.683,15C29.683,13.895 28.787,13 27.683,13L27.683,17ZM3.917,4.333L7.083,4.333L7.083,0.333L3.917,0.333L3.917,4.333ZM6.667,3.917L6.667,7.083L10.667,7.083L10.667,3.917L6.667,3.917ZM7.083,6.667L3.917,6.667L3.917,10.667L7.083,10.667L7.083,6.667ZM4.333,7.083L4.333,3.917L0.333,3.917L0.333,7.083L4.333,7.083ZM3.917,6.667C4.147,6.667 4.333,6.853 4.333,7.083L0.333,7.083C0.333,9.062 1.938,10.667 3.917,10.667L3.917,6.667ZM6.667,7.083C6.667,6.853 6.853,6.667 7.083,6.667L7.083,10.667C9.062,10.667 10.667,9.062 10.667,7.083L6.667,7.083ZM7.083,4.333C6.853,4.333 6.667,4.147 6.667,3.917L10.667,3.917C10.667,1.938 9.062,0.333 7.083,0.333L7.083,4.333ZM3.917,0.333C1.938,0.333 0.333,1.938 0.333,3.917L4.333,3.917C4.333,4.147 4.147,4.333 3.917,4.333L3.917,0.333ZM22.917,4.333L26.083,4.333L26.083,0.333L22.917,0.333L22.917,4.333ZM25.667,3.917L25.667,7.083L29.667,7.083L29.667,3.917L25.667,3.917ZM26.083,6.667L22.917,6.667L22.917,10.667L26.083,10.667L26.083,6.667ZM23.333,7.083L23.333,3.917L19.333,3.917L19.333,7.083L23.333,7.083ZM22.917,6.667C23.147,6.667 23.333,6.853 23.333,7.083L19.333,7.083C19.333,9.062 20.938,10.667 22.917,10.667L22.917,6.667ZM25.667,7.083C25.667,6.853 25.853,6.667 26.083,6.667L26.083,10.667C28.062,10.667 29.667,9.062 29.667,7.083L25.667,7.083ZM26.083,4.333C25.853,4.333 25.667,4.147 25.667,3.917L29.667,3.917C29.667,1.938 28.062,0.333 26.083,0.333L26.083,4.333ZM22.917,0.333C20.938,0.333 19.333,1.938 19.333,3.917L23.333,3.917C23.333,4.147 23.147,4.333 22.917,4.333L22.917,0.333ZM3.917,23.333L7.083,23.333L7.083,19.333L3.917,19.333L3.917,23.333ZM6.667,22.917L6.667,26.083L10.667,26.083L10.667,22.917L6.667,22.917ZM7.083,25.667L3.917,25.667L3.917,29.667L7.083,29.667L7.083,25.667ZM4.333,26.083L4.333,22.917L0.333,22.917L0.333,26.083L4.333,26.083ZM3.917,25.667C4.147,25.667 4.333,25.853 4.333,26.083L0.333,26.083C0.333,28.062 1.938,29.667 3.917,29.667L3.917,25.667ZM6.667,26.083C6.667,25.853 6.853,25.667 7.083,25.667L7.083,29.667C9.062,29.667 10.667,28.062 10.667,26.083L6.667,26.083ZM7.083,23.333C6.853,23.333 6.667,23.147 6.667,22.917L10.667,22.917C10.667,20.938 9.062,19.333 7.083,19.333L7.083,23.333ZM3.917,19.333C1.938,19.333 0.333,20.938 0.333,22.917L4.333,22.917C4.333,23.147 4.147,23.333 3.917,23.333L3.917,19.333ZM13,2.333L13,3.917L17,3.917L17,2.333L13,2.333ZM24.5,23.333L27.667,23.333L27.667,19.333L24.5,19.333L24.5,23.333ZM15,23.333L18.167,23.333L18.167,19.333L15,19.333L15,23.333ZM13,21.333L13,27.667L17,27.667L17,21.333L13,21.333ZM13,10.25L13,15L17,15L17,10.25L13,10.25ZM21.333,29.667L27.667,29.667L27.667,25.667L21.333,25.667L21.333,29.667ZM2.333,17L8.667,17L8.667,13L2.333,13L2.333,17ZM15,17L15.016,17L15.016,13L15,13L15,17ZM27.667,17L27.683,17L27.683,13L27.667,13L27.667,17ZM15,17L21.349,17L21.349,13L15,13L15,17Z" fill="#111827"/>
</svg>
