<svg width="34" height="22" viewBox="0 0 34 22" fill="none" xmlns="http://www.w3.org/2000/svg" xmlns:xlink="http://www.w3.org/1999/xlink">
<path d="M20.894,5.193C19.896,5.665 19.47,6.858 19.943,7.856C20.415,8.854 21.608,9.28 22.606,8.807L20.894,5.193ZM28.959,3.585L28.102,1.778L28.102,1.778L28.959,3.585ZM28.959,16.415L29.815,14.607L29.815,14.607L28.959,16.415ZM22.606,11.193C21.608,10.72 20.415,11.146 19.943,12.144C19.47,13.142 19.896,14.335 20.894,14.807L22.606,11.193ZM5.917,3L18.583,3L18.583,-1L5.917,-1L5.917,3ZM19.75,4L19.75,16L23.75,16L23.75,4L19.75,4ZM18.583,17L5.917,17L5.917,21L18.583,21L18.583,17ZM4.75,16L4.75,4L0.75,4L0.75,16L4.75,16ZM5.917,17C5.169,17 4.75,16.452 4.75,16L0.75,16C0.75,18.862 3.166,21 5.917,21L5.917,17ZM19.75,16C19.75,16.452 19.331,17 18.583,17L18.583,21C21.334,21 23.75,18.862 23.75,16L19.75,16ZM18.583,3C19.331,3 19.75,3.548 19.75,4L23.75,4C23.75,1.138 21.334,-1 18.583,-1L18.583,3ZM5.917,-1C3.166,-1 0.75,1.138 0.75,4L4.75,4C4.75,3.548 5.169,3 5.917,3L5.917,-1ZM22.606,8.807L29.815,5.393L28.102,1.778L20.894,5.193L22.606,8.807ZM29.25,4.927L29.25,15.073L33.25,15.073L33.25,4.927L29.25,4.927ZM29.815,14.607L22.606,11.193L20.894,14.807L28.102,18.222L29.815,14.607ZM29.25,15.073C29.25,14.837 29.393,14.679 29.489,14.623C29.58,14.569 29.706,14.555 29.815,14.607L28.102,18.222C30.325,19.275 33.25,17.826 33.25,15.073L29.25,15.073ZM29.815,5.393C29.706,5.445 29.58,5.431 29.489,5.377C29.393,5.321 29.25,5.163 29.25,4.927L33.25,4.927C33.25,2.174 30.325,0.725 28.102,1.778L29.815,5.393Z" fill="#111827"/>
</svg>
