<svg width="34" height="32" viewBox="0 0 34 32" fill="none" xmlns="http://www.w3.org/2000/svg" xmlns:xlink="http://www.w3.org/1999/xlink">
<path d="M12.611,3.526L10.724,4.189L10.724,4.189L12.611,3.526ZM14.982,10.266L13.096,10.93L13.096,10.93L14.982,10.266ZM14.188,12.082L15.045,13.889L15.045,13.889L14.188,12.082ZM10.614,13.775L9.758,11.967C9.278,12.195 8.909,12.603 8.73,13.104C8.552,13.604 8.58,14.155 8.809,14.634L10.614,13.775ZM19.349,22.05L18.563,23.889C19.521,24.298 20.632,23.904 21.118,22.983L19.349,22.05ZM21.136,18.664L19.367,17.73L19.367,17.73L21.136,18.664ZM23.053,17.911L22.45,19.819L22.45,19.819L23.053,17.911ZM30.167,20.158L30.77,18.251L30.77,18.251L30.167,20.158ZM21.958,8.548C21.156,9.308 21.122,10.574 21.881,11.375C22.641,12.177 23.907,12.212 24.709,11.452L21.958,8.548ZM31.042,5.452C31.844,4.692 31.878,3.426 31.119,2.625C30.359,1.823 29.093,1.788 28.291,2.548L31.042,5.452ZM24.709,2.548C23.907,1.788 22.641,1.823 21.881,2.625C21.122,3.426 21.156,4.692 21.958,5.452L24.709,2.548ZM28.291,11.452C29.093,12.212 30.359,12.177 31.119,11.375C31.878,10.574 31.844,9.308 31.042,8.548L28.291,11.452ZM5.917,0.5C3.166,0.5 0.75,2.638 0.75,5.5L4.75,5.5C4.75,5.048 5.169,4.5 5.917,4.5L5.917,0.5ZM11.109,0.5L5.917,0.5L5.917,4.5L11.109,4.5L11.109,0.5ZM14.498,2.862C13.982,1.397 12.582,0.5 11.109,0.5L11.109,4.5C10.998,4.5 10.809,4.43 10.724,4.189L14.498,2.862ZM16.869,9.602L14.498,2.862L10.724,4.189L13.096,10.93L16.869,9.602ZM15.045,13.889C16.619,13.144 17.478,11.334 16.869,9.602L13.096,10.93C12.985,10.614 13.168,10.352 13.332,10.274L15.045,13.889ZM11.471,15.582L15.045,13.889L13.332,10.274L9.758,11.967L11.471,15.582ZM20.134,20.21C16.694,18.741 13.948,16.125 12.42,12.915L8.809,14.634C10.771,18.759 14.262,22.052 18.563,23.889L20.134,20.21ZM19.367,17.73L17.58,21.116L21.118,22.983L22.905,19.597L19.367,17.73ZM23.655,16.004C22.038,15.494 20.196,16.16 19.367,17.73L22.905,19.597C22.841,19.717 22.748,19.782 22.677,19.81C22.605,19.838 22.526,19.842 22.45,19.819L23.655,16.004ZM30.77,18.251L23.655,16.004L22.45,19.819L29.565,22.065L30.77,18.251ZM33.25,21.581C33.25,20.004 32.191,18.7 30.77,18.251L29.565,22.065C29.437,22.025 29.25,21.867 29.25,21.581L33.25,21.581ZM33.25,26.5L33.25,21.581L29.25,21.581L29.25,26.5L33.25,26.5ZM28.083,31.5C30.834,31.5 33.25,29.362 33.25,26.5L29.25,26.5C29.25,26.952 28.831,27.5 28.083,27.5L28.083,31.5ZM26.5,31.5L28.083,31.5L28.083,27.5L26.5,27.5L26.5,31.5ZM0.75,7C0.75,20.631 12.382,31.5 26.5,31.5L26.5,27.5C14.385,27.5 4.75,18.221 4.75,7L0.75,7ZM0.75,5.5L0.75,7L4.75,7L4.75,5.5L0.75,5.5ZM24.709,11.452L27.875,8.452L25.124,5.548L21.958,8.548L24.709,11.452ZM27.875,8.452L31.042,5.452L28.291,2.548L25.124,5.548L27.875,8.452ZM21.958,5.452L25.124,8.452L27.875,5.548L24.709,2.548L21.958,5.452ZM25.124,8.452L28.291,11.452L31.042,8.548L27.875,5.548L25.124,8.452Z" fill="#111827"/>
</svg>
