<svg width="32" height="32" viewBox="0 0 32 32" fill="none" xmlns="http://www.w3.org/2000/svg" xmlns:xlink="http://www.w3.org/1999/xlink">
<path d="M8,8.5C8,9.605 8.895,10.5 10,10.5C11.105,10.5 12,9.605 12,8.5L8,8.5ZM12,2.5C12,1.395 11.105,0.5 10,0.5C8.895,0.5 8,1.395 8,2.5L12,2.5ZM20,8.5C20,9.605 20.895,10.5 22,10.5C23.105,10.5 24,9.605 24,8.5L20,8.5ZM24,2.5C24,1.395 23.105,0.5 22,0.5C20.895,0.5 20,1.395 20,2.5L24,2.5ZM8.5,12.5C7.395,12.5 6.5,13.395 6.5,14.5C6.5,15.605 7.395,16.5 8.5,16.5L8.5,12.5ZM23.5,16.5C24.605,16.5 25.5,15.605 25.5,14.5C25.5,13.395 24.605,12.5 23.5,12.5L23.5,16.5ZM5.5,7.5L26.5,7.5L26.5,3.5L5.5,3.5L5.5,7.5ZM27.5,8.5L27.5,26.5L31.5,26.5L31.5,8.5L27.5,8.5ZM26.5,27.5L5.5,27.5L5.5,31.5L26.5,31.5L26.5,27.5ZM4.5,26.5L4.5,8.5L0.5,8.5L0.5,26.5L4.5,26.5ZM5.5,27.5C4.948,27.5 4.5,27.052 4.5,26.5L0.5,26.5C0.5,29.261 2.739,31.5 5.5,31.5L5.5,27.5ZM27.5,26.5C27.5,27.052 27.052,27.5 26.5,27.5L26.5,31.5C29.261,31.5 31.5,29.261 31.5,26.5L27.5,26.5ZM26.5,7.5C27.052,7.5 27.5,7.948 27.5,8.5L31.5,8.5C31.5,5.739 29.261,3.5 26.5,3.5L26.5,7.5ZM5.5,3.5C2.739,3.5 0.5,5.739 0.5,8.5L4.5,8.5C4.5,7.948 4.948,7.5 5.5,7.5L5.5,3.5ZM12,8.5L12,2.5L8,2.5L8,8.5L12,8.5ZM24,8.5L24,2.5L20,2.5L20,8.5L24,8.5ZM8.5,16.5L23.5,16.5L23.5,12.5L8.5,12.5L8.5,16.5Z" fill="#111827"/>
</svg>
