<svg width="28" height="24" viewBox="0 0 28 24" fill="none" xmlns="http://www.w3.org/2000/svg" xmlns:xlink="http://www.w3.org/1999/xlink">
<path d="M4.5,15.2C4.5,16.084 5.261,16.8 6.2,16.8C7.139,16.8 7.9,16.084 7.9,15.2L7.9,6.263L10.098,8.331C10.762,8.956 11.838,8.956 12.502,8.331C13.166,7.707 13.166,6.693 12.502,6.069L7.402,1.269C7.083,0.969 6.651,0.8 6.2,0.8C5.749,0.8 5.317,0.969 4.998,1.269L-0.102,6.069C-0.766,6.693 -0.766,7.707 -0.102,8.331C0.562,8.956 1.638,8.956 2.302,8.331L4.5,6.263L4.5,15.2Z" fill="#111827"/>
<path d="M21.5,8.8C21.5,7.916 20.739,7.2 19.8,7.2C18.861,7.2 18.1,7.916 18.1,8.8L18.1,17.737L15.902,15.669C15.238,15.044 14.162,15.044 13.498,15.669C12.834,16.293 12.834,17.307 13.498,17.931L18.598,22.731C18.917,23.031 19.349,23.2 19.8,23.2C20.251,23.2 20.683,23.031 21.002,22.731L26.102,17.931C26.766,17.307 26.766,16.293 26.102,15.669C25.438,15.044 24.362,15.044 23.698,15.669L21.5,17.737L21.5,8.8Z" fill="#111827"/>
</svg>
