<svg width="36" height="20" viewBox="0 0 36 20" fill="none" xmlns="http://www.w3.org/2000/svg" xmlns:xlink="http://www.w3.org/1999/xlink">
<path d="M19.667,0.5C18.562,0.5 17.667,1.395 17.667,2.5C17.667,3.605 18.562,4.5 19.667,4.5L19.667,0.5ZM33,2.5L35,2.5C35,1.395 34.105,0.5 33,0.5L33,2.5ZM31,14.5C31,15.605 31.895,16.5 33,16.5C34.105,16.5 35,15.605 35,14.5L31,14.5ZM1.662,16.013C0.841,16.752 0.775,18.017 1.513,18.838C2.252,19.659 3.517,19.726 4.338,18.987L1.662,16.013ZM13,8.5L14.338,7.013C13.577,6.329 12.423,6.329 11.662,7.013L13,8.5ZM19.667,14.5L18.329,15.987C19.089,16.671 20.244,16.671 21.005,15.987L19.667,14.5ZM19.667,4.5L33,4.5L33,0.5L19.667,0.5L19.667,4.5ZM31,2.5L31,14.5L35,14.5L35,2.5L31,2.5ZM4.338,18.987L14.338,9.987L11.662,7.013L1.662,16.013L4.338,18.987ZM11.662,9.987L18.329,15.987L21.005,13.013L14.338,7.013L11.662,9.987ZM21.005,15.987L34.338,3.987L31.662,1.013L18.329,13.013L21.005,15.987Z" fill="#111827"/>
</svg>
