<svg width="16" height="24" viewBox="0 0 16 24" fill="none" xmlns="http://www.w3.org/2000/svg" xmlns:xlink="http://www.w3.org/1999/xlink">
<path d="M0.627,5.296C-0.176,6.054 -0.212,7.32 0.546,8.123C1.304,8.926 2.57,8.962 3.373,8.204L0.627,5.296ZM8,1.083L9.373,-0.371C8.602,-1.099 7.398,-1.099 6.627,-0.371L8,1.083ZM12.627,8.204C13.43,8.962 14.696,8.926 15.454,8.123C16.212,7.32 16.176,6.054 15.373,5.296L12.627,8.204ZM15.373,16.704C16.176,15.946 16.212,14.68 15.454,13.877C14.696,13.074 13.43,13.038 12.627,13.796L15.373,16.704ZM8,20.917L6.627,22.371C7.398,23.099 8.602,23.099 9.373,22.371L8,20.917ZM3.373,13.796C2.57,13.038 1.304,13.074 0.546,13.877C-0.212,14.68 -0.176,15.946 0.627,16.704L3.373,13.796ZM3.373,8.204L9.373,2.537L6.627,-0.371L0.627,5.296L3.373,8.204ZM6.627,2.537L12.627,8.204L15.373,5.296L9.373,-0.371L6.627,2.537ZM12.627,13.796L6.627,19.463L9.373,22.371L15.373,16.704L12.627,13.796ZM9.373,19.463L3.373,13.796L0.627,16.704L6.627,22.371L9.373,19.463Z" fill="#111827"/>
</svg>
