<svg width="28" height="26" viewBox="0 0 28 26" fill="none" xmlns="http://www.w3.org/2000/svg" xmlns:xlink="http://www.w3.org/1999/xlink">
<path d="M13,25C20.511,25 26.6,19.627 26.6,13C26.6,6.373 20.511,1 13,1C5.489,1 -0.6,6.373 -0.6,13C-0.6,19.627 5.489,25 13,25ZM9.358,6.228C8.875,5.518 7.831,5.287 7.025,5.714C6.22,6.14 5.959,7.061 6.442,7.772L8.978,11.5L7.9,11.5C6.961,11.5 6.2,12.171 6.2,13C6.2,13.828 6.961,14.5 7.9,14.5L11.018,14.5L11.3,14.915L11.3,16L7.9,16C6.961,16 6.2,16.671 6.2,17.5C6.2,18.328 6.961,19 7.9,19L11.3,19L11.3,20.5C11.3,21.328 12.061,22 13,22C13.939,22 14.7,21.328 14.7,20.5L14.7,19L18.1,19C19.039,19 19.8,18.328 19.8,17.5C19.8,16.671 19.039,16 18.1,16L14.7,16L14.7,14.915L14.983,14.5L18.1,14.5C19.039,14.5 19.8,13.828 19.8,13C19.8,12.171 19.039,11.5 18.1,11.5L17.023,11.5L19.558,7.772C20.041,7.061 19.78,6.14 18.975,5.714C18.17,5.287 17.125,5.518 16.642,6.228L13.058,11.5L12.943,11.5L9.358,6.228Z" clip-rule="evenodd" fill-rule="evenodd" fill="#111827"/>
</svg>
