<svg width="36" height="32" viewBox="0 0 36 32" fill="none" xmlns="http://www.w3.org/2000/svg" xmlns:xlink="http://www.w3.org/1999/xlink">
<path d="M31,7C31,8.188 29.86,9.5 28,9.5L28,13.5C31.663,13.5 35,10.783 35,7L31,7ZM25,7C25,5.812 26.14,4.5 28,4.5L28,0.5C24.337,0.5 21,3.217 21,7L25,7ZM28,4.5C29.86,4.5 31,5.812 31,7L35,7C35,3.217 31.663,0.5 28,0.5L28,4.5ZM31,25C31,26.188 29.86,27.5 28,27.5L28,31.5C31.663,31.5 35,28.783 35,25L31,25ZM28,27.5C26.14,27.5 25,26.188 25,25L21,25C21,28.783 24.337,31.5 28,31.5L28,27.5ZM28,22.5C29.86,22.5 31,23.812 31,25L35,25C35,21.217 31.663,18.5 28,18.5L28,22.5ZM8,18.5C6.14,18.5 5,17.188 5,16L1,16C1,19.783 4.337,22.5 8,22.5L8,18.5ZM5,16C5,14.812 6.14,13.5 8,13.5L8,9.5C4.337,9.5 1,12.217 1,16L5,16ZM11,16C11,16.367 10.905,16.718 10.726,17.04L14.221,18.986C14.716,18.097 15,17.08 15,16L11,16ZM10.726,17.04C10.28,17.84 9.28,18.5 8,18.5L8,22.5C10.635,22.5 13.024,21.135 14.221,18.986L10.726,17.04ZM8,13.5C9.28,13.5 10.28,14.16 10.726,14.96L14.221,13.014C13.024,10.865 10.635,9.5 8,9.5L8,13.5ZM10.726,14.96C10.905,15.282 11,15.633 11,16L15,16C15,14.92 14.716,13.903 14.221,13.014L10.726,14.96ZM13.294,15.811L24.348,10.837L22.706,7.189L11.652,12.163L13.294,15.811ZM28,9.5C26.72,9.5 25.72,8.84 25.274,8.04L21.779,9.986C22.976,12.135 25.365,13.5 28,13.5L28,9.5ZM25.274,8.04C25.095,7.718 25,7.367 25,7L21,7C21,8.08 21.285,9.097 21.779,9.986L25.274,8.04ZM11.652,19.837L22.706,24.811L24.348,21.163L13.294,16.189L11.652,19.837ZM25,25C25,24.633 25.095,24.282 25.274,23.96L21.779,22.014C21.285,22.903 21,23.92 21,25L25,25ZM25.274,23.96C25.72,23.16 26.72,22.5 28,22.5L28,18.5C25.365,18.5 22.976,19.865 21.779,22.014L25.274,23.96Z" fill="#111827"/>
</svg>
