<svg width="34" height="28" viewBox="0 0 34 28" fill="none" xmlns="http://www.w3.org/2000/svg" xmlns:xlink="http://www.w3.org/1999/xlink">
<path d="M1,11L-0.338,9.513C-0.759,9.893 -1,10.433 -1,11C-1,11.567 -0.759,12.107 -0.338,12.487L1,11ZM9.662,21.487C10.483,22.226 11.748,22.159 12.487,21.338C13.226,20.517 13.159,19.252 12.338,18.513L9.662,21.487ZM12.338,3.487C13.159,2.748 13.226,1.483 12.487,0.662C11.748,-0.159 10.483,-0.225 9.662,0.513L12.338,3.487ZM29,26C29,27.105 29.895,28 31,28C32.105,28 33,27.105 33,26L29,26ZM17.667,9L1,9L1,13L17.667,13L17.667,9ZM12.338,18.513L2.338,9.513L-0.338,12.487L9.662,21.487L12.338,18.513ZM2.338,12.487L12.338,3.487L9.662,0.513L-0.338,9.513L2.338,12.487ZM29,23L29,26L33,26L33,23L29,23ZM17.667,13C24.129,13 29,17.67 29,23L33,23C33,15.075 25.932,9 17.667,9L17.667,13Z" fill="#111827"/>
</svg>
