<svg width="32" height="24" viewBox="0 0 32 24" fill="none" xmlns="http://www.w3.org/2000/svg" xmlns:xlink="http://www.w3.org/1999/xlink">
<path d="M2.667,1C1.562,1 0.667,1.895 0.667,3C0.667,4.105 1.562,5 2.667,5L2.667,1ZM29.333,5C30.438,5 31.333,4.105 31.333,3C31.333,1.895 30.438,1 29.333,1L29.333,5ZM2.667,7C1.562,7 0.667,7.895 0.667,9C0.667,10.105 1.562,11 2.667,11L2.667,7ZM29.333,11C30.438,11 31.333,10.105 31.333,9C31.333,7.895 30.438,7 29.333,7L29.333,11ZM2.667,13C1.562,13 0.667,13.895 0.667,15C0.667,16.105 1.562,17 2.667,17L2.667,13ZM29.333,17C30.438,17 31.333,16.105 31.333,15C31.333,13.895 30.438,13 29.333,13L29.333,17ZM2.667,19C1.562,19 0.667,19.895 0.667,21C0.667,22.105 1.562,23 2.667,23L2.667,19ZM29.333,23C30.438,23 31.333,22.105 31.333,21C31.333,19.895 30.438,19 29.333,19L29.333,23ZM2.667,5L29.333,5L29.333,1L2.667,1L2.667,5ZM2.667,11L29.333,11L29.333,7L2.667,7L2.667,11ZM2.667,17L29.333,17L29.333,13L2.667,13L2.667,17ZM2.667,23L29.333,23L29.333,19L2.667,19L2.667,23Z" fill="#111827"/>
</svg>
