<svg width="32" height="34" viewBox="0 0 32 34" fill="none" xmlns="http://www.w3.org/2000/svg" xmlns:xlink="http://www.w3.org/1999/xlink">
<path d="M7.333,15.417C7.333,16.521 8.229,17.417 9.333,17.417C10.438,17.417 11.333,16.521 11.333,15.417L7.333,15.417ZM20.667,9.083C20.667,10.188 21.562,11.083 22.667,11.083C23.771,11.083 24.667,10.188 24.667,9.083L20.667,9.083ZM18,21.75C18,20.645 17.105,19.75 16,19.75C14.895,19.75 14,20.645 14,21.75L18,21.75ZM14,24.917C14,26.021 14.895,26.917 16,26.917C17.105,26.917 18,26.021 18,24.917L14,24.917ZM6,17.417L26,17.417L26,13.417L6,13.417L6,17.417ZM27.333,18.583L27.333,28.083L31.333,28.083L31.333,18.583L27.333,18.583ZM26,29.25L6,29.25L6,33.25L26,33.25L26,29.25ZM4.667,28.083L4.667,18.583L0.667,18.583L0.667,28.083L4.667,28.083ZM6,29.25C5.166,29.25 4.667,28.632 4.667,28.083L0.667,28.083C0.667,31.032 3.152,33.25 6,33.25L6,29.25ZM27.333,28.083C27.333,28.632 26.834,29.25 26,29.25L26,33.25C28.848,33.25 31.333,31.032 31.333,28.083L27.333,28.083ZM26,17.417C26.834,17.417 27.333,18.034 27.333,18.583L31.333,18.583C31.333,15.634 28.848,13.417 26,13.417L26,17.417ZM6,13.417C3.152,13.417 0.667,15.634 0.667,18.583L4.667,18.583C4.667,18.034 5.166,17.417 6,17.417L6,13.417ZM11.333,15.417L11.333,9.083L7.333,9.083L7.333,15.417L11.333,15.417ZM16,4.75C18.675,4.75 20.667,6.786 20.667,9.083L24.667,9.083C24.667,4.386 20.689,0.75 16,0.75L16,4.75ZM16,0.75C11.311,0.75 7.333,4.386 7.333,9.083L11.333,9.083C11.333,6.786 13.325,4.75 16,4.75L16,0.75ZM14,21.75L14,24.917L18,24.917L18,21.75L14,21.75Z" fill="#111827"/>
</svg>
