<svg width="34" height="28" viewBox="0 0 34 28" fill="none" xmlns="http://www.w3.org/2000/svg" xmlns:xlink="http://www.w3.org/1999/xlink">
<path d="M7.484,2.929C7.997,1.951 7.62,0.742 6.642,0.229C5.663,-0.284 4.454,0.093 3.941,1.071L7.484,2.929ZM3.941,26.929C4.454,27.907 5.663,28.284 6.642,27.771C7.62,27.258 7.997,26.049 7.484,25.071L3.941,26.929ZM26.312,25.071C25.799,26.049 26.176,27.258 27.154,27.771C28.133,28.284 29.341,27.907 29.855,26.929L26.312,25.071ZM29.855,1.071C29.341,0.093 28.133,-0.284 27.154,0.229C26.176,0.742 25.799,1.951 26.312,2.929L29.855,1.071ZM12.25,7.5C11.145,7.5 10.25,8.395 10.25,9.5C10.25,10.605 11.145,11.5 12.25,11.5L12.25,7.5ZM15.745,10.588L13.83,11.165L13.83,11.165L15.745,10.588ZM18.255,18.912L16.34,19.49L16.34,19.49L18.255,18.912ZM21.75,22C22.855,22 23.75,21.105 23.75,20C23.75,18.895 22.855,18 21.75,18L21.75,22ZM23.333,11.5C24.438,11.5 25.333,10.605 25.333,9.5C25.333,8.395 24.438,7.5 23.333,7.5L23.333,11.5ZM20.802,10.548L22.285,11.889L22.285,11.889L20.802,10.548ZM13.198,18.952L14.681,20.294L14.681,20.294L13.198,18.952ZM10.667,18C9.562,18 8.667,18.895 8.667,20C8.667,21.105 9.562,22 10.667,22L10.667,18ZM4.75,14C4.75,10.024 5.733,6.267 7.484,2.929L3.941,1.071C1.9,4.963 0.75,9.355 0.75,14L4.75,14ZM7.484,25.071C5.733,21.733 4.75,17.976 4.75,14L0.75,14C0.75,18.645 1.9,23.037 3.941,26.929L7.484,25.071ZM29.046,14C29.046,17.976 28.063,21.733 26.312,25.071L29.855,26.929C31.896,23.037 33.046,18.645 33.046,14L29.046,14ZM26.312,2.929C28.063,6.267 29.046,10.024 29.046,14L33.046,14C33.046,9.355 31.896,4.963 29.855,1.071L26.312,2.929ZM12.25,11.5L14.222,11.5L14.222,7.5L12.25,7.5L12.25,11.5ZM13.83,11.165L16.34,19.49L20.17,18.335L17.66,10.01L13.83,11.165ZM19.778,22L21.75,22L21.75,18L19.778,18L19.778,22ZM16.34,19.49C16.807,21.036 18.251,22 19.778,22L19.778,18C19.891,18 20.092,18.076 20.17,18.335L16.34,19.49ZM14.222,11.5C14.109,11.5 13.908,11.424 13.83,11.165L17.66,10.01C17.193,8.464 15.749,7.5 14.222,7.5L14.222,11.5ZM23.333,7.5L23.206,7.5L23.206,11.5L23.333,11.5L23.333,7.5ZM19.319,9.206L11.715,17.611L14.681,20.294L22.285,11.889L19.319,9.206ZM10.794,18L10.667,18L10.667,22L10.794,22L10.794,18ZM11.715,17.611C11.505,17.842 11.173,18 10.794,18L10.794,22C12.263,22 13.687,21.393 14.681,20.294L11.715,17.611ZM23.206,7.5C21.737,7.5 20.313,8.107 19.319,9.206L22.285,11.889C22.495,11.658 22.827,11.5 23.206,11.5L23.206,7.5Z" fill="#111827"/>
</svg>
