<svg width="34" height="32" viewBox="0 0 34 32" fill="none" xmlns="http://www.w3.org/2000/svg" xmlns:xlink="http://www.w3.org/1999/xlink">
<path d="M28.452,5.002C27.65,4.243 26.384,4.277 25.624,5.079C24.865,5.88 24.899,7.146 25.701,7.906L28.452,5.002ZM27.076,25.546L25.701,26.998L25.701,26.998L27.076,25.546ZM23.973,9.245C23.172,8.485 21.906,8.519 21.146,9.321C20.386,10.123 20.421,11.389 21.222,12.149L23.973,9.245ZM22.598,21.303L21.222,22.755L21.222,22.755L22.598,21.303ZM10.027,22.755C10.828,23.515 12.094,23.481 12.854,22.679C13.614,21.877 13.579,20.611 12.778,19.851L10.027,22.755ZM11.14,16.764C10.977,15.671 9.958,14.918 8.866,15.082C7.774,15.246 7.021,16.264 7.184,17.357L11.14,16.764ZM5.548,26.998C6.35,27.758 7.616,27.723 8.376,26.921C9.135,26.12 9.101,24.854 8.299,24.094L5.548,26.998ZM5.378,12.358C5.747,11.317 5.202,10.173 4.161,9.804C3.12,9.435 1.977,9.979 1.608,11.02L5.378,12.358ZM4.125,1.048C3.324,0.288 2.058,0.323 1.298,1.125C0.538,1.926 0.573,3.192 1.375,3.952L4.125,1.048ZM29.875,30.952C30.676,31.712 31.942,31.677 32.702,30.875C33.462,30.074 33.427,28.808 32.625,28.048L29.875,30.952ZM25.701,7.906C30.433,12.389 30.433,19.611 25.701,24.094L28.452,26.998C34.849,20.937 34.849,11.063 28.452,5.002L25.701,7.906ZM21.222,12.149C23.481,14.289 23.481,17.711 21.222,19.851L23.973,22.755C27.898,19.037 27.898,12.963 23.973,9.245L21.222,12.149ZM17,16.5C16.92,16.5 16.825,16.468 16.744,16.391C16.661,16.313 16.583,16.174 16.583,16L20.583,16C20.583,13.966 18.876,12.5 17,12.5L17,16.5ZM12.778,19.851C11.843,18.966 11.307,17.877 11.14,16.764L7.184,17.357C7.483,19.348 8.44,21.252 10.027,22.755L12.778,19.851ZM8.299,24.094C4.923,20.896 3.97,16.325 5.378,12.358L1.608,11.02C-0.323,16.463 1.012,22.7 5.548,26.998L8.299,24.094ZM17.256,16.391C17.175,16.468 17.08,16.5 17,16.5L17,12.5C16.046,12.5 15.159,12.868 14.505,13.487L17.256,16.391ZM1.375,3.952L14.505,16.391L17.256,13.487L4.125,1.048L1.375,3.952ZM14.505,16.391L16.744,18.513L19.495,15.609L17.256,13.487L14.505,16.391ZM16.744,18.513L21.222,22.755L23.973,19.851L19.495,15.609L16.744,18.513ZM21.222,22.755L25.701,26.998L28.452,24.094L23.973,19.851L21.222,22.755ZM25.701,26.998L29.875,30.952L32.625,28.048L28.452,24.094L25.701,26.998ZM16.583,16C16.583,15.826 16.661,15.687 16.744,15.609L19.495,18.513C20.151,17.891 20.583,17.003 20.583,16L16.583,16Z" fill="#111827"/>
</svg>
