<svg width="28" height="24" viewBox="0 0 28 24" fill="none" xmlns="http://www.w3.org/2000/svg" xmlns:xlink="http://www.w3.org/1999/xlink">
<path d="M-0.6,4C-0.6,2.233 0.922,0.8 2.8,0.8L23.2,0.8C25.078,0.8 26.6,2.233 26.6,4L26.6,7.2C26.6,8.967 25.078,10.4 23.2,10.4L2.8,10.4C0.922,10.4 -0.6,8.967 -0.6,7.2L-0.6,4ZM23.2,5.6C23.2,6.484 22.439,7.2 21.5,7.2C20.561,7.2 19.8,6.484 19.8,5.6C19.8,4.716 20.561,4 21.5,4C22.439,4 23.2,4.716 23.2,5.6Z" clip-rule="evenodd" fill-rule="evenodd" fill="#111827"/>
<path d="M-0.6,16.8C-0.6,15.033 0.922,13.6 2.8,13.6L23.2,13.6C25.078,13.6 26.6,15.033 26.6,16.8L26.6,20C26.6,21.767 25.078,23.2 23.2,23.2L2.8,23.2C0.922,23.2 -0.6,21.767 -0.6,20L-0.6,16.8ZM23.2,18.4C23.2,19.284 22.439,20 21.5,20C20.561,20 19.8,19.284 19.8,18.4C19.8,17.516 20.561,16.8 21.5,16.8C22.439,16.8 23.2,17.516 23.2,18.4Z" clip-rule="evenodd" fill-rule="evenodd" fill="#111827"/>
</svg>
