<svg width="32" height="30" viewBox="0 0 32 30" fill="none" xmlns="http://www.w3.org/2000/svg" xmlns:xlink="http://www.w3.org/1999/xlink">
<path d="M24,12.167C24,13.271 24.895,14.167 26,14.167C27.105,14.167 28,13.271 28,12.167L24,12.167ZM28,23.5C28,22.395 27.105,21.5 26,21.5C24.895,21.5 24,22.395 24,23.5L28,23.5ZM29.333,19.833C30.438,19.833 31.333,18.938 31.333,17.833C31.333,16.729 30.438,15.833 29.333,15.833L29.333,19.833ZM12.667,17.833L11.371,16.309C10.924,16.689 10.667,17.247 10.667,17.833C10.667,18.42 10.924,18.977 11.371,19.357L12.667,17.833ZM18.962,15.107C19.804,14.392 19.906,13.13 19.191,12.288C18.475,11.446 17.213,11.344 16.371,12.059L18.962,15.107ZM16.371,23.607C17.213,24.323 18.475,24.22 19.191,23.379C19.906,22.537 19.804,21.275 18.962,20.559L16.371,23.607ZM22.667,25.75L6,25.75L6,29.75L22.667,29.75L22.667,25.75ZM4.667,24.917L4.667,7.917L0.667,7.917L0.667,24.917L4.667,24.917ZM6,7.083L9.333,7.083L9.333,3.083L6,3.083L6,7.083ZM19.333,7.083L22.667,7.083L22.667,3.083L19.333,3.083L19.333,7.083ZM24,7.917L24,12.167L28,12.167L28,7.917L24,7.917ZM24,23.5L24,24.917L28,24.917L28,23.5L24,23.5ZM6,25.75C5.534,25.75 5.165,25.589 4.938,25.396C4.716,25.207 4.667,25.031 4.667,24.917L0.667,24.917C0.667,27.878 3.372,29.75 6,29.75L6,25.75ZM22.667,29.75C25.295,29.75 28,27.878 28,24.917L24,24.917C24,25.031 23.95,25.207 23.728,25.396C23.502,25.589 23.133,25.75 22.667,25.75L22.667,29.75ZM22.667,7.083C23.133,7.083 23.502,7.245 23.728,7.437C23.95,7.626 24,7.802 24,7.917L28,7.917C28,4.955 25.295,3.083 22.667,3.083L22.667,7.083ZM4.667,7.917C4.667,7.802 4.716,7.626 4.938,7.437C5.165,7.245 5.534,7.083 6,7.083L6,3.083C3.372,3.083 0.667,4.955 0.667,7.917L4.667,7.917ZM12.667,4.25L16,4.25L16,0.25L12.667,0.25L12.667,4.25ZM16,5.917L12.667,5.917L12.667,9.917L16,9.917L16,5.917ZM12.667,5.917C12.2,5.917 11.831,5.755 11.605,5.563C11.383,5.374 11.333,5.198 11.333,5.083L7.333,5.083C7.333,8.045 10.038,9.917 12.667,9.917L12.667,5.917ZM17.333,5.083C17.333,5.198 17.284,5.374 17.062,5.563C16.835,5.755 16.466,5.917 16,5.917L16,9.917C18.628,9.917 21.333,8.045 21.333,5.083L17.333,5.083ZM16,4.25C16.466,4.25 16.835,4.411 17.062,4.604C17.284,4.793 17.333,4.969 17.333,5.083L21.333,5.083C21.333,2.122 18.628,0.25 16,0.25L16,4.25ZM12.667,0.25C10.038,0.25 7.333,2.122 7.333,5.083L11.333,5.083C11.333,4.969 11.383,4.793 11.605,4.604C11.831,4.411 12.2,4.25 12.667,4.25L12.667,0.25ZM29.333,15.833L12.667,15.833L12.667,19.833L29.333,19.833L29.333,15.833ZM16.371,12.059L11.371,16.309L13.962,19.357L18.962,15.107L16.371,12.059ZM11.371,19.357L16.371,23.607L18.962,20.559L13.962,16.309L11.371,19.357Z" fill="#111827"/>
</svg>
