<svg width="34" height="28" viewBox="0 0 34 28" fill="none" xmlns="http://www.w3.org/2000/svg" xmlns:xlink="http://www.w3.org/1999/xlink">
<path d="M16,24.333L14.705,25.857C15.452,26.492 16.548,26.492 17.295,25.857L16,24.333ZM9.333,18.667L10.629,17.143C10.267,16.835 9.808,16.667 9.333,16.667L9.333,18.667ZM22.667,18.667L22.667,16.667C22.192,16.667 21.733,16.835 21.371,17.143L22.667,18.667ZM7.667,5.333C6.562,5.333 5.667,6.229 5.667,7.333C5.667,8.438 6.562,9.333 7.667,9.333L7.667,5.333ZM24.333,9.333C25.438,9.333 26.333,8.438 26.333,7.333C26.333,6.229 25.438,5.333 24.333,5.333L24.333,9.333ZM7.667,11C6.562,11 5.667,11.895 5.667,13C5.667,14.105 6.562,15 7.667,15L7.667,11ZM14.333,15C15.438,15 16.333,14.105 16.333,13C16.333,11.895 15.438,11 14.333,11L14.333,15ZM4.333,3.667L27.667,3.667L27.667,-0.333L4.333,-0.333L4.333,3.667ZM29,4.5L29,15.833L33,15.833L33,4.5L29,4.5ZM3,15.833L3,4.5L-1,4.5L-1,15.833L3,15.833ZM17.295,22.809L10.629,17.143L8.038,20.191L14.705,25.857L17.295,22.809ZM9.333,16.667L4.333,16.667L4.333,20.667L9.333,20.667L9.333,16.667ZM27.667,16.667L22.667,16.667L22.667,20.667L27.667,20.667L27.667,16.667ZM21.371,17.143L14.705,22.809L17.295,25.857L23.962,20.191L21.371,17.143ZM-1,15.833C-1,18.795 1.705,20.667 4.333,20.667L4.333,16.667C3.867,16.667 3.498,16.505 3.272,16.313C3.049,16.124 3,15.948 3,15.833L-1,15.833ZM29,15.833C29,15.948 28.95,16.124 28.728,16.313C28.502,16.505 28.133,16.667 27.667,16.667L27.667,20.667C30.295,20.667 33,18.795 33,15.833L29,15.833ZM27.667,3.667C28.133,3.667 28.502,3.828 28.728,4.02C28.95,4.209 29,4.386 29,4.5L33,4.5C33,1.538 30.295,-0.333 27.667,-0.333L27.667,3.667ZM4.333,-0.333C1.705,-0.333 -1,1.538 -1,4.5L3,4.5C3,4.386 3.049,4.209 3.272,4.02C3.498,3.828 3.867,3.667 4.333,3.667L4.333,-0.333ZM7.667,9.333L24.333,9.333L24.333,5.333L7.667,5.333L7.667,9.333ZM7.667,15L14.333,15L14.333,11L7.667,11L7.667,15Z" fill="#111827"/>
</svg>
