<svg width="36" height="32" viewBox="0 0 36 32" fill="none" xmlns="http://www.w3.org/2000/svg" xmlns:xlink="http://www.w3.org/1999/xlink">
<path d="M3,3.5C1.895,3.5 1,4.395 1,5.5C1,6.605 1.895,7.5 3,7.5L3,3.5ZM23,7.5C24.105,7.5 25,6.605 25,5.5C25,4.395 24.105,3.5 23,3.5L23,7.5ZM15,2.5C15,1.395 14.105,0.5 13,0.5C11.895,0.5 11,1.395 11,2.5L15,2.5ZM11,5.5C11,6.605 11.895,7.5 13,7.5C14.105,7.5 15,6.605 15,5.5L11,5.5ZM13.383,21.213C14.191,21.966 15.457,21.922 16.21,21.114C16.963,20.306 16.919,19.04 16.111,18.287L13.383,21.213ZM10.497,10.65C10.027,9.65 8.836,9.22 7.837,9.69C6.837,10.159 6.407,11.35 6.876,12.35L10.497,10.65ZM18.833,23C17.729,23 16.833,23.895 16.833,25C16.833,26.105 17.729,27 18.833,27L18.833,23ZM30.5,27C31.605,27 32.5,26.105 32.5,25C32.5,23.895 31.605,23 30.5,23L30.5,27ZM14.585,28.529C14.049,29.494 14.396,30.712 15.362,31.248C16.328,31.785 17.545,31.437 18.082,30.471L14.585,28.529ZM24.667,14.5L26.415,13.529C26.062,12.894 25.393,12.5 24.667,12.5C23.94,12.5 23.271,12.894 22.918,13.529L24.667,14.5ZM31.252,30.471C31.788,31.437 33.006,31.785 33.971,31.248C34.937,30.712 35.285,29.494 34.748,28.529L31.252,30.471ZM21.218,5.866C21.42,4.781 20.704,3.736 19.618,3.534C18.533,3.331 17.488,4.048 17.286,5.134L21.218,5.866ZM2.183,23.368C1.175,23.819 0.723,25.002 1.174,26.01C1.625,27.018 2.808,27.47 3.817,27.019L2.183,23.368ZM3,7.5L23,7.5L23,3.5L3,3.5L3,7.5ZM11,2.5L11,5.5L15,5.5L15,2.5L11,2.5ZM16.111,18.287C13.742,16.079 11.831,13.492 10.497,10.65L6.876,12.35C8.438,15.677 10.661,18.675 13.383,21.213L16.111,18.287ZM18.833,27L30.5,27L30.5,23L18.833,23L18.833,27ZM18.082,30.471L26.415,15.471L22.918,13.529L14.585,28.529L18.082,30.471ZM22.918,15.471L31.252,30.471L34.748,28.529L26.415,13.529L22.918,15.471ZM17.286,5.134C15.807,13.065 10.11,19.823 2.183,23.368L3.817,27.019C12.789,23.006 19.47,15.245 21.218,5.866L17.286,5.134Z" fill="#111827"/>
</svg>
