<svg width="32" height="32" viewBox="0 0 32 32" fill="none" xmlns="http://www.w3.org/2000/svg" xmlns:xlink="http://www.w3.org/1999/xlink">
<path d="M29.5,29.5L29.5,31.5C30.605,31.5 31.5,30.605 31.5,29.5L29.5,29.5ZM2.5,29.5L0.5,29.5C0.5,30.605 1.395,31.5 2.5,31.5L2.5,29.5ZM25,16L25,18C26.105,18 27,17.105 27,16L25,16ZM7,16L5,16C5,17.105 5.895,18 7,18L7,16ZM4.75,22L5.859,20.336L5.859,20.336L4.75,22ZM27.25,22L28.359,23.664L28.359,23.664L27.25,22ZM29.5,23.319C30.605,23.319 31.5,22.423 31.5,21.319C31.5,20.214 30.605,19.319 29.5,19.319L29.5,23.319ZM2.5,19.319C1.395,19.319 0.5,20.214 0.5,21.319C0.5,22.423 1.395,23.319 2.5,23.319L2.5,19.319ZM13.5,7C13.5,5.895 12.605,5 11.5,5C10.395,5 9.5,5.895 9.5,7L13.5,7ZM9.5,10C9.5,11.105 10.395,12 11.5,12C12.605,12 13.5,11.105 13.5,10L9.5,10ZM18,7C18,5.895 17.105,5 16,5C14.895,5 14,5.895 14,7L18,7ZM14,10C14,11.105 14.895,12 16,12C17.105,12 18,11.105 18,10L14,10ZM22.5,7C22.5,5.895 21.605,5 20.5,5C19.395,5 18.5,5.895 18.5,7L22.5,7ZM18.5,10C18.5,11.105 19.395,12 20.5,12C21.605,12 22.5,11.105 22.5,10L18.5,10ZM11.5,0.5C10.395,0.5 9.5,1.395 9.5,2.5C9.5,3.605 10.395,4.5 11.5,4.5L11.5,0.5ZM11.515,4.5C12.62,4.5 13.515,3.605 13.515,2.5C13.515,1.395 12.62,0.5 11.515,0.5L11.515,4.5ZM16,0.5C14.895,0.5 14,1.395 14,2.5C14,3.605 14.895,4.5 16,4.5L16,0.5ZM16.015,4.5C17.12,4.5 18.015,3.605 18.015,2.5C18.015,1.395 17.12,0.5 16.015,0.5L16.015,4.5ZM20.5,0.5C19.395,0.5 18.5,1.395 18.5,2.5C18.5,3.605 19.395,4.5 20.5,4.5L20.5,0.5ZM20.515,4.5C21.62,4.5 22.515,3.605 22.515,2.5C22.515,1.395 21.62,0.5 20.515,0.5L20.515,4.5ZM5.5,18L26.5,18L26.5,14L5.5,14L5.5,18ZM27.5,19L27.5,29.5L31.5,29.5L31.5,19L27.5,19ZM29.5,27.5L2.5,27.5L2.5,31.5L29.5,31.5L29.5,27.5ZM4.5,29.5L4.5,19L0.5,19L0.5,29.5L4.5,29.5ZM26.5,18C27.052,18 27.5,18.448 27.5,19L31.5,19C31.5,16.239 29.261,14 26.5,14L26.5,18ZM5.5,14C2.739,14 0.5,16.239 0.5,19L4.5,19C4.5,18.448 4.948,18 5.5,18L5.5,14ZM10,12L22,12L22,8L10,8L10,12ZM23,13L23,16L27,16L27,13L23,13ZM25,14L7,14L7,18L25,18L25,14ZM9,16L9,13L5,13L5,16L9,16ZM22,12C22.552,12 23,12.448 23,13L27,13C27,10.239 24.761,8 22,8L22,12ZM10,8C7.239,8 5,10.239 5,13L9,13C9,12.448 9.448,12 10,12L10,8ZM3.641,23.664C5.675,25.02 8.325,25.02 10.359,23.664L8.141,20.336C7.45,20.796 6.55,20.796 5.859,20.336L3.641,23.664ZM21.641,23.664C23.675,25.02 26.325,25.02 28.359,23.664L26.141,20.336C25.45,20.796 24.55,20.796 23.859,20.336L21.641,23.664ZM12.641,23.664C14.675,25.02 17.325,25.02 19.359,23.664L17.141,20.336C16.45,20.796 15.55,20.796 14.859,20.336L12.641,23.664ZM19.359,23.664C20.05,23.204 20.95,23.204 21.641,23.664L23.859,20.336C21.825,18.98 19.175,18.98 17.141,20.336L19.359,23.664ZM14.859,20.336C12.825,18.98 10.175,18.98 8.141,20.336L10.359,23.664C11.05,23.204 11.95,23.204 12.641,23.664L14.859,20.336ZM28.359,23.664C28.705,23.434 29.102,23.319 29.5,23.319L29.5,19.319C28.33,19.319 27.158,19.658 26.141,20.336L28.359,23.664ZM5.859,20.336C4.842,19.658 3.67,19.319 2.5,19.319L2.5,23.319C2.898,23.319 3.295,23.434 3.641,23.664L5.859,20.336ZM9.5,7L9.5,10L13.5,10L13.5,7L9.5,7ZM14,7L14,10L18,10L18,7L14,7ZM18.5,7L18.5,10L22.5,10L22.5,7L18.5,7ZM11.5,4.5L11.515,4.5L11.515,0.5L11.5,0.5L11.5,4.5ZM16,4.5L16.015,4.5L16.015,0.5L16,0.5L16,4.5ZM20.5,4.5L20.515,4.5L20.515,0.5L20.5,0.5L20.5,4.5Z" fill="#111827"/>
</svg>
