<svg width="36" height="26" viewBox="0 0 36 26" fill="none" xmlns="http://www.w3.org/2000/svg" xmlns:xlink="http://www.w3.org/1999/xlink">
<path d="M2.097,12L0.209,11.341C0.06,11.768 0.06,12.232 0.209,12.659L2.097,12ZM33.904,12L35.793,12.659C35.942,12.232 35.942,11.768 35.793,11.341L33.904,12ZM21,12C21,13.188 19.86,14.5 18,14.5L18,18.5C21.663,18.5 25,15.783 25,12L21,12ZM18,14.5C16.14,14.5 15,13.188 15,12L11,12C11,15.783 14.337,18.5 18,18.5L18,14.5ZM15,12C15,10.812 16.14,9.5 18,9.5L18,5.5C14.337,5.5 11,8.217 11,12L15,12ZM18,9.5C19.86,9.5 21,10.812 21,12L25,12C25,8.217 21.663,5.5 18,5.5L18,9.5ZM3.985,12.659C5.801,7.456 11.301,3.5 18.001,3.5L18.001,-0.5C9.775,-0.5 2.641,4.372 0.209,11.341L3.985,12.659ZM18.001,3.5C24.701,3.5 30.2,7.456 32.016,12.659L35.793,11.341C33.361,4.372 26.226,-0.5 18.001,-0.5L18.001,3.5ZM32.016,11.341C30.2,16.544 24.701,20.5 18.001,20.5L18.001,24.5C26.226,24.5 33.361,19.628 35.793,12.659L32.016,11.341ZM18.001,20.5C11.301,20.5 5.801,16.544 3.985,11.341L0.209,12.659C2.641,19.628 9.775,24.5 18.001,24.5L18.001,20.5Z" fill="#111827"/>
</svg>
