<svg width="34" height="28" viewBox="0 0 34 28" fill="none" xmlns="http://www.w3.org/2000/svg" xmlns:xlink="http://www.w3.org/1999/xlink">
<path d="M7.083,20C7.083,21.105 7.979,22 9.083,22C10.188,22 11.083,21.105 11.083,20L7.083,20ZM9.083,2L10.459,0.548C9.687,-0.183 8.479,-0.183 7.708,0.548L9.083,2ZM1.375,6.548C0.573,7.308 0.538,8.574 1.298,9.375C2.058,10.177 3.324,10.212 4.125,9.452L1.375,6.548ZM14.041,9.452C14.843,10.212 16.109,10.177 16.869,9.375C17.628,8.574 17.594,7.308 16.792,6.548L14.041,9.452ZM26.917,8C26.917,6.895 26.021,6 24.917,6C23.812,6 22.917,6.895 22.917,8L26.917,8ZM24.917,26L23.541,27.452C24.313,28.183 25.521,28.183 26.292,27.452L24.917,26ZM32.625,21.452C33.427,20.692 33.462,19.426 32.702,18.625C31.942,17.823 30.676,17.788 29.875,18.548L32.625,21.452ZM19.959,18.548C19.157,17.788 17.891,17.823 17.131,18.625C16.372,19.426 16.406,20.692 17.208,21.452L19.959,18.548ZM11.083,20L11.083,2L7.083,2L7.083,20L11.083,20ZM4.125,9.452L10.459,3.452L7.708,0.548L1.375,6.548L4.125,9.452ZM7.708,3.452L14.041,9.452L16.792,6.548L10.459,0.548L7.708,3.452ZM22.917,8L22.917,26L26.917,26L26.917,8L22.917,8ZM29.875,18.548L23.541,24.548L26.292,27.452L32.625,21.452L29.875,18.548ZM26.292,24.548L19.959,18.548L17.208,21.452L23.541,27.452L26.292,24.548Z" fill="#111827"/>
</svg>
