<svg width="34" height="26" viewBox="0 0 34 26" fill="none" xmlns="http://www.w3.org/2000/svg" xmlns:xlink="http://www.w3.org/1999/xlink">
<path d="M15.417,1.5L16.792,0.048C16.421,-0.304 15.928,-0.5 15.417,-0.5L15.417,1.5ZM18.583,4.5L17.208,5.952C17.579,6.304 18.072,6.5 18.583,6.5L18.583,4.5ZM12.25,11.5C11.145,11.5 10.25,12.395 10.25,13.5C10.25,14.605 11.145,15.5 12.25,15.5L12.25,11.5ZM21.75,15.5C22.855,15.5 23.75,14.605 23.75,13.5C23.75,12.395 22.855,11.5 21.75,11.5L21.75,15.5ZM4.75,19.5L4.75,4.5L0.75,4.5L0.75,19.5L4.75,19.5ZM5.917,3.5L15.417,3.5L15.417,-0.5L5.917,-0.5L5.917,3.5ZM14.041,2.952L17.208,5.952L19.959,3.048L16.792,0.048L14.041,2.952ZM18.583,6.5L28.083,6.5L28.083,2.5L18.583,2.5L18.583,6.5ZM29.25,7.5L29.25,19.5L33.25,19.5L33.25,7.5L29.25,7.5ZM28.083,20.5L5.917,20.5L5.917,24.5L28.083,24.5L28.083,20.5ZM28.083,6.5C28.831,6.5 29.25,7.048 29.25,7.5L33.25,7.5C33.25,4.638 30.834,2.5 28.083,2.5L28.083,6.5ZM4.75,4.5C4.75,4.048 5.169,3.5 5.917,3.5L5.917,-0.5C3.166,-0.5 0.75,1.638 0.75,4.5L4.75,4.5ZM29.25,19.5C29.25,19.952 28.831,20.5 28.083,20.5L28.083,24.5C30.834,24.5 33.25,22.362 33.25,19.5L29.25,19.5ZM0.75,19.5C0.75,22.362 3.166,24.5 5.917,24.5L5.917,20.5C5.169,20.5 4.75,19.952 4.75,19.5L0.75,19.5ZM12.25,15.5L21.75,15.5L21.75,11.5L12.25,11.5L12.25,15.5Z" fill="#111827"/>
</svg>
