<svg width="34" height="32" viewBox="0 0 34 32" fill="none" xmlns="http://www.w3.org/2000/svg" xmlns:xlink="http://www.w3.org/1999/xlink">
<path d="M19.005,10.013C18.184,9.274 16.919,9.341 16.18,10.162C15.441,10.983 15.508,12.248 16.329,12.987L19.005,10.013ZM22.667,16L24.005,17.487C24.426,17.107 24.667,16.567 24.667,16C24.667,15.433 24.426,14.893 24.005,14.513L22.667,16ZM16.329,19.013C15.508,19.752 15.441,21.017 16.18,21.838C16.919,22.659 18.184,22.726 19.005,21.987L16.329,19.013ZM9.333,14C8.229,14 7.333,14.895 7.333,16C7.333,17.105 8.229,18 9.333,18L9.333,14ZM16.329,12.987L21.329,17.487L24.005,14.513L19.005,10.013L16.329,12.987ZM21.329,14.513L16.329,19.013L19.005,21.987L24.005,17.487L21.329,14.513ZM22.667,14L9.333,14L9.333,18L22.667,18L22.667,14ZM29,16C29,22.158 23.383,27.5 16,27.5L16,31.5C25.185,31.5 33,24.753 33,16L29,16ZM16,27.5C8.617,27.5 3,22.158 3,16L-1,16C-1,24.753 6.815,31.5 16,31.5L16,27.5ZM3,16C3,9.842 8.617,4.5 16,4.5L16,0.5C6.815,0.5 -1,7.247 -1,16L3,16ZM16,4.5C23.383,4.5 29,9.842 29,16L33,16C33,7.247 25.185,0.5 16,0.5L16,4.5Z" fill="#111827"/>
</svg>
