<svg width="32" height="30" viewBox="0 0 32 30" fill="none" xmlns="http://www.w3.org/2000/svg" xmlns:xlink="http://www.w3.org/1999/xlink">
<path d="M12.873,13.546C12.07,12.788 10.804,12.824 10.046,13.627C9.288,14.43 9.324,15.696 10.127,16.454L12.873,13.546ZM14.5,17.833L13.127,19.287C13.898,20.015 15.102,20.015 15.873,19.287L14.5,17.833ZM21.873,13.621C22.676,12.862 22.712,11.596 21.954,10.793C21.196,9.99 19.93,9.954 19.127,10.713L21.873,13.621ZM9.752,4.654L9.602,2.66L9.752,4.654ZM12.672,3.512L11.418,1.954L12.672,3.512ZM5.046,9.099L3.053,8.931L5.046,9.099ZM3.836,11.857L2.351,10.517L2.351,10.517L3.836,11.857ZM3.836,18.143L2.351,19.483L2.351,19.483L3.836,18.143ZM5.046,20.901L3.053,21.069L5.046,20.901ZM9.752,25.346L9.902,23.351L9.752,25.346ZM12.672,26.488L13.926,24.93L13.926,24.93L12.672,26.488ZM19.328,26.488L18.074,24.93L18.074,24.93L19.328,26.488ZM22.248,25.346L22.398,27.34L22.248,25.346ZM26.954,20.901L28.947,21.069L26.954,20.901ZM28.164,18.143L26.679,16.803L26.679,16.803L28.164,18.143ZM28.164,11.857L26.679,13.197L26.679,13.197L28.164,11.857ZM26.954,9.099L24.962,9.268L26.954,9.099ZM22.248,4.654L22.398,2.66L22.248,4.654ZM19.328,3.512L20.582,1.954L19.328,3.512ZM10.127,16.454L13.127,19.287L15.873,16.379L12.873,13.546L10.127,16.454ZM15.873,19.287L21.873,13.621L19.127,10.713L13.127,16.379L15.873,19.287ZM9.902,6.648C11.372,6.538 12.781,5.991 13.926,5.07L11.418,1.954C10.919,2.355 10.285,2.608 9.602,2.66L9.902,6.648ZM7.038,9.268C7.149,7.957 8.285,6.77 9.902,6.648L9.602,2.66C6.196,2.916 3.343,5.498 3.053,8.931L7.038,9.268ZM5.321,13.197C6.306,12.105 6.915,10.731 7.038,9.268L3.053,8.931C3.005,9.5 2.767,10.057 2.351,10.517L5.321,13.197ZM5.321,16.803C4.374,15.753 4.374,14.247 5.321,13.197L2.351,10.517C0.03,13.089 0.03,16.911 2.351,19.483L5.321,16.803ZM7.038,20.732C6.915,19.269 6.306,17.895 5.321,16.803L2.351,19.483C2.767,19.943 3.005,20.5 3.053,21.069L7.038,20.732ZM9.902,23.351C8.285,23.23 7.149,22.043 7.038,20.732L3.053,21.069C3.343,24.502 6.196,27.083 9.602,27.34L9.902,23.351ZM13.926,24.93C12.781,24.009 11.372,23.462 9.902,23.351L9.602,27.34C10.285,27.392 10.919,27.645 11.418,28.046L13.926,24.93ZM18.074,24.93C16.888,25.884 15.112,25.884 13.926,24.93L11.418,28.046C14.068,30.179 17.932,30.179 20.582,28.046L18.074,24.93ZM22.098,23.351C20.628,23.462 19.219,24.009 18.074,24.93L20.582,28.046C21.081,27.645 21.715,27.392 22.398,27.34L22.098,23.351ZM24.962,20.732C24.851,22.043 23.715,23.23 22.098,23.351L22.398,27.34C25.804,27.083 28.657,24.502 28.947,21.069L24.962,20.732ZM26.679,16.803C25.694,17.895 25.085,19.269 24.962,20.732L28.947,21.069C28.995,20.5 29.233,19.943 29.649,19.483L26.679,16.803ZM26.679,13.197C27.626,14.247 27.626,15.753 26.679,16.803L29.649,19.483C31.97,16.911 31.97,13.089 29.649,10.517L26.679,13.197ZM24.962,9.268C25.085,10.731 25.694,12.105 26.679,13.197L29.649,10.517C29.233,10.057 28.995,9.5 28.947,8.931L24.962,9.268ZM22.098,6.648C23.715,6.77 24.851,7.957 24.962,9.268L28.947,8.931C28.657,5.498 25.804,2.916 22.398,2.66L22.098,6.648ZM18.074,5.07C19.219,5.991 20.628,6.538 22.098,6.648L22.398,2.66C21.715,2.608 21.081,2.355 20.582,1.954L18.074,5.07ZM20.582,1.954C17.932,-0.179 14.068,-0.179 11.418,1.954L13.926,5.07C15.112,4.116 16.888,4.116 18.074,5.07L20.582,1.954Z" fill="#111827"/>
</svg>
