<svg width="34" height="32" viewBox="0 0 34 32" fill="none" xmlns="http://www.w3.org/2000/svg" xmlns:xlink="http://www.w3.org/1999/xlink">
<path d="M16,31.5C17.105,31.5 18,30.605 18,29.5C18,28.395 17.105,27.5 16,27.5L16,31.5ZM24.422,29.466C25.402,28.957 25.784,27.749 25.275,26.769C24.765,25.789 23.558,25.407 22.578,25.917L24.422,29.466ZM16.002,27.502C14.897,27.501 14.001,28.396 14,29.501C13.999,30.605 14.894,31.501 15.998,31.502L16.002,27.502ZM16,20C13.219,20 11.333,18.016 11.333,16L7.333,16C7.333,20.611 11.417,24 16,24L16,20ZM11.333,16C11.333,13.984 13.219,12 16,12L16,8C11.417,8 7.333,11.389 7.333,16L11.333,16ZM16,12C18.781,12 20.667,13.984 20.667,16L24.667,16C24.667,11.389 20.583,8 16,8L16,12ZM16,27.5C8.617,27.5 3,22.158 3,16L-1,16C-1,24.753 6.815,31.5 16,31.5L16,27.5ZM3,16C3,9.842 8.617,4.5 16,4.5L16,0.5C6.815,0.5 -1,7.247 -1,16L3,16ZM16,4.5C23.383,4.5 29,9.842 29,16L33,16C33,7.247 25.185,0.5 16,0.5L16,4.5ZM29,18.25C29,19.024 28.233,20 26.833,20L26.833,24C30.036,24 33,21.619 33,18.25L29,18.25ZM26.833,20C25.433,20 24.667,19.024 24.667,18.25L20.667,18.25C20.667,21.619 23.631,24 26.833,24L26.833,20ZM33,18.25L33,16L29,16L29,18.25L33,18.25ZM24.667,18.25L24.667,16L20.667,16L20.667,18.25L24.667,18.25ZM22.578,25.917C20.511,26.99 18.246,27.504 16.002,27.502L15.998,31.502C18.852,31.505 21.756,30.852 24.422,29.466L22.578,25.917ZM20.667,16C20.667,18.016 18.781,20 16,20L16,24C20.583,24 24.667,20.611 24.667,16L20.667,16Z" fill="#111827"/>
</svg>
