<svg width="34" height="26" viewBox="0 0 34 26" fill="none" xmlns="http://www.w3.org/2000/svg" xmlns:xlink="http://www.w3.org/1999/xlink">
<path d="M6.302,-0.331C5.638,-0.956 4.562,-0.956 3.898,-0.331C3.234,0.293 3.234,1.307 3.898,1.931L27.698,24.331C28.362,24.956 29.438,24.956 30.102,24.331C30.766,23.707 30.766,22.693 30.102,22.069L27.598,19.712C30.211,17.748 32.196,15.074 33.222,12C31.056,5.509 24.612,0.8 17,0.8C14.24,0.8 11.634,1.419 9.329,2.518L6.302,-0.331ZM13.546,6.486L16.119,8.908C16.4,8.838 16.696,8.8 17,8.8C18.878,8.8 20.4,10.233 20.4,12C20.4,12.287 20.36,12.565 20.285,12.829L22.859,15.251C23.457,14.299 23.8,13.187 23.8,12C23.8,8.465 20.756,5.6 17,5.6C15.739,5.6 14.558,5.923 13.546,6.486Z" clip-rule="evenodd" fill-rule="evenodd" fill="#111827"/>
<path d="M21.172,22.715L16.574,18.388C13.158,18.189 10.425,15.616 10.214,12.401L3.969,6.524C2.551,8.116 1.456,9.971 0.779,12C2.945,18.491 9.388,23.2 17,23.2C18.44,23.2 19.837,23.032 21.172,22.715Z" fill="#111827"/>
</svg>
