<svg width="32" height="32" viewBox="0 0 32 32" fill="none" xmlns="http://www.w3.org/2000/svg" xmlns:xlink="http://www.w3.org/1999/xlink">
<path d="M20.154,14.824C21.161,14.371 21.61,13.187 21.157,12.179C20.704,11.172 19.52,10.723 18.513,11.176L20.154,14.824ZM29.333,8.5L31.333,8.5C31.333,7.713 30.872,6.999 30.154,6.676L29.333,8.5ZM25.179,8.176C24.172,8.629 23.723,9.813 24.176,10.821C24.629,11.828 25.813,12.277 26.821,11.824L25.179,8.176ZM26.821,5.176C25.813,4.723 24.629,5.172 24.176,6.179C23.723,7.187 24.172,8.371 25.179,8.824L26.821,5.176ZM16,2.5L16.821,0.676C16.299,0.441 15.701,0.441 15.179,0.676L16,2.5ZM18.513,5.824C19.52,6.277 20.704,5.828 21.157,4.821C21.61,3.813 21.161,2.629 20.154,2.176L18.513,5.824ZM11.846,2.176C10.839,2.629 10.39,3.813 10.843,4.821C11.296,5.828 12.48,6.277 13.487,5.824L11.846,2.176ZM2.667,8.5L1.846,6.676C1.128,6.999 0.667,7.713 0.667,8.5L2.667,8.5ZM6.821,8.824C7.828,8.371 8.277,7.187 7.824,6.179C7.371,5.172 6.187,4.723 5.179,5.176L6.821,8.824ZM5.179,11.824C6.187,12.277 7.371,11.828 7.824,10.821C8.277,9.813 7.828,8.629 6.821,8.176L5.179,11.824ZM13.487,11.176C12.48,10.723 11.296,11.172 10.843,12.179C10.39,13.187 10.839,14.371 11.846,14.824L13.487,11.176ZM16,29.5L15.179,31.324C15.701,31.559 16.299,31.559 16.821,31.324L16,29.5ZM13.487,26.176C12.48,25.723 11.296,26.172 10.843,27.179C10.39,28.187 10.839,29.371 11.846,29.824L13.487,26.176ZM5.179,26.824C6.187,27.277 7.371,26.828 7.824,25.821C8.277,24.813 7.828,23.629 6.821,23.176L5.179,26.824ZM2.667,23.5L0.667,23.5C0.667,24.287 1.128,25.001 1.846,25.324L2.667,23.5ZM29.333,23.5L30.154,25.324C30.872,25.001 31.333,24.287 31.333,23.5L29.333,23.5ZM25.179,23.176C24.172,23.629 23.723,24.813 24.176,25.821C24.629,26.828 25.813,27.277 26.821,26.824L25.179,23.176ZM20.154,29.824C21.161,29.371 21.61,28.187 21.157,27.179C20.704,26.172 19.52,25.723 18.513,26.176L20.154,29.824ZM27.333,12.25C27.333,13.355 28.229,14.25 29.333,14.25C30.438,14.25 31.333,13.355 31.333,12.25L27.333,12.25ZM31.333,19.75C31.333,18.645 30.438,17.75 29.333,17.75C28.229,17.75 27.333,18.645 27.333,19.75L31.333,19.75ZM0.667,12.25C0.667,13.355 1.562,14.25 2.667,14.25C3.771,14.25 4.667,13.355 4.667,12.25L0.667,12.25ZM4.667,19.75C4.667,18.645 3.771,17.75 2.667,17.75C1.562,17.75 0.667,18.645 0.667,19.75L4.667,19.75ZM14,18.25C14,19.355 14.895,20.25 16,20.25C17.105,20.25 18,19.355 18,18.25L14,18.25ZM18,25.75C18,24.645 17.105,23.75 16,23.75C14.895,23.75 14,24.645 14,25.75L18,25.75ZM18.513,11.176L15.179,12.676L16.821,16.324L20.154,14.824L18.513,11.176ZM28.513,6.676L25.179,8.176L26.821,11.824L30.154,10.324L28.513,6.676ZM25.179,8.824L28.513,10.324L30.154,6.676L26.821,5.176L25.179,8.824ZM15.179,4.324L18.513,5.824L20.154,2.176L16.821,0.676L15.179,4.324ZM13.487,5.824L16.821,4.324L15.179,0.676L11.846,2.176L13.487,5.824ZM3.487,10.324L6.821,8.824L5.179,5.176L1.846,6.676L3.487,10.324ZM6.821,8.176L3.487,6.676L1.846,10.324L5.179,11.824L6.821,8.176ZM16.821,12.676L13.487,11.176L11.846,14.824L15.179,16.324L16.821,12.676ZM16.821,27.676L13.487,26.176L11.846,29.824L15.179,31.324L16.821,27.676ZM6.821,23.176L3.487,21.676L1.846,25.324L5.179,26.824L6.821,23.176ZM28.513,21.676L25.179,23.176L26.821,26.824L30.154,25.324L28.513,21.676ZM18.513,26.176L15.179,27.676L16.821,31.324L20.154,29.824L18.513,26.176ZM31.333,12.25L31.333,8.5L27.333,8.5L27.333,12.25L31.333,12.25ZM31.333,23.5L31.333,19.75L27.333,19.75L27.333,23.5L31.333,23.5ZM4.667,12.25L4.667,8.5L0.667,8.5L0.667,12.25L4.667,12.25ZM4.667,23.5L4.667,19.75L0.667,19.75L0.667,23.5L4.667,23.5ZM14,14.5L14,18.25L18,18.25L18,14.5L14,14.5ZM14,25.75L14,29.5L18,29.5L18,25.75L14,25.75Z" fill="#111827"/>
</svg>
