<svg width="30" height="28" viewBox="0 0 30 28" fill="none" xmlns="http://www.w3.org/2000/svg" xmlns:xlink="http://www.w3.org/1999/xlink">
<path d="M5.5,4L8.667,4L8.667,0L5.5,0L5.5,4ZM9.833,5L9.833,8L13.833,8L13.833,5L9.833,5ZM8.667,9L5.5,9L5.5,13L8.667,13L8.667,9ZM4.333,8L4.333,5L0.333,5L0.333,8L4.333,8ZM5.5,9C4.752,9 4.333,8.452 4.333,8L0.333,8C0.333,10.862 2.75,13 5.5,13L5.5,9ZM9.833,8C9.833,8.452 9.414,9 8.667,9L8.667,13C11.417,13 13.833,10.862 13.833,8L9.833,8ZM8.667,4C9.414,4 9.833,4.548 9.833,5L13.833,5C13.833,2.138 11.417,0 8.667,0L8.667,4ZM5.5,0C2.75,0 0.333,2.138 0.333,5L4.333,5C4.333,4.548 4.752,4 5.5,4L5.5,0ZM21.333,4L24.5,4L24.5,0L21.333,0L21.333,4ZM25.667,5L25.667,8L29.667,8L29.667,5L25.667,5ZM24.5,9L21.333,9L21.333,13L24.5,13L24.5,9ZM20.167,8L20.167,5L16.167,5L16.167,8L20.167,8ZM21.333,9C20.586,9 20.167,8.452 20.167,8L16.167,8C16.167,10.862 18.583,13 21.333,13L21.333,9ZM25.667,8C25.667,8.452 25.248,9 24.5,9L24.5,13C27.25,13 29.667,10.862 29.667,8L25.667,8ZM24.5,4C25.248,4 25.667,4.548 25.667,5L29.667,5C29.667,2.138 27.25,0 24.5,0L24.5,4ZM21.333,0C18.583,0 16.167,2.138 16.167,5L20.167,5C20.167,4.548 20.586,4 21.333,4L21.333,0ZM5.5,19L8.667,19L8.667,15L5.5,15L5.5,19ZM9.833,20L9.833,23L13.833,23L13.833,20L9.833,20ZM8.667,24L5.5,24L5.5,28L8.667,28L8.667,24ZM4.333,23L4.333,20L0.333,20L0.333,23L4.333,23ZM5.5,24C4.752,24 4.333,23.452 4.333,23L0.333,23C0.333,25.862 2.75,28 5.5,28L5.5,24ZM9.833,23C9.833,23.452 9.414,24 8.667,24L8.667,28C11.417,28 13.833,25.862 13.833,23L9.833,23ZM8.667,19C9.414,19 9.833,19.548 9.833,20L13.833,20C13.833,17.138 11.417,15 8.667,15L8.667,19ZM5.5,15C2.75,15 0.333,17.138 0.333,20L4.333,20C4.333,19.548 4.752,19 5.5,19L5.5,15ZM21.333,19L24.5,19L24.5,15L21.333,15L21.333,19ZM25.667,20L25.667,23L29.667,23L29.667,20L25.667,20ZM24.5,24L21.333,24L21.333,28L24.5,28L24.5,24ZM20.167,23L20.167,20L16.167,20L16.167,23L20.167,23ZM21.333,24C20.586,24 20.167,23.452 20.167,23L16.167,23C16.167,25.862 18.583,28 21.333,28L21.333,24ZM25.667,23C25.667,23.452 25.248,24 24.5,24L24.5,28C27.25,28 29.667,25.862 29.667,23L25.667,23ZM24.5,19C25.248,19 25.667,19.548 25.667,20L29.667,20C29.667,17.138 27.25,15 24.5,15L24.5,19ZM21.333,15C18.583,15 16.167,17.138 16.167,20L20.167,20C20.167,19.548 20.586,19 21.333,19L21.333,15Z" fill="#111827"/>
</svg>
