<svg width="32" height="28" viewBox="0 0 32 28" fill="none" xmlns="http://www.w3.org/2000/svg" xmlns:xlink="http://www.w3.org/1999/xlink">
<path d="M18,2C18,0.895 17.105,0 16,0C14.895,0 14,0.895 14,2L18,2ZM8,2C8,0.895 7.105,0 6,0C4.895,0 4,0.895 4,2L8,2ZM14,26C14,27.105 14.895,28 16,28C17.105,28 18,27.105 18,26L14,26ZM28,2C28,0.895 27.105,0 26,0C24.895,0 24,0.895 24,2L28,2ZM4,26C4,27.105 4.895,28 6,28C7.105,28 8,27.105 8,26L4,26ZM24,26C24,27.105 24.895,28 26,28C27.105,28 28,27.105 28,26L24,26ZM18,5L18,2L14,2L14,5L18,5ZM7.333,20C7.333,20.359 6.94,21 6,21L6,25C8.742,25 11.333,22.954 11.333,20L7.333,20ZM6,21C5.06,21 4.667,20.359 4.667,20L0.667,20C0.667,22.954 3.258,25 6,25L6,21ZM4.667,20C4.667,19.641 5.06,19 6,19L6,15C3.258,15 0.667,17.046 0.667,20L4.667,20ZM6,19C6.94,19 7.333,19.641 7.333,20L11.333,20C11.333,17.046 8.742,15 6,15L6,19ZM17.333,8C17.333,8.359 16.94,9 16,9L16,13C18.742,13 21.333,10.954 21.333,8L17.333,8ZM16,9C15.06,9 14.667,8.359 14.667,8L10.667,8C10.667,10.954 13.258,13 16,13L16,9ZM14.667,8C14.667,7.641 15.06,7 16,7L16,3C13.258,3 10.667,5.046 10.667,8L14.667,8ZM16,7C16.94,7 17.333,7.641 17.333,8L21.333,8C21.333,5.046 18.742,3 16,3L16,7ZM27.333,20C27.333,20.359 26.94,21 26,21L26,25C28.742,25 31.333,22.954 31.333,20L27.333,20ZM26,21C25.06,21 24.667,20.359 24.667,20L20.667,20C20.667,22.954 23.258,25 26,25L26,21ZM24.667,20C24.667,19.641 25.06,19 26,19L26,15C23.258,15 20.667,17.046 20.667,20L24.667,20ZM26,19C26.94,19 27.333,19.641 27.333,20L31.333,20C31.333,17.046 28.742,15 26,15L26,19ZM8,17L8,2L4,2L4,17L8,17ZM18,26L18,11L14,11L14,26L18,26ZM28,17L28,2L24,2L24,17L28,17ZM8,26L8,23L4,23L4,26L8,26ZM28,26L28,23L24,23L24,26L28,26Z" fill="#111827"/>
</svg>
