<svg width="30" height="28" viewBox="0 0 30 28" fill="none" xmlns="http://www.w3.org/2000/svg" xmlns:xlink="http://www.w3.org/1999/xlink">
<path d="M11.833,6.5C12.938,6.5 13.833,5.605 13.833,4.5C13.833,3.395 12.938,2.5 11.833,2.5L11.833,6.5ZM26.5,15.833C26.5,14.729 25.605,13.833 24.5,13.833C23.395,13.833 22.5,14.729 22.5,15.833L26.5,15.833ZM18.167,-0.333C17.062,-0.333 16.167,0.562 16.167,1.667C16.167,2.771 17.062,3.667 18.167,3.667L18.167,-0.333ZM27.667,1.667L29.667,1.667C29.667,0.562 28.771,-0.333 27.667,-0.333L27.667,1.667ZM25.667,10.167C25.667,11.271 26.562,12.167 27.667,12.167C28.771,12.167 29.667,11.271 29.667,10.167L25.667,10.167ZM10.5,14.343C9.677,15.079 9.606,16.344 10.343,17.167C11.079,17.99 12.344,18.06 13.167,17.324L10.5,14.343ZM21.333,22.333L5.5,22.333L5.5,26.333L21.333,26.333L21.333,22.333ZM4.333,21.5L4.333,7.333L0.333,7.333L0.333,21.5L4.333,21.5ZM5.5,6.5L11.833,6.5L11.833,2.5L5.5,2.5L5.5,6.5ZM22.5,15.833L22.5,21.5L26.5,21.5L26.5,15.833L22.5,15.833ZM5.5,22.333C5.109,22.333 4.794,22.192 4.594,22.013C4.398,21.837 4.333,21.653 4.333,21.5L0.333,21.5C0.333,24.373 2.862,26.333 5.5,26.333L5.5,22.333ZM21.333,26.333C23.972,26.333 26.5,24.373 26.5,21.5L22.5,21.5C22.5,21.653 22.435,21.837 22.239,22.013C22.039,22.192 21.725,22.333 21.333,22.333L21.333,26.333ZM4.333,7.333C4.333,7.18 4.398,6.996 4.594,6.82C4.794,6.642 5.109,6.5 5.5,6.5L5.5,2.5C2.862,2.5 0.333,4.461 0.333,7.333L4.333,7.333ZM18.167,3.667L27.667,3.667L27.667,-0.333L18.167,-0.333L18.167,3.667ZM25.667,1.667L25.667,10.167L29.667,10.167L29.667,1.667L25.667,1.667ZM26.333,0.176L10.5,14.343L13.167,17.324L29,3.157L26.333,0.176Z" fill="#111827"/>
</svg>
