<svg width="24" height="22" viewBox="0 0 24 22" fill="none" xmlns="http://www.w3.org/2000/svg" xmlns:xlink="http://www.w3.org/1999/xlink">
<path d="M3.5,2C3.5,1.172 2.828,0.5 2,0.5C1.172,0.5 0.5,1.172 0.5,2L0.5,12.901C-0.397,13.42 -1,14.39 -1,15.5C-1,16.61 -0.397,17.58 0.5,18.099L0.5,20C0.5,20.828 1.172,21.5 2,21.5C2.828,21.5 3.5,20.828 3.5,20L3.5,18.099C4.397,17.58 5,16.61 5,15.5C5,14.39 4.397,13.42 3.5,12.901L3.5,2Z" fill="#111827"/>
<path d="M12.5,2C12.5,1.172 11.828,0.5 11,0.5C10.172,0.5 9.5,1.172 9.5,2L9.5,3.901C8.603,4.42 8,5.39 8,6.5C8,7.61 8.603,8.58 9.5,9.099L9.5,20C9.5,20.828 10.172,21.5 11,21.5C11.828,21.5 12.5,20.828 12.5,20L12.5,9.099C13.397,8.58 14,7.61 14,6.5C14,5.39 13.397,4.42 12.5,3.901L12.5,2Z" fill="#111827"/>
<path d="M20,0.5C20.828,0.5 21.5,1.172 21.5,2L21.5,12.901C22.397,13.42 23,14.39 23,15.5C23,16.61 22.397,17.58 21.5,18.099L21.5,20C21.5,20.828 20.828,21.5 20,21.5C19.172,21.5 18.5,20.828 18.5,20L18.5,18.099C17.603,17.58 17,16.61 17,15.5C17,14.39 17.603,13.42 18.5,12.901L18.5,2C18.5,1.172 19.172,0.5 20,0.5Z" fill="#111827"/>
</svg>
