<svg width="26" height="22" viewBox="0 0 26 22" fill="none" xmlns="http://www.w3.org/2000/svg" xmlns:xlink="http://www.w3.org/1999/xlink">
<path d="M24.8,14.2L24.8,3C24.8,1.454 23.367,0.2 21.6,0.2L2.4,0.2C0.633,0.2 -0.8,1.454 -0.8,3L-0.8,14.2C-0.8,15.746 0.633,17 2.4,17L7.2,17L12,21.2L16.8,17L21.6,17C23.367,17 24.8,15.746 24.8,14.2ZM4,5.8C4,5.027 4.716,4.4 5.6,4.4L18.4,4.4C19.284,4.4 20,5.027 20,5.8C20,6.573 19.284,7.2 18.4,7.2L5.6,7.2C4.716,7.2 4,6.573 4,5.8ZM5.6,10C4.716,10 4,10.627 4,11.4C4,12.173 4.716,12.8 5.6,12.8L10.4,12.8C11.284,12.8 12,12.173 12,11.4C12,10.627 11.284,10 10.4,10L5.6,10Z" clip-rule="evenodd" fill-rule="evenodd" fill="#111827"/>
</svg>
