<svg width="20" height="24" viewBox="0 0 20 24" fill="none" xmlns="http://www.w3.org/2000/svg" xmlns:xlink="http://www.w3.org/1999/xlink">
<path d="M0.4,3.6C0.4,2.054 1.833,0.8 3.6,0.8L10.937,0.8C11.786,0.8 12.6,1.095 13.2,1.62L18.663,6.4C19.263,6.925 19.6,7.637 19.6,8.38L19.6,20.4C19.6,21.946 18.167,23.2 16.4,23.2L3.6,23.2C1.833,23.2 0.4,21.946 0.4,20.4L0.4,3.6ZM3.6,12C3.6,11.227 4.316,10.6 5.2,10.6L14.8,10.6C15.684,10.6 16.4,11.227 16.4,12C16.4,12.773 15.684,13.4 14.8,13.4L5.2,13.4C4.316,13.4 3.6,12.773 3.6,12ZM5.2,16.2C4.316,16.2 3.6,16.827 3.6,17.6C3.6,18.373 4.316,19 5.2,19L14.8,19C15.684,19 16.4,18.373 16.4,17.6C16.4,16.827 15.684,16.2 14.8,16.2L5.2,16.2Z" clip-rule="evenodd" fill-rule="evenodd" fill="#111827"/>
</svg>
