<svg width="22" height="22" viewBox="0 0 22 22" fill="none" xmlns="http://www.w3.org/2000/svg" xmlns:xlink="http://www.w3.org/1999/xlink">
<path d="M19.671,12.987C20.492,12.248 20.559,10.983 19.82,10.162C19.081,9.341 17.816,9.274 16.995,10.013L19.671,12.987ZM10,19L8.662,20.487C9.423,21.171 10.577,21.171 11.338,20.487L10,19ZM3.005,10.013C2.184,9.274 0.919,9.341 0.18,10.162C-0.559,10.983 -0.492,12.248 0.329,12.987L3.005,10.013ZM12,1C12,-0.105 11.105,-1 10,-1C8.895,-1 8,-0.105 8,1L12,1ZM16.995,10.013L8.662,17.513L11.338,20.487L19.671,12.987L16.995,10.013ZM11.338,17.513L3.005,10.013L0.329,12.987L8.662,20.487L11.338,17.513ZM12,19L12,1L8,1L8,19L12,19Z" fill="#111827"/>
</svg>
