<svg width="16" height="26" viewBox="0 0 16 26" fill="none" xmlns="http://www.w3.org/2000/svg" xmlns:xlink="http://www.w3.org/1999/xlink">
<path d="M2.5,-0.8C0.843,-0.8 -0.5,0.633 -0.5,2.4L-0.5,21.6C-0.5,23.367 0.843,24.8 2.5,24.8L11.5,24.8C13.157,24.8 14.5,23.367 14.5,21.6L14.5,2.4C14.5,0.633 13.157,-0.8 11.5,-0.8L2.5,-0.8ZM7,21.6C7.828,21.6 8.5,20.884 8.5,20C8.5,19.116 7.828,18.4 7,18.4C6.172,18.4 5.5,19.116 5.5,20C5.5,20.884 6.172,21.6 7,21.6Z" clip-rule="evenodd" fill-rule="evenodd" fill="#111827"/>
</svg>
