<svg width="28" height="14" viewBox="0 0 28 14" fill="none" xmlns="http://www.w3.org/2000/svg" xmlns:xlink="http://www.w3.org/1999/xlink">
<path d="M26.962,2.857C27.804,2.142 27.906,0.88 27.191,0.038C26.475,-0.804 25.213,-0.906 24.371,-0.191L26.962,2.857ZM14,11.25L12.705,12.774C13.452,13.409 14.548,13.409 15.295,12.774L14,11.25ZM3.629,-0.191C2.787,-0.906 1.525,-0.804 0.809,0.038C0.094,0.88 0.196,2.142 1.038,2.857L3.629,-0.191ZM24.371,-0.191L12.705,9.726L15.295,12.774L26.962,2.857L24.371,-0.191ZM15.295,9.726L3.629,-0.191L1.038,2.857L12.705,12.774L15.295,9.726Z" transform="rotate(-360 14 6.292)" fill="#111827"/>
</svg>
