<svg width="26" height="26" viewBox="0 0 26 26" fill="none" xmlns="http://www.w3.org/2000/svg" xmlns:xlink="http://www.w3.org/1999/xlink">
<path d="M2.4,1C0.633,1 -0.8,2.343 -0.8,4L-0.8,20.5C-0.8,22.985 1.349,25 4,25C6.651,25 8.8,22.985 8.8,20.5L8.8,4C8.8,2.343 7.367,1 5.6,1L2.4,1ZM4,22C4.884,22 5.6,21.328 5.6,20.5C5.6,19.672 4.884,19 4,19C3.116,19 2.4,19.672 2.4,20.5C2.4,21.328 3.116,22 4,22Z" clip-rule="evenodd" fill-rule="evenodd" fill="#111827"/>
<path d="M12,19.364L19.839,12.015C21.089,10.843 21.089,8.944 19.839,7.772L17.576,5.651C16.327,4.479 14.301,4.479 13.051,5.651L12,6.636L12,19.364Z" fill="#111827"/>
<path d="M21.6,25L10.514,25L20.114,16L21.6,16C23.367,16 24.8,17.343 24.8,19L24.8,22C24.8,23.657 23.367,25 21.6,25Z" fill="#111827"/>
</svg>
