<svg width="34" height="32" viewBox="0 0 34 32" fill="none" xmlns="http://www.w3.org/2000/svg" xmlns:xlink="http://www.w3.org/1999/xlink">
<path d="M9.662,13.013C8.841,13.752 8.774,15.017 9.513,15.838C10.252,16.659 11.517,16.726 12.338,15.987L9.662,13.013ZM16,10L17.338,8.513C16.577,7.829 15.423,7.829 14.662,8.513L16,10ZM19.662,15.987C20.483,16.726 21.748,16.659 22.487,15.838C23.226,15.017 23.159,13.752 22.338,13.013L19.662,15.987ZM14,22C14,23.105 14.895,24 16,24C17.105,24 18,23.105 18,22L14,22ZM12.338,15.987L17.338,11.487L14.662,8.513L9.662,13.013L12.338,15.987ZM14.662,11.487L19.662,15.987L22.338,13.013L17.338,8.513L14.662,11.487ZM14,10L14,22L18,22L18,10L14,10ZM16,4.5C23.383,4.5 29,9.842 29,16L33,16C33,7.247 25.185,0.5 16,0.5L16,4.5ZM29,16C29,22.158 23.383,27.5 16,27.5L16,31.5C25.185,31.5 33,24.753 33,16L29,16ZM16,27.5C8.617,27.5 3,22.158 3,16L-1,16C-1,24.753 6.815,31.5 16,31.5L16,27.5ZM3,16C3,9.842 8.617,4.5 16,4.5L16,0.5C6.815,0.5 -1,7.247 -1,16L3,16Z" fill="#111827"/>
</svg>
