<svg width="26" height="24" viewBox="0 0 26 24" fill="none" xmlns="http://www.w3.org/2000/svg" xmlns:xlink="http://www.w3.org/1999/xlink">
<path d="M13.131,1.21C12.507,0.663 11.493,0.663 10.869,1.21L-0.331,11.01C-0.956,11.557 -0.956,12.443 -0.331,12.99C0.293,13.537 1.307,13.537 1.931,12.99L2.4,12.58L2.4,21.8C2.4,22.573 3.116,23.2 4,23.2L7.2,23.2C8.084,23.2 8.8,22.573 8.8,21.8L8.8,19C8.8,18.227 9.516,17.6 10.4,17.6L13.6,17.6C14.484,17.6 15.2,18.227 15.2,19L15.2,21.8C15.2,22.573 15.916,23.2 16.8,23.2L20,23.2C20.884,23.2 21.6,22.573 21.6,21.8L21.6,12.58L22.069,12.99C22.693,13.537 23.707,13.537 24.331,12.99C24.956,12.443 24.956,11.557 24.331,11.01L13.131,1.21Z" fill="#111827"/>
</svg>
