<svg width="38" height="26" viewBox="0 0 38 26" fill="none" xmlns="http://www.w3.org/2000/svg" xmlns:xlink="http://www.w3.org/1999/xlink">
<path d="M11.467,17.154C10.665,17.914 10.631,19.179 11.391,19.981C12.15,20.783 13.416,20.817 14.218,20.058L11.467,17.154ZM23.782,20.058C24.584,20.817 25.85,20.783 26.61,19.981C27.369,19.179 27.335,17.914 26.533,17.154L23.782,20.058ZM19,22C17.896,22 17,22.895 17,24C17,25.105 17.896,26 19,26L19,22ZM19.016,26C20.121,26 21.016,25.105 21.016,24C21.016,22.895 20.121,22 19.016,22L19.016,26ZM6.429,11.942C5.627,12.701 5.593,13.967 6.353,14.769C7.112,15.571 8.378,15.605 9.18,14.845L6.429,11.942ZM28.821,14.845C29.622,15.605 30.888,15.571 31.648,14.769C32.408,13.967 32.373,12.701 31.572,11.942L28.821,14.845ZM0.831,6.638C0.029,7.398 -0.005,8.664 0.755,9.466C1.514,10.267 2.78,10.302 3.582,9.542L0.831,6.638ZM34.418,9.542C35.22,10.302 36.486,10.267 37.246,9.466C38.006,8.664 37.971,7.398 37.169,6.638L34.418,9.542ZM14.218,20.058C16.847,17.567 21.153,17.567 23.782,20.058L26.533,17.154C22.361,13.201 15.639,13.201 11.467,17.154L14.218,20.058ZM19,26L19.016,26L19.016,22L19,22L19,26ZM9.18,14.845C14.592,9.718 23.409,9.718 28.821,14.845L31.572,11.942C24.617,5.353 13.384,5.353 6.429,11.942L9.18,14.845ZM3.582,9.542C12.086,1.486 25.915,1.486 34.418,9.542L37.169,6.638C27.123,-2.879 10.877,-2.879 0.831,6.638L3.582,9.542Z" fill="#111827"/>
</svg>
