<svg width="34" height="30" viewBox="0 0 34 30" fill="none" xmlns="http://www.w3.org/2000/svg" xmlns:xlink="http://www.w3.org/1999/xlink">
<path d="M2.75,0.25C1.645,0.25 0.75,1.145 0.75,2.25C0.75,3.355 1.645,4.25 2.75,4.25L2.75,0.25ZM5.917,2.25L7.869,1.814C7.664,0.9 6.853,0.25 5.917,0.25L5.917,2.25ZM24.917,16.417L24.917,18.417C25.641,18.417 26.309,18.025 26.663,17.392L24.917,16.417ZM31.25,5.083L32.996,6.059C33.342,5.44 33.334,4.683 32.975,4.071C32.616,3.459 31.96,3.083 31.25,3.083L31.25,5.083ZM5.453,19.665L4.119,18.174L4.119,18.174L5.453,19.665ZM2.75,4.25L5.917,4.25L5.917,0.25L2.75,0.25L2.75,4.25ZM9.083,18.417L24.917,18.417L24.917,14.417L9.083,14.417L9.083,18.417ZM26.663,17.392L32.996,6.059L29.504,4.108L23.171,15.441L26.663,17.392ZM3.965,2.686L4.598,5.52L8.502,4.647L7.869,1.814L3.965,2.686ZM4.598,5.52L7.131,16.853L11.035,15.98L8.502,4.647L4.598,5.52ZM6.55,7.083L31.25,7.083L31.25,3.083L6.55,3.083L6.55,7.083ZM26.083,24.917C26.083,25.07 26.018,25.254 25.822,25.43C25.623,25.608 25.308,25.75 24.917,25.75L24.917,29.75C27.555,29.75 30.083,27.789 30.083,24.917L26.083,24.917ZM24.917,25.75C24.525,25.75 24.211,25.608 24.011,25.43C23.815,25.254 23.75,25.07 23.75,24.917L19.75,24.917C19.75,27.789 22.278,29.75 24.917,29.75L24.917,25.75ZM23.75,24.917C23.75,24.764 23.815,24.579 24.011,24.404C24.211,24.225 24.525,24.083 24.917,24.083L24.917,20.083C22.278,20.083 19.75,22.044 19.75,24.917L23.75,24.917ZM24.917,24.083C25.308,24.083 25.623,24.225 25.822,24.404C26.018,24.579 26.083,24.764 26.083,24.917L30.083,24.917C30.083,22.044 27.555,20.083 24.917,20.083L24.917,24.083ZM10.25,24.917C10.25,25.07 10.185,25.254 9.989,25.43C9.789,25.608 9.475,25.75 9.083,25.75L9.083,29.75C11.722,29.75 14.25,27.789 14.25,24.917L10.25,24.917ZM9.083,25.75C8.692,25.75 8.377,25.608 8.178,25.43C7.982,25.254 7.917,25.07 7.917,24.917L3.917,24.917C3.917,27.789 6.445,29.75 9.083,29.75L9.083,25.75ZM7.917,24.917C7.917,24.764 7.982,24.579 8.178,24.404C8.377,24.225 8.692,24.083 9.083,24.083L9.083,20.083C6.445,20.083 3.917,22.044 3.917,24.917L7.917,24.917ZM9.083,24.083C9.475,24.083 9.789,24.225 9.989,24.404C10.185,24.579 10.25,24.764 10.25,24.917L14.25,24.917C14.25,22.044 11.722,20.083 9.083,20.083L9.083,24.083ZM6.572,24.083L24.917,24.083L24.917,20.083L6.572,20.083L6.572,24.083ZM6.786,21.155L10.417,17.907L7.75,14.926L4.119,18.174L6.786,21.155ZM6.572,20.083C6.627,20.083 6.817,20.137 6.925,20.369C6.976,20.478 7.005,20.63 6.972,20.799C6.937,20.98 6.847,21.101 6.786,21.155L4.119,18.174C2.935,19.234 2.714,20.795 3.295,22.049C3.858,23.267 5.107,24.083 6.572,24.083L6.572,20.083Z" fill="#111827"/>
</svg>
