<svg width="28" height="30" viewBox="0 0 28 30" fill="none" xmlns="http://www.w3.org/2000/svg" xmlns:xlink="http://www.w3.org/1999/xlink">
<path d="M15.047,2.665L13.713,4.155L13.713,4.155L15.047,2.665ZM23.62,10.335L24.953,8.845L24.953,8.845L23.62,10.335ZM6.25,22.083C6.25,23.188 7.145,24.083 8.25,24.083C9.355,24.083 10.25,23.188 10.25,22.083L6.25,22.083ZM10.25,19.25C10.25,18.145 9.355,17.25 8.25,17.25C7.145,17.25 6.25,18.145 6.25,19.25L10.25,19.25ZM11,22.083C11,23.188 11.895,24.083 13,24.083C14.105,24.083 15,23.188 15,22.083L11,22.083ZM15,16.417C15,15.312 14.105,14.417 13,14.417C11.895,14.417 11,15.312 11,16.417L15,16.417ZM15.75,22.083C15.75,23.188 16.645,24.083 17.75,24.083C18.855,24.083 19.75,23.188 19.75,22.083L15.75,22.083ZM19.75,13.583C19.75,12.479 18.855,11.583 17.75,11.583C16.645,11.583 15.75,12.479 15.75,13.583L19.75,13.583ZM20.917,25.75L5.083,25.75L5.083,29.75L20.917,29.75L20.917,25.75ZM3.917,24.917L3.917,5.083L-0.083,5.083L-0.083,24.917L3.917,24.917ZM5.083,4.25L13.927,4.25L13.927,0.25L5.083,0.25L5.083,4.25ZM22.083,11.337L22.083,24.917L26.083,24.917L26.083,11.337L22.083,11.337ZM13.713,4.155L22.286,11.826L24.953,8.845L16.381,1.174L13.713,4.155ZM26.083,11.337C26.083,10.354 25.645,9.464 24.953,8.845L22.286,11.826C22.188,11.738 22.083,11.568 22.083,11.337L26.083,11.337ZM13.927,4.25C13.902,4.25 13.872,4.246 13.838,4.233C13.805,4.221 13.761,4.198 13.713,4.155L16.381,1.174C15.696,0.562 14.81,0.25 13.927,0.25L13.927,4.25ZM5.083,25.75C4.692,25.75 4.377,25.608 4.178,25.43C3.982,25.254 3.917,25.07 3.917,24.917L-0.083,24.917C-0.083,27.789 2.445,29.75 5.083,29.75L5.083,25.75ZM20.917,29.75C23.555,29.75 26.083,27.789 26.083,24.917L22.083,24.917C22.083,25.07 22.018,25.254 21.822,25.43C21.623,25.608 21.308,25.75 20.917,25.75L20.917,29.75ZM3.917,5.083C3.917,4.93 3.982,4.746 4.178,4.57C4.377,4.392 4.692,4.25 5.083,4.25L5.083,0.25C2.445,0.25 -0.083,2.211 -0.083,5.083L3.917,5.083ZM10.25,22.083L10.25,19.25L6.25,19.25L6.25,22.083L10.25,22.083ZM15,22.083L15,16.417L11,16.417L11,22.083L15,22.083ZM19.75,22.083L19.75,13.583L15.75,13.583L15.75,22.083L19.75,22.083Z" fill="#111827"/>
</svg>
