<svg width="32" height="32" viewBox="0 0 32 32" fill="none" xmlns="http://www.w3.org/2000/svg" xmlns:xlink="http://www.w3.org/1999/xlink">
<path d="M22.667,14.5L22.667,16.5L24.667,16.5L24.667,14.5L22.667,14.5ZM9.333,14.5L7.333,14.5L7.333,16.5L9.333,16.5L9.333,14.5ZM18,20.5C18,19.395 17.105,18.5 16,18.5C14.895,18.5 14,19.395 14,20.5L18,20.5ZM14,23.5C14,24.605 14.895,25.5 16,25.5C17.105,25.5 18,24.605 18,23.5L14,23.5ZM6,16.5L26,16.5L26,12.5L6,12.5L6,16.5ZM27.333,17.5L27.333,26.5L31.333,26.5L31.333,17.5L27.333,17.5ZM26,27.5L6,27.5L6,31.5L26,31.5L26,27.5ZM4.667,26.5L4.667,17.5L0.667,17.5L0.667,26.5L4.667,26.5ZM6,27.5C5.06,27.5 4.667,26.859 4.667,26.5L0.667,26.5C0.667,29.454 3.258,31.5 6,31.5L6,27.5ZM27.333,26.5C27.333,26.859 26.94,27.5 26,27.5L26,31.5C28.742,31.5 31.333,29.454 31.333,26.5L27.333,26.5ZM26,16.5C26.94,16.5 27.333,17.141 27.333,17.5L31.333,17.5C31.333,14.546 28.742,12.5 26,12.5L26,16.5ZM6,12.5C3.258,12.5 0.667,14.546 0.667,17.5L4.667,17.5C4.667,17.141 5.06,16.5 6,16.5L6,12.5ZM20.667,8.5L20.667,14.5L24.667,14.5L24.667,8.5L20.667,8.5ZM22.667,12.5L9.333,12.5L9.333,16.5L22.667,16.5L22.667,12.5ZM11.333,14.5L11.333,8.5L7.333,8.5L7.333,14.5L11.333,14.5ZM16,4.5C18.781,4.5 20.667,6.484 20.667,8.5L24.667,8.5C24.667,3.889 20.583,0.5 16,0.5L16,4.5ZM16,0.5C11.417,0.5 7.333,3.889 7.333,8.5L11.333,8.5C11.333,6.484 13.219,4.5 16,4.5L16,0.5ZM14,20.5L14,23.5L18,23.5L18,20.5L14,20.5Z" fill="#111827"/>
</svg>
