<svg width="34" height="26" viewBox="0 0 34 26" fill="none" xmlns="http://www.w3.org/2000/svg" xmlns:xlink="http://www.w3.org/1999/xlink">
<path d="M5.917,3.5L9.083,3.5L9.083,-0.5L5.917,-0.5L5.917,3.5ZM10.25,4.5L10.25,19.5L14.25,19.5L14.25,4.5L10.25,4.5ZM9.083,20.5L5.917,20.5L5.917,24.5L9.083,24.5L9.083,20.5ZM4.75,19.5L4.75,4.5L0.75,4.5L0.75,19.5L4.75,19.5ZM5.917,20.5C5.169,20.5 4.75,19.952 4.75,19.5L0.75,19.5C0.75,22.362 3.166,24.5 5.917,24.5L5.917,20.5ZM10.25,19.5C10.25,19.952 9.831,20.5 9.083,20.5L9.083,24.5C11.834,24.5 14.25,22.362 14.25,19.5L10.25,19.5ZM9.083,3.5C9.831,3.5 10.25,4.048 10.25,4.5L14.25,4.5C14.25,1.638 11.834,-0.5 9.083,-0.5L9.083,3.5ZM5.917,-0.5C3.166,-0.5 0.75,1.638 0.75,4.5L4.75,4.5C4.75,4.048 5.169,3.5 5.917,3.5L5.917,-0.5ZM15.417,3.5L18.583,3.5L18.583,-0.5L15.417,-0.5L15.417,3.5ZM19.75,4.5L19.75,19.5L23.75,19.5L23.75,4.5L19.75,4.5ZM18.583,20.5L15.417,20.5L15.417,24.5L18.583,24.5L18.583,20.5ZM15.417,20.5C14.669,20.5 14.25,19.952 14.25,19.5L10.25,19.5C10.25,22.362 12.666,24.5 15.417,24.5L15.417,20.5ZM19.75,19.5C19.75,19.952 19.331,20.5 18.583,20.5L18.583,24.5C21.334,24.5 23.75,22.362 23.75,19.5L19.75,19.5ZM18.583,3.5C19.331,3.5 19.75,4.048 19.75,4.5L23.75,4.5C23.75,1.638 21.334,-0.5 18.583,-0.5L18.583,3.5ZM15.417,-0.5C12.666,-0.5 10.25,1.638 10.25,4.5L14.25,4.5C14.25,4.048 14.669,3.5 15.417,3.5L15.417,-0.5ZM24.917,3.5L28.083,3.5L28.083,-0.5L24.917,-0.5L24.917,3.5ZM29.25,4.5L29.25,19.5L33.25,19.5L33.25,4.5L29.25,4.5ZM28.083,20.5L24.917,20.5L24.917,24.5L28.083,24.5L28.083,20.5ZM24.917,20.5C24.169,20.5 23.75,19.952 23.75,19.5L19.75,19.5C19.75,22.362 22.166,24.5 24.917,24.5L24.917,20.5ZM29.25,19.5C29.25,19.952 28.831,20.5 28.083,20.5L28.083,24.5C30.834,24.5 33.25,22.362 33.25,19.5L29.25,19.5ZM28.083,3.5C28.831,3.5 29.25,4.048 29.25,4.5L33.25,4.5C33.25,1.638 30.834,-0.5 28.083,-0.5L28.083,3.5ZM24.917,-0.5C22.166,-0.5 19.75,1.638 19.75,4.5L23.75,4.5C23.75,4.048 24.169,3.5 24.917,3.5L24.917,-0.5Z" fill="#111827"/>
</svg>
