<svg width="26" height="24" viewBox="0 0 26 24" fill="none" xmlns="http://www.w3.org/2000/svg" xmlns:xlink="http://www.w3.org/1999/xlink">
<path d="M12,23.2C19.069,23.2 24.8,18.186 24.8,12C24.8,5.814 19.069,0.8 12,0.8C4.931,0.8 -0.8,5.814 -0.8,12C-0.8,18.186 4.931,23.2 12,23.2ZM8.8,7.8C7.916,7.8 7.2,8.427 7.2,9.2L7.2,14.8C7.2,15.573 7.916,16.2 8.8,16.2L15.2,16.2C16.084,16.2 16.8,15.573 16.8,14.8L16.8,9.2C16.8,8.427 16.084,7.8 15.2,7.8L8.8,7.8Z" clip-rule="evenodd" fill-rule="evenodd" fill="#111827"/>
</svg>
