<svg width="34" height="32" viewBox="0 0 34 32" fill="none" xmlns="http://www.w3.org/2000/svg" xmlns:xlink="http://www.w3.org/1999/xlink">
<path d="M29.78,3.598L31.117,2.112L31.117,2.112L29.78,3.598ZM6.833,29.553L6.833,31.553C7.328,31.553 7.804,31.37 8.171,31.04L6.833,29.553ZM1,29.553L-1,29.553C-1,30.658 -0.104,31.553 1,31.553L1,29.553ZM1,24.197L-0.338,22.71C-0.759,23.089 -1,23.63 -1,24.197L1,24.197ZM22.725,4.362C21.904,3.623 20.639,3.689 19.9,4.51C19.162,5.331 19.228,6.596 20.049,7.335L22.725,4.362ZM25.942,12.638C26.763,13.377 28.027,13.311 28.766,12.49C29.505,11.669 29.438,10.404 28.617,9.665L25.942,12.638ZM25.225,5.085C26.091,4.305 27.575,4.305 28.442,5.085L31.117,2.112C28.73,-0.037 24.937,-0.037 22.549,2.112L25.225,5.085ZM28.442,5.085C29.186,5.755 29.186,6.745 28.442,7.415L31.117,10.388C33.627,8.129 33.627,4.371 31.117,2.112L28.442,5.085ZM28.442,7.415L5.495,28.067L8.171,31.04L31.117,10.388L28.442,7.415ZM6.833,27.553L1,27.553L1,31.553L6.833,31.553L6.833,27.553ZM22.549,2.112L-0.338,22.71L2.338,25.683L25.225,5.085L22.549,2.112ZM-1,24.197L-1,29.553L3,29.553L3,24.197L-1,24.197ZM20.049,7.335L25.942,12.638L28.617,9.665L22.725,4.362L20.049,7.335Z" fill="#111827"/>
</svg>
