<svg width="34" height="30" viewBox="0 0 34 30" fill="none" xmlns="http://www.w3.org/2000/svg" xmlns:xlink="http://www.w3.org/1999/xlink">
<path d="M3.288,22L1.58,20.959L1.58,20.959L3.288,22ZM30.712,22L32.42,20.959L32.42,20.959L30.712,22ZM19.742,4L18.035,5.041L18.035,5.041L19.742,4ZM14.258,4L15.965,5.041L15.965,5.041L14.258,4ZM19,11.5C19,10.395 18.105,9.5 17,9.5C15.895,9.5 15,10.395 15,11.5L19,11.5ZM15,14.5C15,15.605 15.895,16.5 17,16.5C18.105,16.5 19,15.605 19,14.5L15,14.5ZM17,18.5C15.895,18.5 15,19.395 15,20.5C15,21.605 15.895,22.5 17,22.5L17,18.5ZM17.016,22.5C18.12,22.5 19.016,21.605 19.016,20.5C19.016,19.395 18.12,18.5 17.016,18.5L17.016,22.5ZM18.035,5.041L29.004,23.041L32.42,20.959L21.45,2.959L18.035,5.041ZM27.97,24.5L6.03,24.5L6.03,28.5L27.97,28.5L27.97,24.5ZM4.996,23.041L15.965,5.041L12.55,2.959L1.58,20.959L4.996,23.041ZM6.03,24.5C5.527,24.5 5.175,24.254 4.996,23.959C4.822,23.673 4.805,23.353 4.996,23.041L1.58,20.959C-0.551,24.456 2.228,28.5 6.03,28.5L6.03,24.5ZM29.004,23.041C29.195,23.353 29.178,23.673 29.004,23.959C28.825,24.254 28.473,24.5 27.97,24.5L27.97,28.5C31.772,28.5 34.551,24.456 32.42,20.959L29.004,23.041ZM21.45,2.959C19.452,-0.32 14.548,-0.32 12.55,2.959L15.965,5.041C16.168,4.708 16.543,4.5 17,4.5C17.457,4.5 17.832,4.708 18.035,5.041L21.45,2.959ZM15,11.5L15,14.5L19,14.5L19,11.5L15,11.5ZM17,22.5L17.016,22.5L17.016,18.5L17,18.5L17,22.5Z" fill="#111827"/>
</svg>
