<svg width="18" height="26" viewBox="0 0 18 26" fill="none" xmlns="http://www.w3.org/2000/svg" xmlns:xlink="http://www.w3.org/1999/xlink">
<path d="M17,11.467L17,2.778C17,1.566 16.358,0.458 15.342,-0.084L15.267,-0.124C14.434,-0.569 13.515,-0.8 12.584,-0.8L4.459,-0.8C3.029,-0.8 1.798,0.277 1.518,1.772L-0.282,11.372C-0.654,13.353 0.766,15.2 2.659,15.2L8,15.2L8,21.6C8,23.367 9.343,24.8 11,24.8C11.828,24.8 12.5,24.084 12.5,23.2L12.5,22.133C12.5,20.749 12.921,19.401 13.7,18.293L15.8,15.307C16.579,14.199 17,12.851 17,11.467Z" fill="#111827"/>
</svg>
