<svg width="34" height="28" viewBox="0 0 34 28" fill="none" xmlns="http://www.w3.org/2000/svg" xmlns:xlink="http://www.w3.org/1999/xlink">
<path d="M12.042,8.048C11.24,7.288 9.974,7.323 9.215,8.125C8.455,8.926 8.489,10.192 9.291,10.952L12.042,8.048ZM15.417,14L16.792,15.452C17.191,15.074 17.417,14.549 17.417,14C17.417,13.451 17.191,12.926 16.792,12.548L15.417,14ZM9.291,17.048C8.489,17.808 8.455,19.074 9.215,19.875C9.974,20.677 11.24,20.712 12.042,19.952L9.291,17.048ZM18.583,16.5C17.479,16.5 16.583,17.395 16.583,18.5C16.583,19.605 17.479,20.5 18.583,20.5L18.583,16.5ZM23.333,20.5C24.438,20.5 25.333,19.605 25.333,18.5C25.333,17.395 24.438,16.5 23.333,16.5L23.333,20.5ZM5.917,4L28.083,4L28.083,0L5.917,0L5.917,4ZM29.25,5L29.25,23L33.25,23L33.25,5L29.25,5ZM28.083,24L5.917,24L5.917,28L28.083,28L28.083,24ZM4.75,23L4.75,5L0.75,5L0.75,23L4.75,23ZM5.917,24C5.169,24 4.75,23.452 4.75,23L0.75,23C0.75,25.862 3.166,28 5.917,28L5.917,24ZM29.25,23C29.25,23.452 28.831,24 28.083,24L28.083,28C30.834,28 33.25,25.862 33.25,23L29.25,23ZM28.083,4C28.831,4 29.25,4.548 29.25,5L33.25,5C33.25,2.138 30.834,0 28.083,0L28.083,4ZM5.917,0C3.166,0 0.75,2.138 0.75,5L4.75,5C4.75,4.548 5.169,4 5.917,4L5.917,0ZM9.291,10.952L14.041,15.452L16.792,12.548L12.042,8.048L9.291,10.952ZM14.041,12.548L9.291,17.048L12.042,19.952L16.792,15.452L14.041,12.548ZM18.583,20.5L23.333,20.5L23.333,16.5L18.583,16.5L18.583,20.5Z" fill="#111827"/>
</svg>
