<svg width="28" height="26" viewBox="0 0 28 26" fill="none" xmlns="http://www.w3.org/2000/svg" xmlns:xlink="http://www.w3.org/1999/xlink">
<path d="M-0.6,11.3C-0.6,14.006 2.064,16.2 5.35,16.2L11.3,16.2L11.3,19.82L9.102,18.01C8.438,17.463 7.362,17.463 6.698,18.01C6.034,18.557 6.034,19.443 6.698,19.99L11.798,24.19C12.462,24.737 13.538,24.737 14.202,24.19L19.302,19.99C19.966,19.443 19.966,18.557 19.302,18.01C18.638,17.463 17.562,17.463 16.898,18.01L14.7,19.82L14.7,16.2L18.95,16.2C23.175,16.2 26.6,13.379 26.6,9.9C26.6,6.421 23.175,3.6 18.95,3.6C18.595,3.6 18.246,3.62 17.904,3.658C17.174,1.214 14.494,-0.6 11.3,-0.6C7.544,-0.6 4.5,1.907 4.5,5C4.5,5.493 4.577,5.971 4.723,6.427C1.732,6.685 -0.6,8.768 -0.6,11.3ZM14.7,16.2L11.3,16.2L11.3,9.2C11.3,8.427 12.061,7.8 13,7.8C13.939,7.8 14.7,8.427 14.7,9.2L14.7,16.2Z" clip-rule="evenodd" fill-rule="evenodd" fill="#111827"/>
</svg>
