<svg width="32" height="30" viewBox="0 0 32 30" fill="none" xmlns="http://www.w3.org/2000/svg" xmlns:xlink="http://www.w3.org/1999/xlink">
<path d="M12.25,10.75L12.869,8.848C12.129,8.607 11.316,8.818 10.786,9.387C10.256,9.957 10.104,10.782 10.397,11.503L12.25,10.75ZM18.583,26.333L16.73,27.086C17.032,27.829 17.748,28.319 18.549,28.333C19.35,28.347 20.082,27.881 20.409,27.15L18.583,26.333ZM21.75,19.25L21.076,17.367C20.563,17.551 20.147,17.936 19.924,18.434L21.75,19.25ZM29.667,16.417L30.341,18.3C31.146,18.011 31.679,17.243 31.666,16.388C31.654,15.532 31.099,14.779 30.285,14.515L29.667,16.417ZM28.333,27.824C29.156,28.56 30.421,28.49 31.157,27.667C31.894,26.844 31.823,25.579 31,24.843L28.333,27.824ZM11.297,0.597C10.98,-0.461 9.866,-1.062 8.808,-0.745C7.749,-0.428 7.148,0.687 7.465,1.745L11.297,0.597ZM8.695,5.85C9.012,6.908 10.126,7.509 11.184,7.192C12.243,6.875 12.844,5.761 12.527,4.703L8.695,5.85ZM5.666,11.228C6.74,11.486 7.82,10.824 8.077,9.75C8.335,8.676 7.673,7.596 6.599,7.338L5.666,11.228ZM2.01,6.238C0.936,5.981 -0.143,6.643 -0.401,7.717C-0.658,8.791 0.004,9.871 1.078,10.128L2.01,6.238ZM21.421,5.228C22.244,4.492 22.314,3.228 21.578,2.404C20.841,1.581 19.577,1.511 18.753,2.247L21.421,5.228ZM15.395,5.253C14.571,5.989 14.501,7.254 15.238,8.077C15.974,8.9 17.239,8.97 18.062,8.234L15.395,5.253ZM9.105,16.247C9.928,15.511 9.999,14.246 9.262,13.423C8.526,12.6 7.261,12.53 6.438,13.266L9.105,16.247ZM3.079,16.272C2.256,17.008 2.186,18.272 2.922,19.096C3.659,19.919 4.923,19.989 5.747,19.253L3.079,16.272ZM10.397,11.503L16.73,27.086L20.436,25.58L14.103,9.997L10.397,11.503ZM20.409,27.15L23.576,20.066L19.924,18.434L16.757,25.517L20.409,27.15ZM22.424,21.133L30.341,18.3L28.993,14.534L21.076,17.367L22.424,21.133ZM30.285,14.515L12.869,8.848L11.631,12.652L29.048,18.319L30.285,14.515ZM20.416,20.74L28.333,27.824L31,24.843L23.084,17.76L20.416,20.74ZM7.465,1.745L8.695,5.85L12.527,4.703L11.297,0.597L7.465,1.745ZM6.599,7.338L2.01,6.238L1.078,10.128L5.666,11.228L6.599,7.338ZM18.753,2.247L15.395,5.253L18.062,8.234L21.421,5.228L18.753,2.247ZM6.438,13.266L3.079,16.272L5.747,19.253L9.105,16.247L6.438,13.266Z" fill="#111827"/>
</svg>
