<svg width="28" height="32" viewBox="0 0 28 32" fill="none" xmlns="http://www.w3.org/2000/svg" xmlns:xlink="http://www.w3.org/1999/xlink">
<path d="M8.25,6.5C7.145,6.5 6.25,7.395 6.25,8.5C6.25,9.605 7.145,10.5 8.25,10.5L8.25,6.5ZM17.75,10.5C18.855,10.5 19.75,9.605 19.75,8.5C19.75,7.395 18.855,6.5 17.75,6.5L17.75,10.5ZM15.75,23.5C15.75,24.605 16.645,25.5 17.75,25.5C18.855,25.5 19.75,24.605 19.75,23.5L15.75,23.5ZM19.75,19C19.75,17.895 18.855,17 17.75,17C16.645,17 15.75,17.895 15.75,19L19.75,19ZM13,21.5C11.895,21.5 11,22.395 11,23.5C11,24.605 11.895,25.5 13,25.5L13,21.5ZM13.016,25.5C14.12,25.5 15.016,24.605 15.016,23.5C15.016,22.395 14.12,21.5 13.016,21.5L13.016,25.5ZM8.25,21.5C7.145,21.5 6.25,22.395 6.25,23.5C6.25,24.605 7.145,25.5 8.25,25.5L8.25,21.5ZM8.266,25.5C9.37,25.5 10.266,24.605 10.266,23.5C10.266,22.395 9.37,21.5 8.266,21.5L8.266,25.5ZM8.25,17C7.145,17 6.25,17.895 6.25,19C6.25,20.105 7.145,21 8.25,21L8.25,17ZM8.266,21C9.37,21 10.266,20.105 10.266,19C10.266,17.895 9.37,17 8.266,17L8.266,21ZM13,17C11.895,17 11,17.895 11,19C11,20.105 11.895,21 13,21L13,17ZM13.016,21C14.12,21 15.016,20.105 15.016,19C15.016,17.895 14.12,17 13.016,17L13.016,21ZM17.75,12.5C16.645,12.5 15.75,13.395 15.75,14.5C15.75,15.605 16.645,16.5 17.75,16.5L17.75,12.5ZM17.766,16.5C18.87,16.5 19.766,15.605 19.766,14.5C19.766,13.395 18.87,12.5 17.766,12.5L17.766,16.5ZM13,12.5C11.895,12.5 11,13.395 11,14.5C11,15.605 11.895,16.5 13,16.5L13,12.5ZM13.016,16.5C14.12,16.5 15.016,15.605 15.016,14.5C15.016,13.395 14.12,12.5 13.016,12.5L13.016,16.5ZM8.25,12.5C7.145,12.5 6.25,13.395 6.25,14.5C6.25,15.605 7.145,16.5 8.25,16.5L8.25,12.5ZM8.266,16.5C9.37,16.5 10.266,15.605 10.266,14.5C10.266,13.395 9.37,12.5 8.266,12.5L8.266,16.5ZM5.083,4.5L20.917,4.5L20.917,0.5L5.083,0.5L5.083,4.5ZM22.083,5.5L22.083,26.5L26.083,26.5L26.083,5.5L22.083,5.5ZM20.917,27.5L5.083,27.5L5.083,31.5L20.917,31.5L20.917,27.5ZM3.917,26.5L3.917,5.5L-0.083,5.5L-0.083,26.5L3.917,26.5ZM5.083,27.5C4.336,27.5 3.917,26.952 3.917,26.5L-0.083,26.5C-0.083,29.362 2.333,31.5 5.083,31.5L5.083,27.5ZM22.083,26.5C22.083,26.952 21.664,27.5 20.917,27.5L20.917,31.5C23.667,31.5 26.083,29.362 26.083,26.5L22.083,26.5ZM20.917,4.5C21.664,4.5 22.083,5.048 22.083,5.5L26.083,5.5C26.083,2.638 23.667,0.5 20.917,0.5L20.917,4.5ZM5.083,0.5C2.333,0.5 -0.083,2.638 -0.083,5.5L3.917,5.5C3.917,5.048 4.336,4.5 5.083,4.5L5.083,0.5ZM8.25,10.5L17.75,10.5L17.75,6.5L8.25,6.5L8.25,10.5ZM19.75,23.5L19.75,19L15.75,19L15.75,23.5L19.75,23.5ZM13,25.5L13.016,25.5L13.016,21.5L13,21.5L13,25.5ZM8.25,25.5L8.266,25.5L8.266,21.5L8.25,21.5L8.25,25.5ZM8.25,21L8.266,21L8.266,17L8.25,17L8.25,21ZM13,21L13.016,21L13.016,17L13,17L13,21ZM17.75,16.5L17.766,16.5L17.766,12.5L17.75,12.5L17.75,16.5ZM13,16.5L13.016,16.5L13.016,12.5L13,12.5L13,16.5ZM8.25,16.5L8.266,16.5L8.266,12.5L8.25,12.5L8.25,16.5Z" fill="#111827"/>
</svg>
