<svg width="26" height="26" viewBox="0 0 26 26" fill="none" xmlns="http://www.w3.org/2000/svg" xmlns:xlink="http://www.w3.org/1999/xlink">
<path d="M12,24.8C19.069,24.8 24.8,19.069 24.8,12C24.8,4.931 19.069,-0.8 12,-0.8C4.931,-0.8 -0.8,4.931 -0.8,12C-0.8,19.069 4.931,24.8 12,24.8ZM7.2,10.4C8.084,10.4 8.8,9.684 8.8,8.8C8.8,7.916 8.084,7.2 7.2,7.2C6.316,7.2 5.6,7.916 5.6,8.8C5.6,9.684 6.316,10.4 7.2,10.4ZM18.4,8.8C18.4,9.684 17.684,10.4 16.8,10.4C15.916,10.4 15.2,9.684 15.2,8.8C15.2,7.916 15.916,7.2 16.8,7.2C17.684,7.2 18.4,7.916 18.4,8.8ZM17.657,17.657C18.282,17.032 18.282,16.019 17.657,15.394C17.032,14.769 16.019,14.769 15.394,15.394C13.52,17.268 10.48,17.268 8.606,15.394C7.981,14.769 6.968,14.769 6.343,15.394C5.718,16.019 5.718,17.032 6.343,17.657C9.467,20.781 14.533,20.781 17.657,17.657Z" clip-rule="evenodd" fill-rule="evenodd" fill="#111827"/>
</svg>
