<svg width="34" height="22" viewBox="0 0 34 22" fill="none" xmlns="http://www.w3.org/2000/svg" xmlns:xlink="http://www.w3.org/1999/xlink">
<path d="M5.917,3L28.083,3L28.083,-1L5.917,-1L5.917,3ZM29.25,4L29.25,16L33.25,16L33.25,4L29.25,4ZM28.083,17L5.917,17L5.917,21L28.083,21L28.083,17ZM4.75,16L4.75,4L0.75,4L0.75,16L4.75,16ZM5.917,17C5.169,17 4.75,16.452 4.75,16L0.75,16C0.75,18.862 3.166,21 5.917,21L5.917,17ZM29.25,16C29.25,16.452 28.831,17 28.083,17L28.083,21C30.834,21 33.25,18.862 33.25,16L29.25,16ZM28.083,3C28.831,3 29.25,3.548 29.25,4L33.25,4C33.25,1.138 30.834,-1 28.083,-1L28.083,3ZM5.917,-1C3.166,-1 0.75,1.138 0.75,4L4.75,4C4.75,3.548 5.169,3 5.917,3L5.917,-1ZM2.75,9L31.25,9L31.25,5L2.75,5L2.75,9ZM2.75,15L31.25,15L31.25,11L2.75,11L2.75,15ZM15,7L15,19L19,19L19,7L15,7Z" fill="#111827"/>
</svg>
