<svg width="24" height="24" viewBox="0 0 24 24" fill="none" xmlns="http://www.w3.org/2000/svg" xmlns:xlink="http://www.w3.org/1999/xlink">
<path d="M2.5,0.8C0.622,0.8 -0.9,2.054 -0.9,3.6L-0.9,23.2L5.05,20.4L11,23.2L16.95,20.4L22.9,23.2L22.9,3.6C22.9,2.054 21.378,0.8 19.5,0.8L2.5,0.8ZM6.75,5C5.342,5 4.2,5.94 4.2,7.1C4.2,8.26 5.342,9.2 6.75,9.2C8.158,9.2 9.3,8.26 9.3,7.1C9.3,5.94 8.158,5 6.75,5ZM17.302,5.41C16.638,4.863 15.562,4.863 14.898,5.41L4.698,13.81C4.034,14.357 4.034,15.243 4.698,15.79C5.362,16.337 6.438,16.337 7.102,15.79L17.302,7.39C17.966,6.843 17.966,5.957 17.302,5.41ZM15.25,12C13.842,12 12.7,12.94 12.7,14.1C12.7,15.26 13.842,16.2 15.25,16.2C16.658,16.2 17.8,15.26 17.8,14.1C17.8,12.94 16.658,12 15.25,12Z" clip-rule="evenodd" fill-rule="evenodd" fill="#111827"/>
</svg>
