<svg width="28" height="22" viewBox="0 0 28 22" fill="none" xmlns="http://www.w3.org/2000/svg" xmlns:xlink="http://www.w3.org/1999/xlink">
<path d="M2.8,0.5C0.922,0.5 -0.6,1.843 -0.6,3.5C-0.6,5.157 0.922,6.5 2.8,6.5L23.2,6.5C25.078,6.5 26.6,5.157 26.6,3.5C26.6,1.843 25.078,0.5 23.2,0.5L2.8,0.5Z" fill="#111827"/>
<path d="M1.1,8L24.9,8L24.9,18.5C24.9,20.157 23.378,21.5 21.5,21.5L4.5,21.5C2.622,21.5 1.1,20.157 1.1,18.5L1.1,8ZM9.6,12.5C9.6,11.672 10.361,11 11.3,11L14.7,11C15.639,11 16.4,11.672 16.4,12.5C16.4,13.328 15.639,14 14.7,14L11.3,14C10.361,14 9.6,13.328 9.6,12.5Z" clip-rule="evenodd" fill-rule="evenodd" fill="#111827"/>
</svg>
