<svg width="30" height="8" viewBox="0 0 30 8" fill="none" xmlns="http://www.w3.org/2000/svg" xmlns:xlink="http://www.w3.org/1999/xlink">
<path d="M4.5,2C3.395,2 2.5,2.895 2.5,4C2.5,5.105 3.395,6 4.5,6L4.5,2ZM4.515,6C5.62,6 6.515,5.105 6.515,4C6.515,2.895 5.62,2 4.515,2L4.515,6ZM15,2C13.895,2 13,2.895 13,4C13,5.105 13.895,6 15,6L15,2ZM15.015,6C16.12,6 17.015,5.105 17.015,4C17.015,2.895 16.12,2 15.015,2L15.015,6ZM25.5,2C24.395,2 23.5,2.895 23.5,4C23.5,5.105 24.395,6 25.5,6L25.5,2ZM25.515,6C26.62,6 27.515,5.105 27.515,4C27.515,2.895 26.62,2 25.515,2L25.515,6ZM4,4C4,3.92 4.032,3.825 4.109,3.744C4.187,3.661 4.326,3.583 4.5,3.583L4.5,7.583C6.533,7.583 8,5.876 8,4L4,4ZM4.5,3.583C4.674,3.583 4.813,3.661 4.891,3.744C4.968,3.825 5,3.92 5,4L1,4C1,5.876 2.466,7.583 4.5,7.583L4.5,3.583ZM5,4C5,4.08 4.968,4.175 4.891,4.256C4.813,4.339 4.674,4.417 4.5,4.417L4.5,0.417C2.466,0.417 1,2.124 1,4L5,4ZM4.5,4.417C4.326,4.417 4.187,4.339 4.109,4.256C4.032,4.175 4,4.08 4,4L8,4C8,2.124 6.533,0.417 4.5,0.417L4.5,4.417ZM14.5,4C14.5,3.92 14.532,3.825 14.609,3.744C14.687,3.661 14.826,3.583 15,3.583L15,7.583C17.033,7.583 18.5,5.876 18.5,4L14.5,4ZM15,3.583C15.174,3.583 15.313,3.661 15.391,3.744C15.468,3.825 15.5,3.92 15.5,4L11.5,4C11.5,5.876 12.966,7.583 15,7.583L15,3.583ZM15.5,4C15.5,4.08 15.468,4.175 15.391,4.256C15.313,4.339 15.174,4.417 15,4.417L15,0.417C12.966,0.417 11.5,2.124 11.5,4L15.5,4ZM15,4.417C14.826,4.417 14.687,4.339 14.609,4.256C14.532,4.175 14.5,4.08 14.5,4L18.5,4C18.5,2.124 17.033,0.417 15,0.417L15,4.417ZM25,4C25,3.92 25.032,3.825 25.109,3.744C25.187,3.661 25.326,3.583 25.5,3.583L25.5,7.583C27.534,7.583 29,5.876 29,4L25,4ZM25.5,3.583C25.674,3.583 25.813,3.661 25.891,3.744C25.968,3.825 26,3.92 26,4L22,4C22,5.876 23.466,7.583 25.5,7.583L25.5,3.583ZM26,4C26,4.08 25.968,4.175 25.891,4.256C25.813,4.339 25.674,4.417 25.5,4.417L25.5,0.417C23.466,0.417 22,2.124 22,4L26,4ZM25.5,4.417C25.326,4.417 25.187,4.339 25.109,4.256C25.032,4.175 25,4.08 25,4L29,4C29,2.124 27.534,0.417 25.5,0.417L25.5,4.417ZM4.5,6L4.515,6L4.515,2L4.5,2L4.5,6ZM15,6L15.015,6L15.015,2L15,2L15,6ZM25.5,6L25.515,6L25.515,2L25.5,2L25.5,6Z" transform="rotate(180 15 4)" fill="#111827"/>
</svg>
