<svg width="28" height="18" viewBox="0 0 28 18" fill="none" xmlns="http://www.w3.org/2000/svg" xmlns:xlink="http://www.w3.org/1999/xlink">
<path d="M2.8,0C0.922,0 -0.6,1.343 -0.6,3L-0.6,15C-0.6,16.657 0.922,18 2.8,18L23.2,18C25.078,18 26.6,16.657 26.6,15L26.6,6C26.6,4.343 25.078,3 23.2,3L14.7,3L11.3,0L2.8,0ZM9.6,9C8.661,9 7.9,9.672 7.9,10.5C7.9,11.328 8.661,12 9.6,12L16.4,12C17.339,12 18.1,11.328 18.1,10.5C18.1,9.672 17.339,9 16.4,9L9.6,9Z" clip-rule="evenodd" fill-rule="evenodd" fill="#111827"/>
</svg>
