<svg width="32" height="24" viewBox="0 0 32 24" fill="none" xmlns="http://www.w3.org/2000/svg" xmlns:xlink="http://www.w3.org/1999/xlink">
<path d="M2.667,1C1.562,1 0.667,1.895 0.667,3C0.667,4.105 1.562,5 2.667,5L2.667,1ZM29.333,5C30.438,5 31.333,4.105 31.333,3C31.333,1.895 30.438,1 29.333,1L29.333,5ZM2.667,10C1.562,10 0.667,10.895 0.667,12C0.667,13.105 1.562,14 2.667,14L2.667,10ZM29.333,14C30.438,14 31.333,13.105 31.333,12C31.333,10.895 30.438,10 29.333,10L29.333,14ZM17.667,19C16.562,19 15.667,19.895 15.667,21C15.667,22.105 16.562,23 17.667,23L17.667,19ZM29.333,23C30.438,23 31.333,22.105 31.333,21C31.333,19.895 30.438,19 29.333,19L29.333,23ZM2.667,5L29.333,5L29.333,1L2.667,1L2.667,5ZM2.667,14L29.333,14L29.333,10L2.667,10L2.667,14ZM17.667,23L29.333,23L29.333,19L17.667,19L17.667,23Z" fill="#111827"/>
</svg>
