<svg width="34" height="28" viewBox="0 0 34 28" fill="none" xmlns="http://www.w3.org/2000/svg" xmlns:xlink="http://www.w3.org/1999/xlink">
<path d="M9.333,8.5C10.438,8.5 11.333,7.605 11.333,6.5C11.333,5.395 10.438,4.5 9.333,4.5L9.333,8.5ZM22.667,4.5C21.562,4.5 20.667,5.395 20.667,6.5C20.667,7.605 21.562,8.5 22.667,8.5L22.667,4.5ZM22.338,13.987C23.159,13.248 23.226,11.983 22.487,11.162C21.748,10.341 20.483,10.274 19.662,11.013L22.338,13.987ZM16,17L14.662,18.487C15.423,19.171 16.577,19.171 17.338,18.487L16,17ZM12.338,11.013C11.517,10.274 10.252,10.341 9.513,11.162C8.774,11.983 8.841,13.248 9.662,13.987L12.338,11.013ZM18,2C18,0.895 17.105,0 16,0C14.895,0 14,0.895 14,2L18,2ZM29,9.5L29,23L33,23L33,9.5L29,9.5ZM27.667,24L4.333,24L4.333,28L27.667,28L27.667,24ZM3,23L3,9.5L-1,9.5L-1,23L3,23ZM4.333,24C3.394,24 3,23.359 3,23L-1,23C-1,25.954 1.591,28 4.333,28L4.333,24ZM29,23C29,23.359 28.606,24 27.667,24L27.667,28C30.409,28 33,25.954 33,23L29,23ZM27.667,8.5C28.606,8.5 29,9.141 29,9.5L33,9.5C33,6.546 30.409,4.5 27.667,4.5L27.667,8.5ZM4.333,4.5C1.591,4.5 -1,6.546 -1,9.5L3,9.5C3,9.141 3.394,8.5 4.333,8.5L4.333,4.5ZM4.333,8.5L9.333,8.5L9.333,4.5L4.333,4.5L4.333,8.5ZM27.667,4.5L22.667,4.5L22.667,8.5L27.667,8.5L27.667,4.5ZM19.662,11.013L14.662,15.513L17.338,18.487L22.338,13.987L19.662,11.013ZM17.338,15.513L12.338,11.013L9.662,13.987L14.662,18.487L17.338,15.513ZM18,17L18,2L14,2L14,17L18,17Z" fill="#111827"/>
</svg>
