<svg width="34" height="32" viewBox="0 0 34 32" fill="none" xmlns="http://www.w3.org/2000/svg" xmlns:xlink="http://www.w3.org/1999/xlink">
<path d="M14.667,11.5C14.667,10.395 13.771,9.5 12.667,9.5C11.562,9.5 10.667,10.395 10.667,11.5L14.667,11.5ZM10.667,20.5C10.667,21.605 11.562,22.5 12.667,22.5C13.771,22.5 14.667,21.605 14.667,20.5L10.667,20.5ZM21.333,11.5C21.333,10.395 20.438,9.5 19.333,9.5C18.229,9.5 17.333,10.395 17.333,11.5L21.333,11.5ZM17.333,20.5C17.333,21.605 18.229,22.5 19.333,22.5C20.438,22.5 21.333,21.605 21.333,20.5L17.333,20.5ZM29,16C29,22.158 23.383,27.5 16,27.5L16,31.5C25.185,31.5 33,24.753 33,16L29,16ZM16,27.5C8.617,27.5 3,22.158 3,16L-1,16C-1,24.753 6.815,31.5 16,31.5L16,27.5ZM3,16C3,9.842 8.617,4.5 16,4.5L16,0.5C6.815,0.5 -1,7.247 -1,16L3,16ZM16,4.5C23.383,4.5 29,9.842 29,16L33,16C33,7.247 25.185,0.5 16,0.5L16,4.5ZM10.667,11.5L10.667,20.5L14.667,20.5L14.667,11.5L10.667,11.5ZM17.333,11.5L17.333,20.5L21.333,20.5L21.333,11.5L17.333,11.5Z" fill="#111827"/>
</svg>
