<svg width="26" height="24" viewBox="0 0 26 24" fill="none" xmlns="http://www.w3.org/2000/svg" xmlns:xlink="http://www.w3.org/1999/xlink">
<path d="M24.8,12C24.8,18.186 19.069,23.2 12,23.2C4.931,23.2 -0.8,18.186 -0.8,12C-0.8,5.814 4.931,0.8 12,0.8C19.069,0.8 24.8,5.814 24.8,12ZM21.6,12C21.6,13.39 21.214,14.7 20.532,15.855L18.092,13.721C18.292,13.179 18.4,12.6 18.4,12C18.4,11.54 18.337,11.093 18.217,10.665L20.717,8.477C21.284,9.548 21.6,10.742 21.6,12ZM13.335,17.478L15.865,19.691C14.683,20.147 13.375,20.4 12,20.4C10.562,20.4 9.198,20.123 7.974,19.628L10.474,17.44C10.963,17.545 11.474,17.6 12,17.6C12.458,17.6 12.905,17.558 13.335,17.478ZM5.853,13.564C5.688,13.068 5.6,12.543 5.6,12C5.6,11.535 5.665,11.084 5.787,10.652L5.66,10.762L3.21,8.618C2.689,9.653 2.4,10.797 2.4,12C2.4,13.335 2.756,14.598 3.39,15.719L5.853,13.564ZM7.594,4.535C8.914,3.937 10.412,3.6 12,3.6C13.526,3.6 14.969,3.912 16.25,4.466L13.787,6.621C13.22,6.477 12.62,6.4 12,6.4C11.314,6.4 10.653,6.494 10.034,6.669L7.594,4.535ZM15.2,12C15.2,13.546 13.767,14.8 12,14.8C10.233,14.8 8.8,13.546 8.8,12C8.8,10.454 10.233,9.2 12,9.2C13.767,9.2 15.2,10.454 15.2,12Z" clip-rule="evenodd" fill-rule="evenodd" fill="#111827"/>
</svg>
