<svg width="26" height="16" viewBox="0 0 26 16" fill="none" xmlns="http://www.w3.org/2000/svg" xmlns:xlink="http://www.w3.org/1999/xlink">
<path d="M8.331,6.41C7.706,5.863 6.693,5.863 6.069,6.41C5.444,6.957 5.444,7.843 6.069,8.39L10.869,12.59C11.493,13.137 12.506,13.137 13.131,12.59L17.931,8.39C18.556,7.843 18.556,6.957 17.931,6.41C17.306,5.863 16.293,5.863 15.669,6.41L13.6,8.22L13.6,0.4L21.6,0.4C23.367,0.4 24.8,1.654 24.8,3.2L24.8,13C24.8,14.546 23.367,15.8 21.6,15.8L2.4,15.8C0.633,15.8 -0.8,14.546 -0.8,13L-0.8,3.2C-0.8,1.654 0.633,0.4 2.4,0.4L10.4,0.4L10.4,8.22L8.331,6.41Z" fill="#111827"/>
</svg>
