<svg width="28" height="32" viewBox="0 0 28 32" fill="none" xmlns="http://www.w3.org/2000/svg" xmlns:xlink="http://www.w3.org/1999/xlink">
<path d="M16.155,2.939L14.817,4.426L14.817,4.426L16.155,2.939ZM25.179,11.061L26.517,9.574L26.517,9.574L25.179,11.061ZM9,15.5C7.895,15.5 7,16.395 7,17.5C7,18.605 7.895,19.5 9,19.5L9,15.5ZM19,19.5C20.105,19.5 21,18.605 21,17.5C21,16.395 20.105,15.5 19,15.5L19,19.5ZM22.333,27.5L5.667,27.5L5.667,31.5L22.333,31.5L22.333,27.5ZM4.333,26.5L4.333,5.5L0.333,5.5L0.333,26.5L4.333,26.5ZM5.667,4.5L14.976,4.5L14.976,0.5L5.667,0.5L5.667,4.5ZM23.667,12.121L23.667,26.5L27.667,26.5L27.667,12.121L23.667,12.121ZM14.817,4.426L23.841,12.547L26.517,9.574L17.493,1.453L14.817,4.426ZM27.667,12.121C27.667,11.121 27.223,10.21 26.517,9.574L23.841,12.547C23.759,12.474 23.667,12.326 23.667,12.121L27.667,12.121ZM14.976,4.5C14.96,4.5 14.94,4.497 14.916,4.488C14.891,4.479 14.856,4.461 14.817,4.426L17.493,1.453C16.793,0.823 15.885,0.5 14.976,0.5L14.976,4.5ZM5.667,27.5C4.727,27.5 4.333,26.859 4.333,26.5L0.333,26.5C0.333,29.454 2.925,31.5 5.667,31.5L5.667,27.5ZM22.333,31.5C25.075,31.5 27.667,29.454 27.667,26.5L23.667,26.5C23.667,26.859 23.273,27.5 22.333,27.5L22.333,31.5ZM4.333,5.5C4.333,5.141 4.727,4.5 5.667,4.5L5.667,0.5C2.925,0.5 0.333,2.546 0.333,5.5L4.333,5.5ZM9,19.5L19,19.5L19,15.5L9,15.5L9,19.5Z" fill="#111827"/>
</svg>
