<svg width="30" height="28" viewBox="0 0 30 28" fill="none" xmlns="http://www.w3.org/2000/svg" xmlns:xlink="http://www.w3.org/1999/xlink">
<path d="M0.333,8C0.333,9.105 1.229,10 2.333,10C3.438,10 4.333,9.105 4.333,8L0.333,8ZM2.333,2L2.333,0C1.229,0 0.333,0.895 0.333,2L2.333,2ZM8.667,4C9.771,4 10.667,3.105 10.667,2C10.667,0.895 9.771,0 8.667,0L8.667,4ZM25.667,8C25.667,9.105 26.562,10 27.667,10C28.771,10 29.667,9.105 29.667,8L25.667,8ZM27.667,2L29.667,2C29.667,0.895 28.771,0 27.667,0L27.667,2ZM21.333,0C20.229,0 19.333,0.895 19.333,2C19.333,3.105 20.229,4 21.333,4L21.333,0ZM4.333,20C4.333,18.895 3.438,18 2.333,18C1.229,18 0.333,18.895 0.333,20L4.333,20ZM2.333,26L0.333,26C0.333,27.105 1.229,28 2.333,28L2.333,26ZM8.667,28C9.771,28 10.667,27.105 10.667,26C10.667,24.895 9.771,24 8.667,24L8.667,28ZM11.625,19.952C12.427,19.192 12.462,17.926 11.702,17.125C10.942,16.323 9.676,16.288 8.875,17.048L11.625,19.952ZM18.375,8.048C17.573,8.808 17.538,10.074 18.298,10.875C19.058,11.677 20.324,11.712 21.125,10.952L18.375,8.048ZM8.875,10.952C9.676,11.712 10.942,11.677 11.702,10.875C12.462,10.074 12.427,8.808 11.625,8.048L8.875,10.952ZM27.667,26L27.667,28C28.771,28 29.667,27.105 29.667,26L27.667,26ZM21.125,17.048C20.324,16.288 19.058,16.323 18.298,17.125C17.538,17.926 17.573,19.192 18.375,19.952L21.125,17.048ZM29.667,20C29.667,18.895 28.771,18 27.667,18C26.562,18 25.667,18.895 25.667,20L29.667,20ZM21.333,24C20.229,24 19.333,24.895 19.333,26C19.333,27.105 20.229,28 21.333,28L21.333,24ZM4.333,8L4.333,2L0.333,2L0.333,8L4.333,8ZM2.333,4L8.667,4L8.667,0L2.333,0L2.333,4ZM29.667,8L29.667,2L25.667,2L25.667,8L29.667,8ZM27.667,0L21.333,0L21.333,4L27.667,4L27.667,0ZM0.333,20L0.333,26L4.333,26L4.333,20L0.333,20ZM2.333,28L8.667,28L8.667,24L2.333,24L2.333,28ZM3.709,27.452L11.625,19.952L8.875,17.048L0.958,24.548L3.709,27.452ZM21.125,10.952L29.042,3.452L26.291,0.548L18.375,8.048L21.125,10.952ZM11.625,8.048L3.709,0.548L0.958,3.452L8.875,10.952L11.625,8.048ZM29.042,24.548L21.125,17.048L18.375,19.952L26.291,27.452L29.042,24.548ZM25.667,20L25.667,26L29.667,26L29.667,20L25.667,20ZM27.667,24L21.333,24L21.333,28L27.667,28L27.667,24Z" fill="#111827"/>
</svg>
