<svg width="34" height="32" viewBox="0 0 34 32" fill="none" xmlns="http://www.w3.org/2000/svg" xmlns:xlink="http://www.w3.org/1999/xlink">
<path d="M29.25,16C29.25,22.251 23.869,27.5 17,27.5L17,31.5C25.871,31.5 33.25,24.661 33.25,16L29.25,16ZM17,27.5C10.131,27.5 4.75,22.251 4.75,16L0.75,16C0.75,24.661 8.129,31.5 17,31.5L17,27.5ZM4.75,16C4.75,9.749 10.131,4.5 17,4.5L17,0.5C8.129,0.5 0.75,7.339 0.75,16L4.75,16ZM17,4.5C23.869,4.5 29.25,9.749 29.25,16L33.25,16C33.25,7.339 25.871,0.5 17,0.5L17,4.5ZM19.75,16C19.75,19.563 19.239,22.704 18.472,24.882C18.086,25.98 17.672,26.727 17.311,27.16C16.941,27.605 16.826,27.5 17,27.5L17,31.5C18.485,31.5 19.62,30.64 20.386,29.718C21.163,28.785 21.772,27.554 22.245,26.21C23.198,23.502 23.75,19.892 23.75,16L19.75,16ZM17,27.5C17.174,27.5 17.059,27.605 16.689,27.16C16.328,26.727 15.914,25.98 15.528,24.882C14.761,22.704 14.25,19.563 14.25,16L10.25,16C10.25,19.892 10.802,23.502 11.755,26.21C12.228,27.554 12.837,28.785 13.614,29.718C14.38,30.64 15.515,31.5 17,31.5L17,27.5ZM14.25,16C14.25,12.437 14.761,9.296 15.528,7.118C15.914,6.02 16.328,5.273 16.689,4.84C17.059,4.395 17.174,4.5 17,4.5L17,0.5C15.515,0.5 14.38,1.36 13.614,2.282C12.837,3.215 12.228,4.446 11.755,5.79C10.802,8.498 10.25,12.108 10.25,16L14.25,16ZM17,4.5C16.826,4.5 16.941,4.395 17.311,4.84C17.672,5.273 18.086,6.02 18.472,7.118C19.239,9.296 19.75,12.437 19.75,16L23.75,16C23.75,12.108 23.198,8.498 22.245,5.79C21.772,4.446 21.163,3.215 20.386,2.282C19.62,1.36 18.485,0.5 17,0.5L17,4.5ZM2.75,18L31.25,18L31.25,14L2.75,14L2.75,18Z" fill="#111827"/>
</svg>
