<svg width="34" height="32" viewBox="0 0 34 32" fill="none" xmlns="http://www.w3.org/2000/svg" xmlns:xlink="http://www.w3.org/1999/xlink">
<path d="M23.125,18.952C23.927,18.192 23.962,16.926 23.202,16.125C22.442,15.323 21.176,15.288 20.375,16.048L23.125,18.952ZM17,22L15.625,23.452C16.396,24.183 17.604,24.183 18.375,23.452L17,22ZM13.625,16.048C12.824,15.288 11.558,15.323 10.798,16.125C10.038,16.926 10.073,18.192 10.875,18.952L13.625,16.048ZM19,10C19,8.895 18.105,8 17,8C15.895,8 15,8.895 15,10L19,10ZM20.375,16.048L15.625,20.548L18.375,23.452L23.125,18.952L20.375,16.048ZM18.375,20.548L13.625,16.048L10.875,18.952L15.625,23.452L18.375,20.548ZM19,22L19,10L15,10L15,22L19,22ZM17,27.5C10.131,27.5 4.75,22.251 4.75,16L0.75,16C0.75,24.661 8.129,31.5 17,31.5L17,27.5ZM4.75,16C4.75,9.749 10.131,4.5 17,4.5L17,0.5C8.129,0.5 0.75,7.339 0.75,16L4.75,16ZM17,4.5C23.869,4.5 29.25,9.749 29.25,16L33.25,16C33.25,7.339 25.871,0.5 17,0.5L17,4.5ZM29.25,16C29.25,22.251 23.869,27.5 17,27.5L17,31.5C25.871,31.5 33.25,24.661 33.25,16L29.25,16Z" fill="#111827"/>
</svg>
