<svg width="28" height="24" viewBox="0 0 28 24" fill="none" xmlns="http://www.w3.org/2000/svg" xmlns:xlink="http://www.w3.org/1999/xlink">
<path d="M26.6,9.2C26.6,13.839 22.033,17.6 16.4,17.6C15.37,17.6 14.375,17.474 13.437,17.24L9.6,20.4L6.2,20.4L6.2,23.2L-0.6,23.2L-0.6,17.6L6.637,11.64C6.353,10.868 6.2,10.049 6.2,9.2C6.2,4.561 10.767,0.8 16.4,0.8C22.033,0.8 26.6,4.561 26.6,9.2ZM16.4,3.6C15.461,3.6 14.7,4.227 14.7,5C14.7,5.773 15.461,6.4 16.4,6.4C18.278,6.4 19.8,7.654 19.8,9.2C19.8,9.973 20.561,10.6 21.5,10.6C22.439,10.6 23.2,9.973 23.2,9.2C23.2,6.107 20.156,3.6 16.4,3.6Z" clip-rule="evenodd" fill-rule="evenodd" fill="#111827"/>
</svg>
