<svg width="36" height="24" viewBox="0 0 36 24" fill="none" xmlns="http://www.w3.org/2000/svg" xmlns:xlink="http://www.w3.org/1999/xlink">
<path d="M6.055,23.032C6.876,23.771 8.141,23.705 8.88,22.884C9.619,22.063 9.552,20.798 8.731,20.059L6.055,23.032ZM8.731,3.941C9.552,3.202 9.619,1.937 8.88,1.116C8.141,0.295 6.876,0.229 6.055,0.967L8.731,3.941ZM29.945,0.967C29.124,0.229 27.859,0.295 27.12,1.116C26.381,1.937 26.448,3.202 27.269,3.941L29.945,0.967ZM27.269,20.059C26.448,20.798 26.381,22.063 27.12,22.884C27.859,23.705 29.124,23.771 29.945,23.032L27.269,20.059ZM10.77,18.79C11.591,19.529 12.855,19.462 13.594,18.641C14.333,17.82 14.266,16.556 13.445,15.817L10.77,18.79ZM13.445,8.183C14.266,7.444 14.333,6.18 13.594,5.359C12.855,4.538 11.591,4.471 10.77,5.21L13.445,8.183ZM25.23,5.21C24.409,4.471 23.145,4.538 22.406,5.359C21.667,6.18 21.734,7.444 22.555,8.183L25.23,5.21ZM22.555,15.817C21.734,16.556 21.667,17.82 22.406,18.641C23.145,19.462 24.409,19.529 25.23,18.79L22.555,15.817ZM8.731,20.059C3.756,15.582 3.756,8.418 8.731,3.941L6.055,0.967C-0.685,7.034 -0.685,16.966 6.055,23.032L8.731,20.059ZM27.269,3.941C32.244,8.418 32.244,15.582 27.269,20.059L29.945,23.032C36.685,16.966 36.685,7.034 29.945,0.967L27.269,3.941ZM13.445,15.817C11.074,13.682 11.074,10.318 13.445,8.183L10.77,5.21C6.632,8.934 6.632,15.066 10.77,18.79L13.445,15.817ZM22.555,8.183C24.926,10.318 24.926,13.682 22.555,15.817L25.23,18.79C29.368,15.066 29.368,8.934 25.23,5.21L22.555,8.183ZM17.667,12C17.667,11.789 17.766,11.641 17.841,11.574C17.912,11.51 17.974,11.5 18,11.5L18,15.5C19.822,15.5 21.667,14.126 21.667,12L17.667,12ZM18,11.5C18.026,11.5 18.088,11.51 18.159,11.574C18.234,11.641 18.333,11.789 18.333,12L14.333,12C14.333,14.126 16.178,15.5 18,15.5L18,11.5ZM18.333,12C18.333,12.211 18.234,12.359 18.159,12.426C18.088,12.49 18.026,12.5 18,12.5L18,8.5C16.178,8.5 14.333,9.874 14.333,12L18.333,12ZM18,12.5C17.974,12.5 17.912,12.49 17.841,12.426C17.766,12.359 17.667,12.211 17.667,12L21.667,12C21.667,9.874 19.822,8.5 18,8.5L18,12.5Z" fill="#111827"/>
</svg>
