<svg width="32" height="26" viewBox="0 0 32 26" fill="none" xmlns="http://www.w3.org/2000/svg" xmlns:xlink="http://www.w3.org/1999/xlink">
<path d="M21.5,7.5C21.5,8.605 22.395,9.5 23.5,9.5C24.605,9.5 25.5,8.605 25.5,7.5L21.5,7.5ZM8.5,18.5C9.605,18.5 10.5,17.605 10.5,16.5C10.5,15.395 9.605,14.5 8.5,14.5L8.5,18.5ZM11.5,9.5L26.5,9.5L26.5,5.5L11.5,5.5L11.5,9.5ZM27.5,10.5L27.5,19.5L31.5,19.5L31.5,10.5L27.5,10.5ZM26.5,20.5L11.5,20.5L11.5,24.5L26.5,24.5L26.5,20.5ZM10.5,19.5L10.5,10.5L6.5,10.5L6.5,19.5L10.5,19.5ZM11.5,20.5C10.948,20.5 10.5,20.052 10.5,19.5L6.5,19.5C6.5,22.261 8.739,24.5 11.5,24.5L11.5,20.5ZM27.5,19.5C27.5,20.052 27.052,20.5 26.5,20.5L26.5,24.5C29.261,24.5 31.5,22.261 31.5,19.5L27.5,19.5ZM26.5,9.5C27.052,9.5 27.5,9.948 27.5,10.5L31.5,10.5C31.5,7.739 29.261,5.5 26.5,5.5L26.5,9.5ZM11.5,5.5C8.739,5.5 6.5,7.739 6.5,10.5L10.5,10.5C10.5,9.948 10.948,9.5 11.5,9.5L11.5,5.5ZM5.5,3.5L20.5,3.5L20.5,-0.5L5.5,-0.5L5.5,3.5ZM4.5,13.5L4.5,4.5L0.5,4.5L0.5,13.5L4.5,13.5ZM5.5,14.5C4.948,14.5 4.5,14.052 4.5,13.5L0.5,13.5C0.5,16.261 2.739,18.5 5.5,18.5L5.5,14.5ZM20.5,3.5C21.052,3.5 21.5,3.948 21.5,4.5L25.5,4.5C25.5,1.739 23.261,-0.5 20.5,-0.5L20.5,3.5ZM5.5,-0.5C2.739,-0.5 0.5,1.739 0.5,4.5L4.5,4.5C4.5,3.948 4.948,3.5 5.5,3.5L5.5,-0.5ZM21.5,4.5L21.5,7.5L25.5,7.5L25.5,4.5L21.5,4.5ZM8.5,14.5L5.5,14.5L5.5,18.5L8.5,18.5L8.5,14.5ZM20,15C20,15.552 19.552,16 19,16L19,20C21.761,20 24,17.761 24,15L20,15ZM19,16C18.448,16 18,15.552 18,15L14,15C14,17.761 16.239,20 19,20L19,16ZM18,15C18,14.448 18.448,14 19,14L19,10C16.239,10 14,12.239 14,15L18,15ZM19,14C19.552,14 20,14.448 20,15L24,15C24,12.239 21.761,10 19,10L19,14Z" fill="#111827"/>
</svg>
