<svg width="26" height="26" viewBox="0 0 26 26" fill="none" xmlns="http://www.w3.org/2000/svg" xmlns:xlink="http://www.w3.org/1999/xlink">
<path d="M12,25C19.069,25 24.8,19.627 24.8,13C24.8,6.373 19.069,1 12,1C4.931,1 -0.8,6.373 -0.8,13C-0.8,19.627 4.931,25 12,25ZM17.931,11.939L13.131,7.439C12.506,6.854 11.493,6.854 10.869,7.439L6.069,11.939C5.444,12.525 5.444,13.475 6.069,14.061C6.693,14.646 7.706,14.646 8.331,14.061L10.4,12.121L10.4,17.5C10.4,18.328 11.116,19 12,19C12.884,19 13.6,18.328 13.6,17.5L13.6,12.121L15.669,14.061C16.293,14.646 17.306,14.646 17.931,14.061C18.556,13.475 18.556,12.525 17.931,11.939Z" clip-rule="evenodd" fill-rule="evenodd" fill="#111827"/>
</svg>
