<svg width="34" height="32" viewBox="0 0 34 32" fill="none" xmlns="http://www.w3.org/2000/svg" xmlns:xlink="http://www.w3.org/1999/xlink">
<path d="M30.363,6.977L32.285,6.424C32.029,5.534 31.197,4.936 30.272,4.979L30.363,6.977ZM16,2.417L17.255,0.859C16.522,0.269 15.478,0.269 14.745,0.859L16,2.417ZM1.637,6.976L1.728,4.978C0.803,4.936 -0.029,5.534 -0.285,6.424L1.637,6.976ZM16,28.933L15.549,30.881C15.846,30.95 16.154,30.95 16.451,30.881L16,28.933ZM12.338,14.513C11.517,13.775 10.252,13.841 9.513,14.662C8.775,15.483 8.841,16.748 9.662,17.487L12.338,14.513ZM14.333,19L12.995,20.487C13.756,21.171 14.911,21.171 15.671,20.487L14.333,19ZM22.338,14.487C23.159,13.748 23.226,12.483 22.487,11.662C21.748,10.841 20.483,10.775 19.662,11.513L22.338,14.487ZM30.272,4.979C29.961,4.993 29.648,5 29.333,5L29.333,9C29.709,9 30.083,8.991 30.454,8.974L30.272,4.979ZM29.333,5C24.663,5 20.434,3.42 17.255,0.859L14.745,3.974C18.643,7.114 23.759,9 29.333,9L29.333,5ZM14.745,0.859C11.566,3.42 7.337,5 2.667,5L2.667,9C8.241,9 13.357,7.114 17.255,3.974L14.745,0.859ZM2.667,5C2.352,5 2.039,4.993 1.728,4.978L1.546,8.974C1.917,8.991 2.291,9 2.667,9L2.667,5ZM-0.285,6.424C-0.752,8.046 -1,9.748 -1,11.5L3,11.5C3,10.128 3.194,8.798 3.559,7.529L-0.285,6.424ZM-1,11.5C-1,20.971 6.173,28.71 15.549,30.881L16.451,26.985C8.574,25.16 3,18.804 3,11.5L-1,11.5ZM16.451,30.881C25.827,28.71 33,20.971 33,11.5L29,11.5C29,18.804 23.426,25.16 15.549,26.985L16.451,30.881ZM33,11.5C33,9.748 32.752,8.046 32.285,6.424L28.441,7.529C28.806,8.798 29,10.128 29,11.5L33,11.5ZM9.662,17.487L12.995,20.487L15.671,17.513L12.338,14.513L9.662,17.487ZM15.671,20.487L22.338,14.487L19.662,11.513L12.995,17.513L15.671,20.487Z" fill="#111827"/>
</svg>
