<svg width="34" height="32" viewBox="0 0 34 32" fill="none" xmlns="http://www.w3.org/2000/svg" xmlns:xlink="http://www.w3.org/1999/xlink">
<path d="M9.948,20.771C9.127,21.51 9.061,22.774 9.799,23.595C10.538,24.416 11.803,24.483 12.624,23.744L9.948,20.771ZM19.376,23.744C20.197,24.483 21.462,24.416 22.201,23.595C22.94,22.774 22.873,21.51 22.052,20.771L19.376,23.744ZM11,11C9.895,11 9,11.895 9,13C9,14.105 9.895,15 11,15L11,11ZM11.017,15C12.121,15 13.017,14.105 13.017,13C13.017,11.895 12.121,11 11.017,11L11.017,15ZM21,11C19.895,11 19,11.895 19,13C19,14.105 19.895,15 21,15L21,11ZM21.017,15C22.121,15 23.017,14.105 23.017,13C23.017,11.895 22.121,11 21.017,11L21.017,15ZM29,16C29,22.158 23.383,27.5 16,27.5L16,31.5C25.185,31.5 33,24.753 33,16L29,16ZM16,27.5C8.617,27.5 3,22.158 3,16L-1,16C-1,24.753 6.815,31.5 16,31.5L16,27.5ZM3,16C3,9.842 8.617,4.5 16,4.5L16,0.5C6.815,0.5 -1,7.247 -1,16L3,16ZM16,4.5C23.383,4.5 29,9.842 29,16L33,16C33,7.247 25.185,0.5 16,0.5L16,4.5ZM12.624,23.744C14.467,22.085 17.533,22.085 19.376,23.744L22.052,20.771C18.688,17.743 13.312,17.743 9.948,20.771L12.624,23.744ZM11,15L11.017,15L11.017,11L11,11L11,15ZM21,15L21.017,15L21.017,11L21,11L21,15Z" fill="#111827"/>
</svg>
