<svg width="34" height="30" viewBox="0 0 34 30" fill="none" xmlns="http://www.w3.org/2000/svg" xmlns:xlink="http://www.w3.org/1999/xlink">
<path d="M19,9.333C19,8.229 18.105,7.333 17,7.333C15.895,7.333 15,8.229 15,9.333L19,9.333ZM15,15C15,16.105 15.895,17 17,17C18.105,17 19,16.105 19,15L15,15ZM17,18.667C15.895,18.667 15,19.562 15,20.667C15,21.771 15.895,22.667 17,22.667L17,18.667ZM17.016,22.667C18.12,22.667 19.016,21.771 19.016,20.667C19.016,19.562 18.12,18.667 17.016,18.667L17.016,22.667ZM29.25,15C29.25,20.734 23.98,25.75 17,25.75L17,29.75C25.76,29.75 33.25,23.35 33.25,15L29.25,15ZM17,25.75C10.02,25.75 4.75,20.734 4.75,15L0.75,15C0.75,23.35 8.24,29.75 17,29.75L17,25.75ZM4.75,15C4.75,9.266 10.02,4.25 17,4.25L17,0.25C8.24,0.25 0.75,6.65 0.75,15L4.75,15ZM17,4.25C23.98,4.25 29.25,9.266 29.25,15L33.25,15C33.25,6.65 25.76,0.25 17,0.25L17,4.25ZM15,9.333L15,15L19,15L19,9.333L15,9.333ZM17,22.667L17.016,22.667L17.016,18.667L17,18.667L17,22.667Z" fill="#111827"/>
</svg>
