<svg width="34" height="30" viewBox="0 0 34 30" fill="none" xmlns="http://www.w3.org/2000/svg" xmlns:xlink="http://www.w3.org/1999/xlink">
<path d="M15.243,1.609L16.311,3.3L16.311,3.3L15.243,1.609ZM18.757,1.609L19.825,-0.082L18.757,1.609ZM29.84,8.609L28.772,10.3L29.84,8.609ZM4.16,8.609L3.092,6.918L3.092,6.918L4.16,8.609ZM3.818,9.309C2.884,8.719 1.649,8.998 1.059,9.932C0.469,10.866 0.748,12.101 1.682,12.691L3.818,9.309ZM15.243,18.891L14.175,20.582L14.175,20.582L15.243,18.891ZM18.757,18.891L19.825,20.582L19.825,20.582L18.757,18.891ZM32.318,12.691C33.252,12.101 33.531,10.866 32.941,9.932C32.351,8.998 31.116,8.719 30.182,9.309L32.318,12.691ZM20.563,17.75L19.495,16.059L19.495,16.059L20.563,17.75ZM29.25,11.106L29.25,24.5L33.25,24.5L33.25,11.106L29.25,11.106ZM28.083,25.5L5.917,25.5L5.917,29.5L28.083,29.5L28.083,25.5ZM4.75,24.5L4.75,11.106L0.75,11.106L0.75,24.5L4.75,24.5ZM5.228,10.3L16.311,3.3L14.175,-0.082L3.092,6.918L5.228,10.3ZM17.689,3.3L28.772,10.3L30.908,6.918L19.825,-0.082L17.689,3.3ZM16.311,3.3C16.723,3.041 17.277,3.041 17.689,3.3L19.825,-0.082C18.108,-1.165 15.892,-1.165 14.175,-0.082L16.311,3.3ZM5.917,25.5C5.169,25.5 4.75,24.952 4.75,24.5L0.75,24.5C0.75,27.362 3.166,29.5 5.917,29.5L5.917,25.5ZM29.25,24.5C29.25,24.952 28.831,25.5 28.083,25.5L28.083,29.5C30.834,29.5 33.25,27.362 33.25,24.5L29.25,24.5ZM33.25,11.106C33.25,9.385 32.342,7.824 30.908,6.918L28.772,10.3C29.1,10.508 29.25,10.82 29.25,11.106L33.25,11.106ZM4.75,11.106C4.75,10.82 4.9,10.508 5.228,10.3L3.092,6.918C1.658,7.824 0.75,9.385 0.75,11.106L4.75,11.106ZM14.175,20.582C15.892,21.665 18.108,21.665 19.825,20.582L17.689,17.2C17.277,17.459 16.723,17.459 16.311,17.2L14.175,20.582ZM19.495,19.441L30.182,26.191L32.318,22.809L21.63,16.059L19.495,19.441ZM19.825,20.582L21.63,19.441L19.495,16.059L17.689,17.2L19.825,20.582ZM21.63,19.441L32.318,12.691L30.182,9.309L19.495,16.059L21.63,19.441ZM3.818,26.191L14.505,19.441L12.37,16.059L1.682,22.809L3.818,26.191ZM1.682,12.691L12.37,19.441L14.505,16.059L3.818,9.309L1.682,12.691ZM12.37,19.441L14.175,20.582L16.311,17.2L14.505,16.059L12.37,19.441Z" fill="#111827"/>
</svg>
