<svg width="34" height="30" viewBox="0 0 34 30" fill="none" xmlns="http://www.w3.org/2000/svg" xmlns:xlink="http://www.w3.org/1999/xlink">
<path d="M13.911,8.219C13.296,7.302 12.053,7.057 11.136,7.672C10.219,8.287 9.974,9.53 10.589,10.447L13.911,8.219ZM23.411,10.447C24.026,9.53 23.781,8.287 22.864,7.672C21.947,7.057 20.704,7.302 20.089,8.219L23.411,10.447ZM15,22.083C15,23.188 15.895,24.083 17,24.083C18.105,24.083 19,23.188 19,22.083L15,22.083ZM12.25,13C11.145,13 10.25,13.895 10.25,15C10.25,16.105 11.145,17 12.25,17L12.25,13ZM21.75,17C22.855,17 23.75,16.105 23.75,15C23.75,13.895 22.855,13 21.75,13L21.75,17ZM12.25,17.25C11.145,17.25 10.25,18.145 10.25,19.25C10.25,20.355 11.145,21.25 12.25,21.25L12.25,17.25ZM21.75,21.25C22.855,21.25 23.75,20.355 23.75,19.25C23.75,18.145 22.855,17.25 21.75,17.25L21.75,21.25ZM29.25,15C29.25,20.734 23.98,25.75 17,25.75L17,29.75C25.76,29.75 33.25,23.35 33.25,15L29.25,15ZM17,25.75C10.02,25.75 4.75,20.734 4.75,15L0.75,15C0.75,23.35 8.24,29.75 17,29.75L17,25.75ZM4.75,15C4.75,9.266 10.02,4.25 17,4.25L17,0.25C8.24,0.25 0.75,6.65 0.75,15L4.75,15ZM17,4.25C23.98,4.25 29.25,9.266 29.25,15L33.25,15C33.25,6.65 25.76,0.25 17,0.25L17,4.25ZM10.589,10.447L15.339,17.531L18.661,15.303L13.911,8.219L10.589,10.447ZM18.661,17.531L23.411,10.447L20.089,8.219L15.339,15.303L18.661,17.531ZM15,16.417L15,22.083L19,22.083L19,16.417L15,16.417ZM12.25,17L21.75,17L21.75,13L12.25,13L12.25,17ZM12.25,21.25L21.75,21.25L21.75,17.25L12.25,17.25L12.25,21.25Z" fill="#111827"/>
</svg>
