<svg width="28" height="24" viewBox="0 0 28 24" fill="none" xmlns="http://www.w3.org/2000/svg" xmlns:xlink="http://www.w3.org/1999/xlink">
<path d="M26.6,12C26.6,18.186 20.511,23.2 13,23.2C5.489,23.2 -0.6,18.186 -0.6,12C-0.6,5.814 5.489,0.8 13,0.8C20.511,0.8 26.6,5.814 26.6,12ZM16.4,7.8C16.4,9.346 14.878,10.6 13,10.6C11.122,10.6 9.6,9.346 9.6,7.8C9.6,6.254 11.122,5 13,5C14.878,5 16.4,6.254 16.4,7.8ZM13,13.4C9.57,13.4 6.615,15.073 5.271,17.482C7.142,19.269 9.911,20.4 13,20.4C16.089,20.4 18.858,19.269 20.728,17.482C19.385,15.073 16.43,13.4 13,13.4Z" clip-rule="evenodd" fill-rule="evenodd" fill="#111827"/>
</svg>
