<svg width="24" height="26" viewBox="0 0 24 26" fill="none" xmlns="http://www.w3.org/2000/svg" xmlns:xlink="http://www.w3.org/1999/xlink">
<path d="M11,-0.8C6.306,-0.8 2.5,2.782 2.5,7.2L2.5,10.4C0.622,10.4 -0.9,11.833 -0.9,13.6L-0.9,21.6C-0.9,23.367 0.622,24.8 2.5,24.8L19.5,24.8C21.378,24.8 22.9,23.367 22.9,21.6L22.9,13.6C22.9,11.833 21.378,10.4 19.5,10.4L5.9,10.4L5.9,7.2C5.9,4.549 8.183,2.4 11,2.4C13.374,2.4 15.373,3.928 15.939,5.999C16.173,6.855 17.1,7.37 18.009,7.149C18.919,6.929 19.466,6.057 19.232,5.201C18.289,1.751 14.963,-0.8 11,-0.8Z" fill="#111827"/>
</svg>
