<svg width="28" height="32" viewBox="0 0 28 32" fill="none" xmlns="http://www.w3.org/2000/svg" xmlns:xlink="http://www.w3.org/1999/xlink">
<path d="M15.047,2.939L13.672,4.391L13.672,4.391L15.047,2.939ZM23.62,11.061L24.995,9.609L24.995,9.609L23.62,11.061ZM20.917,27.5L5.083,27.5L5.083,31.5L20.917,31.5L20.917,27.5ZM3.917,26.5L3.917,5.5L-0.083,5.5L-0.083,26.5L3.917,26.5ZM5.083,4.5L13.927,4.5L13.927,0.5L5.083,0.5L5.083,4.5ZM22.083,12.121L22.083,26.5L26.083,26.5L26.083,12.121L22.083,12.121ZM13.672,4.391L22.244,12.513L24.995,9.609L16.423,1.487L13.672,4.391ZM26.083,12.121C26.083,11.157 25.678,10.256 24.995,9.609L22.244,12.513C22.155,12.428 22.083,12.29 22.083,12.121L26.083,12.121ZM13.927,4.5C13.851,4.5 13.757,4.472 13.672,4.391L16.423,1.487C15.743,0.844 14.844,0.5 13.927,0.5L13.927,4.5ZM5.083,27.5C4.336,27.5 3.917,26.952 3.917,26.5L-0.083,26.5C-0.083,29.362 2.333,31.5 5.083,31.5L5.083,27.5ZM20.917,31.5C23.667,31.5 26.083,29.362 26.083,26.5L22.083,26.5C22.083,26.952 21.664,27.5 20.917,27.5L20.917,31.5ZM3.917,5.5C3.917,5.048 4.336,4.5 5.083,4.5L5.083,0.5C2.333,0.5 -0.083,2.638 -0.083,5.5L3.917,5.5Z" fill="#111827"/>
</svg>
