<svg width="28" height="24" viewBox="0 0 28 24" fill="none" xmlns="http://www.w3.org/2000/svg" xmlns:xlink="http://www.w3.org/1999/xlink">
<path d="M13,0.8C13.939,0.8 14.7,1.427 14.7,2.2L14.7,3.6C14.7,4.373 13.939,5 13,5C12.061,5 11.3,4.373 11.3,3.6L11.3,2.2C11.3,1.427 12.061,0.8 13,0.8Z" fill="#111827"/>
<path d="M19.8,12C19.8,15.093 16.756,17.6 13,17.6C9.244,17.6 6.2,15.093 6.2,12C6.2,8.907 9.244,6.4 13,6.4C16.756,6.4 19.8,8.907 19.8,12Z" fill="#111827"/>
<path d="M19.011,18.93L20.213,19.92C20.876,20.466 21.953,20.466 22.617,19.92C23.281,19.373 23.281,18.486 22.617,17.94L21.415,16.95C20.751,16.403 19.674,16.403 19.011,16.95C18.347,17.496 18.347,18.383 19.011,18.93Z" fill="#111827"/>
<path d="M22.617,4.08C23.28,4.627 23.28,5.514 22.617,6.06L21.415,7.05C20.751,7.597 19.674,7.597 19.01,7.05C18.346,6.503 18.346,5.617 19.01,5.07L20.212,4.08C20.876,3.534 21.953,3.534 22.617,4.08Z" fill="#111827"/>
<path d="M24.9,13.4C25.839,13.4 26.6,12.773 26.6,12C26.6,11.227 25.839,10.6 24.9,10.6L23.2,10.6C22.261,10.6 21.5,11.227 21.5,12C21.5,12.773 22.261,13.4 23.2,13.4L24.9,13.4Z" fill="#111827"/>
<path d="M13,19C13.939,19 14.7,19.627 14.7,20.4L14.7,21.8C14.7,22.573 13.939,23.2 13,23.2C12.061,23.2 11.3,22.573 11.3,21.8L11.3,20.4C11.3,19.627 12.061,19 13,19Z" fill="#111827"/>
<path d="M4.586,7.05C5.249,7.597 6.326,7.597 6.99,7.05C7.654,6.503 7.654,5.617 6.99,5.07L5.788,4.08C5.124,3.534 4.047,3.534 3.383,4.08C2.72,4.627 2.72,5.514 3.383,6.06L4.586,7.05Z" fill="#111827"/>
<path d="M6.99,18.93L5.787,19.92C5.124,20.466 4.047,20.466 3.383,19.92C2.719,19.373 2.719,18.486 3.383,17.94L4.585,16.95C5.249,16.403 6.326,16.403 6.99,16.95C7.653,17.496 7.653,18.383 6.99,18.93Z" fill="#111827"/>
<path d="M2.8,13.4C3.739,13.4 4.5,12.773 4.5,12C4.5,11.227 3.739,10.6 2.8,10.6L1.1,10.6C0.161,10.6 -0.6,11.227 -0.6,12C-0.6,12.773 0.161,13.4 1.1,13.4L2.8,13.4Z" fill="#111827"/>
</svg>
