<svg width="26" height="24" viewBox="0 0 26 24" fill="none" xmlns="http://www.w3.org/2000/svg" xmlns:xlink="http://www.w3.org/1999/xlink">
<path d="M24.8,12C24.8,18.186 19.069,23.2 12,23.2C4.931,23.2 -0.8,18.186 -0.8,12C-0.8,5.814 4.931,0.8 12,0.8C19.069,0.8 24.8,5.814 24.8,12ZM17.563,18.847C15.993,19.825 14.073,20.4 12,20.4C6.698,20.4 2.4,16.639 2.4,12C2.4,10.186 3.057,8.506 4.175,7.133L17.563,18.847ZM19.825,16.867L6.438,5.153C8.007,4.175 9.927,3.6 12,3.6C17.302,3.6 21.6,7.361 21.6,12C21.6,13.814 20.943,15.494 19.825,16.867Z" clip-rule="evenodd" fill-rule="evenodd" fill="#111827"/>
</svg>
