<svg width="34" height="30" viewBox="0 0 34 30" fill="none" xmlns="http://www.w3.org/2000/svg" xmlns:xlink="http://www.w3.org/1999/xlink">
<path d="M29.916,29.24C30.74,29.977 32.004,29.907 32.74,29.084C33.477,28.26 33.407,26.996 32.584,26.26L29.916,29.24ZM23.084,17.76C22.26,17.023 20.996,17.093 20.26,17.916C19.523,18.74 19.593,20.004 20.416,20.74L23.084,17.76ZM15.833,7.917C15.833,6.812 14.938,5.917 13.833,5.917C12.729,5.917 11.833,6.812 11.833,7.917L15.833,7.917ZM11.833,16.417C11.833,17.521 12.729,18.417 13.833,18.417C14.938,18.417 15.833,17.521 15.833,16.417L11.833,16.417ZM18.583,14.167C19.688,14.167 20.583,13.271 20.583,12.167C20.583,11.062 19.688,10.167 18.583,10.167L18.583,14.167ZM9.083,10.167C7.979,10.167 7.083,11.062 7.083,12.167C7.083,13.271 7.979,14.167 9.083,14.167L9.083,10.167ZM22.917,12.167C22.917,16.336 19.065,20.083 13.833,20.083L13.833,24.083C20.844,24.083 26.917,18.951 26.917,12.167L22.917,12.167ZM13.833,20.083C8.602,20.083 4.75,16.336 4.75,12.167L0.75,12.167C0.75,18.951 6.823,24.083 13.833,24.083L13.833,20.083ZM4.75,12.167C4.75,7.998 8.602,4.25 13.833,4.25L13.833,0.25C6.823,0.25 0.75,5.382 0.75,12.167L4.75,12.167ZM13.833,4.25C19.065,4.25 22.917,7.998 22.917,12.167L26.917,12.167C26.917,5.382 20.844,0.25 13.833,0.25L13.833,4.25ZM32.584,26.26L23.084,17.76L20.416,20.74L29.916,29.24L32.584,26.26ZM11.833,7.917L11.833,12.167L15.833,12.167L15.833,7.917L11.833,7.917ZM11.833,12.167L11.833,16.417L15.833,16.417L15.833,12.167L11.833,12.167ZM18.583,10.167L13.833,10.167L13.833,14.167L18.583,14.167L18.583,10.167ZM13.833,10.167L9.083,10.167L9.083,14.167L13.833,14.167L13.833,10.167Z" fill="#111827"/>
</svg>
