<svg width="26" height="26" viewBox="0 0 26 26" fill="none" xmlns="http://www.w3.org/2000/svg" xmlns:xlink="http://www.w3.org/1999/xlink">
<path d="M12,25C19.069,25 24.8,19.627 24.8,13C24.8,6.373 19.069,1 12,1C4.931,1 -0.8,6.373 -0.8,13C-0.8,19.627 4.931,25 12,25ZM7.2,5.5C6.316,5.5 5.6,6.172 5.6,7C5.6,7.828 6.316,8.5 7.2,8.5L8.8,8.5C9.985,8.5 11.019,9.103 11.572,10L7.2,10C6.316,10 5.6,10.672 5.6,11.5C5.6,12.328 6.316,13 7.2,13L11.572,13C11.019,13.897 9.985,14.5 8.8,14.5L7.2,14.5C6.553,14.5 5.969,14.865 5.722,15.426C5.474,15.986 5.611,16.632 6.069,17.061L10.869,21.561C11.494,22.146 12.507,22.146 13.131,21.561C13.756,20.975 13.756,20.025 13.131,19.439L10.758,17.214C12.836,16.589 14.451,14.995 14.998,13L16.8,13C17.684,13 18.4,12.328 18.4,11.5C18.4,10.672 17.684,10 16.8,10L14.998,10C14.852,9.468 14.63,8.964 14.344,8.5L16.8,8.5C17.684,8.5 18.4,7.828 18.4,7C18.4,6.172 17.684,5.5 16.8,5.5L7.2,5.5Z" clip-rule="evenodd" fill-rule="evenodd" fill="#111827"/>
</svg>
