<svg width="32" height="28" viewBox="0 0 32 28" fill="none" xmlns="http://www.w3.org/2000/svg" xmlns:xlink="http://www.w3.org/1999/xlink">
<path d="M18,2C18,0.895 17.105,0 16,0C14.895,0 14,0.895 14,2L18,2ZM14,26C14,27.105 14.895,28 16,28C17.105,28 18,27.105 18,26L14,26ZM29.333,16C30.438,16 31.333,15.105 31.333,14C31.333,12.895 30.438,12 29.333,12L29.333,16ZM2.667,12C1.562,12 0.667,12.895 0.667,14C0.667,15.105 1.562,16 2.667,16L2.667,12ZM14,2L14,26L18,26L18,2L14,2ZM29.333,12L2.667,12L2.667,16L29.333,16L29.333,12Z" fill="#111827"/>
</svg>
