<svg width="38" height="28" viewBox="0 0 38 28" fill="none" xmlns="http://www.w3.org/2000/svg" xmlns:xlink="http://www.w3.org/1999/xlink">
<path d="M12.748,23.769C12.436,24.829 13.043,25.94 14.102,26.252C15.162,26.564 16.274,25.957 16.585,24.898L12.748,23.769ZM23.252,2.231C23.564,1.171 22.957,0.06 21.898,-0.252C20.838,-0.564 19.726,0.043 19.415,1.102L23.252,2.231ZM29.295,5.809C28.454,5.094 27.192,5.196 26.476,6.038C25.761,6.88 25.863,8.142 26.705,8.857L29.295,5.809ZM34.667,13L35.962,14.524C36.409,14.144 36.667,13.587 36.667,13C36.667,12.413 36.409,11.856 35.962,11.476L34.667,13ZM26.705,17.143C25.863,17.858 25.761,19.12 26.476,19.962C27.192,20.804 28.454,20.906 29.295,20.191L26.705,17.143ZM6.705,20.191C7.546,20.906 8.809,20.804 9.524,19.962C10.239,19.12 10.137,17.858 9.295,17.143L6.705,20.191ZM1.333,13L0.038,11.476C-0.409,11.856 -0.667,12.413 -0.667,13C-0.667,13.587 -0.409,14.144 0.038,14.524L1.333,13ZM9.295,8.857C10.137,8.142 10.239,6.88 9.524,6.038C8.809,5.196 7.546,5.094 6.705,5.809L9.295,8.857ZM16.585,24.898L23.252,2.231L19.415,1.102L12.748,23.769L16.585,24.898ZM26.705,8.857L33.371,14.524L35.962,11.476L29.295,5.809L26.705,8.857ZM33.371,11.476L26.705,17.143L29.295,20.191L35.962,14.524L33.371,11.476ZM9.295,17.143L2.629,11.476L0.038,14.524L6.705,20.191L9.295,17.143ZM2.629,14.524L9.295,8.857L6.705,5.809L0.038,11.476L2.629,14.524Z" fill="#111827"/>
</svg>
