<svg width="24" height="24" viewBox="0 0 24 24" fill="none" xmlns="http://www.w3.org/2000/svg" xmlns:xlink="http://www.w3.org/1999/xlink">
<path d="M4,0.8C2.233,0.8 0.8,2.233 0.8,4L0.8,20C0.8,21.767 2.233,23.2 4,23.2L20,23.2C21.767,23.2 23.2,21.767 23.2,20L23.2,4C23.2,2.233 21.767,0.8 20,0.8L4,0.8ZM18.4,7.2C18.4,6.316 17.684,5.6 16.8,5.6C15.916,5.6 15.2,6.316 15.2,7.2L15.2,16.8C15.2,17.684 15.916,18.4 16.8,18.4C17.684,18.4 18.4,17.684 18.4,16.8L18.4,7.2ZM13.6,10.4C13.6,9.516 12.884,8.8 12,8.8C11.116,8.8 10.4,9.516 10.4,10.4L10.4,16.8C10.4,17.684 11.116,18.4 12,18.4C12.884,18.4 13.6,17.684 13.6,16.8L13.6,10.4ZM8.8,15.2C8.8,14.316 8.084,13.6 7.2,13.6C6.316,13.6 5.6,14.316 5.6,15.2L5.6,16.8C5.6,17.684 6.316,18.4 7.2,18.4C8.084,18.4 8.8,17.684 8.8,16.8L8.8,15.2Z" clip-rule="evenodd" fill-rule="evenodd" fill="#111827"/>
</svg>
