<svg width="34" height="24" viewBox="0 0 34 24" fill="none" xmlns="http://www.w3.org/2000/svg" xmlns:xlink="http://www.w3.org/1999/xlink">
<path d="M30.223,9.155C22.92,2.282 11.08,2.282 3.777,9.155C3.113,9.78 2.037,9.78 1.373,9.155C0.709,8.53 0.709,7.517 1.373,6.892C10.003,-1.231 23.996,-1.231 32.627,6.892C33.291,7.517 33.291,8.53 32.627,9.155C31.963,9.78 30.887,9.78 30.223,9.155ZM25.414,13.68C20.767,9.307 13.233,9.307 8.585,13.68C7.921,14.305 6.845,14.305 6.181,13.68C5.517,13.056 5.517,12.043 6.181,11.418C12.156,5.794 21.843,5.794 27.819,11.418C28.482,12.043 28.482,13.056 27.819,13.68C27.155,14.305 26.078,14.305 25.414,13.68ZM20.606,18.206C18.614,16.331 15.385,16.331 13.394,18.206C12.73,18.831 11.653,18.831 10.989,18.206C10.326,17.581 10.326,16.568 10.989,15.943C14.309,12.819 19.691,12.819 23.01,15.943C23.674,16.568 23.674,17.581 23.01,18.206C22.346,18.831 21.27,18.831 20.606,18.206ZM15.3,21.6C15.3,20.716 16.061,20 17,20L17.017,20C17.956,20 18.717,20.716 18.717,21.6C18.717,22.484 17.956,23.2 17.017,23.2L17,23.2C16.061,23.2 15.3,22.484 15.3,21.6Z" clip-rule="evenodd" fill-rule="evenodd" fill="#111827"/>
</svg>
