<svg width="32" height="30" viewBox="0 0 32 30" fill="none" xmlns="http://www.w3.org/2000/svg" xmlns:xlink="http://www.w3.org/1999/xlink">
<path d="M5.5,20.333C5.5,21.438 6.395,22.333 7.5,22.333C8.605,22.333 9.5,21.438 9.5,20.333L5.5,20.333ZM7.5,1.333L8.952,-0.042C8.574,-0.441 8.049,-0.667 7.5,-0.667C6.951,-0.667 6.426,-0.441 6.048,-0.042L7.5,1.333ZM0.048,6.291C-0.712,7.093 -0.677,8.359 0.125,9.119C0.926,9.878 2.192,9.844 2.952,9.042L0.048,6.291ZM12.048,9.042C12.808,9.844 14.074,9.878 14.875,9.119C15.677,8.359 15.712,7.093 14.952,6.291L12.048,9.042ZM24.5,7.667C24.5,6.562 23.605,5.667 22.5,5.667C21.395,5.667 20.5,6.562 20.5,7.667L24.5,7.667ZM22.5,26.667L21.048,28.042C21.426,28.441 21.951,28.667 22.5,28.667C23.049,28.667 23.574,28.441 23.952,28.042L22.5,26.667ZM29.952,21.709C30.712,20.907 30.677,19.641 29.875,18.881C29.074,18.122 27.808,18.156 27.048,18.958L29.952,21.709ZM17.952,18.958C17.192,18.156 15.926,18.122 15.125,18.881C14.323,19.641 14.288,20.907 15.048,21.709L17.952,18.958ZM9.5,20.333L9.5,1.333L5.5,1.333L5.5,20.333L9.5,20.333ZM2.952,9.042L8.952,2.709L6.048,-0.042L0.048,6.291L2.952,9.042ZM6.048,2.709L12.048,9.042L14.952,6.291L8.952,-0.042L6.048,2.709ZM20.5,7.667L20.5,26.667L24.5,26.667L24.5,7.667L20.5,7.667ZM27.048,18.958L21.048,25.291L23.952,28.042L29.952,21.709L27.048,18.958ZM23.952,25.291L17.952,18.958L15.048,21.709L21.048,28.042L23.952,25.291Z" transform="rotate(180 15 14)" fill="#111827"/>
</svg>
