<svg width="28" height="26" viewBox="0 0 28 26" fill="none" xmlns="http://www.w3.org/2000/svg" xmlns:xlink="http://www.w3.org/1999/xlink">
<path d="M25.459,14.952C26.261,14.192 26.295,12.926 25.535,12.125C24.776,11.323 23.51,11.288 22.708,12.048L25.459,14.952ZM13,24L11.625,25.452C12.396,26.183 13.604,26.183 14.375,25.452L13,24ZM3.292,12.048C2.49,11.288 1.224,11.323 0.465,12.125C-0.295,12.926 -0.261,14.192 0.541,14.952L3.292,12.048ZM25.459,2.952C26.261,2.192 26.295,0.926 25.535,0.125C24.776,-0.677 23.51,-0.712 22.708,0.048L25.459,2.952ZM13,12L11.625,13.452C12.396,14.183 13.604,14.183 14.375,13.452L13,12ZM3.292,0.048C2.49,-0.712 1.224,-0.677 0.465,0.125C-0.295,0.926 -0.261,2.192 0.541,2.952L3.292,0.048ZM22.708,12.048L11.625,22.548L14.375,25.452L25.459,14.952L22.708,12.048ZM14.375,22.548L3.292,12.048L0.541,14.952L11.625,25.452L14.375,22.548ZM22.708,0.048L11.625,10.548L14.375,13.452L25.459,2.952L22.708,0.048ZM14.375,10.548L3.292,0.048L0.541,2.952L11.625,13.452L14.375,10.548Z" fill="#111827"/>
</svg>
