<svg width="34" height="32" viewBox="0 0 34 32" fill="none" xmlns="http://www.w3.org/2000/svg" xmlns:xlink="http://www.w3.org/1999/xlink">
<path d="M7.995,20.513C7.174,21.252 7.108,22.517 7.847,23.338C8.586,24.159 9.85,24.226 10.671,23.487L7.995,20.513ZM20.667,14.5C20.667,15.688 19.527,17 17.667,17L17.667,21C21.329,21 24.667,18.283 24.667,14.5L20.667,14.5ZM14.667,14.5C14.667,13.312 15.806,12 17.667,12L17.667,8C14.004,8 10.667,10.717 10.667,14.5L14.667,14.5ZM17.667,12C19.527,12 20.667,13.312 20.667,14.5L24.667,14.5C24.667,10.717 21.329,8 17.667,8L17.667,12ZM12.793,16.195L7.995,20.513L10.671,23.487L15.469,19.169L12.793,16.195ZM17.667,17C16.772,17 16.001,16.674 15.469,16.195L12.793,19.169C14.071,20.319 15.8,21 17.667,21L17.667,17ZM15.469,16.195C14.941,15.72 14.667,15.118 14.667,14.5L10.667,14.5C10.667,16.368 11.512,18.016 12.793,19.169L15.469,16.195ZM29,16C29,22.158 23.383,27.5 16,27.5L16,31.5C25.185,31.5 33,24.753 33,16L29,16ZM16,27.5C8.617,27.5 3,22.158 3,16L-1,16C-1,24.753 6.815,31.5 16,31.5L16,27.5ZM3,16C3,9.842 8.617,4.5 16,4.5L16,0.5C6.815,0.5 -1,7.247 -1,16L3,16ZM16,4.5C23.383,4.5 29,9.842 29,16L33,16C33,7.247 25.185,0.5 16,0.5L16,4.5Z" fill="#111827"/>
</svg>
