<svg width="34" height="24" viewBox="0 0 34 24" fill="none" xmlns="http://www.w3.org/2000/svg" xmlns:xlink="http://www.w3.org/1999/xlink">
<path d="M16,21.275L15.017,23.016C15.627,23.361 16.373,23.361 16.983,23.016L16,21.275ZM1,2.858L0.017,1.117C-0.612,1.471 -1,2.137 -1,2.858L1,2.858ZM1,21.275L-1,21.275C-1,21.986 -0.622,22.644 -0.008,23.002C0.606,23.361 1.364,23.366 1.983,23.016L1,21.275ZM31,2.858L33,2.858C33,2.137 32.612,1.471 31.983,1.117L31,2.858ZM31,21.275L30.017,23.016C30.636,23.366 31.394,23.361 32.008,23.002C32.622,22.644 33,21.986 33,21.275L31,21.275ZM14,2.858L14,21.275L18,21.275L18,2.858L14,2.858ZM1.983,4.6C3.584,3.696 5.877,3.083 8.5,3.083L8.5,-0.917C5.302,-0.917 2.309,-0.178 0.017,1.117L1.983,4.6ZM8.5,3.083C11.123,3.083 13.416,3.696 15.017,4.6L16.983,1.117C14.691,-0.178 11.698,-0.917 8.5,-0.917L8.5,3.083ZM1.983,23.016C3.584,22.113 5.877,21.5 8.5,21.5L8.5,17.5C5.302,17.5 2.309,18.239 0.017,19.533L1.983,23.016ZM8.5,21.5C11.123,21.5 13.416,22.113 15.017,23.016L16.983,19.533C14.691,18.239 11.698,17.5 8.5,17.5L8.5,21.5ZM-1,2.858L-1,21.275L3,21.275L3,2.858L-1,2.858ZM31.983,1.117C29.691,-0.178 26.698,-0.917 23.5,-0.917L23.5,3.083C26.123,3.083 28.416,3.696 30.017,4.6L31.983,1.117ZM23.5,-0.917C20.302,-0.917 17.309,-0.178 15.017,1.117L16.983,4.6C18.584,3.696 20.877,3.083 23.5,3.083L23.5,-0.917ZM31.983,19.533C29.691,18.239 26.698,17.5 23.5,17.5L23.5,21.5C26.123,21.5 28.416,22.113 30.017,23.016L31.983,19.533ZM23.5,17.5C20.302,17.5 17.309,18.239 15.017,19.533L16.983,23.016C18.584,22.113 20.877,21.5 23.5,21.5L23.5,17.5ZM29,2.858L29,21.275L33,21.275L33,2.858L29,2.858Z" fill="#111827"/>
</svg>
