<svg width="36" height="28" viewBox="0 0 36 28" fill="none" xmlns="http://www.w3.org/2000/svg" xmlns:xlink="http://www.w3.org/1999/xlink">
<path d="M26.333,6C25.229,6 24.333,6.895 24.333,8C24.333,9.105 25.229,10 26.333,10L26.333,6ZM26.35,10C27.455,10 28.35,9.105 28.35,8C28.35,6.895 27.455,6 26.35,6L26.35,10ZM26.333,18C25.229,18 24.333,18.895 24.333,20C24.333,21.105 25.229,22 26.333,22L26.333,18ZM26.35,22C27.455,22 28.35,21.105 28.35,20C28.35,18.895 27.455,18 26.35,18L26.35,22ZM6.333,4L29.667,4L29.667,0L6.333,0L6.333,4ZM31,5L31,11L35,11L35,5L31,5ZM29.667,12L6.333,12L6.333,16L29.667,16L29.667,12ZM5,11L5,5L1,5L1,11L5,11ZM6.333,12C5.394,12 5,11.359 5,11L1,11C1,13.954 3.591,16 6.333,16L6.333,12ZM31,11C31,11.359 30.606,12 29.667,12L29.667,16C32.409,16 35,13.954 35,11L31,11ZM29.667,4C30.606,4 31,4.641 31,5L35,5C35,2.046 32.409,0 29.667,0L29.667,4ZM6.333,0C3.591,0 1,2.046 1,5L5,5C5,4.641 5.394,4 6.333,4L6.333,0ZM31,17L31,23L35,23L35,17L31,17ZM29.667,24L6.333,24L6.333,28L29.667,28L29.667,24ZM5,23L5,17L1,17L1,23L5,23ZM6.333,24C5.394,24 5,23.359 5,23L1,23C1,25.954 3.591,28 6.333,28L6.333,24ZM31,23C31,23.359 30.606,24 29.667,24L29.667,28C32.409,28 35,25.954 35,23L31,23ZM29.667,16C30.606,16 31,16.641 31,17L35,17C35,14.046 32.409,12 29.667,12L29.667,16ZM6.333,12C3.591,12 1,14.046 1,17L5,17C5,16.641 5.394,16 6.333,16L6.333,12ZM26.333,10L26.35,10L26.35,6L26.333,6L26.333,10ZM26.333,22L26.35,22L26.35,18L26.333,18L26.333,22Z" fill="#111827"/>
</svg>
