<svg width="34" height="26" viewBox="0 0 34 26" fill="none" xmlns="http://www.w3.org/2000/svg" xmlns:xlink="http://www.w3.org/1999/xlink">
<path d="M3.818,4.309C2.884,3.719 1.649,3.998 1.059,4.932C0.469,5.866 0.748,7.101 1.682,7.691L3.818,4.309ZM15.243,13.891L14.175,15.582L14.175,15.582L15.243,13.891ZM18.757,13.891L17.689,12.2L17.689,12.2L18.757,13.891ZM32.318,7.691C33.252,7.101 33.531,5.866 32.941,4.932C32.351,3.998 31.116,3.719 30.182,4.309L32.318,7.691ZM5.917,3.5L28.083,3.5L28.083,-0.5L5.917,-0.5L5.917,3.5ZM29.25,4.5L29.25,19.5L33.25,19.5L33.25,4.5L29.25,4.5ZM28.083,20.5L5.917,20.5L5.917,24.5L28.083,24.5L28.083,20.5ZM4.75,19.5L4.75,4.5L0.75,4.5L0.75,19.5L4.75,19.5ZM5.917,20.5C5.169,20.5 4.75,19.952 4.75,19.5L0.75,19.5C0.75,22.362 3.166,24.5 5.917,24.5L5.917,20.5ZM29.25,19.5C29.25,19.952 28.831,20.5 28.083,20.5L28.083,24.5C30.834,24.5 33.25,22.362 33.25,19.5L29.25,19.5ZM28.083,3.5C28.831,3.5 29.25,4.048 29.25,4.5L33.25,4.5C33.25,1.638 30.834,-0.5 28.083,-0.5L28.083,3.5ZM5.917,-0.5C3.166,-0.5 0.75,1.638 0.75,4.5L4.75,4.5C4.75,4.048 5.169,3.5 5.917,3.5L5.917,-0.5ZM1.682,7.691L14.175,15.582L16.311,12.2L3.818,4.309L1.682,7.691ZM19.825,15.582L32.318,7.691L30.182,4.309L17.689,12.2L19.825,15.582ZM14.175,15.582C15.892,16.665 18.108,16.665 19.825,15.582L17.689,12.2C17.277,12.459 16.723,12.459 16.311,12.2L14.175,15.582Z" fill="#111827"/>
</svg>
