<svg width="30" height="32" viewBox="0 0 30 32" fill="none" xmlns="http://www.w3.org/2000/svg" xmlns:xlink="http://www.w3.org/1999/xlink">
<path d="M27.667,23.5L27.667,25.5C28.486,25.5 29.222,25.001 29.525,24.24C29.828,23.48 29.637,22.611 29.042,22.048L27.667,23.5ZM2.333,23.5L0.958,22.048C0.363,22.611 0.172,23.48 0.475,24.24C0.778,25.001 1.515,25.5 2.333,25.5L2.333,23.5ZM4.558,21.393L5.933,22.845L5.933,22.845L4.558,21.393ZM11.833,6.012L12.468,7.909C13.284,7.636 13.833,6.872 13.833,6.012L11.833,6.012ZM18.167,6.012L16.167,6.012C16.167,6.872 16.716,7.636 17.532,7.909L18.167,6.012ZM3.709,24.952L5.933,22.845L3.182,19.941L0.958,22.048L3.709,24.952ZM7.5,19.238L7.5,14.5L3.5,14.5L3.5,19.238L7.5,19.238ZM22.5,14.5L22.5,19.238L26.5,19.238L26.5,14.5L22.5,14.5ZM24.067,22.845L26.291,24.952L29.042,22.048L26.818,19.941L24.067,22.845ZM5.933,22.845C6.923,21.907 7.5,20.612 7.5,19.238L3.5,19.238C3.5,19.48 3.4,19.735 3.182,19.941L5.933,22.845ZM22.5,19.238C22.5,20.612 23.077,21.907 24.067,22.845L26.818,19.941C26.6,19.735 26.5,19.48 26.5,19.238L22.5,19.238ZM11.198,4.116C6.774,5.597 3.5,9.639 3.5,14.5L7.5,14.5C7.5,11.524 9.513,8.898 12.468,7.909L11.198,4.116ZM17.532,7.909C20.487,8.898 22.5,11.524 22.5,14.5L26.5,14.5C26.5,9.639 23.226,5.597 18.802,4.116L17.532,7.909ZM20.167,6.012L20.167,5.5L16.167,5.5L16.167,6.012L20.167,6.012ZM9.833,5.5L9.833,6.012L13.833,6.012L13.833,5.5L9.833,5.5ZM15,0.5C12.25,0.5 9.833,2.638 9.833,5.5L13.833,5.5C13.833,5.048 14.252,4.5 15,4.5L15,0.5ZM20.167,5.5C20.167,2.638 17.75,0.5 15,0.5L15,4.5C15.748,4.5 16.167,5.048 16.167,5.5L20.167,5.5ZM17.75,25C17.75,26.28 16.622,27.5 15,27.5L15,31.5C18.625,31.5 21.75,28.69 21.75,25L17.75,25ZM15,27.5C13.378,27.5 12.25,26.28 12.25,25L8.25,25C8.25,28.69 11.375,31.5 15,31.5L15,27.5ZM27.667,21.5L19.75,21.5L19.75,25.5L27.667,25.5L27.667,21.5ZM21.75,25L21.75,23.5L17.75,23.5L17.75,25L21.75,25ZM19.75,21.5L10.25,21.5L10.25,25.5L19.75,25.5L19.75,21.5ZM10.25,21.5L2.333,21.5L2.333,25.5L10.25,25.5L10.25,21.5ZM12.25,25L12.25,23.5L8.25,23.5L8.25,25L12.25,25Z" fill="#111827"/>
</svg>
