<svg width="28" height="24" viewBox="0 0 28 24" fill="none" xmlns="http://www.w3.org/2000/svg" xmlns:xlink="http://www.w3.org/1999/xlink">
<path d="M1.1,-0.6C0.161,-0.6 -0.6,0.027 -0.6,0.8C-0.6,1.573 0.161,2.2 1.1,2.2L3.173,2.2L3.692,3.911C3.698,3.931 3.704,3.951 3.71,3.97L6.017,11.57L4.5,12.82C2.358,14.584 3.875,17.6 6.904,17.6L21.5,17.6C22.439,17.6 23.2,16.973 23.2,16.2C23.2,15.427 22.439,14.8 21.5,14.8L6.904,14.8L8.604,13.4L19.8,13.4C20.444,13.4 21.033,13.1 21.321,12.626L26.421,4.226C26.684,3.792 26.656,3.277 26.346,2.864C26.036,2.451 25.489,2.2 24.9,2.2L6.677,2.2L6.149,0.46C5.96,-0.163 5.28,-0.6 4.5,-0.6L1.1,-0.6Z" fill="#111827"/>
<path d="M23.2,21.1C23.2,22.26 22.058,23.2 20.65,23.2C19.242,23.2 18.1,22.26 18.1,21.1C18.1,19.94 19.242,19 20.65,19C22.058,19 23.2,19.94 23.2,21.1Z" fill="#111827"/>
<path d="M7.05,23.2C8.458,23.2 9.6,22.26 9.6,21.1C9.6,19.94 8.458,19 7.05,19C5.642,19 4.5,19.94 4.5,21.1C4.5,22.26 5.642,23.2 7.05,23.2Z" fill="#111827"/>
</svg>
