<svg width="28" height="20" viewBox="0 0 28 20" fill="none" xmlns="http://www.w3.org/2000/svg" xmlns:xlink="http://www.w3.org/1999/xlink">
<path d="M10.1,2.8L8.9,1.2L10.1,2.8ZM12.5,4L10.5,4L12.5,4ZM2.1,11.2L3.3,9.6L3.3,9.6L2.1,11.2ZM2.1,8.8L3.3,10.4L3.3,10.4L2.1,8.8ZM10.1,17.2L8.9,18.8L8.9,18.8L10.1,17.2ZM12.5,16L14.5,16L12.5,16ZM22.1,2.8L23.3,4.4L23.3,4.4L22.1,2.8ZM24.5,4L22.5,4L22.5,4L24.5,4ZM14.1,11.2L12.9,12.8L12.9,12.8L14.1,11.2ZM14.1,8.8L12.9,7.2L12.9,7.2L14.1,8.8ZM22.1,17.2L23.3,15.6L22.1,17.2ZM24.5,16L26.5,16L26.5,16L24.5,16ZM23.3,15.6L15.3,9.6L12.9,12.8L20.9,18.8L23.3,15.6ZM15.3,10.4L23.3,4.4L20.9,1.2L12.9,7.2L15.3,10.4ZM26.5,16L26.5,4L22.5,4L22.5,16L26.5,16ZM11.3,15.6L3.3,9.6L0.9,12.8L8.9,18.8L11.3,15.6ZM3.3,10.4L11.3,4.4L8.9,1.2L0.9,7.2L3.3,10.4ZM14.5,16L14.5,4L10.5,4L10.5,16L14.5,16ZM11.3,4.4C10.97,4.647 10.5,4.412 10.5,4L14.5,4C14.5,1.116 11.207,-0.53 8.9,1.2L11.3,4.4ZM3.3,9.6C3.567,9.8 3.567,10.2 3.3,10.4L0.9,7.2C-0.967,8.6 -0.967,11.4 0.9,12.8L3.3,9.6ZM8.9,18.8C11.207,20.531 14.5,18.884 14.5,16L10.5,16C10.5,15.588 10.97,15.353 11.3,15.6L8.9,18.8ZM23.3,4.4C22.97,4.647 22.5,4.412 22.5,4L26.5,4C26.5,1.116 23.207,-0.53 20.9,1.2L23.3,4.4ZM15.3,9.6C15.567,9.8 15.567,10.2 15.3,10.4L12.9,7.2C11.033,8.6 11.033,11.4 12.9,12.8L15.3,9.6ZM20.9,18.8C23.207,20.531 26.5,18.884 26.5,16L22.5,16C22.5,15.588 22.97,15.353 23.3,15.6L20.9,18.8Z" fill="#111827"/>
</svg>
