<svg width="30" height="32" viewBox="0 0 30 32" fill="none" xmlns="http://www.w3.org/2000/svg" xmlns:xlink="http://www.w3.org/1999/xlink">
<path d="M20.214,2.939L21.589,1.487L21.589,1.487L20.214,2.939ZM27.203,9.561L28.578,8.109L28.578,8.109L27.203,9.561ZM11.833,4.5L19.094,4.5L19.094,0.5L11.833,0.5L11.833,4.5ZM25.667,10.621L25.667,20.5L29.667,20.5L29.667,10.621L25.667,10.621ZM18.838,4.391L25.827,11.013L28.578,8.109L21.589,1.487L18.838,4.391ZM29.667,10.621C29.667,9.657 29.261,8.756 28.578,8.109L25.827,11.013C25.738,10.928 25.667,10.79 25.667,10.621L29.667,10.621ZM19.094,4.5C19.017,4.5 18.924,4.472 18.838,4.391L21.589,1.487C20.91,0.844 20.011,0.5 19.094,0.5L19.094,4.5ZM11.833,21.5C11.086,21.5 10.667,20.952 10.667,20.5L6.667,20.5C6.667,23.362 9.083,25.5 11.833,25.5L11.833,21.5ZM24.5,25.5C27.25,25.5 29.667,23.362 29.667,20.5L25.667,20.5C25.667,20.952 25.248,21.5 24.5,21.5L24.5,25.5ZM10.667,5.5C10.667,5.048 11.086,4.5 11.833,4.5L11.833,0.5C9.083,0.5 6.667,2.638 6.667,5.5L10.667,5.5ZM5.5,31.5L17.333,31.5L17.333,27.5L5.5,27.5L5.5,31.5ZM0.333,12.5L0.333,26.5L4.333,26.5L4.333,12.5L0.333,12.5ZM5.5,27.5C4.752,27.5 4.333,26.952 4.333,26.5L0.333,26.5C0.333,29.362 2.75,31.5 5.5,31.5L5.5,27.5ZM10.667,20.5L10.667,8.5L6.667,8.5L6.667,20.5L10.667,20.5ZM10.667,8.5L10.667,5.5L6.667,5.5L6.667,8.5L10.667,8.5ZM6.333,10.5L8.667,10.5L8.667,6.5L6.333,6.5L6.333,10.5ZM24.5,21.5L21.333,21.5L21.333,25.5L24.5,25.5L24.5,21.5ZM21.333,21.5L11.833,21.5L11.833,25.5L21.333,25.5L21.333,21.5ZM23.333,25.5L23.333,23.5L19.333,23.5L19.333,25.5L23.333,25.5ZM4.333,12.5C4.333,11.395 5.229,10.5 6.333,10.5L6.333,6.5C3.02,6.5 0.333,9.186 0.333,12.5L4.333,12.5ZM17.333,31.5C20.647,31.5 23.333,28.814 23.333,25.5L19.333,25.5C19.333,26.605 18.438,27.5 17.333,27.5L17.333,31.5Z" fill="#111827"/>
</svg>
