<svg width="24" height="20" viewBox="0 0 24 20" fill="none" xmlns="http://www.w3.org/2000/svg" xmlns:xlink="http://www.w3.org/1999/xlink">
<path d="M13.6,0.2C12.716,0.2 12,0.827 12,1.6C12,2.373 12.716,3 13.6,3L17.737,3L7.669,11.81C7.044,12.357 7.044,13.243 7.669,13.79C8.293,14.337 9.307,14.337 9.931,13.79L20,4.98L20,8.6C20,9.373 20.716,10 21.6,10C22.484,10 23.2,9.373 23.2,8.6L23.2,1.6C23.2,0.827 22.484,0.2 21.6,0.2L13.6,0.2Z" fill="#111827"/>
<path d="M4,3C2.233,3 0.8,4.254 0.8,5.8L0.8,17C0.8,18.546 2.233,19.8 4,19.8L16.8,19.8C18.567,19.8 20,18.546 20,17L20,12.8C20,12.027 19.284,11.4 18.4,11.4C17.516,11.4 16.8,12.027 16.8,12.8L16.8,17L4,17L4,5.8L8.8,5.8C9.684,5.8 10.4,5.173 10.4,4.4C10.4,3.627 9.684,3 8.8,3L4,3Z" fill="#111827"/>
</svg>
