<svg width="32" height="26" viewBox="0 0 32 26" fill="none" xmlns="http://www.w3.org/2000/svg" xmlns:xlink="http://www.w3.org/1999/xlink">
<path d="M20.1,5.6C20.1,8.251 17.817,10.4 15,10.4C12.183,10.4 9.9,8.251 9.9,5.6C9.9,2.949 12.183,0.8 15,0.8C17.817,0.8 20.1,2.949 20.1,5.6Z" fill="#111827"/>
<path d="M28.6,8.8C28.6,10.567 27.078,12 25.2,12C23.322,12 21.8,10.567 21.8,8.8C21.8,7.033 23.322,5.6 25.2,5.6C27.078,5.6 28.6,7.033 28.6,8.8Z" fill="#111827"/>
<path d="M8.2,8.8C8.2,10.567 6.678,12 4.8,12C2.922,12 1.4,10.567 1.4,8.8C1.4,7.033 2.922,5.6 4.8,5.6C6.678,5.6 8.2,7.033 8.2,8.8Z" fill="#111827"/>
<path d="M25.2,24.8L25.2,20C25.2,18.313 24.738,16.728 23.926,15.351C24.333,15.252 24.76,15.2 25.2,15.2C28.017,15.2 30.3,17.349 30.3,20L30.3,24.8L25.2,24.8Z" fill="#111827"/>
<path d="M6.074,15.351C5.262,16.728 4.8,18.313 4.8,20L4.8,24.8L-0.3,24.8L-0.3,20C-0.3,17.349 1.983,15.2 4.8,15.2C5.24,15.2 5.667,15.252 6.074,15.351Z" fill="#111827"/>
</svg>
