<svg width="28" height="34" viewBox="0 0 28 34" fill="none" xmlns="http://www.w3.org/2000/svg" xmlns:xlink="http://www.w3.org/1999/xlink">
<path d="M14,15C12.895,15 12,15.895 12,17C12,18.105 12.895,19 14,19L14,15ZM19,19C20.105,19 21,18.105 21,17C21,15.895 20.105,15 19,15L19,19ZM14,21.333C12.895,21.333 12,22.229 12,23.333C12,24.438 12.895,25.333 14,25.333L14,21.333ZM19,25.333C20.105,25.333 21,24.438 21,23.333C21,22.229 20.105,21.333 19,21.333L19,25.333ZM9,15C7.895,15 7,15.895 7,17C7,18.105 7.895,19 9,19L9,15ZM9.017,19C10.121,19 11.017,18.105 11.017,17C11.017,15.895 10.121,15 9.017,15L9.017,19ZM9,21.333C7.895,21.333 7,22.229 7,23.333C7,24.438 7.895,25.333 9,25.333L9,21.333ZM9.017,25.333C10.121,25.333 11.017,24.438 11.017,23.333C11.017,22.229 10.121,21.333 9.017,21.333L9.017,25.333ZM23.667,9.083L23.667,28.083L27.667,28.083L27.667,9.083L23.667,9.083ZM22.333,29.25L5.667,29.25L5.667,33.25L22.333,33.25L22.333,29.25ZM4.333,28.083L4.333,9.083L0.333,9.083L0.333,28.083L4.333,28.083ZM5.667,7.917L9,7.917L9,3.917L5.667,3.917L5.667,7.917ZM19,7.917L22.333,7.917L22.333,3.917L19,3.917L19,7.917ZM5.667,29.25C4.832,29.25 4.333,28.632 4.333,28.083L0.333,28.083C0.333,31.032 2.819,33.25 5.667,33.25L5.667,29.25ZM23.667,28.083C23.667,28.632 23.168,29.25 22.333,29.25L22.333,33.25C25.181,33.25 27.667,31.032 27.667,28.083L23.667,28.083ZM27.667,9.083C27.667,6.134 25.181,3.917 22.333,3.917L22.333,7.917C23.168,7.917 23.667,8.534 23.667,9.083L27.667,9.083ZM4.333,9.083C4.333,8.534 4.832,7.917 5.667,7.917L5.667,3.917C2.819,3.917 0.333,6.134 0.333,9.083L4.333,9.083ZM14,19L19,19L19,15L14,15L14,19ZM14,25.333L19,25.333L19,21.333L14,21.333L14,25.333ZM12.333,4.75L15.667,4.75L15.667,0.75L12.333,0.75L12.333,4.75ZM15.667,7.083L12.333,7.083L12.333,11.083L15.667,11.083L15.667,7.083ZM12.333,7.083C11.499,7.083 11,6.466 11,5.917L7,5.917C7,8.866 9.486,11.083 12.333,11.083L12.333,7.083ZM17,5.917C17,6.466 16.501,7.083 15.667,7.083L15.667,11.083C18.514,11.083 21,8.866 21,5.917L17,5.917ZM15.667,4.75C16.501,4.75 17,5.368 17,5.917L21,5.917C21,2.968 18.514,0.75 15.667,0.75L15.667,4.75ZM12.333,0.75C9.486,0.75 7,2.968 7,5.917L11,5.917C11,5.368 11.499,4.75 12.333,4.75L12.333,0.75ZM9,19L9.017,19L9.017,15L9,15L9,19ZM9,25.333L9.017,25.333L9.017,21.333L9,21.333L9,25.333Z" fill="#111827"/>
</svg>
