<svg width="28" height="28" viewBox="0 0 28 28" fill="none" xmlns="http://www.w3.org/2000/svg" xmlns:xlink="http://www.w3.org/1999/xlink">
<path d="M0.995,11.013C0.174,11.752 0.108,13.017 0.847,13.838C1.586,14.659 2.85,14.726 3.671,13.987L0.995,11.013ZM14,2L15.338,0.513C14.577,-0.171 13.423,-0.171 12.662,0.513L14,2ZM24.329,13.987C25.15,14.726 26.414,14.659 27.153,13.838C27.892,13.017 27.826,11.752 27.005,11.013L24.329,13.987ZM0.995,23.013C0.174,23.752 0.108,25.017 0.847,25.838C1.586,26.659 2.85,26.726 3.671,25.987L0.995,23.013ZM14,14L15.338,12.513C14.577,11.829 13.423,11.829 12.662,12.513L14,14ZM24.329,25.987C25.15,26.726 26.414,26.659 27.153,25.838C27.892,25.017 27.826,23.752 27.005,23.013L24.329,25.987ZM3.671,13.987L15.338,3.487L12.662,0.513L0.995,11.013L3.671,13.987ZM12.662,3.487L24.329,13.987L27.005,11.013L15.338,0.513L12.662,3.487ZM3.671,25.987L15.338,15.487L12.662,12.513L0.995,23.013L3.671,25.987ZM12.662,15.487L24.329,25.987L27.005,23.013L15.338,12.513L12.662,15.487Z" fill="#111827"/>
</svg>
