<svg width="34" height="32" viewBox="0 0 34 32" fill="none" xmlns="http://www.w3.org/2000/svg" xmlns:xlink="http://www.w3.org/1999/xlink">
<path d="M12.25,11.5L12.25,9.5C11.145,9.5 10.25,10.395 10.25,11.5L12.25,11.5ZM21.75,11.5L23.75,11.5C23.75,10.395 22.855,9.5 21.75,9.5L21.75,11.5ZM21.75,20.5L21.75,22.5C22.855,22.5 23.75,21.605 23.75,20.5L21.75,20.5ZM12.25,20.5L10.25,20.5C10.25,21.605 11.145,22.5 12.25,22.5L12.25,20.5ZM14.25,2.5C14.25,1.395 13.355,0.5 12.25,0.5C11.145,0.5 10.25,1.395 10.25,2.5L14.25,2.5ZM10.25,5.5C10.25,6.605 11.145,7.5 12.25,7.5C13.355,7.5 14.25,6.605 14.25,5.5L10.25,5.5ZM23.75,2.5C23.75,1.395 22.855,0.5 21.75,0.5C20.645,0.5 19.75,1.395 19.75,2.5L23.75,2.5ZM19.75,5.5C19.75,6.605 20.645,7.5 21.75,7.5C22.855,7.5 23.75,6.605 23.75,5.5L19.75,5.5ZM14.25,26.5C14.25,25.395 13.355,24.5 12.25,24.5C11.145,24.5 10.25,25.395 10.25,26.5L14.25,26.5ZM10.25,29.5C10.25,30.605 11.145,31.5 12.25,31.5C13.355,31.5 14.25,30.605 14.25,29.5L10.25,29.5ZM23.75,26.5C23.75,25.395 22.855,24.5 21.75,24.5C20.645,24.5 19.75,25.395 19.75,26.5L23.75,26.5ZM19.75,29.5C19.75,30.605 20.645,31.5 21.75,31.5C22.855,31.5 23.75,30.605 23.75,29.5L19.75,29.5ZM5.917,13.5C7.021,13.5 7.917,12.605 7.917,11.5C7.917,10.395 7.021,9.5 5.917,9.5L5.917,13.5ZM2.75,9.5C1.645,9.5 0.75,10.395 0.75,11.5C0.75,12.605 1.645,13.5 2.75,13.5L2.75,9.5ZM5.917,22.5C7.021,22.5 7.917,21.605 7.917,20.5C7.917,19.395 7.021,18.5 5.917,18.5L5.917,22.5ZM2.75,18.5C1.645,18.5 0.75,19.395 0.75,20.5C0.75,21.605 1.645,22.5 2.75,22.5L2.75,18.5ZM31.25,13.5C32.355,13.5 33.25,12.605 33.25,11.5C33.25,10.395 32.355,9.5 31.25,9.5L31.25,13.5ZM28.083,9.5C26.979,9.5 26.083,10.395 26.083,11.5C26.083,12.605 26.979,13.5 28.083,13.5L28.083,9.5ZM31.25,22.5C32.355,22.5 33.25,21.605 33.25,20.5C33.25,19.395 32.355,18.5 31.25,18.5L31.25,22.5ZM28.083,18.5C26.979,18.5 26.083,19.395 26.083,20.5C26.083,21.605 26.979,22.5 28.083,22.5L28.083,18.5ZM9.083,7.5L24.917,7.5L24.917,3.5L9.083,3.5L9.083,7.5ZM26.083,8.5L26.083,23.5L30.083,23.5L30.083,8.5L26.083,8.5ZM24.917,24.5L9.083,24.5L9.083,28.5L24.917,28.5L24.917,24.5ZM7.917,23.5L7.917,8.5L3.917,8.5L3.917,23.5L7.917,23.5ZM9.083,24.5C8.336,24.5 7.917,23.952 7.917,23.5L3.917,23.5C3.917,26.362 6.333,28.5 9.083,28.5L9.083,24.5ZM26.083,23.5C26.083,23.952 25.664,24.5 24.917,24.5L24.917,28.5C27.667,28.5 30.083,26.362 30.083,23.5L26.083,23.5ZM24.917,7.5C25.664,7.5 26.083,8.048 26.083,8.5L30.083,8.5C30.083,5.638 27.667,3.5 24.917,3.5L24.917,7.5ZM9.083,3.5C6.333,3.5 3.917,5.638 3.917,8.5L7.917,8.5C7.917,8.048 8.336,7.5 9.083,7.5L9.083,3.5ZM12.25,13.5L21.75,13.5L21.75,9.5L12.25,9.5L12.25,13.5ZM19.75,11.5L19.75,20.5L23.75,20.5L23.75,11.5L19.75,11.5ZM21.75,18.5L12.25,18.5L12.25,22.5L21.75,22.5L21.75,18.5ZM14.25,20.5L14.25,11.5L10.25,11.5L10.25,20.5L14.25,20.5ZM10.25,2.5L10.25,5.5L14.25,5.5L14.25,2.5L10.25,2.5ZM19.75,2.5L19.75,5.5L23.75,5.5L23.75,2.5L19.75,2.5ZM10.25,26.5L10.25,29.5L14.25,29.5L14.25,26.5L10.25,26.5ZM19.75,26.5L19.75,29.5L23.75,29.5L23.75,26.5L19.75,26.5ZM5.917,9.5L2.75,9.5L2.75,13.5L5.917,13.5L5.917,9.5ZM5.917,18.5L2.75,18.5L2.75,22.5L5.917,22.5L5.917,18.5ZM31.25,9.5L28.083,9.5L28.083,13.5L31.25,13.5L31.25,9.5ZM31.25,18.5L28.083,18.5L28.083,22.5L31.25,22.5L31.25,18.5Z" fill="#111827"/>
</svg>
