<svg width="26" height="26" viewBox="0 0 26 26" fill="none" xmlns="http://www.w3.org/2000/svg" xmlns:xlink="http://www.w3.org/1999/xlink">
<path d="M13.6,2.5C13.6,1.672 12.884,1 12,1C11.116,1 10.4,1.672 10.4,2.5L10.4,4C10.4,4.828 11.116,5.5 12,5.5C12.884,5.5 13.6,4.828 13.6,4L13.6,2.5Z" fill="#111827"/>
<path d="M21.051,6.636C21.676,6.05 21.676,5.1 21.051,4.515C20.426,3.929 19.413,3.929 18.788,4.515L17.657,5.575C17.032,6.161 17.032,7.111 17.657,7.697C18.282,8.282 19.295,8.282 19.92,7.697L21.051,6.636Z" fill="#111827"/>
<path d="M24.8,13C24.8,13.828 24.084,14.5 23.2,14.5L21.6,14.5C20.716,14.5 20,13.828 20,13C20,12.172 20.716,11.5 21.6,11.5L23.2,11.5C24.084,11.5 24.8,12.172 24.8,13Z" fill="#111827"/>
<path d="M4.08,7.697C4.705,8.282 5.718,8.282 6.343,7.697C6.968,7.111 6.968,6.161 6.343,5.575L5.212,4.515C4.587,3.929 3.574,3.929 2.949,4.515C2.324,5.1 2.324,6.05 2.949,6.636L4.08,7.697Z" fill="#111827"/>
<path d="M4,13C4,13.828 3.284,14.5 2.4,14.5L0.8,14.5C-0.084,14.5 -0.8,13.828 -0.8,13C-0.8,12.172 -0.084,11.5 0.8,11.5L2.4,11.5C3.284,11.5 4,12.172 4,13Z" fill="#111827"/>
<path d="M8.8,22L8.8,20.5L15.2,20.5L15.2,22C15.2,23.657 13.767,25 12,25C10.233,25 8.8,23.657 8.8,22Z" fill="#111827"/>
<path d="M15.201,19C15.225,18.489 15.532,18.031 15.963,17.712C17.447,16.613 18.4,14.911 18.4,13C18.4,9.686 15.535,7 12,7C8.465,7 5.6,9.686 5.6,13C5.6,14.911 6.553,16.613 8.037,17.712C8.468,18.031 8.775,18.489 8.799,19L15.201,19Z" fill="#111827"/>
</svg>
