<svg width="24" height="26" viewBox="0 0 24 26" fill="none" xmlns="http://www.w3.org/2000/svg" xmlns:xlink="http://www.w3.org/1999/xlink">
<path d="M7.2,3.6C7.2,1.28 9.349,-0.6 12,-0.6C14.651,-0.6 16.8,1.28 16.8,3.6L16.8,9.2C16.8,11.52 14.651,13.4 12,13.4C9.349,13.4 7.2,11.52 7.2,9.2L7.2,3.6Z" fill="#111827"/>
<path d="M13.6,18.901C19.028,18.221 23.2,14.137 23.2,9.2C23.2,8.427 22.484,7.8 21.6,7.8C20.716,7.8 20,8.427 20,9.2C20,13.066 16.418,16.2 12,16.2C7.582,16.2 4,13.066 4,9.2C4,8.427 3.284,7.8 2.4,7.8C1.516,7.8 0.8,8.427 0.8,9.2C0.8,14.137 4.972,18.221 10.4,18.901L10.4,21.8L5.6,21.8C4.716,21.8 4,22.427 4,23.2C4,23.973 4.716,24.6 5.6,24.6L18.4,24.6C19.284,24.6 20,23.973 20,23.2C20,22.427 19.284,21.8 18.4,21.8L13.6,21.8L13.6,18.901Z" fill="#111827"/>
</svg>
