<svg width="30" height="32" viewBox="0 0 30 32" fill="none" xmlns="http://www.w3.org/2000/svg" xmlns:xlink="http://www.w3.org/1999/xlink">
<path d="M6.043,9.015L7.888,8.243C7.635,7.636 7.099,7.194 6.456,7.058C5.813,6.922 5.145,7.111 4.668,7.563L6.043,9.015ZM2.333,17.5L0.333,17.5L2.333,17.5ZM27.667,17.5L29.667,17.5L27.667,17.5ZM14.978,2.5L16.348,1.043C15.636,0.373 14.543,0.316 13.765,0.909L14.978,2.5ZM10.25,13L9.394,14.807C10.013,15.101 10.74,15.057 11.32,14.69C11.899,14.323 12.25,13.686 12.25,13L10.25,13ZM15.023,14.5L15.032,12.5C14.184,12.496 13.425,13.028 13.139,13.828L15.023,14.5ZM19.75,19L21.75,19L21.75,19L19.75,19ZM13.417,19L13.417,21C14.262,21 15.016,20.468 15.3,19.672L13.417,19ZM10.25,19L10.25,17C9.145,17 8.25,17.895 8.25,19L10.25,19ZM22.581,24.533C18.406,28.489 11.594,28.489 7.419,24.533L4.668,27.437C10.386,32.854 19.614,32.854 25.332,27.437L22.581,24.533ZM7.419,24.533C5.348,22.571 4.333,20.027 4.333,17.5L0.333,17.5C0.333,21.115 1.792,24.713 4.668,27.437L7.419,24.533ZM4.333,17.5C4.333,14.973 5.348,12.429 7.419,10.467L4.668,7.563C1.792,10.287 0.333,13.885 0.333,17.5L4.333,17.5ZM22.581,10.467C24.652,12.429 25.667,14.973 25.667,17.5L29.667,17.5C29.667,13.885 28.208,10.287 25.332,7.563L22.581,10.467ZM25.667,17.5C25.667,20.027 24.652,22.571 22.581,24.533L25.332,27.437C28.208,24.713 29.667,21.115 29.667,17.5L25.667,17.5ZM13.607,3.957C15.357,5.603 17.129,6.732 18.673,7.698C20.263,8.691 21.518,9.459 22.581,10.467L25.332,7.563C23.917,6.222 22.276,5.232 20.793,4.306C19.265,3.351 17.787,2.397 16.348,1.043L13.607,3.957ZM6.043,9.015C4.198,9.787 4.199,9.788 4.199,9.788C4.199,9.789 4.199,9.79 4.2,9.79C4.2,9.791 4.201,9.792 4.201,9.794C4.202,9.796 4.203,9.799 4.204,9.801C4.207,9.807 4.209,9.813 4.212,9.819C4.218,9.833 4.225,9.848 4.233,9.867C4.25,9.903 4.271,9.948 4.297,10.002C4.35,10.11 4.423,10.252 4.52,10.421C4.713,10.758 5.002,11.206 5.406,11.704C6.215,12.702 7.494,13.907 9.394,14.807L11.106,11.192C9.84,10.593 9.015,9.805 8.513,9.185C8.261,8.874 8.091,8.607 7.99,8.432C7.94,8.344 7.908,8.281 7.891,8.247C7.883,8.23 7.879,8.22 7.878,8.219C7.878,8.219 7.879,8.221 7.881,8.224C7.881,8.226 7.882,8.229 7.884,8.232C7.884,8.233 7.885,8.235 7.886,8.237C7.886,8.238 7.887,8.239 7.887,8.24C7.887,8.24 7.888,8.241 7.888,8.241C7.888,8.242 7.888,8.243 6.043,9.015ZM12.25,13C12.25,10.271 12.976,6.54 16.19,4.091L13.765,0.909C9.107,4.46 8.25,9.729 8.25,13L12.25,13ZM16.983,20.73C15.9,21.757 14.1,21.757 13.017,20.73L10.266,23.634C12.892,26.122 17.108,26.122 19.734,23.634L16.983,20.73ZM15.014,16.5C15.749,16.503 16.456,16.77 16.983,17.27L19.734,14.366C18.418,13.119 16.713,12.508 15.032,12.5L15.014,16.5ZM16.983,17.27C17.508,17.767 17.75,18.392 17.75,19L21.75,19C21.75,17.304 21.064,15.626 19.734,14.366L16.983,17.27ZM17.75,19C17.75,19.608 17.508,20.233 16.983,20.73L19.734,23.634C21.064,22.374 21.75,20.696 21.75,19L17.75,19ZM15.3,19.672L16.907,15.172L13.139,13.828L11.533,18.327L15.3,19.672ZM13.017,20.73C12.492,20.233 12.25,19.608 12.25,19L8.25,19C8.25,20.696 8.936,22.374 10.266,23.634L13.017,20.73ZM13.417,17L10.25,17L10.25,21L13.417,21L13.417,17Z" fill="#111827"/>
</svg>
