<svg width="28" height="30" viewBox="0 0 28 30" fill="none" xmlns="http://www.w3.org/2000/svg" xmlns:xlink="http://www.w3.org/1999/xlink">
<path d="M7,3.333C8.105,3.333 9,2.438 9,1.333C9,0.229 8.105,-0.667 7,-0.667L7,3.333ZM7,28.667C8.105,28.667 9,27.771 9,26.667C9,25.562 8.105,24.667 7,24.667L7,28.667ZM17.548,18.958C16.788,19.76 16.823,21.026 17.625,21.785C18.426,22.545 19.692,22.511 20.452,21.709L17.548,18.958ZM25,14L26.452,15.375C27.183,14.604 27.183,13.396 26.452,12.625L25,14ZM20.452,6.291C19.692,5.489 18.426,5.455 17.625,6.215C16.823,6.974 16.788,8.24 17.548,9.042L20.452,6.291ZM7,12C5.895,12 5,12.895 5,14C5,15.105 5.895,16 7,16L7,12ZM3,21.917L3,6.083L-1,6.083L-1,21.917L3,21.917ZM5.5,3.333L7,3.333L7,-0.667L5.5,-0.667L5.5,3.333ZM7,24.667L5.5,24.667L5.5,28.667L7,28.667L7,24.667ZM-1,21.917C-1,25.541 1.81,28.667 5.5,28.667L5.5,24.667C4.22,24.667 3,23.539 3,21.917L-1,21.917ZM3,6.083C3,4.461 4.22,3.333 5.5,3.333L5.5,-0.667C1.81,-0.667 -1,2.459 -1,6.083L3,6.083ZM20.452,21.709L26.452,15.375L23.548,12.625L17.548,18.958L20.452,21.709ZM26.452,12.625L20.452,6.291L17.548,9.042L23.548,15.375L26.452,12.625ZM25,12L7,12L7,16L25,16L25,12Z" transform="rotate(-180 13 14)" fill="#111827"/>
</svg>
