<svg width="24" height="24" viewBox="0 0 24 24" fill="none" xmlns="http://www.w3.org/2000/svg" xmlns:xlink="http://www.w3.org/1999/xlink">
<path d="M9.3,0.8C7.422,0.8 5.9,2.054 5.9,3.6L5.9,14.8C5.9,16.346 7.422,17.6 9.3,17.6L19.5,17.6C21.378,17.6 22.9,16.346 22.9,14.8L22.9,6.98C22.9,6.237 22.542,5.525 21.904,5L17.8,1.62C17.162,1.095 16.298,0.8 15.396,0.8L9.3,0.8Z" fill="#111827"/>
<path d="M-0.9,9.2C-0.9,7.654 0.622,6.4 2.5,6.4L2.5,20.4L16.1,20.4C16.1,21.946 14.578,23.2 12.7,23.2L2.5,23.2C0.622,23.2 -0.9,21.946 -0.9,20.4L-0.9,9.2Z" fill="#111827"/>
</svg>
