<svg width="32" height="30" viewBox="0 0 32 30" fill="none" xmlns="http://www.w3.org/2000/svg" xmlns:xlink="http://www.w3.org/1999/xlink">
<path d="M18.583,-1C15.833,-1 13.417,1.138 13.417,4L17.417,4C17.417,3.548 17.836,3 18.583,3L18.583,-1ZM23.75,4C23.75,1.138 21.333,-1 18.583,-1L18.583,3C19.331,3 19.75,3.548 19.75,4L23.75,4ZM23.75,5.5L23.75,4L19.75,4L19.75,5.5L23.75,5.5ZM23.333,9L28.083,9L28.083,5L23.333,5L23.333,9ZM28.083,9C28.003,9 27.908,8.968 27.827,8.891C27.745,8.813 27.667,8.674 27.667,8.5L31.667,8.5C31.667,6.466 29.959,5 28.083,5L28.083,9ZM27.667,8.5L27.667,13L31.667,13L31.667,8.5L27.667,8.5ZM28.083,12.5L26.5,12.5L26.5,16.5L28.083,16.5L28.083,12.5ZM26.5,12.5C23.75,12.5 21.333,14.638 21.333,17.5L25.333,17.5C25.333,17.048 25.752,16.5 26.5,16.5L26.5,12.5ZM21.333,17.5C21.333,20.362 23.75,22.5 26.5,22.5L26.5,18.5C25.752,18.5 25.333,17.952 25.333,17.5L21.333,17.5ZM26.5,22.5L28.083,22.5L28.083,18.5L26.5,18.5L26.5,22.5ZM27.667,22L27.667,26.5L31.667,26.5L31.667,22L27.667,22ZM27.667,26.5C27.667,26.326 27.745,26.187 27.827,26.109C27.908,26.032 28.003,26 28.083,26L28.083,30C29.959,30 31.667,28.534 31.667,26.5L27.667,26.5ZM28.083,26L23.333,26L23.333,30L28.083,30L28.083,26ZM23.75,26.5L23.75,25L19.75,25L19.75,26.5L23.75,26.5ZM23.75,25C23.75,22.138 21.333,20 18.583,20L18.583,24C19.331,24 19.75,24.548 19.75,25L23.75,25ZM18.583,20C15.833,20 13.417,22.138 13.417,25L17.417,25C17.417,24.548 17.836,24 18.583,24L18.583,20ZM13.417,25L13.417,26.5L17.417,26.5L17.417,25L13.417,25ZM13.833,26L9.083,26L9.083,30L13.833,30L13.833,26ZM9.083,26C9.163,26 9.258,26.032 9.339,26.109C9.422,26.187 9.5,26.326 9.5,26.5L5.5,26.5C5.5,28.534 7.208,30 9.083,30L9.083,26ZM9.5,26.5L9.5,22L5.5,22L5.5,26.5L9.5,26.5ZM4.333,22.5L5.917,22.5L5.917,18.5L4.333,18.5L4.333,22.5ZM-0.833,17.5C-0.833,20.362 1.583,22.5 4.333,22.5L4.333,18.5C3.586,18.5 3.167,17.952 3.167,17.5L-0.833,17.5ZM4.333,12.5C1.583,12.5 -0.833,14.638 -0.833,17.5L3.167,17.5C3.167,17.048 3.586,16.5 4.333,16.5L4.333,12.5ZM5.917,12.5L4.333,12.5L4.333,16.5L5.917,16.5L5.917,12.5ZM9.5,13L9.5,8.5L5.5,8.5L5.5,13L9.5,13ZM9.5,8.5C9.5,8.674 9.422,8.813 9.339,8.891C9.258,8.968 9.163,9 9.083,9L9.083,5C7.208,5 5.5,6.466 5.5,8.5L9.5,8.5ZM9.083,9L13.833,9L13.833,5L9.083,5L9.083,9ZM13.417,4L13.417,5.5L17.417,5.5L17.417,4L13.417,4ZM13.833,9C15.709,9 17.417,7.534 17.417,5.5L13.417,5.5C13.417,5.326 13.495,5.187 13.577,5.109C13.658,5.032 13.753,5 13.833,5L13.833,9ZM9.5,22C9.5,19.966 7.792,18.5 5.917,18.5L5.917,22.5C5.837,22.5 5.742,22.468 5.661,22.391C5.578,22.313 5.5,22.174 5.5,22L9.5,22ZM27.667,13C27.667,12.826 27.745,12.687 27.827,12.609C27.908,12.532 28.003,12.5 28.083,12.5L28.083,16.5C29.959,16.5 31.667,15.034 31.667,13L27.667,13ZM13.417,26.5C13.417,26.326 13.495,26.187 13.577,26.109C13.658,26.032 13.753,26 13.833,26L13.833,30C15.709,30 17.417,28.534 17.417,26.5L13.417,26.5ZM28.083,22.5C28.003,22.5 27.908,22.468 27.827,22.391C27.745,22.313 27.667,22.174 27.667,22L31.667,22C31.667,19.966 29.959,18.5 28.083,18.5L28.083,22.5ZM5.917,16.5C7.792,16.5 9.5,15.034 9.5,13L5.5,13C5.5,12.826 5.578,12.687 5.661,12.609C5.742,12.532 5.837,12.5 5.917,12.5L5.917,16.5ZM23.333,26C23.413,26 23.508,26.032 23.589,26.109C23.672,26.187 23.75,26.326 23.75,26.5L19.75,26.5C19.75,28.534 21.458,30 23.333,30L23.333,26ZM19.75,5.5C19.75,7.534 21.458,9 23.333,9L23.333,5C23.413,5 23.508,5.032 23.589,5.109C23.672,5.187 23.75,5.326 23.75,5.5L19.75,5.5Z" fill="#111827"/>
</svg>
