<svg width="34" height="32" viewBox="0 0 34 32" fill="none" xmlns="http://www.w3.org/2000/svg" xmlns:xlink="http://www.w3.org/1999/xlink">
<path d="M3.352,5.093C2.299,4.76 1.175,5.344 0.843,6.398C0.51,7.451 1.094,8.575 2.148,8.907L3.352,5.093ZM31.852,8.907C32.906,8.575 33.49,7.451 33.157,6.398C32.825,5.344 31.701,4.76 30.648,5.093L31.852,8.907ZM19,2.5C19,1.395 18.105,0.5 17,0.5C15.895,0.5 15,1.395 15,2.5L19,2.5ZM2.75,22L0.863,21.336C0.568,22.177 0.864,23.112 1.589,23.629L2.75,22ZM10.363,22.664C10.73,23.706 11.872,24.253 12.914,23.887C13.956,23.52 14.503,22.378 14.137,21.336L10.363,22.664ZM13.413,23.629C14.312,22.988 14.522,21.739 13.881,20.839C13.24,19.94 11.991,19.73 11.091,20.371L13.413,23.629ZM21.75,22L19.863,21.336C19.568,22.177 19.864,23.112 20.589,23.629L21.75,22ZM29.363,22.664C29.73,23.706 30.872,24.253 31.914,23.887C32.956,23.52 33.503,22.378 33.137,21.336L29.363,22.664ZM32.413,23.629C33.312,22.988 33.522,21.739 32.881,20.839C32.24,19.94 30.991,19.73 30.091,20.371L32.413,23.629ZM12.25,27.5C11.145,27.5 10.25,28.395 10.25,29.5C10.25,30.605 11.145,31.5 12.25,31.5L12.25,27.5ZM21.75,31.5C22.855,31.5 23.75,30.605 23.75,29.5C23.75,28.395 22.855,27.5 21.75,27.5L21.75,31.5ZM2.148,8.907L6.898,10.407L8.102,6.593L3.352,5.093L2.148,8.907ZM27.102,10.407L31.852,8.907L30.648,5.093L25.898,6.593L27.102,10.407ZM5.613,7.836L0.863,21.336L4.637,22.664L9.387,9.164L5.613,7.836ZM5.613,9.164L10.363,22.664L14.137,21.336L9.387,7.836L5.613,9.164ZM11.091,20.371C8.979,21.876 6.023,21.876 3.911,20.371L1.589,23.629C5.09,26.124 9.911,26.124 13.413,23.629L11.091,20.371ZM24.613,7.836L19.863,21.336L23.637,22.664L28.387,9.164L24.613,7.836ZM24.613,9.164L29.363,22.664L33.137,21.336L28.387,7.836L24.613,9.164ZM30.091,20.371C27.979,21.876 25.023,21.876 22.911,20.371L20.589,23.629C24.09,26.124 28.911,26.124 32.413,23.629L30.091,20.371ZM15,2.5L15,5.5L19,5.5L19,2.5L15,2.5ZM15,5.5L15,29.5L19,29.5L19,5.5L15,5.5ZM16.398,3.593L6.898,6.593L8.102,10.407L17.602,7.407L16.398,3.593ZM16.398,7.407L25.898,10.407L27.102,6.593L17.602,3.593L16.398,7.407ZM17,27.5L12.25,27.5L12.25,31.5L17,31.5L17,27.5ZM17,31.5L21.75,31.5L21.75,27.5L17,27.5L17,31.5Z" fill="#111827"/>
</svg>
