<svg width="32" height="32" viewBox="0 0 32 32" fill="none" xmlns="http://www.w3.org/2000/svg" xmlns:xlink="http://www.w3.org/1999/xlink">
<path d="M11.842,3.526L9.945,4.158L9.945,4.158L11.842,3.526ZM14.089,10.266L12.191,10.898L12.191,10.898L14.089,10.266ZM13.336,12.082L14.231,13.871L14.231,13.871L13.336,12.082ZM9.95,13.775L9.056,11.986C8.096,12.466 7.686,13.618 8.127,14.597L9.95,13.775ZM18.225,22.049L17.403,23.873C18.382,24.314 19.534,23.904 20.014,22.944L18.225,22.049ZM19.918,18.664L18.129,17.769L18.129,17.769L19.918,18.664ZM21.734,17.911L21.102,19.809L21.102,19.809L21.734,17.911ZM28.474,20.158L29.107,18.261L29.107,18.261L28.474,20.158ZM30.914,3.914C31.695,3.133 31.695,1.867 30.914,1.086C30.133,0.305 28.867,0.305 28.086,1.086L30.914,3.914ZM20.5,11.5L18.5,11.5C18.5,12.605 19.395,13.5 20.5,13.5L20.5,11.5ZM22.5,4C22.5,2.895 21.605,2 20.5,2C19.395,2 18.5,2.895 18.5,4L22.5,4ZM28,13.5C29.105,13.5 30,12.605 30,11.5C30,10.395 29.105,9.5 28,9.5L28,13.5ZM5.5,0.5C2.739,0.5 0.5,2.739 0.5,5.5L4.5,5.5C4.5,4.948 4.948,4.5 5.5,4.5L5.5,0.5ZM10.419,0.5L5.5,0.5L5.5,4.5L10.419,4.5L10.419,0.5ZM13.739,2.893C13.263,1.464 11.925,0.5 10.419,0.5L10.419,4.5C10.204,4.5 10.013,4.362 9.945,4.158L13.739,2.893ZM15.986,9.633L13.739,2.893L9.945,4.158L12.191,10.898L15.986,9.633ZM14.231,13.871C15.789,13.092 16.537,11.286 15.986,9.633L12.191,10.898C12.113,10.662 12.219,10.404 12.442,10.293L14.231,13.871ZM10.845,15.564L14.231,13.871L12.442,10.293L9.056,11.986L10.845,15.564ZM19.047,20.226C15.825,18.773 13.227,16.175 11.774,12.953L8.127,14.597C9.981,18.709 13.291,22.019 17.403,23.873L19.047,20.226ZM18.129,17.769L16.436,21.155L20.014,22.944L21.707,19.558L18.129,17.769ZM22.367,16.014C20.714,15.463 18.908,16.211 18.129,17.769L21.707,19.558C21.596,19.781 21.338,19.887 21.102,19.809L22.367,16.014ZM29.107,18.261L22.367,16.014L21.102,19.809L27.842,22.055L29.107,18.261ZM31.5,21.581C31.5,20.075 30.536,18.737 29.107,18.261L27.842,22.055C27.638,21.987 27.5,21.796 27.5,21.581L31.5,21.581ZM31.5,26.5L31.5,21.581L27.5,21.581L27.5,26.5L31.5,26.5ZM26.5,31.5C29.261,31.5 31.5,29.261 31.5,26.5L27.5,26.5C27.5,27.052 27.052,27.5 26.5,27.5L26.5,31.5ZM25,31.5L26.5,31.5L26.5,27.5L25,27.5L25,31.5ZM0.5,7C0.5,20.531 11.469,31.5 25,31.5L25,27.5C13.678,27.5 4.5,18.322 4.5,7L0.5,7ZM0.5,5.5L0.5,7L4.5,7L4.5,5.5L0.5,5.5ZM21.914,12.914L30.914,3.914L28.086,1.086L19.086,10.086L21.914,12.914ZM18.5,4L18.5,11.5L22.5,11.5L22.5,4L18.5,4ZM20.5,13.5L28,13.5L28,9.5L20.5,9.5L20.5,13.5Z" fill="#111827"/>
</svg>
