<svg width="34" height="26" viewBox="0 0 34 26" fill="none" xmlns="http://www.w3.org/2000/svg" xmlns:xlink="http://www.w3.org/1999/xlink">
<path d="M22.5,7.501L20.549,7.941C20.758,8.866 21.587,9.518 22.536,9.501L22.5,7.501ZM6.201,10.645L6.597,12.606C7.132,12.498 7.6,12.176 7.892,11.714C8.183,11.253 8.274,10.692 8.142,10.163L6.201,10.645ZM7.667,20.5C4.886,20.5 3,18.516 3,16.5L-1,16.5C-1,21.111 3.084,24.5 7.667,24.5L7.667,20.5ZM22.667,20.5L7.667,20.5L7.667,24.5L22.667,24.5L22.667,20.5ZM29,15C29,17.845 26.368,20.5 22.667,20.5L22.667,24.5C28.17,24.5 33,20.44 33,15L29,15ZM22.667,9.5C26.368,9.5 29,12.155 29,15L33,15C33,9.56 28.17,5.5 22.667,5.5L22.667,9.5ZM22.536,9.501C22.579,9.5 22.623,9.5 22.667,9.5L22.667,5.5C22.599,5.5 22.532,5.501 22.465,5.502L22.536,9.501ZM14.333,3.5C17.552,3.5 20.009,5.543 20.549,7.941L24.451,7.062C23.449,2.612 19.179,-0.5 14.333,-0.5L14.333,3.5ZM8,9C8,6.155 10.632,3.5 14.333,3.5L14.333,-0.5C8.83,-0.5 4,3.56 4,9L8,9ZM8.142,10.163C8.049,9.789 8,9.401 8,9L4,9C4,9.73 4.09,10.443 4.26,11.128L8.142,10.163ZM3,16.5C3,14.749 4.389,13.052 6.597,12.606L5.805,8.685C2.059,9.441 -1,12.53 -1,16.5L3,16.5Z" fill="#111827"/>
</svg>
