<svg width="24" height="24" viewBox="0 0 24 24" fill="none" xmlns="http://www.w3.org/2000/svg" xmlns:xlink="http://www.w3.org/1999/xlink">
<path d="M0.662,19.513C-0.159,20.252 -0.226,21.517 0.513,22.338C1.252,23.159 2.517,23.226 3.338,22.487L0.662,19.513ZM23.338,4.487C24.159,3.748 24.226,2.483 23.487,1.662C22.748,0.841 21.483,0.774 20.662,1.513L23.338,4.487ZM3.338,1.513C2.517,0.774 1.252,0.841 0.513,1.662C-0.226,2.483 -0.159,3.748 0.662,4.487L3.338,1.513ZM20.662,22.487C21.483,23.226 22.748,23.159 23.487,22.338C24.226,21.517 24.159,20.252 23.338,19.513L20.662,22.487ZM3.338,22.487L23.338,4.487L20.662,1.513L0.662,19.513L3.338,22.487ZM0.662,4.487L20.662,22.487L23.338,19.513L3.338,1.513L0.662,4.487Z" fill="#111827"/>
</svg>
