<svg width="32" height="30" viewBox="0 0 32 30" fill="none" xmlns="http://www.w3.org/2000/svg" xmlns:xlink="http://www.w3.org/1999/xlink">
<path d="M2.5,27.75L0.5,27.75C0.5,28.855 1.395,29.75 2.5,29.75L2.5,27.75ZM20.5,27.75L20.5,29.75C21.605,29.75 22.5,28.855 22.5,27.75L20.5,27.75ZM27,10.75C27,9.645 26.105,8.75 25,8.75C23.895,8.75 23,9.645 23,10.75L27,10.75ZM23,19.25C23,20.355 23.895,21.25 25,21.25C26.105,21.25 27,20.355 27,19.25L23,19.25ZM29.5,17C30.605,17 31.5,16.105 31.5,15C31.5,13.895 30.605,13 29.5,13L29.5,17ZM20.5,13C19.395,13 18.5,13.895 18.5,15C18.5,16.105 19.395,17 20.5,17L20.5,13ZM15.5,7.917C15.5,9.836 13.818,11.583 11.5,11.583L11.5,15.583C15.809,15.583 19.5,12.257 19.5,7.917L15.5,7.917ZM11.5,11.583C9.182,11.583 7.5,9.836 7.5,7.917L3.5,7.917C3.5,12.257 7.191,15.583 11.5,15.583L11.5,11.583ZM7.5,7.917C7.5,5.998 9.182,4.25 11.5,4.25L11.5,0.25C7.191,0.25 3.5,3.576 3.5,7.917L7.5,7.917ZM11.5,4.25C13.818,4.25 15.5,5.998 15.5,7.917L19.5,7.917C19.5,3.576 15.809,0.25 11.5,0.25L11.5,4.25ZM4.5,26.333C4.5,22.85 7.525,19.833 11.5,19.833L11.5,15.833C5.534,15.833 0.5,20.428 0.5,26.333L4.5,26.333ZM11.5,19.833C15.475,19.833 18.5,22.85 18.5,26.333L22.5,26.333C22.5,20.428 17.466,15.833 11.5,15.833L11.5,19.833ZM0.5,26.333L0.5,27.75L4.5,27.75L4.5,26.333L0.5,26.333ZM2.5,29.75L20.5,29.75L20.5,25.75L2.5,25.75L2.5,29.75ZM22.5,27.75L22.5,26.333L18.5,26.333L18.5,27.75L22.5,27.75ZM23,10.75L23,15L27,15L27,10.75L23,10.75ZM23,15L23,19.25L27,19.25L27,15L23,15ZM29.5,13L25,13L25,17L29.5,17L29.5,13ZM25,13L20.5,13L20.5,17L25,17L25,13Z" fill="#111827"/>
</svg>
