<svg width="30" height="34" viewBox="0 0 30 34" fill="none" xmlns="http://www.w3.org/2000/svg" xmlns:xlink="http://www.w3.org/1999/xlink">
<path d="M27.667,31.25L26.772,33.039C27.392,33.349 28.129,33.316 28.718,32.951C29.308,32.587 29.667,31.943 29.667,31.25L27.667,31.25ZM2.333,31.25L0.333,31.25C0.333,31.943 0.692,32.587 1.282,32.951C1.871,33.316 2.608,33.349 3.228,33.039L2.333,31.25ZM15,31.25L14.106,33.039C14.669,33.32 15.331,33.32 15.894,33.039L15,31.25ZM8.667,28.083L9.561,26.294C8.998,26.013 8.335,26.013 7.772,26.294L8.667,28.083ZM21.333,28.083L22.228,26.294C21.665,26.013 21.002,26.013 20.439,26.294L21.333,28.083ZM19.333,21.75C19.333,22.855 20.229,23.75 21.333,23.75C22.438,23.75 23.333,22.855 23.333,21.75L19.333,21.75ZM8.667,13.833L7.252,12.419C6.471,13.2 6.471,14.466 7.252,15.248L8.667,13.833ZM12.002,19.998C12.783,20.779 14.05,20.779 14.831,19.998C15.612,19.216 15.612,17.95 14.831,17.169L12.002,19.998ZM14.831,10.498C15.612,9.716 15.612,8.45 14.831,7.669C14.05,6.888 12.783,6.888 12.002,7.669L14.831,10.498ZM5.5,4.75L24.5,4.75L24.5,0.75L5.5,0.75L5.5,4.75ZM25.667,5.917L25.667,31.25L29.667,31.25L29.667,5.917L25.667,5.917ZM4.333,31.25L4.333,5.917L0.333,5.917L0.333,31.25L4.333,31.25ZM15.894,29.461L9.561,26.294L7.772,29.872L14.106,33.039L15.894,29.461ZM7.772,26.294L1.439,29.461L3.228,33.039L9.561,29.872L7.772,26.294ZM28.561,29.461L22.228,26.294L20.439,29.872L26.772,33.039L28.561,29.461ZM20.439,26.294L14.106,29.461L15.894,33.039L22.228,29.872L20.439,26.294ZM24.5,4.75C25.144,4.75 25.667,5.272 25.667,5.917L29.667,5.917C29.667,3.063 27.354,0.75 24.5,0.75L24.5,4.75ZM5.5,0.75C2.647,0.75 0.333,3.063 0.333,5.917L4.333,5.917C4.333,5.272 4.856,4.75 5.5,4.75L5.5,0.75ZM23.333,21.75L23.333,20.167L19.333,20.167L19.333,21.75L23.333,21.75ZM15,11.833L8.667,11.833L8.667,15.833L15,15.833L15,11.833ZM23.333,20.167C23.333,15.564 19.602,11.833 15,11.833L15,15.833C17.393,15.833 19.333,17.773 19.333,20.167L23.333,20.167ZM14.831,17.169L10.081,12.419L7.252,15.248L12.002,19.998L14.831,17.169ZM10.081,15.248L14.831,10.498L12.002,7.669L7.252,12.419L10.081,15.248Z" fill="#111827"/>
</svg>
