<svg width="34" height="32" viewBox="0 0 34 32" fill="none" xmlns="http://www.w3.org/2000/svg" xmlns:xlink="http://www.w3.org/1999/xlink">
<path d="M20,14.5C20,13.395 19.104,12.5 18,12.5C16.895,12.5 16,13.395 16,14.5L20,14.5ZM11.773,27.711C11.14,28.616 11.361,29.863 12.266,30.496C13.171,31.129 14.418,30.908 15.051,30.003L11.773,27.711ZM7.769,25.662L6.13,24.516L6.13,24.516L7.769,25.662ZM6.009,24.694C5.4,25.616 5.655,26.856 6.577,27.465C7.499,28.073 8.739,27.819 9.347,26.897L6.009,24.694ZM19.051,28.293C18.514,29.258 18.861,30.476 19.826,31.013C20.791,31.55 22.009,31.203 22.546,30.238L19.051,28.293ZM25.192,24.1C25.524,23.046 24.938,21.923 23.884,21.592C22.831,21.261 21.708,21.846 21.377,22.9L25.192,24.1ZM22.35,18.7C22.185,19.792 22.936,20.812 24.028,20.977C25.12,21.143 26.139,20.392 26.305,19.3L22.35,18.7ZM27.776,24.595C27.443,25.648 28.027,26.772 29.08,27.105C30.133,27.438 31.257,26.854 31.59,25.801L27.776,24.595ZM1.24,20.096C0.715,21.068 1.078,22.281 2.05,22.806C3.022,23.331 4.235,22.968 4.76,21.996L1.24,20.096ZM10.41,2.331C9.43,2.841 9.049,4.049 9.559,5.029C10.069,6.009 11.277,6.389 12.257,5.879L10.41,2.331ZM8.133,9.581C8.73,8.652 8.461,7.415 7.532,6.818C6.603,6.22 5.365,6.489 4.768,7.419L8.133,9.581ZM16,14.5C16,19.34 14.46,23.867 11.773,27.711L15.051,30.003C18.177,25.53 20,20.212 20,14.5L16,14.5ZM26.667,14.5C26.667,9.889 22.583,6.5 18,6.5L18,10.5C20.781,10.5 22.667,12.484 22.667,14.5L26.667,14.5ZM9.333,14.5C9.333,18.177 8.167,21.601 6.13,24.516L9.408,26.808C11.885,23.264 13.333,19.048 13.333,14.5L9.333,14.5ZM18,6.5C13.417,6.5 9.333,9.889 9.333,14.5L13.333,14.5C13.333,12.484 15.219,10.5 18,10.5L18,6.5ZM6.13,24.516C6.088,24.575 6.048,24.634 6.009,24.694L9.347,26.897C9.367,26.867 9.387,26.837 9.408,26.808L6.13,24.516ZM22.546,30.238C23.63,28.291 24.52,26.238 25.192,24.1L21.377,22.9C20.788,24.773 20.006,26.577 19.051,28.293L22.546,30.238ZM26.305,19.3C26.543,17.729 26.667,16.127 26.667,14.5L22.667,14.5C22.667,15.925 22.559,17.327 22.35,18.7L26.305,19.3ZM33.333,14.5C33.333,6.575 26.265,0.5 18,0.5L18,4.5C24.463,4.5 29.333,9.17 29.333,14.5L33.333,14.5ZM31.59,25.801C32.725,22.21 33.333,18.418 33.333,14.5L29.333,14.5C29.333,18.001 28.79,21.387 27.776,24.595L31.59,25.801ZM2.667,14.5C2.667,16.501 2.157,18.397 1.24,20.096L4.76,21.996C5.978,19.739 6.667,17.193 6.667,14.5L2.667,14.5ZM18,0.5C15.25,0.5 12.656,1.162 10.41,2.331L12.257,5.879C13.933,5.007 15.893,4.5 18,4.5L18,0.5ZM4.768,7.419C3.438,9.487 2.667,11.909 2.667,14.5L6.667,14.5C6.667,12.719 7.194,11.043 8.133,9.581L4.768,7.419Z" fill="#111827"/>
</svg>
