<svg width="30" height="32" viewBox="0 0 30 32" fill="none" xmlns="http://www.w3.org/2000/svg" xmlns:xlink="http://www.w3.org/1999/xlink">
<path d="M3.917,11.5L3.917,9.5C2.88,9.5 2.015,10.292 1.924,11.325L3.917,11.5ZM26.083,11.5L28.076,11.325C27.985,10.292 27.12,9.5 26.083,9.5L26.083,11.5ZM27.667,29.5L27.667,31.5C28.228,31.5 28.763,31.264 29.142,30.851C29.52,30.437 29.708,29.883 29.659,29.325L27.667,29.5ZM2.333,29.5L0.341,29.325C0.292,29.883 0.48,30.437 0.858,30.851C1.237,31.264 1.772,31.5 2.333,31.5L2.333,29.5ZM19.333,14.5C19.333,15.605 20.229,16.5 21.333,16.5C22.438,16.5 23.333,15.605 23.333,14.5L19.333,14.5ZM6.667,14.5C6.667,15.605 7.562,16.5 8.667,16.5C9.771,16.5 10.667,15.605 10.667,14.5L6.667,14.5ZM3.917,13.5L26.083,13.5L26.083,9.5L3.917,9.5L3.917,13.5ZM24.091,11.675L25.674,29.675L29.659,29.325L28.076,11.325L24.091,11.675ZM27.667,27.5L2.333,27.5L2.333,31.5L27.667,31.5L27.667,27.5ZM4.326,29.675L5.909,11.675L1.924,11.325L0.341,29.325L4.326,29.675ZM19.333,8.5L19.333,14.5L23.333,14.5L23.333,8.5L19.333,8.5ZM10.667,14.5L10.667,8.5L6.667,8.5L6.667,14.5L10.667,14.5ZM15,4.5C17.496,4.5 19.333,6.391 19.333,8.5L23.333,8.5C23.333,3.981 19.499,0.5 15,0.5L15,4.5ZM15,0.5C10.501,0.5 6.667,3.981 6.667,8.5L10.667,8.5C10.667,6.391 12.503,4.5 15,4.5L15,0.5Z" fill="#111827"/>
</svg>
