<svg width="34" height="32" viewBox="0 0 34 32" fill="none" xmlns="http://www.w3.org/2000/svg" xmlns:xlink="http://www.w3.org/1999/xlink">
<path d="M15.537,3.168C14.784,3.976 14.829,5.242 15.637,5.995C16.445,6.748 17.71,6.703 18.463,5.895L15.537,3.168ZM18.463,11.105C17.71,10.297 16.445,10.252 15.637,11.005C14.829,11.758 14.784,13.024 15.537,13.832L18.463,11.105ZM2.75,29.5L0.75,29.5C0.75,30.605 1.645,31.5 2.75,31.5L2.75,29.5ZM31.25,29.5L31.25,31.5C32.355,31.5 33.25,30.605 33.25,29.5L31.25,29.5ZM16.039,18.45C15.07,18.981 14.715,20.197 15.246,21.165C15.777,22.134 16.993,22.489 17.961,21.958L16.039,18.45ZM16.583,8.5C16.583,10.609 14.746,12.5 12.25,12.5L12.25,16.5C16.749,16.5 20.583,13.019 20.583,8.5L16.583,8.5ZM12.25,12.5C9.754,12.5 7.917,10.609 7.917,8.5L3.917,8.5C3.917,13.019 7.751,16.5 12.25,16.5L12.25,12.5ZM7.917,8.5C7.917,6.391 9.754,4.5 12.25,4.5L12.25,0.5C7.751,0.5 3.917,3.981 3.917,8.5L7.917,8.5ZM12.25,4.5C14.746,4.5 16.583,6.391 16.583,8.5L20.583,8.5C20.583,3.981 16.749,0.5 12.25,0.5L12.25,4.5ZM18.463,5.895C19.249,5.052 20.418,4.5 21.75,4.5L21.75,0.5C19.299,0.5 17.073,1.519 15.537,3.168L18.463,5.895ZM21.75,4.5C24.247,4.5 26.083,6.391 26.083,8.5L30.083,8.5C30.083,3.981 26.249,0.5 21.75,0.5L21.75,4.5ZM26.083,8.5C26.083,10.609 24.247,12.5 21.75,12.5L21.75,16.5C26.249,16.5 30.083,13.019 30.083,8.5L26.083,8.5ZM21.75,12.5C20.418,12.5 19.249,11.948 18.463,11.105L15.537,13.832C17.073,15.481 19.299,16.5 21.75,16.5L21.75,12.5ZM4.75,28C4.75,24.235 8.005,21 12.25,21L12.25,17C6.002,17 0.75,21.824 0.75,28L4.75,28ZM12.25,21C16.495,21 19.75,24.235 19.75,28L23.75,28C23.75,21.824 18.498,17 12.25,17L12.25,21ZM0.75,28L0.75,29.5L4.75,29.5L4.75,28L0.75,28ZM2.75,31.5L21.75,31.5L21.75,27.5L2.75,27.5L2.75,31.5ZM23.75,29.5L23.75,28L19.75,28L19.75,29.5L23.75,29.5ZM21.75,31.5L31.25,31.5L31.25,27.5L21.75,27.5L21.75,31.5ZM33.25,29.5L33.25,28L29.25,28L29.25,29.5L33.25,29.5ZM33.25,28C33.25,21.824 27.998,17 21.75,17L21.75,21C25.995,21 29.25,24.235 29.25,28L33.25,28ZM21.75,17C19.679,17 17.727,17.525 16.039,18.45L17.961,21.958C19.068,21.352 20.36,21 21.75,21L21.75,17Z" fill="#111827"/>
</svg>
