<svg width="36" height="32" viewBox="0 0 36 32" fill="none" xmlns="http://www.w3.org/2000/svg" xmlns:xlink="http://www.w3.org/1999/xlink">
<path d="M29.667,29.5L29.667,31.5L29.667,31.5L29.667,29.5ZM6.333,29.5L6.333,31.5L6.333,31.5L6.333,29.5ZM3,27.5C1.895,27.5 1,28.395 1,29.5C1,30.605 1.895,31.5 3,31.5L3,27.5ZM13,6.5C11.895,6.5 11,7.395 11,8.5C11,9.605 11.895,10.5 13,10.5L13,6.5ZM14.667,10.5C15.771,10.5 16.667,9.605 16.667,8.5C16.667,7.395 15.771,6.5 14.667,6.5L14.667,10.5ZM13,12.5C11.895,12.5 11,13.395 11,14.5C11,15.605 11.895,16.5 13,16.5L13,12.5ZM14.667,16.5C15.771,16.5 16.667,15.605 16.667,14.5C16.667,13.395 15.771,12.5 14.667,12.5L14.667,16.5ZM21.333,6.5C20.229,6.5 19.333,7.395 19.333,8.5C19.333,9.605 20.229,10.5 21.333,10.5L21.333,6.5ZM23,10.5C24.105,10.5 25,9.605 25,8.5C25,7.395 24.105,6.5 23,6.5L23,10.5ZM21.333,12.5C20.229,12.5 19.333,13.395 19.333,14.5C19.333,15.605 20.229,16.5 21.333,16.5L21.333,12.5ZM23,16.5C24.105,16.5 25,15.605 25,14.5C25,13.395 24.105,12.5 23,12.5L23,16.5ZM33,31.5C34.105,31.5 35,30.605 35,29.5C35,28.395 34.105,27.5 33,27.5L33,31.5ZM9.667,4.5L26.333,4.5L26.333,0.5L9.667,0.5L9.667,4.5ZM27.667,5.5L27.667,29.5L31.667,29.5L31.667,5.5L27.667,5.5ZM8.333,29.5L8.333,5.5L4.333,5.5L4.333,29.5L8.333,29.5ZM26.333,4.5C27.273,4.5 27.667,5.141 27.667,5.5L31.667,5.5C31.667,2.546 29.075,0.5 26.333,0.5L26.333,4.5ZM9.667,0.5C6.925,0.5 4.333,2.546 4.333,5.5L8.333,5.5C8.333,5.141 8.727,4.5 9.667,4.5L9.667,0.5ZM3,31.5L6.333,31.5L6.333,27.5L3,27.5L3,31.5ZM16.333,22.5L19.667,22.5L19.667,18.5L16.333,18.5L16.333,22.5ZM13,10.5L14.667,10.5L14.667,6.5L13,6.5L13,10.5ZM13,16.5L14.667,16.5L14.667,12.5L13,12.5L13,16.5ZM21.333,10.5L23,10.5L23,6.5L21.333,6.5L21.333,10.5ZM21.333,16.5L23,16.5L23,12.5L21.333,12.5L21.333,16.5ZM19.667,22.5C19.641,22.5 19.579,22.49 19.507,22.426C19.433,22.359 19.333,22.211 19.333,22L23.333,22C23.333,19.874 21.488,18.5 19.667,18.5L19.667,22.5ZM16.667,22C16.667,22.211 16.567,22.359 16.493,22.426C16.421,22.49 16.359,22.5 16.333,22.5L16.333,18.5C14.512,18.5 12.667,19.874 12.667,22L16.667,22ZM14.667,27.5L6.333,27.5L6.333,31.5L14.667,31.5L14.667,27.5ZM12.667,22L12.667,29.5L16.667,29.5L16.667,22L12.667,22ZM29.667,31.5L33,31.5L33,27.5L29.667,27.5L29.667,31.5ZM29.667,27.5L21.333,27.5L21.333,31.5L29.667,31.5L29.667,27.5ZM21.333,27.5L14.667,27.5L14.667,31.5L21.333,31.5L21.333,27.5ZM19.333,22L19.333,29.5L23.333,29.5L23.333,22L19.333,22Z" fill="#111827"/>
</svg>
