<svg width="32" height="28" viewBox="0 0 32 28" fill="none" xmlns="http://www.w3.org/2000/svg" xmlns:xlink="http://www.w3.org/1999/xlink">
<path d="M4.333,4L27.667,4L27.667,0L4.333,0L4.333,4ZM27.333,3.5L27.333,6.5L31.333,6.5L31.333,3.5L27.333,3.5ZM27.667,6L4.333,6L4.333,10L27.667,10L27.667,6ZM4.667,6.5L4.667,3.5L0.667,3.5L0.667,6.5L4.667,6.5ZM4.333,6C4.359,6 4.421,6.01 4.493,6.074C4.567,6.141 4.667,6.289 4.667,6.5L0.667,6.5C0.667,8.626 2.512,10 4.333,10L4.333,6ZM27.333,6.5C27.333,6.289 27.432,6.141 27.507,6.074C27.578,6.01 27.64,6 27.667,6L27.667,10C29.488,10 31.333,8.626 31.333,6.5L27.333,6.5ZM27.667,4C27.64,4 27.578,3.99 27.507,3.926C27.432,3.859 27.333,3.711 27.333,3.5L31.333,3.5C31.333,1.374 29.488,0 27.667,0L27.667,4ZM4.333,0C2.512,0 0.667,1.374 0.667,3.5L4.667,3.5C4.667,3.711 4.567,3.859 4.493,3.926C4.421,3.99 4.359,4 4.333,4L4.333,0ZM4.333,16L14.333,16L14.333,12L4.333,12L4.333,16ZM14,15.5L14,24.5L18,24.5L18,15.5L14,15.5ZM14.333,24L4.333,24L4.333,28L14.333,28L14.333,24ZM4.667,24.5L4.667,15.5L0.667,15.5L0.667,24.5L4.667,24.5ZM4.333,24C4.359,24 4.421,24.01 4.493,24.074C4.567,24.141 4.667,24.289 4.667,24.5L0.667,24.5C0.667,26.626 2.512,28 4.333,28L4.333,24ZM14,24.5C14,24.289 14.099,24.141 14.174,24.074C14.245,24.01 14.307,24 14.333,24L14.333,28C16.155,28 18,26.626 18,24.5L14,24.5ZM14.333,16C14.307,16 14.245,15.99 14.174,15.926C14.099,15.859 14,15.711 14,15.5L18,15.5C18,13.374 16.155,12 14.333,12L14.333,16ZM4.333,12C2.512,12 0.667,13.374 0.667,15.5L4.667,15.5C4.667,15.711 4.567,15.859 4.493,15.926C4.421,15.99 4.359,16 4.333,16L4.333,12ZM24.333,16L27.667,16L27.667,12L24.333,12L24.333,16ZM27.333,15.5L27.333,24.5L31.333,24.5L31.333,15.5L27.333,15.5ZM27.667,24L24.333,24L24.333,28L27.667,28L27.667,24ZM24.667,24.5L24.667,15.5L20.667,15.5L20.667,24.5L24.667,24.5ZM24.333,24C24.359,24 24.421,24.01 24.493,24.074C24.567,24.141 24.667,24.289 24.667,24.5L20.667,24.5C20.667,26.626 22.512,28 24.333,28L24.333,24ZM27.333,24.5C27.333,24.289 27.432,24.141 27.507,24.074C27.578,24.01 27.64,24 27.667,24L27.667,28C29.488,28 31.333,26.626 31.333,24.5L27.333,24.5ZM27.667,16C27.64,16 27.578,15.99 27.507,15.926C27.432,15.859 27.333,15.711 27.333,15.5L31.333,15.5C31.333,13.374 29.488,12 27.667,12L27.667,16ZM24.333,12C22.512,12 20.667,13.374 20.667,15.5L24.667,15.5C24.667,15.711 24.567,15.859 24.493,15.926C24.421,15.99 24.359,16 24.333,16L24.333,12Z" fill="#111827"/>
</svg>
