<svg width="34" height="30" viewBox="0 0 34 30" fill="none" xmlns="http://www.w3.org/2000/svg" xmlns:xlink="http://www.w3.org/1999/xlink">
<path d="M2.667,2L2.667,0C1.562,0 0.667,0.895 0.667,2L2.667,2ZM29.333,2L31.333,2C31.333,0.895 30.438,0 29.333,0L29.333,2ZM7.333,15.5C7.333,16.605 8.229,17.5 9.333,17.5C10.438,17.5 11.333,16.605 11.333,15.5L7.333,15.5ZM11.333,14C11.333,12.895 10.438,12 9.333,12C8.229,12 7.333,12.895 7.333,14L11.333,14ZM14,15.5C14,16.605 14.895,17.5 16,17.5C17.105,17.5 18,16.605 18,15.5L14,15.5ZM18,11C18,9.895 17.105,9 16,9C14.895,9 14,9.895 14,11L18,11ZM20.667,15.5C20.667,16.605 21.562,17.5 22.667,17.5C23.771,17.5 24.667,16.605 24.667,15.5L20.667,15.5ZM24.667,8C24.667,6.895 23.771,6 22.667,6C21.562,6 20.667,6.895 20.667,8L24.667,8ZM7.995,26.013C7.174,26.752 7.108,28.017 7.847,28.838C8.586,29.659 9.85,29.726 10.671,28.987L7.995,26.013ZM16,21.5L17.338,20.013C16.577,19.329 15.423,19.329 14.662,20.013L16,21.5ZM21.329,28.987C22.15,29.726 23.414,29.659 24.153,28.838C24.892,28.017 24.826,26.752 24.005,26.013L21.329,28.987ZM1,0C-0.105,0 -1,0.895 -1,2C-1,3.105 -0.105,4 1,4L1,0ZM31,4C32.105,4 33,3.105 33,2C33,0.895 32.105,0 31,0L31,4ZM2.667,4L29.333,4L29.333,0L2.667,0L2.667,4ZM27.333,2L27.333,20L31.333,20L31.333,2L27.333,2ZM27.667,19.5L4.333,19.5L4.333,23.5L27.667,23.5L27.667,19.5ZM4.667,20L4.667,2L0.667,2L0.667,20L4.667,20ZM4.333,19.5C4.36,19.5 4.421,19.51 4.493,19.574C4.567,19.641 4.667,19.789 4.667,20L0.667,20C0.667,22.126 2.512,23.5 4.333,23.5L4.333,19.5ZM27.333,20C27.333,19.789 27.433,19.641 27.507,19.574C27.579,19.51 27.64,19.5 27.667,19.5L27.667,23.5C29.488,23.5 31.333,22.126 31.333,20L27.333,20ZM11.333,15.5L11.333,14L7.333,14L7.333,15.5L11.333,15.5ZM18,15.5L18,11L14,11L14,15.5L18,15.5ZM24.667,15.5L24.667,8L20.667,8L20.667,15.5L24.667,15.5ZM10.671,28.987L17.338,22.987L14.662,20.013L7.995,26.013L10.671,28.987ZM14.662,22.987L21.329,28.987L24.005,26.013L17.338,20.013L14.662,22.987ZM1,4L31,4L31,0L1,0L1,4Z" fill="#111827"/>
</svg>
