<svg width="30" height="24" viewBox="0 0 30 24" fill="none" xmlns="http://www.w3.org/2000/svg" xmlns:xlink="http://www.w3.org/1999/xlink">
<path d="M15,15.2C16.657,15.2 18,13.767 18,12C18,10.233 16.657,8.8 15,8.8C13.343,8.8 12,10.233 12,12C12,13.767 13.343,15.2 15,15.2Z" fill="#111827"/>
<path d="M0.687,12C2.598,5.509 8.283,0.8 15,0.8C21.716,0.8 27.402,5.509 29.313,12C27.402,18.491 21.716,23.2 15,23.2C8.283,23.2 2.598,18.491 0.687,12ZM21,12C21,15.535 18.314,18.4 15,18.4C11.686,18.4 9,15.535 9,12C9,8.465 11.686,5.6 15,5.6C18.314,5.6 21,8.465 21,12Z" clip-rule="evenodd" fill-rule="evenodd" fill="#111827"/>
</svg>
