<svg width="34" height="30" viewBox="0 0 34 30" fill="none" xmlns="http://www.w3.org/2000/svg" xmlns:xlink="http://www.w3.org/1999/xlink">
<path d="M5.31,18.5L6.648,17.013C6.28,16.683 5.804,16.5 5.31,16.5L5.31,18.5ZM5.31,9.5L5.31,11.5C5.804,11.5 6.28,11.317 6.648,10.987L5.31,9.5ZM13.155,2.439L14.493,3.926L14.493,3.926L13.155,2.439ZM13.155,25.561L11.817,27.047L11.817,27.047L13.155,25.561ZM22.995,15.513C22.174,16.252 22.108,17.517 22.847,18.338C23.586,19.159 24.85,19.226 25.671,18.487L22.995,15.513ZM32.338,12.487C33.159,11.748 33.226,10.483 32.487,9.662C31.748,8.841 30.483,8.774 29.662,9.513L32.338,12.487ZM25.671,9.513C24.85,8.774 23.586,8.841 22.847,9.662C22.108,10.483 22.174,11.748 22.995,12.487L25.671,9.513ZM29.662,18.487C30.483,19.226 31.748,19.159 32.487,18.338C33.226,17.517 33.159,16.252 32.338,15.513L29.662,18.487ZM5.31,16.5L2.667,16.5L2.667,20.5L5.31,20.5L5.31,16.5ZM2.667,16.5C2.693,16.5 2.755,16.51 2.826,16.574C2.901,16.641 3,16.789 3,17L-1,17C-1,19.126 0.845,20.5 2.667,20.5L2.667,16.5ZM3,17L3,11L-1,11L-1,17L3,17ZM3,11C3,11.211 2.901,11.359 2.826,11.426C2.755,11.49 2.693,11.5 2.667,11.5L2.667,7.5C0.845,7.5 -1,8.874 -1,11L3,11ZM2.667,11.5L5.31,11.5L5.31,7.5L2.667,7.5L2.667,11.5ZM6.648,10.987L14.493,3.926L11.817,0.953L3.972,8.013L6.648,10.987ZM14.493,3.926C14.389,4.019 14.29,3.995 14.273,3.988C14.254,3.981 14.194,3.955 14.128,3.871C14.052,3.773 14,3.636 14,3.5L18,3.5C18,1.819 16.851,0.681 15.67,0.24C14.492,-0.199 12.971,-0.086 11.817,0.953L14.493,3.926ZM14,3.5L14,24.5L18,24.5L18,3.5L14,3.5ZM14,24.5C14,24.364 14.052,24.227 14.128,24.129C14.194,24.045 14.254,24.019 14.273,24.012C14.29,24.005 14.389,23.981 14.493,24.074L11.817,27.047C12.971,28.086 14.492,28.199 15.67,27.76C16.851,27.32 18,26.182 18,24.5L14,24.5ZM14.493,24.074L6.648,17.013L3.972,19.987L11.817,27.047L14.493,24.074ZM25.671,18.487L29.005,15.487L26.329,12.513L22.995,15.513L25.671,18.487ZM29.005,15.487L32.338,12.487L29.662,9.513L26.329,12.513L29.005,15.487ZM22.995,12.487L26.329,15.487L29.005,12.513L25.671,9.513L22.995,12.487ZM26.329,15.487L29.662,18.487L32.338,15.513L29.005,12.513L26.329,15.487Z" fill="#111827"/>
</svg>
