<svg width="34" height="30" viewBox="0 0 34 30" fill="none" xmlns="http://www.w3.org/2000/svg" xmlns:xlink="http://www.w3.org/1999/xlink">
<path d="M26,2.25L28,2.25C28,1.446 27.519,0.72 26.778,0.408C26.038,0.095 25.182,0.256 24.605,0.816L26,2.25ZM10.72,17.833L10.72,19.833L10.72,19.833L10.72,17.833ZM26,22.083L24.605,23.517C25.182,24.077 26.038,24.239 26.778,23.926C27.519,23.613 28,22.887 28,22.083L26,22.083ZM7.667,17.833L7.667,19.833L7.667,19.833L7.667,17.833ZM16.333,6.333C16.333,5.229 15.438,4.333 14.333,4.333C13.229,4.333 12.333,5.229 12.333,6.333L16.333,6.333ZM8.638,26.095L6.788,26.855L6.794,26.87L8.638,26.095ZM26,14.417C24.895,14.417 24,15.312 24,16.417C24,17.521 24.895,18.417 26,18.417L26,14.417ZM26,5.917C24.895,5.917 24,6.812 24,7.917C24,9.021 24.895,9.917 26,9.917L26,5.917ZM5.061,17.384L5.74,15.503L5.061,17.384ZM10.72,4.5L7.667,4.5L7.667,8.5L10.72,8.5L10.72,4.5ZM24.605,0.816C23.655,1.741 21.901,2.684 19.413,3.389C16.967,4.083 13.975,4.5 10.72,4.5L10.72,8.5C14.299,8.5 17.662,8.043 20.504,7.237C23.305,6.443 25.773,5.261 27.395,3.684L24.605,0.816ZM10.72,19.833C13.975,19.833 16.967,20.251 19.413,20.944C21.901,21.65 23.655,22.592 24.605,23.517L27.395,20.65C25.773,19.073 23.305,17.89 20.504,17.096C17.662,16.29 14.299,15.833 10.72,15.833L10.72,19.833ZM7.667,19.833L10.72,19.833L10.72,15.833L7.667,15.833L7.667,19.833ZM28,22.083L28,2.25L24,2.25L24,22.083L28,22.083ZM3,12.167C3,10.434 4.772,8.5 7.667,8.5L7.667,4.5C3.197,4.5 -1,7.64 -1,12.167L3,12.167ZM12.333,6.333L12.333,25.257L16.333,25.257L16.333,6.333L12.333,6.333ZM11.4,25.75C10.811,25.75 10.531,25.437 10.482,25.321L6.794,26.87C7.579,28.738 9.511,29.75 11.4,29.75L11.4,25.75ZM12.333,25.257C12.333,25.277 12.329,25.369 12.179,25.496C12.025,25.627 11.756,25.75 11.4,25.75L11.4,29.75C13.808,29.75 16.333,28.031 16.333,25.257L12.333,25.257ZM29,12.167C29,13.117 27.974,14.417 26,14.417L26,18.417C29.549,18.417 33,15.911 33,12.167L29,12.167ZM26,9.917C27.974,9.917 29,11.216 29,12.167L33,12.167C33,8.422 29.549,5.917 26,5.917L26,9.917ZM10.488,25.336L6.911,16.624L3.211,18.144L6.788,26.855L10.488,25.336ZM-1,12.167C-1,15.536 1.389,18.184 4.381,19.265L5.74,15.503C3.959,14.859 3,13.485 3,12.167L-1,12.167ZM4.381,19.265C5.401,19.633 6.511,19.833 7.667,19.833L7.667,15.833C6.973,15.833 6.322,15.713 5.74,15.503L4.381,19.265Z" fill="#111827"/>
</svg>
