<svg width="24" height="20" viewBox="0 0 24 20" fill="none" xmlns="http://www.w3.org/2000/svg" xmlns:xlink="http://www.w3.org/1999/xlink">
<path d="M10.561,4.21C9.975,3.663 9.025,3.663 8.439,4.21C7.854,4.757 7.854,5.643 8.439,6.19L12.939,10.39C13.525,10.937 14.475,10.937 15.061,10.39L19.561,6.19C20.146,5.643 20.146,4.757 19.561,4.21C18.975,3.663 18.025,3.663 17.439,4.21L15.5,6.02L15.5,1L20,1C21.657,1 23,2.254 23,3.8L23,10.8C23,12.346 21.657,13.6 20,13.6L8,13.6C6.343,13.6 5,12.346 5,10.8L5,3.8C5,2.254 6.343,1 8,1L12.5,1L12.5,6.02L10.561,4.21Z" fill="#111827"/>
<path d="M2,6.6C0.343,6.6 -1,7.854 -1,9.4L-1,16.4C-1,17.946 0.343,19.2 2,19.2L14,19.2C15.657,19.2 17,17.946 17,16.4L2,16.4L2,6.6Z" fill="#111827"/>
</svg>
