<svg width="34" height="26" viewBox="0 0 34 26" fill="none" xmlns="http://www.w3.org/2000/svg" xmlns:xlink="http://www.w3.org/1999/xlink">
<path d="M2.75,12L1.375,10.548C0.976,10.926 0.75,11.451 0.75,12C0.75,12.549 0.976,13.074 1.375,13.452L2.75,12ZM12.906,21.621L14.281,20.169L14.281,20.169L12.906,21.621ZM12.906,2.379L14.281,3.831L14.281,3.831L12.906,2.379ZM15.625,13.548C14.823,14.308 14.788,15.574 15.548,16.375C16.308,17.177 17.574,17.212 18.375,16.452L15.625,13.548ZM24.709,10.452C25.511,9.692 25.545,8.426 24.785,7.625C24.026,6.823 22.76,6.788 21.958,7.548L24.709,10.452ZM18.375,7.548C17.574,6.788 16.308,6.823 15.548,7.625C14.788,8.426 14.823,9.692 15.625,10.452L18.375,7.548ZM21.958,16.452C22.76,17.212 24.026,17.177 24.785,16.375C25.545,15.574 25.511,14.308 24.709,13.548L21.958,16.452ZM15.145,3.5L28.083,3.5L28.083,-0.5L15.145,-0.5L15.145,3.5ZM29.25,4.5L29.25,19.5L33.25,19.5L33.25,4.5L29.25,4.5ZM28.083,20.5L15.145,20.5L15.145,24.5L28.083,24.5L28.083,20.5ZM14.281,20.169L4.125,10.548L1.375,13.452L11.53,23.073L14.281,20.169ZM4.125,13.452L14.281,3.831L11.53,0.927L1.375,10.548L4.125,13.452ZM15.145,20.5C14.802,20.5 14.493,20.37 14.281,20.169L11.53,23.073C12.507,23.998 13.809,24.5 15.145,24.5L15.145,20.5ZM29.25,19.5C29.25,19.952 28.831,20.5 28.083,20.5L28.083,24.5C30.834,24.5 33.25,22.362 33.25,19.5L29.25,19.5ZM28.083,3.5C28.831,3.5 29.25,4.048 29.25,4.5L33.25,4.5C33.25,1.638 30.834,-0.5 28.083,-0.5L28.083,3.5ZM15.145,-0.5C13.809,-0.5 12.507,0.002 11.53,0.927L14.281,3.831C14.493,3.63 14.802,3.5 15.145,3.5L15.145,-0.5ZM18.375,16.452L21.542,13.452L18.791,10.548L15.625,13.548L18.375,16.452ZM21.542,13.452L24.709,10.452L21.958,7.548L18.791,10.548L21.542,13.452ZM15.625,10.452L18.791,13.452L21.542,10.548L18.375,7.548L15.625,10.452ZM18.791,13.452L21.958,16.452L24.709,13.548L21.542,10.548L18.791,13.452Z" fill="#111827"/>
</svg>
