<svg width="34" height="34" viewBox="0 0 34 34" fill="none" xmlns="http://www.w3.org/2000/svg" xmlns:xlink="http://www.w3.org/1999/xlink">
<path d="M9.333,15C8.229,15 7.333,15.895 7.333,17C7.333,18.105 8.229,19 9.333,19L9.333,15ZM9.35,19C10.455,19 11.35,18.105 11.35,17C11.35,15.895 10.455,15 9.35,15L9.35,19ZM16,15C14.895,15 14,15.895 14,17C14,18.105 14.895,19 16,19L16,15ZM16.017,19C17.121,19 18.017,18.105 18.017,17C18.017,15.895 17.121,15 16.017,15L16.017,19ZM22.667,15C21.562,15 20.667,15.895 20.667,17C20.667,18.105 21.562,19 22.667,19L22.667,15ZM22.683,19C23.788,19 24.683,18.105 24.683,17C24.683,15.895 23.788,15 22.683,15L22.683,19ZM29,17C29,23.67 23.278,29.25 16,29.25L16,33.25C25.291,33.25 33,26.07 33,17L29,17ZM16,29.25C8.722,29.25 3,23.67 3,17L-1,17C-1,26.07 6.709,33.25 16,33.25L16,29.25ZM3,17C3,10.33 8.722,4.75 16,4.75L16,0.75C6.709,0.75 -1,7.93 -1,17L3,17ZM16,4.75C23.278,4.75 29,10.33 29,17L33,17C33,7.93 25.291,0.75 16,0.75L16,4.75ZM9.333,19L9.35,19L9.35,15L9.333,15L9.333,19ZM16,19L16.017,19L16.017,15L16,15L16,19ZM22.667,19L22.683,19L22.683,15L22.667,15L22.667,19Z" fill="#111827"/>
</svg>
