<svg width="34" height="32" viewBox="0 0 34 32" fill="none" xmlns="http://www.w3.org/2000/svg" xmlns:xlink="http://www.w3.org/1999/xlink">
<path d="M18,10C18,8.895 17.105,8 16,8C14.895,8 14,8.895 14,10L18,10ZM16,16L14,16C14,16.567 14.241,17.107 14.662,17.487L16,16ZM19.662,21.987C20.483,22.726 21.748,22.659 22.487,21.838C23.226,21.017 23.159,19.752 22.338,19.013L19.662,21.987ZM29,16C29,22.158 23.383,27.5 16,27.5L16,31.5C25.185,31.5 33,24.753 33,16L29,16ZM16,27.5C8.617,27.5 3,22.158 3,16L-1,16C-1,24.753 6.815,31.5 16,31.5L16,27.5ZM3,16C3,9.842 8.617,4.5 16,4.5L16,0.5C6.815,0.5 -1,7.247 -1,16L3,16ZM16,4.5C23.383,4.5 29,9.842 29,16L33,16C33,7.247 25.185,0.5 16,0.5L16,4.5ZM14,10L14,16L18,16L18,10L14,10ZM14.662,17.487L19.662,21.987L22.338,19.013L17.338,14.513L14.662,17.487Z" fill="#111827"/>
</svg>
