<svg width="26" height="26" viewBox="0 0 26 26" fill="none" xmlns="http://www.w3.org/2000/svg" xmlns:xlink="http://www.w3.org/1999/xlink">
<path d="M12,25C19.069,25 24.8,19.627 24.8,13C24.8,6.373 19.069,1 12,1C4.931,1 -0.8,6.373 -0.8,13C-0.8,19.627 4.931,25 12,25ZM9.978,8.468C10.733,7.289 11.514,7 12,7C12.486,7 13.267,7.289 14.022,8.468C14.477,9.179 15.46,9.409 16.217,8.983C16.975,8.557 17.221,7.635 16.766,6.925C15.646,5.175 13.971,4 12,4C10.029,4 8.354,5.175 7.234,6.925C6.778,7.637 6.423,8.424 6.162,9.25L5.6,9.25C4.716,9.25 4,9.922 4,10.75C4,11.578 4.716,12.25 5.6,12.25L5.621,12.25C5.607,12.501 5.6,12.751 5.6,13C5.6,13.249 5.607,13.499 5.621,13.75L5.6,13.75C4.716,13.75 4,14.422 4,15.25C4,16.078 4.716,16.75 5.6,16.75L6.162,16.75C6.423,17.576 6.778,18.363 7.234,19.075C8.354,20.825 10.029,22 12,22C13.971,22 15.646,20.825 16.766,19.075C17.221,18.365 16.975,17.443 16.217,17.017C15.46,16.591 14.477,16.821 14.022,17.532C13.267,18.711 12.486,19 12,19C11.514,19 10.733,18.711 9.978,17.532C9.823,17.289 9.682,17.028 9.555,16.75L12,16.75C12.884,16.75 13.6,16.078 13.6,15.25C13.6,14.422 12.884,13.75 12,13.75L8.827,13.75C8.809,13.503 8.8,13.252 8.8,13C8.8,12.748 8.809,12.497 8.827,12.25L12,12.25C12.884,12.25 13.6,11.578 13.6,10.75C13.6,9.922 12.884,9.25 12,9.25L9.555,9.25C9.682,8.972 9.823,8.711 9.978,8.468Z" clip-rule="evenodd" fill-rule="evenodd" fill="#111827"/>
</svg>
