<svg width="22" height="24" viewBox="0 0 22 24" fill="none" xmlns="http://www.w3.org/2000/svg" xmlns:xlink="http://www.w3.org/1999/xlink">
<path d="M4.2,0.8C2.322,0.8 0.8,2.054 0.8,3.6L0.8,20.4C0.8,21.946 2.322,23.2 4.2,23.2L17.8,23.2C19.678,23.2 21.2,21.946 21.2,20.4L21.2,8.38C21.2,7.637 20.842,6.925 20.204,6.4L14.4,1.62C13.762,1.095 12.898,0.8 11.996,0.8L4.2,0.8ZM7.6,14.8C7.6,14.027 6.839,13.4 5.9,13.4C4.961,13.4 4.2,14.027 4.2,14.8L4.2,19C4.2,19.773 4.961,20.4 5.9,20.4C6.839,20.4 7.6,19.773 7.6,19L7.6,14.8ZM11,10.6C11.939,10.6 12.7,11.227 12.7,12L12.7,19C12.7,19.773 11.939,20.4 11,20.4C10.061,20.4 9.3,19.773 9.3,19L9.3,12C9.3,11.227 10.061,10.6 11,10.6ZM17.8,9.2C17.8,8.427 17.039,7.8 16.1,7.8C15.161,7.8 14.4,8.427 14.4,9.2L14.4,19C14.4,19.773 15.161,20.4 16.1,20.4C17.039,20.4 17.8,19.773 17.8,19L17.8,9.2Z" clip-rule="evenodd" fill-rule="evenodd" fill="#111827"/>
</svg>
