<svg width="22" height="22" viewBox="0 0 22 22" fill="none" xmlns="http://www.w3.org/2000/svg" xmlns:xlink="http://www.w3.org/1999/xlink">
<path d="M3.5,0.5C2.672,0.5 2,1.172 2,2C2,2.828 2.672,3.5 3.5,3.5C11.784,3.5 18.5,10.216 18.5,18.5C18.5,19.328 19.172,20 20,20C20.828,20 21.5,19.328 21.5,18.5C21.5,8.559 13.441,0.5 3.5,0.5Z" fill="#111827"/>
<path d="M2,9.5C2,8.672 2.672,8 3.5,8C9.299,8 14,12.701 14,18.5C14,19.328 13.328,20 12.5,20C11.672,20 11,19.328 11,18.5C11,14.358 7.642,11 3.5,11C2.672,11 2,10.328 2,9.5Z" fill="#111827"/>
<path d="M0.5,18.5C0.5,16.843 1.843,15.5 3.5,15.5C5.157,15.5 6.5,16.843 6.5,18.5C6.5,20.157 5.157,21.5 3.5,21.5C1.843,21.5 0.5,20.157 0.5,18.5Z" fill="#111827"/>
</svg>
