<svg width="26" height="24" viewBox="0 0 26 24" fill="none" xmlns="http://www.w3.org/2000/svg" xmlns:xlink="http://www.w3.org/1999/xlink">
<path d="M6.027,2.837C7.056,2.765 8.033,2.411 8.818,1.825C10.652,0.458 13.348,0.458 15.181,1.825C15.967,2.411 16.944,2.765 17.973,2.837C20.374,3.005 22.28,4.673 22.472,6.774C22.554,7.674 22.959,8.529 23.628,9.216C25.191,10.82 25.191,13.18 23.628,14.784C22.959,15.471 22.554,16.326 22.472,17.226C22.28,19.327 20.374,20.995 17.973,21.163C16.944,21.235 15.967,21.589 15.181,22.175C13.348,23.542 10.652,23.542 8.818,22.175C8.033,21.589 7.056,21.235 6.027,21.163C3.626,20.995 1.719,19.327 1.528,17.226C1.446,16.326 1.041,15.471 0.372,14.784C-1.191,13.18 -1.191,10.82 0.372,9.216C1.041,8.529 1.446,7.674 1.528,6.774C1.719,4.673 3.626,3.005 6.027,2.837ZM17.931,10.19C18.556,9.643 18.556,8.757 17.931,8.21C17.306,7.663 16.293,7.663 15.669,8.21L10.4,12.82L8.331,11.01C7.706,10.463 6.693,10.463 6.069,11.01C5.444,11.557 5.444,12.443 6.069,12.99L9.269,15.79C9.893,16.337 10.906,16.337 11.531,15.79L17.931,10.19Z" clip-rule="evenodd" fill-rule="evenodd" fill="#111827"/>
</svg>
