<svg width="26" height="34" viewBox="0 0 26 34" fill="none" xmlns="http://www.w3.org/2000/svg" xmlns:xlink="http://www.w3.org/1999/xlink">
<path d="M20.5,9.083L20.5,28.083L24.5,28.083L24.5,9.083L20.5,9.083ZM19.5,29.25L4.5,29.25L4.5,33.25L19.5,33.25L19.5,29.25ZM3.5,28.083L3.5,9.083L-0.5,9.083L-0.5,28.083L3.5,28.083ZM4.5,7.917L7.5,7.917L7.5,3.917L4.5,3.917L4.5,7.917ZM16.5,7.917L19.5,7.917L19.5,3.917L16.5,3.917L16.5,7.917ZM4.5,29.25C4.048,29.25 3.5,28.831 3.5,28.083L-0.5,28.083C-0.5,30.834 1.638,33.25 4.5,33.25L4.5,29.25ZM20.5,28.083C20.5,28.831 19.952,29.25 19.5,29.25L19.5,33.25C22.362,33.25 24.5,30.834 24.5,28.083L20.5,28.083ZM24.5,9.083C24.5,6.333 22.362,3.917 19.5,3.917L19.5,7.917C19.952,7.917 20.5,8.336 20.5,9.083L24.5,9.083ZM3.5,9.083C3.5,8.336 4.048,7.917 4.5,7.917L4.5,3.917C1.638,3.917 -0.5,6.333 -0.5,9.083L3.5,9.083ZM10.5,4.75L13.5,4.75L13.5,0.75L10.5,0.75L10.5,4.75ZM13.5,7.083L10.5,7.083L10.5,11.083L13.5,11.083L13.5,7.083ZM10.5,7.083C10.048,7.083 9.5,6.664 9.5,5.917L5.5,5.917C5.5,8.667 7.638,11.083 10.5,11.083L10.5,7.083ZM14.5,5.917C14.5,6.664 13.952,7.083 13.5,7.083L13.5,11.083C16.362,11.083 18.5,8.667 18.5,5.917L14.5,5.917ZM13.5,4.75C13.952,4.75 14.5,5.169 14.5,5.917L18.5,5.917C18.5,3.166 16.362,0.75 13.5,0.75L13.5,4.75ZM10.5,0.75C7.638,0.75 5.5,3.166 5.5,5.917L9.5,5.917C9.5,5.169 10.048,4.75 10.5,4.75L10.5,0.75Z" fill="#111827"/>
</svg>
