<svg width="34" height="30" viewBox="0 0 34 30" fill="none" xmlns="http://www.w3.org/2000/svg" xmlns:xlink="http://www.w3.org/1999/xlink">
<path d="M6.844,18.5L8.22,17.048C7.848,16.696 7.356,16.5 6.844,16.5L6.844,18.5ZM6.844,9.5L6.844,11.5C7.356,11.5 7.848,11.304 8.22,10.952L6.844,9.5ZM14.297,2.439L15.673,3.891L15.673,3.891L14.297,2.439ZM14.297,25.561L12.922,27.013L12.922,27.013L14.297,25.561ZM23.973,7.245C23.172,6.485 21.906,6.519 21.146,7.321C20.386,8.123 20.421,9.389 21.222,10.149L23.973,7.245ZM21.222,17.851C20.421,18.611 20.386,19.877 21.146,20.679C21.906,21.481 23.172,21.515 23.973,20.755L21.222,17.851ZM28.452,3.002C27.65,2.242 26.384,2.277 25.624,3.078C24.865,3.88 24.899,5.146 25.701,5.906L28.452,3.002ZM25.701,22.094C24.899,22.854 24.865,24.119 25.624,24.921C26.384,25.723 27.65,25.757 28.452,24.998L25.701,22.094ZM6.844,16.5L4.333,16.5L4.333,20.5L6.844,20.5L6.844,16.5ZM4.333,16.5C4.413,16.5 4.508,16.532 4.589,16.609C4.672,16.687 4.75,16.826 4.75,17L0.75,17C0.75,19.034 2.458,20.5 4.333,20.5L4.333,16.5ZM4.75,17L4.75,11L0.75,11L0.75,17L4.75,17ZM4.75,11C4.75,11.174 4.672,11.313 4.589,11.391C4.508,11.468 4.413,11.5 4.333,11.5L4.333,7.5C2.458,7.5 0.75,8.967 0.75,11L4.75,11ZM4.333,11.5L6.844,11.5L6.844,7.5L4.333,7.5L4.333,11.5ZM8.22,10.952L15.673,3.891L12.922,0.988L5.469,8.048L8.22,10.952ZM15.673,3.891C15.542,4.015 15.374,4.008 15.292,3.976C15.247,3.958 15.178,3.918 15.113,3.831C15.04,3.733 15,3.61 15,3.5L19,3.5C19,1.881 17.943,0.719 16.753,0.252C15.569,-0.212 14.05,-0.081 12.922,0.988L15.673,3.891ZM15,3.5L15,24.5L19,24.5L19,3.5L15,3.5ZM15,24.5C15,24.39 15.04,24.267 15.113,24.169C15.178,24.082 15.247,24.042 15.292,24.024C15.374,23.992 15.542,23.985 15.673,24.109L12.922,27.013C14.05,28.081 15.569,28.212 16.753,27.748C17.943,27.281 19,26.119 19,24.5L15,24.5ZM15.673,24.109L8.22,17.048L5.469,19.952L12.922,27.013L15.673,24.109ZM21.222,10.149C23.481,12.289 23.481,15.711 21.222,17.851L23.973,20.755C27.898,17.037 27.898,10.963 23.973,7.245L21.222,10.149ZM25.701,5.906C30.433,10.389 30.433,17.611 25.701,22.094L28.452,24.998C34.849,18.937 34.849,9.063 28.452,3.002L25.701,5.906Z" fill="#111827"/>
</svg>
