<svg width="26" height="26" viewBox="0 0 26 26" fill="none" xmlns="http://www.w3.org/2000/svg" xmlns:xlink="http://www.w3.org/1999/xlink">
<path d="M12,25C19.069,25 24.8,19.627 24.8,13C24.8,6.373 19.069,1 12,1C4.931,1 -0.8,6.373 -0.8,13C-0.8,19.627 4.931,25 12,25ZM17.931,11.939L13.131,7.439C12.507,6.854 11.493,6.854 10.869,7.439C10.244,8.025 10.244,8.975 10.869,9.561L12.937,11.5L7.2,11.5C6.316,11.5 5.6,12.172 5.6,13C5.6,13.828 6.316,14.5 7.2,14.5L12.937,14.5L10.869,16.439C10.244,17.025 10.244,17.975 10.869,18.561C11.493,19.146 12.507,19.146 13.131,18.561L17.931,14.061C18.556,13.475 18.556,12.525 17.931,11.939Z" clip-rule="evenodd" fill-rule="evenodd" fill="#111827"/>
</svg>
