<svg width="34" height="30" viewBox="0 0 34 30" fill="none" xmlns="http://www.w3.org/2000/svg" xmlns:xlink="http://www.w3.org/1999/xlink">
<path d="M31.25,9.5L32.181,11.27C32.839,10.924 33.25,10.243 33.25,9.5C33.25,8.757 32.839,8.076 32.181,7.73L31.25,9.5ZM17,17L16.069,18.77C16.652,19.077 17.348,19.077 17.932,18.77L17,17ZM2.75,9.5L1.819,7.73C1.161,8.076 0.75,8.757 0.75,9.5C0.75,10.243 1.161,10.924 1.819,11.27L2.75,9.5ZM17,2L17.932,0.23C17.348,-0.077 16.652,-0.077 16.069,0.23L17,2ZM10.667,14.75L9.735,12.98C9.078,13.326 8.667,14.007 8.667,14.75L10.667,14.75ZM8.667,26C8.667,27.104 9.562,28 10.667,28C11.771,28 12.667,27.104 12.667,26L8.667,26ZM17.932,13.187C18.909,12.672 19.284,11.463 18.77,10.485C18.255,9.508 17.046,9.132 16.069,9.647L17.932,13.187ZM26.752,11.867L28.597,11.095C28.38,10.578 27.956,10.175 27.428,9.985C26.9,9.795 26.317,9.836 25.82,10.098L26.752,11.867ZM27.805,21.585L27.989,23.577C28.882,23.495 29.612,22.827 29.773,21.944L27.805,21.585ZM17,26.083L15.707,27.609C16.453,28.241 17.547,28.241 18.293,27.609L17,26.083ZM6.195,21.585L4.227,21.944C4.388,22.827 5.118,23.495 6.011,23.577L6.195,21.585ZM7.248,11.867L8.18,10.098C7.683,9.836 7.1,9.795 6.572,9.985C6.044,10.175 5.62,10.578 5.403,11.095L7.248,11.867ZM30.319,7.73L16.069,15.23L17.932,18.77L32.181,11.27L30.319,7.73ZM17.932,15.23L3.681,7.73L1.819,11.27L16.069,18.77L17.932,15.23ZM3.681,11.27L17.932,3.77L16.069,0.23L1.819,7.73L3.681,11.27ZM16.069,3.77L30.319,11.27L32.181,7.73L17.932,0.23L16.069,3.77ZM8.667,14.75L8.667,26L12.667,26L12.667,14.75L8.667,14.75ZM16.069,9.647L9.735,12.98L11.598,16.52L17.932,13.187L16.069,9.647ZM25.82,10.098L16.069,15.23L17.932,18.77L27.683,13.637L25.82,10.098ZM30.083,18.5C30.083,15.886 29.556,13.386 28.597,11.095L24.907,12.64C25.666,14.454 26.083,16.429 26.083,18.5L30.083,18.5ZM29.773,21.944C29.977,20.824 30.083,19.673 30.083,18.5L26.083,18.5C26.083,19.431 25.999,20.342 25.838,21.227L29.773,21.944ZM18.293,27.609C20.911,25.39 24.269,23.92 27.989,23.577L27.622,19.594C23.076,20.012 18.945,21.812 15.707,24.558L18.293,27.609ZM6.011,23.577C9.731,23.92 13.089,25.39 15.707,27.609L18.293,24.558C15.055,21.812 10.924,20.012 6.378,19.594L6.011,23.577ZM3.917,18.5C3.917,19.673 4.023,20.824 4.227,21.944L8.162,21.227C8.001,20.342 7.917,19.431 7.917,18.5L3.917,18.5ZM5.403,11.095C4.444,13.386 3.917,15.886 3.917,18.5L7.917,18.5C7.917,16.429 8.334,14.454 9.093,12.64L5.403,11.095ZM17.932,15.23L8.18,10.098L6.317,13.637L16.069,18.77L17.932,15.23Z" fill="#111827"/>
</svg>
