<svg width="24" height="24" viewBox="0 0 24 24" fill="none" xmlns="http://www.w3.org/2000/svg" xmlns:xlink="http://www.w3.org/1999/xlink">
<path d="M6.5,0.8C7.328,0.8 8,1.427 8,2.2L8,3.6L9.098,3.6C9.116,3.6 9.134,3.6 9.151,3.6L12.5,3.6C13.328,3.6 14,4.227 14,5C14,5.773 13.328,6.4 12.5,6.4L10.367,6.4C9.825,8.762 8.946,11.008 7.781,13.091C8.217,13.587 8.674,14.066 9.151,14.528C9.727,15.084 9.71,15.97 9.114,16.507C8.518,17.044 7.568,17.029 6.993,16.472C6.709,16.198 6.432,15.918 6.161,15.633C4.833,17.474 3.266,19.152 1.5,20.626C0.883,21.142 -0.065,21.093 -0.618,20.517C-1.17,19.941 -1.118,19.056 -0.5,18.54C1.319,17.02 2.903,15.26 4.195,13.314C3.36,12.21 2.613,11.043 1.963,9.823C1.595,9.131 1.897,8.29 2.639,7.946C3.381,7.602 4.281,7.885 4.65,8.577C5,9.235 5.382,9.876 5.794,10.498C6.42,9.19 6.924,7.82 7.29,6.4L0.5,6.4C-0.328,6.4 -1,5.773 -1,5C-1,4.227 -0.328,3.6 0.5,3.6L5,3.6L5,2.2C5,1.427 5.672,0.8 6.5,0.8ZM15.5,9.2C16.068,9.2 16.588,9.5 16.842,9.974L21.328,18.349C21.338,18.366 21.347,18.383 21.356,18.401L22.842,21.174C23.212,21.865 22.912,22.706 22.171,23.052C21.43,23.398 20.529,23.118 20.158,22.426L19.073,20.4L11.927,20.4L10.842,22.426C10.471,23.118 9.57,23.398 8.829,23.052C8.088,22.706 7.788,21.865 8.158,21.174L9.644,18.401C9.653,18.383 9.662,18.366 9.672,18.349L14.158,9.974C14.412,9.5 14.932,9.2 15.5,9.2ZM13.427,17.6L17.573,17.6L15.5,13.73L13.427,17.6Z" clip-rule="evenodd" fill-rule="evenodd" fill="#111827"/>
</svg>
