<svg width="24" height="22" viewBox="0 0 24 22" fill="none" xmlns="http://www.w3.org/2000/svg" xmlns:xlink="http://www.w3.org/1999/xlink">
<path d="M10.478,0.283C10.957,-1.191 13.043,-1.191 13.522,0.283L15.233,5.55C15.447,6.209 16.062,6.656 16.755,6.656L22.293,6.656C23.843,6.656 24.487,8.639 23.233,9.55L18.753,12.805C18.192,13.213 17.957,13.935 18.172,14.594L19.883,19.861C20.362,21.335 18.675,22.561 17.421,21.65L12.94,18.395C12.38,17.987 11.62,17.987 11.06,18.395L6.579,21.65C5.325,22.561 3.638,21.335 4.117,19.861L5.828,14.594C6.043,13.935 5.808,13.213 5.247,12.805L0.767,9.55C-0.487,8.639 0.157,6.656 1.707,6.656L7.245,6.656C7.938,6.656 8.553,6.209 8.767,5.55L10.478,0.283Z" fill="#111827"/>
</svg>
