<svg width="28" height="32" viewBox="0 0 28 32" fill="none" xmlns="http://www.w3.org/2000/svg" xmlns:xlink="http://www.w3.org/1999/xlink">
<path d="M15.047,2.939L13.672,4.391L13.672,4.391L15.047,2.939ZM23.62,11.061L24.995,9.609L24.995,9.609L23.62,11.061ZM15,13C15,11.895 14.105,11 13,11C11.895,11 11,11.895 11,13L15,13ZM13,22L11.625,23.452C12.396,24.183 13.604,24.183 14.375,23.452L13,22ZM9.625,16.048C8.824,15.288 7.558,15.323 6.798,16.125C6.038,16.926 6.073,18.192 6.875,18.952L9.625,16.048ZM19.125,18.952C19.927,18.192 19.962,16.926 19.202,16.125C18.442,15.323 17.176,15.288 16.375,16.048L19.125,18.952ZM20.917,27.5L5.083,27.5L5.083,31.5L20.917,31.5L20.917,27.5ZM3.917,26.5L3.917,5.5L-0.083,5.5L-0.083,26.5L3.917,26.5ZM5.083,4.5L13.927,4.5L13.927,0.5L5.083,0.5L5.083,4.5ZM22.083,12.121L22.083,26.5L26.083,26.5L26.083,12.121L22.083,12.121ZM13.672,4.391L22.244,12.513L24.995,9.609L16.423,1.487L13.672,4.391ZM26.083,12.121C26.083,11.157 25.678,10.256 24.995,9.609L22.244,12.513C22.155,12.428 22.083,12.29 22.083,12.121L26.083,12.121ZM13.927,4.5C13.851,4.5 13.757,4.472 13.672,4.391L16.423,1.487C15.743,0.844 14.844,0.5 13.927,0.5L13.927,4.5ZM5.083,27.5C4.336,27.5 3.917,26.952 3.917,26.5L-0.083,26.5C-0.083,29.362 2.333,31.5 5.083,31.5L5.083,27.5ZM20.917,31.5C23.667,31.5 26.083,29.362 26.083,26.5L22.083,26.5C22.083,26.952 21.664,27.5 20.917,27.5L20.917,31.5ZM3.917,5.5C3.917,5.048 4.336,4.5 5.083,4.5L5.083,0.5C2.333,0.5 -0.083,2.638 -0.083,5.5L3.917,5.5ZM11,13L11,22L15,22L15,13L11,13ZM6.875,18.952L11.625,23.452L14.375,20.548L9.625,16.048L6.875,18.952ZM14.375,23.452L19.125,18.952L16.375,16.048L11.625,20.548L14.375,23.452Z" fill="#111827"/>
</svg>
