<svg width="36" height="28" viewBox="0 0 36 28" fill="none" xmlns="http://www.w3.org/2000/svg" xmlns:xlink="http://www.w3.org/1999/xlink">
<path d="M6.333,23L8.333,23L8.333,23L6.333,23ZM14.667,12C13.562,12 12.667,12.895 12.667,14C12.667,15.105 13.562,16 14.667,16L14.667,12ZM21.333,16C22.438,16 23.333,15.105 23.333,14C23.333,12.895 22.438,12 21.333,12L21.333,16ZM6.333,4L29.667,4L29.667,0L6.333,0L6.333,4ZM29.667,6L6.333,6L6.333,10L29.667,10L29.667,6ZM6.333,6C5.394,6 5,5.359 5,5L1,5C1,7.954 3.591,10 6.333,10L6.333,6ZM31,5C31,5.359 30.606,6 29.667,6L29.667,10C32.409,10 35,7.954 35,5L31,5ZM29.667,4C30.606,4 31,4.641 31,5L35,5C35,2.046 32.409,0 29.667,0L29.667,4ZM6.333,0C3.591,0 1,2.046 1,5L5,5C5,4.641 5.394,4 6.333,4L6.333,0ZM4.333,8L4.333,23L8.333,23L8.333,8L4.333,8ZM9.667,28L26.333,28L26.333,24L9.667,24L9.667,28ZM31.667,23L31.667,8L27.667,8L27.667,23L31.667,23ZM26.333,28C29.075,28 31.667,25.954 31.667,23L27.667,23C27.667,23.359 27.273,24 26.333,24L26.333,28ZM4.333,23C4.333,25.954 6.925,28 9.667,28L9.667,24C8.727,24 8.333,23.359 8.333,23L4.333,23ZM14.667,16L21.333,16L21.333,12L14.667,12L14.667,16Z" fill="#111827"/>
</svg>
