<svg width="36" height="32" viewBox="0 0 36 32" fill="none" xmlns="http://www.w3.org/2000/svg" xmlns:xlink="http://www.w3.org/1999/xlink">
<path d="M4.338,1.013C3.517,0.275 2.252,0.341 1.513,1.162C0.774,1.983 0.841,3.248 1.662,3.987L4.338,1.013ZM31.662,30.987C32.483,31.726 33.748,31.659 34.486,30.838C35.225,30.017 35.159,28.752 34.338,28.013L31.662,30.987ZM2.097,16L0.209,15.341C0.06,15.768 0.06,16.232 0.209,16.659L2.097,16ZM33.904,16L35.793,16.659C35.942,16.232 35.942,15.768 35.793,15.341L33.904,16ZM21.461,28.208C22.55,28.023 23.282,26.989 23.096,25.9C22.91,24.812 21.877,24.08 20.788,24.265L21.461,28.208ZM6.233,12.744C6.944,11.898 6.835,10.637 5.99,9.926C5.144,9.215 3.882,9.324 3.172,10.17L6.233,12.744ZM14.464,12.818L13.127,14.305L13.127,14.305L14.464,12.818ZM21.536,19.182L20.198,20.669L20.198,20.669L21.536,19.182ZM18,13.5C19.86,13.5 21,14.812 21,16L25,16C25,12.217 21.663,9.5 18,9.5L18,13.5ZM18.001,7.5C24.701,7.5 30.2,11.456 32.016,16.659L35.793,15.341C33.361,8.372 26.226,3.5 18.001,3.5L18.001,7.5ZM18.001,24.5C11.301,24.5 5.801,20.544 3.985,15.341L0.209,16.659C2.641,23.628 9.775,28.5 18.001,28.5L18.001,24.5ZM20.788,24.265C19.887,24.419 18.956,24.5 18.001,24.5L18.001,28.5C19.181,28.5 20.338,28.4 21.461,28.208L20.788,24.265ZM3.985,16.659C4.48,15.243 5.243,13.921 6.233,12.744L3.172,10.17C1.885,11.7 0.871,13.444 0.209,15.341L3.985,16.659ZM15.802,14.305C16.334,13.826 17.106,13.5 18,13.5L18,9.5C16.133,9.5 14.404,10.181 13.127,11.331L15.802,14.305ZM13.127,14.305L20.198,20.669L22.873,17.695L15.802,11.331L13.127,14.305ZM21,16C21,16.618 20.726,17.22 20.198,17.695L22.873,20.669C24.154,19.516 25,17.868 25,16L21,16ZM1.662,3.987L7.644,9.37L10.32,6.397L4.338,1.013L1.662,3.987ZM7.644,9.37L13.127,14.305L15.802,11.331L10.32,6.397L7.644,9.37ZM9.986,9.614C12.28,8.282 15.03,7.5 18.001,7.5L18.001,3.5C14.325,3.5 10.883,4.468 7.978,6.154L9.986,9.614ZM22.873,17.695L10.32,6.397L7.644,9.37L20.198,20.669L22.873,17.695ZM20.198,20.669L25.681,25.603L28.357,22.63L22.873,17.695L20.198,20.669ZM25.681,25.603L31.662,30.987L34.338,28.013L28.357,22.63L25.681,25.603ZM32.016,15.341C31.009,18.226 28.879,20.725 26.015,22.387L28.022,25.847C31.636,23.75 34.443,20.526 35.793,16.659L32.016,15.341Z" fill="#111827"/>
</svg>
