<svg width="34" height="28" viewBox="0 0 34 28" fill="none" xmlns="http://www.w3.org/2000/svg" xmlns:xlink="http://www.w3.org/1999/xlink">
<path d="M30.227,17.752L32.052,18.571C32.381,17.839 32.24,16.982 31.695,16.393C31.15,15.804 30.306,15.598 29.551,15.87L30.227,17.752ZM11.689,1.165L13.514,1.984C13.842,1.253 13.702,0.395 13.157,-0.194C12.612,-0.783 11.767,-0.989 11.012,-0.717L11.689,1.165ZM29.551,15.87C28.126,16.382 26.563,16.667 24.917,16.667L24.917,20.667C27.025,20.667 29.046,20.302 30.904,19.634L29.551,15.87ZM24.917,16.667C17.936,16.667 12.667,11.65 12.667,5.917L8.667,5.917C8.667,14.266 16.157,20.667 24.917,20.667L24.917,16.667ZM12.667,5.917C12.667,4.529 12.966,3.204 13.514,1.984L9.865,0.346C9.094,2.063 8.667,3.945 8.667,5.917L12.667,5.917ZM4.75,13C4.75,8.618 7.784,4.695 12.366,3.047L11.012,-0.717C5.115,1.404 0.75,6.658 0.75,13L4.75,13ZM17,23.75C10.02,23.75 4.75,18.734 4.75,13L0.75,13C0.75,21.35 8.24,27.75 17,27.75L17,23.75ZM28.403,16.932C26.648,20.839 22.277,23.75 17,23.75L17,27.75C23.709,27.75 29.595,24.041 32.052,18.571L28.403,16.932Z" fill="#111827"/>
</svg>
