<svg width="30" height="24" viewBox="0 0 30 24" fill="none" xmlns="http://www.w3.org/2000/svg" xmlns:xlink="http://www.w3.org/1999/xlink">
<path d="M2.333,1C1.229,1 0.333,1.895 0.333,3C0.333,4.105 1.229,5 2.333,5L2.333,1ZM27.667,5C28.771,5 29.667,4.105 29.667,3C29.667,1.895 28.771,1 27.667,1L27.667,5ZM2.333,10C1.229,10 0.333,10.895 0.333,12C0.333,13.105 1.229,14 2.333,14L2.333,10ZM27.667,14C28.771,14 29.667,13.105 29.667,12C29.667,10.895 28.771,10 27.667,10L27.667,14ZM2.333,19C1.229,19 0.333,19.895 0.333,21C0.333,22.105 1.229,23 2.333,23L2.333,19ZM27.667,23C28.771,23 29.667,22.105 29.667,21C29.667,19.895 28.771,19 27.667,19L27.667,23ZM2.333,5L27.667,5L27.667,1L2.333,1L2.333,5ZM2.333,14L27.667,14L27.667,10L2.333,10L2.333,14ZM2.333,23L27.667,23L27.667,19L2.333,19L2.333,23Z" fill="#111827"/>
</svg>
