<svg width="26" height="24" viewBox="0 0 26 24" fill="none" xmlns="http://www.w3.org/2000/svg" xmlns:xlink="http://www.w3.org/1999/xlink">
<path d="M-0.8,2.2C-0.8,1.427 -0.084,0.8 0.8,0.8L4.245,0.8C5.027,0.8 5.694,1.295 5.823,1.97L7.006,8.18C7.121,8.786 6.771,9.388 6.143,9.662L3.666,10.746C5.452,14.63 8.995,17.729 13.433,19.292L14.672,17.125C14.986,16.575 15.673,16.269 16.366,16.37L23.463,17.405C24.235,17.518 24.8,18.102 24.8,18.786L24.8,21.8C24.8,22.573 24.084,23.2 23.2,23.2L20,23.2C8.512,23.2 -0.8,15.052 -0.8,5L-0.8,2.2Z" fill="#111827"/>
<path d="M22.731,2.61C23.356,3.157 23.356,4.043 22.731,4.59L20.663,6.4L22.731,8.21C23.356,8.757 23.356,9.643 22.731,10.19C22.107,10.737 21.093,10.737 20.469,10.19L18.4,8.38L16.331,10.19C15.707,10.737 14.693,10.737 14.069,10.19C13.444,9.643 13.444,8.757 14.069,8.21L16.137,6.4L14.069,4.59C13.444,4.043 13.444,3.157 14.069,2.61C14.693,2.063 15.707,2.063 16.331,2.61L18.4,4.42L20.469,2.61C21.093,2.063 22.107,2.063 22.731,2.61Z" fill="#111827"/>
</svg>
