<svg width="34" height="32" viewBox="0 0 34 32" fill="none" xmlns="http://www.w3.org/2000/svg" xmlns:xlink="http://www.w3.org/1999/xlink">
<path d="M31.25,20.5L29.25,20.5L29.25,20.5L31.25,20.5ZM31.25,26.5L33.25,26.5L33.25,26.5L31.25,26.5ZM28.083,29.5L28.083,27.5L28.083,27.5L28.083,29.5ZM24.373,15.5C23.269,15.5 22.373,16.395 22.373,17.5C22.373,18.605 23.269,19.5 24.373,19.5L24.373,15.5ZM28.083,17.5L28.083,15.5L28.083,15.5L28.083,17.5ZM22.518,6.529L21.143,7.981L21.143,7.981L22.518,6.529ZM26.997,10.772L28.372,9.32L28.372,9.32L26.997,10.772ZM14.041,7.563C13.239,8.322 13.205,9.588 13.965,10.39C14.724,11.192 15.99,11.226 16.792,10.467L14.041,7.563ZM18.04,6.529L16.665,5.078L16.665,5.078L18.04,6.529ZM26.997,15.015L28.372,16.467L28.372,16.467L26.997,15.015ZM9.083,21.5C7.979,21.5 7.083,22.395 7.083,23.5C7.083,24.605 7.979,25.5 9.083,25.5L9.083,21.5ZM9.099,25.5C10.204,25.5 11.099,24.605 11.099,23.5C11.099,22.395 10.204,21.5 9.099,21.5L9.099,25.5ZM12.186,26.291C11.384,27.05 11.35,28.316 12.11,29.118C12.869,29.92 14.135,29.954 14.937,29.195L12.186,26.291ZM5.917,4.5L12.25,4.5L12.25,0.5L5.917,0.5L5.917,4.5ZM13.417,5.5L13.417,23.5L17.417,23.5L17.417,5.5L13.417,5.5ZM4.75,23.5L4.75,5.5L0.75,5.5L0.75,23.5L4.75,23.5ZM9.083,27.5C6.587,27.5 4.75,25.609 4.75,23.5L0.75,23.5C0.75,28.019 4.584,31.5 9.083,31.5L9.083,27.5ZM13.417,23.5C13.417,25.609 11.58,27.5 9.083,27.5L9.083,31.5C13.582,31.5 17.417,28.019 17.417,23.5L13.417,23.5ZM12.25,4.5C12.998,4.5 13.417,5.048 13.417,5.5L17.417,5.5C17.417,2.638 15,0.5 12.25,0.5L12.25,4.5ZM5.917,0.5C3.166,0.5 0.75,2.638 0.75,5.5L4.75,5.5C4.75,5.048 5.169,4.5 5.917,4.5L5.917,0.5ZM29.25,20.5L29.25,26.5L33.25,26.5L33.25,20.5L29.25,20.5ZM28.083,27.5L9.083,27.5L9.083,31.5L28.083,31.5L28.083,27.5ZM24.373,19.5L28.083,19.5L28.083,15.5L24.373,15.5L24.373,19.5ZM29.25,26.5C29.25,26.952 28.831,27.5 28.083,27.5L28.083,31.5C30.834,31.5 33.25,29.362 33.25,26.5L29.25,26.5ZM33.25,20.5C33.25,17.638 30.834,15.5 28.083,15.5L28.083,19.5C28.831,19.5 29.25,20.048 29.25,20.5L33.25,20.5ZM21.143,7.981L25.621,12.224L28.372,9.32L23.894,5.078L21.143,7.981ZM16.792,10.467L19.416,7.981L16.665,5.078L14.041,7.563L16.792,10.467ZM25.621,12.224C26.025,12.607 26.025,13.18 25.621,13.563L28.372,16.467C30.442,14.506 30.442,11.281 28.372,9.32L25.621,12.224ZM23.894,5.078C21.886,3.175 18.673,3.175 16.665,5.078L19.416,7.981C19.881,7.541 20.678,7.541 21.143,7.981L23.894,5.078ZM9.083,25.5L9.099,25.5L9.099,21.5L9.083,21.5L9.083,25.5ZM25.621,13.563L12.186,26.291L14.937,29.195L28.372,16.467L25.621,13.563Z" fill="#111827"/>
</svg>
