<svg width="26" height="32" viewBox="0 0 26 32" fill="none" xmlns="http://www.w3.org/2000/svg" xmlns:xlink="http://www.w3.org/1999/xlink">
<path d="M13.939,2.939L12.525,4.354L12.525,4.354L13.939,2.939ZM22.061,11.061L23.475,9.646L23.475,9.646L22.061,11.061ZM7.5,14C6.395,14 5.5,14.895 5.5,16C5.5,17.105 6.395,18 7.5,18L7.5,14ZM16.5,18C17.605,18 18.5,17.105 18.5,16C18.5,14.895 17.605,14 16.5,14L16.5,18ZM7.5,20C6.395,20 5.5,20.895 5.5,22C5.5,23.105 6.395,24 7.5,24L7.5,20ZM16.5,24C17.605,24 18.5,23.105 18.5,22C18.5,20.895 17.605,20 16.5,20L16.5,24ZM19.5,27.5L4.5,27.5L4.5,31.5L19.5,31.5L19.5,27.5ZM3.5,26.5L3.5,5.5L-0.5,5.5L-0.5,26.5L3.5,26.5ZM4.5,4.5L12.879,4.5L12.879,0.5L4.5,0.5L4.5,4.5ZM20.5,12.121L20.5,26.5L24.5,26.5L24.5,12.121L20.5,12.121ZM12.525,4.354L20.646,12.475L23.475,9.646L15.354,1.525L12.525,4.354ZM24.5,12.121C24.5,11.193 24.131,10.303 23.475,9.646L20.646,12.475C20.553,12.381 20.5,12.254 20.5,12.121L24.5,12.121ZM12.879,4.5C12.746,4.5 12.619,4.447 12.525,4.354L15.354,1.525C14.697,0.869 13.807,0.5 12.879,0.5L12.879,4.5ZM4.5,27.5C3.948,27.5 3.5,27.052 3.5,26.5L-0.5,26.5C-0.5,29.261 1.739,31.5 4.5,31.5L4.5,27.5ZM19.5,31.5C22.261,31.5 24.5,29.261 24.5,26.5L20.5,26.5C20.5,27.052 20.052,27.5 19.5,27.5L19.5,31.5ZM3.5,5.5C3.5,4.948 3.948,4.5 4.5,4.5L4.5,0.5C1.739,0.5 -0.5,2.739 -0.5,5.5L3.5,5.5ZM7.5,18L16.5,18L16.5,14L7.5,14L7.5,18ZM7.5,24L16.5,24L16.5,20L7.5,20L7.5,24Z" fill="#111827"/>
</svg>
