<svg width="28" height="34" viewBox="0 0 28 34" fill="none" xmlns="http://www.w3.org/2000/svg" xmlns:xlink="http://www.w3.org/1999/xlink">
<path d="M27.667,15.583C27.667,14.479 26.771,13.583 25.667,13.583C24.562,13.583 23.667,14.479 23.667,15.583L27.667,15.583ZM4.333,15.583C4.333,14.479 3.438,13.583 2.333,13.583C1.229,13.583 0.333,14.479 0.333,15.583L4.333,15.583ZM7.333,29.167C6.229,29.167 5.333,30.062 5.333,31.167C5.333,32.271 6.229,33.167 7.333,33.167L7.333,29.167ZM20.667,33.167C21.771,33.167 22.667,32.271 22.667,31.167C22.667,30.062 21.771,29.167 20.667,29.167L20.667,33.167ZM17,7.083L17,15.583L21,15.583L21,7.083L17,7.083ZM11,15.583L11,7.083L7,7.083L7,15.583L11,15.583ZM14,17.833C12.026,17.833 11,16.534 11,15.583L7,15.583C7,19.328 10.451,21.833 14,21.833L14,17.833ZM17,15.583C17,16.534 15.974,17.833 14,17.833L14,21.833C17.549,21.833 21,19.328 21,15.583L17,15.583ZM14,4.833C15.974,4.833 17,6.133 17,7.083L21,7.083C21,3.339 17.549,0.833 14,0.833L14,4.833ZM14,0.833C10.451,0.833 7,3.339 7,7.083L11,7.083C11,6.133 12.026,4.833 14,4.833L14,0.833ZM23.667,15.583C23.667,19.663 19.656,23.5 14,23.5L14,27.5C21.231,27.5 27.667,22.457 27.667,15.583L23.667,15.583ZM14,23.5C8.344,23.5 4.333,19.663 4.333,15.583L0.333,15.583C0.333,22.457 6.769,27.5 14,27.5L14,23.5ZM12,25.5L12,31.167L16,31.167L16,25.5L12,25.5ZM7.333,33.167L14,33.167L14,29.167L7.333,29.167L7.333,33.167ZM14,33.167L20.667,33.167L20.667,29.167L14,29.167L14,33.167Z" fill="#111827"/>
</svg>
