<svg width="30" height="30" viewBox="0 0 30 30" fill="none" xmlns="http://www.w3.org/2000/svg" xmlns:xlink="http://www.w3.org/1999/xlink">
<path d="M5.143,27.182C4.875,28.253 5.527,29.339 6.598,29.607C7.67,29.875 8.756,29.223 9.024,28.152L5.143,27.182ZM15.357,2.818C15.625,1.747 14.973,0.661 13.902,0.393C12.83,0.125 11.744,0.777 11.476,1.848L15.357,2.818ZM14.643,27.182C14.375,28.253 15.027,29.339 16.098,29.607C17.17,29.875 18.256,29.223 18.524,28.152L14.643,27.182ZM24.857,2.818C25.125,1.747 24.473,0.661 23.402,0.393C22.33,0.125 21.244,0.777 20.976,1.848L24.857,2.818ZM5.5,8.25C4.395,8.25 3.5,9.145 3.5,10.25C3.5,11.355 4.395,12.25 5.5,12.25L5.5,8.25ZM27.667,12.25C28.771,12.25 29.667,11.355 29.667,10.25C29.667,9.145 28.771,8.25 27.667,8.25L27.667,12.25ZM2.333,17.75C1.229,17.75 0.333,18.645 0.333,19.75C0.333,20.855 1.229,21.75 2.333,21.75L2.333,17.75ZM24.5,21.75C25.605,21.75 26.5,20.855 26.5,19.75C26.5,18.645 25.605,17.75 24.5,17.75L24.5,21.75ZM9.024,28.152L15.357,2.818L11.476,1.848L5.143,27.182L9.024,28.152ZM18.524,28.152L24.857,2.818L20.976,1.848L14.643,27.182L18.524,28.152ZM5.5,12.25L27.667,12.25L27.667,8.25L5.5,8.25L5.5,12.25ZM2.333,21.75L24.5,21.75L24.5,17.75L2.333,17.75L2.333,21.75Z" fill="#111827"/>
</svg>
