<svg width="34" height="30" viewBox="0 0 34 30" fill="none" xmlns="http://www.w3.org/2000/svg" xmlns:xlink="http://www.w3.org/1999/xlink">
<path d="M26.333,22C26.333,20.895 25.438,20 24.333,20C23.229,20 22.333,20.895 22.333,22L26.333,22ZM7.667,13.5C8.771,13.5 9.667,12.605 9.667,11.5C9.667,10.395 8.771,9.5 7.667,9.5L7.667,13.5ZM12.667,7.5C13.771,7.5 14.667,6.605 14.667,5.5C14.667,4.395 13.771,3.5 12.667,3.5L12.667,7.5ZM26,3.5C24.895,3.5 24,4.395 24,5.5C24,6.605 24.895,7.5 26,7.5L26,3.5ZM25.671,12.987C26.492,12.248 26.559,10.983 25.82,10.162C25.081,9.341 23.816,9.274 22.995,10.013L25.671,12.987ZM19.333,16L17.995,17.487C18.756,18.171 19.911,18.171 20.671,17.487L19.333,16ZM15.671,10.013C14.85,9.274 13.586,9.341 12.847,10.162C12.108,10.983 12.174,12.248 12.995,12.987L15.671,10.013ZM21.333,2.5C21.333,1.395 20.438,0.5 19.333,0.5C18.229,0.5 17.333,1.395 17.333,2.5L21.333,2.5ZM21,26L4.333,26L4.333,30L21,30L21,26ZM3,25L3,14.5L-1,14.5L-1,25L3,25ZM4.333,26C3.394,26 3,25.359 3,25L-1,25C-1,27.954 1.591,30 4.333,30L4.333,26ZM22.333,25C22.333,25.359 21.94,26 21,26L21,30C23.742,30 26.333,27.954 26.333,25L22.333,25ZM4.333,9.5C1.591,9.5 -1,11.546 -1,14.5L3,14.5C3,14.141 3.394,13.5 4.333,13.5L4.333,9.5ZM26.333,25L26.333,22L22.333,22L22.333,25L26.333,25ZM4.333,13.5L7.667,13.5L7.667,9.5L4.333,9.5L4.333,13.5ZM29,8.5L29,19L33,19L33,8.5L29,8.5ZM27.667,20L11,20L11,24L27.667,24L27.667,20ZM9.667,19L9.667,8.5L5.667,8.5L5.667,19L9.667,19ZM11,20C10.06,20 9.667,19.359 9.667,19L5.667,19C5.667,21.954 8.258,24 11,24L11,20ZM29,19C29,19.359 28.606,20 27.667,20L27.667,24C30.409,24 33,21.954 33,19L29,19ZM27.667,7.5C28.606,7.5 29,8.141 29,8.5L33,8.5C33,5.546 30.409,3.5 27.667,3.5L27.667,7.5ZM11,3.5C8.258,3.5 5.667,5.546 5.667,8.5L9.667,8.5C9.667,8.141 10.06,7.5 11,7.5L11,3.5ZM11,7.5L12.667,7.5L12.667,3.5L11,3.5L11,7.5ZM27.667,3.5L26,3.5L26,7.5L27.667,7.5L27.667,3.5ZM22.995,10.013L17.995,14.513L20.671,17.487L25.671,12.987L22.995,10.013ZM20.671,14.513L15.671,10.013L12.995,12.987L17.995,17.487L20.671,14.513ZM21.333,16L21.333,2.5L17.333,2.5L17.333,16L21.333,16Z" fill="#111827"/>
</svg>
