<svg width="32" height="30" viewBox="0 0 32 30" fill="none" xmlns="http://www.w3.org/2000/svg" xmlns:xlink="http://www.w3.org/1999/xlink">
<path d="M13.417,7.5C14.521,7.5 15.417,6.605 15.417,5.5C15.417,4.395 14.521,3.5 13.417,3.5L13.417,7.5ZM28.083,17.5C28.083,16.395 27.188,15.5 26.083,15.5C24.979,15.5 24.083,16.395 24.083,17.5L28.083,17.5ZM23.844,3.379L25.22,4.831L25.22,4.831L23.844,3.379ZM28.323,7.621L26.947,6.169L26.947,6.169L28.323,7.621ZM10.25,16.257L8.875,14.805C8.476,15.183 8.25,15.708 8.25,16.257L10.25,16.257ZM10.25,20.5L8.25,20.5C8.25,21.605 9.145,22.5 10.25,22.5L10.25,20.5ZM14.728,20.5L14.728,22.5C15.24,22.5 15.732,22.304 16.104,21.952L14.728,20.5ZM22.917,26L5.5,26L5.5,30L22.917,30L22.917,26ZM4.333,25L4.333,8.5L0.333,8.5L0.333,25L4.333,25ZM5.5,7.5L13.417,7.5L13.417,3.5L5.5,3.5L5.5,7.5ZM24.083,17.5L24.083,25L28.083,25L28.083,17.5L24.083,17.5ZM5.5,26C4.752,26 4.333,25.452 4.333,25L0.333,25C0.333,27.862 2.75,30 5.5,30L5.5,26ZM22.917,30C25.667,30 28.083,27.862 28.083,25L24.083,25C24.083,25.452 23.664,26 22.917,26L22.917,30ZM4.333,8.5C4.333,8.048 4.752,7.5 5.5,7.5L5.5,3.5C2.75,3.5 0.333,5.638 0.333,8.5L4.333,8.5ZM25.22,4.831C25.685,4.39 26.482,4.39 26.947,4.831L29.698,1.927C27.69,0.024 24.477,0.024 22.469,1.927L25.22,4.831ZM26.947,4.831C27.351,5.213 27.351,5.787 26.947,6.169L29.698,9.073C31.767,7.113 31.767,3.887 29.698,1.927L26.947,4.831ZM22.469,1.927L8.875,14.805L11.625,17.709L25.22,4.831L22.469,1.927ZM8.25,16.257L8.25,20.5L12.25,20.5L12.25,16.257L8.25,16.257ZM26.947,6.169L13.353,19.048L16.104,21.952L29.698,9.073L26.947,6.169ZM14.728,18.5L10.25,18.5L10.25,22.5L14.728,22.5L14.728,18.5Z" fill="#111827"/>
</svg>
