<svg width="34" height="32" viewBox="0 0 34 32" fill="none" xmlns="http://www.w3.org/2000/svg" xmlns:xlink="http://www.w3.org/1999/xlink">
<path d="M12.25,28L13.625,29.452C13.896,29.196 14.089,28.87 14.184,28.51L12.25,28ZM10.667,29.5L9.291,28.048C8.697,28.611 8.506,29.48 8.809,30.24C9.112,31.001 9.848,31.5 10.667,31.5L10.667,29.5ZM23.333,29.5L23.333,31.5C24.152,31.5 24.888,31.001 25.191,30.24C25.494,29.48 25.303,28.611 24.709,28.048L23.333,29.5ZM21.75,28L19.816,28.51C19.911,28.87 20.104,29.196 20.375,29.452L21.75,28ZM15.371,24.01C15.653,22.942 15.016,21.848 13.948,21.566C12.88,21.284 11.786,21.922 11.504,22.99L15.371,24.01ZM22.496,22.99C22.214,21.922 21.12,21.284 20.052,21.566C18.984,21.848 18.347,22.942 18.629,24.01L22.496,22.99ZM2.75,15.5C1.645,15.5 0.75,16.395 0.75,17.5C0.75,18.605 1.645,19.5 2.75,19.5L2.75,15.5ZM31.25,19.5C32.355,19.5 33.25,18.605 33.25,17.5C33.25,16.395 32.355,15.5 31.25,15.5L31.25,19.5ZM5.917,4.5L28.083,4.5L28.083,0.5L5.917,0.5L5.917,4.5ZM29.25,5.5L29.25,20.5L33.25,20.5L33.25,5.5L29.25,5.5ZM28.083,21.5L5.917,21.5L5.917,25.5L28.083,25.5L28.083,21.5ZM4.75,20.5L4.75,5.5L0.75,5.5L0.75,20.5L4.75,20.5ZM5.917,21.5C5.169,21.5 4.75,20.952 4.75,20.5L0.75,20.5C0.75,23.362 3.166,25.5 5.917,25.5L5.917,21.5ZM29.25,20.5C29.25,20.952 28.831,21.5 28.083,21.5L28.083,25.5C30.834,25.5 33.25,23.362 33.25,20.5L29.25,20.5ZM28.083,4.5C28.831,4.5 29.25,5.048 29.25,5.5L33.25,5.5C33.25,2.638 30.834,0.5 28.083,0.5L28.083,4.5ZM5.917,0.5C3.166,0.5 0.75,2.638 0.75,5.5L4.75,5.5C4.75,5.048 5.169,4.5 5.917,4.5L5.917,0.5ZM10.875,26.548L9.291,28.048L12.042,30.952L13.625,29.452L10.875,26.548ZM10.667,31.5L23.333,31.5L23.333,27.5L10.667,27.5L10.667,31.5ZM24.709,28.048L23.125,26.548L20.375,29.452L21.958,30.952L24.709,28.048ZM11.504,22.99L10.316,27.49L14.184,28.51L15.371,24.01L11.504,22.99ZM23.684,27.49L22.496,22.99L18.629,24.01L19.816,28.51L23.684,27.49ZM2.75,19.5L31.25,19.5L31.25,15.5L2.75,15.5L2.75,19.5Z" fill="#111827"/>
</svg>
