<svg width="26" height="24" viewBox="0 0 26 24" fill="none" xmlns="http://www.w3.org/2000/svg" xmlns:xlink="http://www.w3.org/1999/xlink">
<path d="M16.137,2.879C17.387,1.707 19.413,1.707 20.663,2.879C21.912,4.05 21.912,5.95 20.663,7.121L15.863,11.621C14.613,12.793 12.587,12.793 11.337,11.621C10.712,11.036 9.699,11.036 9.074,11.621C8.45,12.207 8.45,13.157 9.074,13.743C11.574,16.086 15.626,16.086 18.125,13.743L22.925,9.243C25.425,6.899 25.425,3.101 22.925,0.757C20.426,-1.586 16.374,-1.586 13.874,0.757L11.474,3.007C10.85,3.593 10.85,4.543 11.474,5.129C12.099,5.714 13.112,5.714 13.737,5.129L16.137,2.879Z" fill="#111827"/>
<path d="M8.137,10.379C9.387,9.207 11.413,9.207 12.663,10.379C13.288,10.964 14.301,10.964 14.925,10.379C15.55,9.793 15.55,8.843 14.925,8.257C12.426,5.914 8.374,5.914 5.874,8.257L1.074,12.757C-1.425,15.101 -1.425,18.899 1.074,21.243C3.574,23.586 7.626,23.586 10.125,21.243L12.525,18.993C13.15,18.407 13.15,17.457 12.525,16.871C11.901,16.286 10.888,16.286 10.263,16.871L7.863,19.121C6.613,20.293 4.587,20.293 3.337,19.121C2.088,17.95 2.088,16.05 3.337,14.879L8.137,10.379Z" fill="#111827"/>
</svg>
