<svg width="32" height="32" viewBox="0 0 32 32" fill="none" xmlns="http://www.w3.org/2000/svg" xmlns:xlink="http://www.w3.org/1999/xlink">
<path d="M16,16L18,16C18,14.895 17.105,14 16,14L16,16ZM16,22L14,22C14,23.105 14.895,24 16,24L16,22ZM17.5,24C18.605,24 19.5,23.105 19.5,22C19.5,20.895 18.605,20 17.5,20L17.5,24ZM14.5,14C13.395,14 12.5,14.895 12.5,16C12.5,17.105 13.395,18 14.5,18L14.5,14ZM16,8C14.895,8 14,8.895 14,10C14,11.105 14.895,12 16,12L16,8ZM16.015,12C17.12,12 18.015,11.105 18.015,10C18.015,8.895 17.12,8 16.015,8L16.015,12ZM14,16L14,22L18,22L18,16L14,16ZM16,24L17.5,24L17.5,20L16,20L16,24ZM16,14L14.5,14L14.5,18L16,18L16,14ZM27.5,16C27.5,22.351 22.351,27.5 16,27.5L16,31.5C24.56,31.5 31.5,24.56 31.5,16L27.5,16ZM16,27.5C9.649,27.5 4.5,22.351 4.5,16L0.5,16C0.5,24.56 7.44,31.5 16,31.5L16,27.5ZM4.5,16C4.5,9.649 9.649,4.5 16,4.5L16,0.5C7.44,0.5 0.5,7.44 0.5,16L4.5,16ZM16,4.5C22.351,4.5 27.5,9.649 27.5,16L31.5,16C31.5,7.44 24.56,0.5 16,0.5L16,4.5ZM16,12L16.015,12L16.015,8L16,8L16,12Z" fill="#111827"/>
</svg>
