<svg width="30" height="20" viewBox="0 0 30 20" fill="none" xmlns="http://www.w3.org/2000/svg" xmlns:xlink="http://www.w3.org/1999/xlink">
<path d="M18.333,17.2L19.452,18.858L19.452,18.858L18.333,17.2ZM15.667,16L17.667,16L17.667,16L15.667,16ZM27.222,8.8L26.103,10.458L27.222,8.8ZM27.222,11.2L26.103,9.542L27.222,11.2ZM18.333,2.8L19.452,1.142L19.452,1.142L18.333,2.8ZM15.667,4L13.667,4L13.667,4L15.667,4ZM5,17.2L6.119,18.858L6.119,18.858L5,17.2ZM2.333,16L4.333,16L2.333,16ZM13.889,8.8L15.008,7.142L13.889,8.8ZM13.889,11.2L12.77,9.542L12.77,9.542L13.889,11.2ZM5,2.8L3.881,4.458L3.881,4.458L5,2.8ZM2.333,4L0.333,4L2.333,4ZM3.881,4.458L12.77,10.458L15.008,7.142L6.119,1.142L3.881,4.458ZM12.77,9.542L3.881,15.542L6.119,18.858L15.008,12.858L12.77,9.542ZM0.333,4L0.333,16L4.333,16L4.333,4L0.333,4ZM17.214,4.458L26.103,10.458L28.341,7.142L19.452,1.142L17.214,4.458ZM26.103,9.542L17.214,15.542L19.452,18.858L28.341,12.858L26.103,9.542ZM13.667,4L13.667,16L17.667,16L17.667,4L13.667,4ZM17.214,15.542C17.296,15.487 17.372,15.501 17.409,15.518C17.434,15.529 17.493,15.562 17.553,15.646C17.62,15.74 17.667,15.869 17.667,16L13.667,16C13.667,17.555 14.668,18.671 15.767,19.165C16.863,19.658 18.272,19.655 19.452,18.858L17.214,15.542ZM26.103,10.458C26.011,10.395 25.889,10.232 25.889,10C25.889,9.768 26.011,9.605 26.103,9.542L28.341,12.858C30.405,11.465 30.405,8.535 28.341,7.142L26.103,10.458ZM19.452,1.142C18.272,0.345 16.863,0.342 15.767,0.835C14.668,1.329 13.667,2.445 13.667,4L17.667,4C17.667,4.131 17.62,4.26 17.553,4.354C17.493,4.438 17.434,4.471 17.409,4.482C17.372,4.499 17.296,4.513 17.214,4.458L19.452,1.142ZM3.881,15.542C3.963,15.487 4.039,15.501 4.075,15.518C4.101,15.529 4.159,15.562 4.219,15.646C4.287,15.74 4.333,15.869 4.333,16L0.333,16C0.333,17.555 1.335,18.671 2.434,19.165C3.529,19.658 4.938,19.655 6.119,18.858L3.881,15.542ZM12.77,10.458C12.678,10.395 12.556,10.232 12.556,10C12.556,9.768 12.678,9.605 12.77,9.542L15.008,12.858C17.071,11.465 17.071,8.535 15.008,7.142L12.77,10.458ZM6.119,1.142C4.938,0.345 3.529,0.342 2.434,0.835C1.335,1.329 0.333,2.445 0.333,4L4.333,4C4.333,4.131 4.287,4.26 4.219,4.354C4.159,4.438 4.101,4.471 4.075,4.482C4.039,4.499 3.963,4.513 3.881,4.458L6.119,1.142Z" fill="#111827"/>
</svg>
