<svg width="28" height="24" viewBox="0 0 28 24" fill="none" xmlns="http://www.w3.org/2000/svg" xmlns:xlink="http://www.w3.org/1999/xlink">
<path d="M2.8,0.8C0.922,0.8 -0.6,2.233 -0.6,4L-0.6,20C-0.6,21.767 0.922,23.2 2.8,23.2L23.2,23.2C25.078,23.2 26.6,21.767 26.6,20L26.6,4C26.6,2.233 25.078,0.8 23.2,0.8L2.8,0.8ZM7.9,4L18.1,4L18.1,10.4L7.9,10.4L7.9,4ZM21.5,16.8L21.5,20L23.2,20L23.2,16.8L21.5,16.8ZM18.1,13.6L7.9,13.6L7.9,20L18.1,20L18.1,13.6ZM21.5,13.6L23.2,13.6L23.2,10.4L21.5,10.4L21.5,13.6ZM23.2,7.2L23.2,4L21.5,4L21.5,7.2L23.2,7.2ZM4.5,4L4.5,7.2L2.8,7.2L2.8,4L4.5,4ZM4.5,10.4L2.8,10.4L2.8,13.6L4.5,13.6L4.5,10.4ZM2.8,16.8L4.5,16.8L4.5,20L2.8,20L2.8,16.8Z" clip-rule="evenodd" fill-rule="evenodd" fill="#111827"/>
</svg>
