<svg width="26" height="18" viewBox="0 0 26 18" fill="none" xmlns="http://www.w3.org/2000/svg" xmlns:xlink="http://www.w3.org/1999/xlink">
<path d="M2.4,0C0.633,0 -0.8,1.343 -0.8,3L-0.8,15C-0.8,16.657 0.633,18 2.4,18L21.6,18C23.367,18 24.8,16.657 24.8,15L24.8,6C24.8,4.343 23.367,3 21.6,3L13.6,3L10.4,0L2.4,0ZM13.6,7.5C13.6,6.672 12.884,6 12,6C11.116,6 10.4,6.672 10.4,7.5L10.4,9L8.8,9C7.916,9 7.2,9.672 7.2,10.5C7.2,11.328 7.916,12 8.8,12L10.4,12L10.4,13.5C10.4,14.328 11.116,15 12,15C12.884,15 13.6,14.328 13.6,13.5L13.6,12L15.2,12C16.084,12 16.8,11.328 16.8,10.5C16.8,9.672 16.084,9 15.2,9L13.6,9L13.6,7.5Z" clip-rule="evenodd" fill-rule="evenodd" fill="#111827"/>
</svg>
