<svg width="26" height="24" viewBox="0 0 26 24" fill="none" xmlns="http://www.w3.org/2000/svg" xmlns:xlink="http://www.w3.org/1999/xlink">
<path d="M24.8,12C24.8,18.186 19.069,23.2 12,23.2C4.931,23.2 -0.8,18.186 -0.8,12C-0.8,5.814 4.931,0.8 12,0.8C19.069,0.8 24.8,5.814 24.8,12ZM12,7.8C11.41,7.8 10.892,8.079 10.613,8.501C10.171,9.17 9.192,9.399 8.427,9.012C7.662,8.625 7.401,7.768 7.843,7.099C8.671,5.847 10.221,5 12,5C14.651,5 16.8,6.88 16.8,9.2C16.8,11.029 15.464,12.584 13.6,13.161L13.6,13.4C13.6,14.173 12.884,14.8 12,14.8C11.116,14.8 10.4,14.173 10.4,13.4L10.4,12C10.4,11.227 11.116,10.6 12,10.6C12.884,10.6 13.6,9.973 13.6,9.2C13.6,8.427 12.884,7.8 12,7.8ZM12,19C12.884,19 13.6,18.373 13.6,17.6C13.6,16.827 12.884,16.2 12,16.2C11.116,16.2 10.4,16.827 10.4,17.6C10.4,18.373 11.116,19 12,19Z" clip-rule="evenodd" fill-rule="evenodd" fill="#111827"/>
</svg>
