<svg width="28" height="28" viewBox="0 0 28 28" fill="none" xmlns="http://www.w3.org/2000/svg" xmlns:xlink="http://www.w3.org/1999/xlink">
<path d="M4,2C4,0.895 3.105,0 2,0C0.895,0 0,0.895 0,2L4,2ZM2,9.5L0,9.5C0,10.605 0.895,11.5 2,11.5L2,9.5ZM23.923,12.747C24.059,13.844 25.059,14.621 26.155,14.485C27.251,14.348 28.028,13.349 27.892,12.253L23.923,12.747ZM9.5,11.5C10.605,11.5 11.5,10.605 11.5,9.5C11.5,8.395 10.605,7.5 9.5,7.5L9.5,11.5ZM24,26C24,27.105 24.895,28 26,28C27.105,28 28,27.105 28,26L24,26ZM26,18.5L28,18.5C28,17.395 27.105,16.5 26,16.5L26,18.5ZM18.5,16.5C17.395,16.5 16.5,17.395 16.5,18.5C16.5,19.605 17.395,20.5 18.5,20.5L18.5,16.5ZM4.077,15.253C3.941,14.156 2.941,13.379 1.845,13.515C0.749,13.652 -0.028,14.651 0.108,15.747L4.077,15.253ZM0,2L0,9.5L4,9.5L4,2L0,2ZM14,4C19.098,4 23.308,7.817 23.923,12.747L27.892,12.253C27.03,5.344 21.141,0 14,0L14,4ZM4.726,10.25C6.211,6.582 9.806,4 14,4L14,0C8.121,0 3.094,3.623 1.018,8.75L4.726,10.25ZM2,11.5L2.872,11.5L2.872,7.5L2,7.5L2,11.5ZM2.872,11.5L9.5,11.5L9.5,7.5L2.872,7.5L2.872,11.5ZM28,26L28,18.5L24,18.5L24,26L28,26ZM23.274,17.75C21.789,21.418 18.194,24 14,24L14,28C19.879,28 24.906,24.377 26.982,19.25L23.274,17.75ZM26,16.5L25.128,16.5L25.128,20.5L26,20.5L26,16.5ZM25.128,16.5L18.5,16.5L18.5,20.5L25.128,20.5L25.128,16.5ZM14,24C8.902,24 4.692,20.183 4.077,15.253L0.108,15.747C0.97,22.656 6.859,28 14,28L14,24Z" fill="#111827"/>
</svg>
