<svg width="28" height="34" viewBox="0 0 28 34" fill="none" xmlns="http://www.w3.org/2000/svg" xmlns:xlink="http://www.w3.org/1999/xlink">
<path d="M10.378,18.717C9.577,17.956 8.311,17.988 7.55,18.789C6.789,19.59 6.822,20.856 7.623,21.617L10.378,18.717ZM12.333,23.333L10.956,24.783C11.728,25.517 12.939,25.517 13.711,24.783L12.333,23.333ZM20.378,18.45C21.178,17.689 21.211,16.423 20.45,15.623C19.689,14.822 18.423,14.789 17.623,15.55L20.378,18.45ZM23.667,9.083L23.667,28.083L27.667,28.083L27.667,9.083L23.667,9.083ZM22.333,29.25L5.667,29.25L5.667,33.25L22.333,33.25L22.333,29.25ZM4.333,28.083L4.333,9.083L0.333,9.083L0.333,28.083L4.333,28.083ZM5.667,7.917L9,7.917L9,3.917L5.667,3.917L5.667,7.917ZM19,7.917L22.333,7.917L22.333,3.917L19,3.917L19,7.917ZM5.667,29.25C4.832,29.25 4.333,28.632 4.333,28.083L0.333,28.083C0.333,31.032 2.819,33.25 5.667,33.25L5.667,29.25ZM23.667,28.083C23.667,28.632 23.168,29.25 22.333,29.25L22.333,33.25C25.181,33.25 27.667,31.032 27.667,28.083L23.667,28.083ZM27.667,9.083C27.667,6.134 25.181,3.917 22.333,3.917L22.333,7.917C23.168,7.917 23.667,8.534 23.667,9.083L27.667,9.083ZM4.333,9.083C4.333,8.534 4.832,7.917 5.667,7.917L5.667,3.917C2.819,3.917 0.333,6.134 0.333,9.083L4.333,9.083ZM7.623,21.617L10.956,24.783L13.711,21.883L10.378,18.717L7.623,21.617ZM13.711,24.783L20.378,18.45L17.623,15.55L10.956,21.883L13.711,24.783ZM12.333,4.75L15.667,4.75L15.667,0.75L12.333,0.75L12.333,4.75ZM15.667,7.083L12.333,7.083L12.333,11.083L15.667,11.083L15.667,7.083ZM12.333,7.083C11.499,7.083 11,6.466 11,5.917L7,5.917C7,8.866 9.486,11.083 12.333,11.083L12.333,7.083ZM17,5.917C17,6.466 16.501,7.083 15.667,7.083L15.667,11.083C18.514,11.083 21,8.866 21,5.917L17,5.917ZM15.667,4.75C16.501,4.75 17,5.368 17,5.917L21,5.917C21,2.968 18.514,0.75 15.667,0.75L15.667,4.75ZM12.333,0.75C9.486,0.75 7,2.968 7,5.917L11,5.917C11,5.368 11.499,4.75 12.333,4.75L12.333,0.75Z" fill="#111827"/>
</svg>
