<svg width="30" height="28" viewBox="0 0 30 28" fill="none" xmlns="http://www.w3.org/2000/svg" xmlns:xlink="http://www.w3.org/1999/xlink">
<path d="M7.547,15.939L6.172,17.391L6.172,17.391L7.547,15.939ZM11.37,19.561L9.994,21.013L9.994,21.013L11.37,19.561ZM22.453,15.939L23.828,17.391L23.828,17.391L22.453,15.939ZM5.5,4L24.5,4L24.5,0L5.5,0L5.5,4ZM24.5,24L5.5,24L5.5,28L24.5,28L24.5,24ZM5.5,24C4.752,24 4.333,23.452 4.333,23L0.333,23C0.333,25.862 2.75,28 5.5,28L5.5,24ZM25.667,23C25.667,23.452 25.248,24 24.5,24L24.5,28C27.25,28 29.667,25.862 29.667,23L25.667,23ZM24.5,4C25.248,4 25.667,4.548 25.667,5L29.667,5C29.667,2.138 27.25,0 24.5,0L24.5,4ZM5.5,0C2.75,0 0.333,2.138 0.333,5L4.333,5C4.333,4.548 4.752,4 5.5,4L5.5,0ZM6.172,17.391L9.994,21.013L12.745,18.109L8.923,14.487L6.172,17.391ZM12.489,22L17.511,22L17.511,18L12.489,18L12.489,22ZM20.006,21.013L23.828,17.391L21.077,14.487L17.255,18.109L20.006,21.013ZM23.828,17.391C23.743,17.472 23.649,17.5 23.573,17.5L23.573,13.5C22.656,13.5 21.757,13.844 21.077,14.487L23.828,17.391ZM17.511,22C18.427,22 19.327,21.656 20.006,21.013L17.255,18.109C17.34,18.028 17.434,18 17.511,18L17.511,22ZM9.994,21.013C10.673,21.656 11.573,22 12.489,22L12.489,18C12.566,18 12.66,18.028 12.745,18.109L9.994,21.013ZM6.427,17.5C6.351,17.5 6.257,17.472 6.172,17.391L8.923,14.487C8.243,13.844 7.344,13.5 6.427,13.5L6.427,17.5ZM25.667,5L25.667,15.5L29.667,15.5L29.667,5L25.667,5ZM25.667,15.5L25.667,23L29.667,23L29.667,15.5L25.667,15.5ZM23.573,17.5L27.667,17.5L27.667,13.5L23.573,13.5L23.573,17.5ZM4.333,23L4.333,15.5L0.333,15.5L0.333,23L4.333,23ZM4.333,15.5L4.333,5L0.333,5L0.333,15.5L4.333,15.5ZM6.427,13.5L2.333,13.5L2.333,17.5L6.427,17.5L6.427,13.5Z" fill="#111827"/>
</svg>
