<svg width="34" height="16" viewBox="0 0 34 16" fill="none" xmlns="http://www.w3.org/2000/svg" xmlns:xlink="http://www.w3.org/1999/xlink">
<path d="M7.708,15.452C8.51,16.212 9.776,16.177 10.535,15.375C11.295,14.574 11.261,13.308 10.459,12.548L7.708,15.452ZM2.75,8L1.375,6.548C0.976,6.926 0.75,7.451 0.75,8C0.75,8.549 0.976,9.074 1.375,9.452L2.75,8ZM10.459,3.452C11.261,2.692 11.295,1.426 10.535,0.625C9.776,-0.177 8.51,-0.212 7.708,0.548L10.459,3.452ZM31.25,10C32.355,10 33.25,9.105 33.25,8C33.25,6.895 32.355,6 31.25,6L31.25,10ZM10.459,12.548L4.125,6.548L1.375,9.452L7.708,15.452L10.459,12.548ZM4.125,9.452L10.459,3.452L7.708,0.548L1.375,6.548L4.125,9.452ZM2.75,10L31.25,10L31.25,6L2.75,6L2.75,10Z" fill="#111827"/>
</svg>
