<svg width="32" height="32" viewBox="0 0 32 32" fill="none" xmlns="http://www.w3.org/2000/svg" xmlns:xlink="http://www.w3.org/1999/xlink">
<path d="M10.257,13.257L11.672,14.672L11.672,14.672L10.257,13.257ZM17.328,14.672C18.109,15.453 19.376,15.453 20.157,14.672C20.938,13.891 20.938,12.624 20.157,11.843L17.328,14.672ZM12.743,27.743L11.328,26.328L11.328,26.328L12.743,27.743ZM4.257,27.743L2.843,29.157L2.843,29.157L4.257,27.743ZM4.257,19.257L5.672,20.672L4.257,19.257ZM15.809,27.505C16.59,26.723 16.59,25.457 15.809,24.676C15.028,23.895 13.762,23.895 12.981,24.676L15.809,27.505ZM19.257,4.257L17.843,2.843L17.843,2.843L19.257,4.257ZM27.743,4.257L26.328,5.672L26.328,5.672L27.743,4.257ZM27.743,12.743L26.328,11.328L26.328,11.328L27.743,12.743ZM21.743,18.743L20.328,17.328L20.328,17.328L21.743,18.743ZM14.672,17.328C13.891,16.547 12.624,16.547 11.843,17.328C11.062,18.109 11.062,19.376 11.843,20.157L14.672,17.328ZM16.194,4.493C15.413,5.274 15.413,6.54 16.194,7.321C16.975,8.102 18.241,8.102 19.022,7.321L16.194,4.493ZM11.672,14.672C13.234,13.109 15.766,13.109 17.328,14.672L20.157,11.843C17.033,8.719 11.967,8.719 8.843,11.843L11.672,14.672ZM11.328,26.328C9.766,27.891 7.234,27.891 5.672,26.328L2.843,29.157C5.967,32.281 11.033,32.281 14.157,29.157L11.328,26.328ZM5.672,26.328C4.109,24.766 4.109,22.234 5.672,20.672L2.843,17.843C-0.281,20.967 -0.281,26.033 2.843,29.157L5.672,26.328ZM5.672,20.672L11.672,14.672L8.843,11.843L2.843,17.843L5.672,20.672ZM12.981,24.676L11.328,26.328L14.157,29.157L15.809,27.505L12.981,24.676ZM20.672,5.672C22.234,4.109 24.766,4.109 26.328,5.672L29.157,2.843C26.033,-0.281 20.967,-0.281 17.843,2.843L20.672,5.672ZM26.328,5.672C27.891,7.234 27.891,9.766 26.328,11.328L29.157,14.157C32.281,11.033 32.281,5.967 29.157,2.843L26.328,5.672ZM20.328,17.328C18.766,18.891 16.234,18.891 14.672,17.328L11.843,20.157C14.967,23.281 20.033,23.281 23.157,20.157L20.328,17.328ZM26.328,11.328L20.328,17.328L23.157,20.157L29.157,14.157L26.328,11.328ZM19.022,7.321L20.672,5.672L17.843,2.843L16.194,4.493L19.022,7.321Z" fill="#111827"/>
</svg>
