<svg width="34" height="30" viewBox="0 0 34 30" fill="none" xmlns="http://www.w3.org/2000/svg" xmlns:xlink="http://www.w3.org/1999/xlink">
<path d="M12.5,16.343C11.677,17.079 11.606,18.344 12.343,19.167C13.079,19.99 14.344,20.06 15.167,19.324L12.5,16.343ZM21.5,13.657C22.323,12.921 22.394,11.656 21.657,10.833C20.921,10.01 19.656,9.94 18.833,10.676L21.5,13.657ZM15.167,10.676C14.344,9.94 13.079,10.01 12.343,10.833C11.606,11.656 11.677,12.921 12.5,13.657L15.167,10.676ZM18.833,19.324C19.656,20.06 20.921,19.99 21.657,19.167C22.394,18.344 22.323,17.079 21.5,16.343L18.833,19.324ZM29.25,15C29.25,20.734 23.98,25.75 17,25.75L17,29.75C25.76,29.75 33.25,23.35 33.25,15L29.25,15ZM17,25.75C10.02,25.75 4.75,20.734 4.75,15L0.75,15C0.75,23.35 8.24,29.75 17,29.75L17,25.75ZM4.75,15C4.75,9.266 10.02,4.25 17,4.25L17,0.25C8.24,0.25 0.75,6.65 0.75,15L4.75,15ZM17,4.25C23.98,4.25 29.25,9.266 29.25,15L33.25,15C33.25,6.65 25.76,0.25 17,0.25L17,4.25ZM15.167,19.324L18.334,16.49L15.666,13.51L12.5,16.343L15.167,19.324ZM18.334,16.49L21.5,13.657L18.833,10.676L15.666,13.51L18.334,16.49ZM12.5,13.657L15.666,16.49L18.334,13.51L15.167,10.676L12.5,13.657ZM15.666,16.49L18.833,19.324L21.5,16.343L18.334,13.51L15.666,16.49Z" fill="#111827"/>
</svg>
