<svg width="44" height="32" viewBox="0 0 44 32" fill="none" xmlns="http://www.w3.org/2000/svg" xmlns:xlink="http://www.w3.org/1999/xlink">
<path d="M28,0C25.878,0 23.843,0.843 22.343,2.343C20.843,3.843 20,5.878 20,8C20,10.122 20.843,12.157 22.343,13.657C23.843,15.157 25.878,16 28,16C30.122,16 32.157,15.157 33.657,13.657C35.157,12.157 36,10.122 36,8C36,5.878 35.157,3.843 33.657,2.343C32.157,0.843 30.122,0 28,0ZM28,3.8C28.552,3.8 29.098,3.909 29.607,4.12C30.117,4.331 30.58,4.64 30.97,5.03C31.36,5.42 31.669,5.883 31.88,6.393C32.091,6.902 32.2,7.448 32.2,8C32.2,8.552 32.091,9.098 31.88,9.607C31.669,10.117 31.36,10.58 30.97,10.97C30.58,11.36 30.117,11.669 29.607,11.88C29.098,12.091 28.552,12.2 28,12.2C27.448,12.2 26.902,12.091 26.393,11.88C25.883,11.669 25.42,11.36 25.03,10.97C24.64,10.58 24.331,10.117 24.12,9.607C23.909,9.098 23.8,8.552 23.8,8C23.8,6.886 24.242,5.818 25.03,5.03C25.818,4.242 26.886,3.8 28,3.8ZM6,6L6,12L0,12L0,16L6,16L6,22L10,22L10,16L16,16L16,12L10,12L10,6L6,6ZM28,18C22.66,18 12,20.66 12,26L12,32L44,32L44,26C44,20.66 33.34,18 28,18ZM28,21.8C33.94,21.8 40.2,24.72 40.2,26L40.2,28.2L15.8,28.2L15.8,26C15.8,24.72 22,21.8 28,21.8Z" fill="#000000"/>
</svg>
